<?xml version="1.0" encoding="utf-8" standalone="no"?>
<!DOCTYPE svg PUBLIC "-//W3C//DTD SVG 1.1//EN"
  "http://www.w3.org/Graphics/SVG/1.1/DTD/svg11.dtd">
<svg xmlns:xlink="http://www.w3.org/1999/xlink" width="460.8pt" height="345.6pt" viewBox="0 0 460.8 345.6" xmlns="http://www.w3.org/2000/svg" version="1.1">
 <metadata>
  <rdf:RDF xmlns:dc="http://purl.org/dc/elements/1.1/" xmlns:cc="http://creativecommons.org/ns#" xmlns:rdf="http://www.w3.org/1999/02/22-rdf-syntax-ns#">
   <cc:Work>
    <dc:type rdf:resource="http://purl.org/dc/dcmitype/StillImage"/>
    <dc:date>2023-12-07T17:12:34.571254</dc:date>
    <dc:format>image/svg+xml</dc:format>
    <dc:creator>
     <cc:Agent>
      <dc:title>Matplotlib v3.8.0, https://matplotlib.org/</dc:title>
     </cc:Agent>
    </dc:creator>
   </cc:Work>
  </rdf:RDF>
 </metadata>
 <defs>
  <style type="text/css">*{stroke-linejoin: round; stroke-linecap: butt}</style>
 </defs>
 <g id="figure_1">
  <g id="patch_1">
   <path d="M 0 345.6 
L 460.8 345.6 
L 460.8 0 
L 0 0 
z
" style="fill: #ffffff"/>
  </g>
  <g id="patch_2">
   <path d="M 103.104 307.584 
L 369.216 307.584 
L 369.216 41.472 
L 103.104 41.472 
z
" style="fill: #ffffff"/>
  </g>
  <g id="pane3d_1">
   <g id="patch_3">
    <path d="M 213.396857 168.012181 
L 352.877662 210.565507 
L 357.952975 100.561989 
L 212.274522 61.805612 
" style="fill: #f2f2f2; opacity: 0.5; stroke: #f2f2f2; stroke-linejoin: miter"/>
   </g>
  </g>
  <g id="pane3d_2">
   <g id="patch_4">
    <path d="M 213.396857 168.012181 
L 122.729177 240.60526 
L 117.288951 128.023923 
L 212.274522 61.805612 
" style="fill: #e6e6e6; opacity: 0.5; stroke: #e6e6e6; stroke-linejoin: miter"/>
   </g>
  </g>
  <g id="pane3d_3">
   <g id="patch_5">
    <path d="M 213.396857 168.012181 
L 122.729177 240.60526 
L 270.038432 291.179583 
L 352.877662 210.565507 
" style="fill: #ececec; opacity: 0.5; stroke: #ececec; stroke-linejoin: miter"/>
   </g>
  </g>
  <g id="grid3d_1">
   <g id="Line3DCollection_1">
    <path d="M 348.026887 215.285985 
L 208.065033 172.281105 
L 206.70842 65.685969 
" style="fill: none; stroke: #b0b0b0; stroke-width: 0.8"/>
    <path d="M 330.543132 232.300106 
L 188.870877 187.648907 
L 186.650612 79.669084 
" style="fill: none; stroke: #b0b0b0; stroke-width: 0.8"/>
    <path d="M 312.365832 249.989143 
L 168.954164 203.595224 
L 165.804142 94.202007 
" style="fill: none; stroke: #b0b0b0; stroke-width: 0.8"/>
    <path d="M 293.452884 268.394069 
L 148.27331 220.153349 
L 144.121563 109.317817 
" style="fill: none; stroke: #b0b0b0; stroke-width: 0.8"/>
    <path d="M 273.758707 287.559239 
L 126.78348 237.359182 
L 121.551542 125.052298 
" style="fill: none; stroke: #b0b0b0; stroke-width: 0.8"/>
   </g>
  </g>
  <g id="grid3d_2">
   <g id="Line3DCollection_2">
    <path d="M 221.100931 64.153795 
L 221.865178 170.595728 
L 131.634887 243.662775 
" style="fill: none; stroke: #b0b0b0; stroke-width: 0.8"/>
    <path d="M 253.43925 72.757099 
L 252.872305 180.055498 
L 164.285211 254.872308 
" style="fill: none; stroke: #b0b0b0; stroke-width: 0.8"/>
    <path d="M 286.555683 81.567414 
L 284.594246 189.733347 
L 197.756145 266.363574 
" style="fill: none; stroke: #b0b0b0; stroke-width: 0.8"/>
    <path d="M 320.478657 90.592301 
L 317.056007 199.636902 
L 232.07902 278.147329 
" style="fill: none; stroke: #b0b0b0; stroke-width: 0.8"/>
   </g>
  </g>
  <g id="grid3d_3">
   <g id="Line3DCollection_3">
    <path d="M 122.238417 230.449356 
L 213.295266 158.398675 
L 353.33615 200.628143 
" style="fill: none; stroke: #b0b0b0; stroke-width: 0.8"/>
    <path d="M 121.494745 215.059619 
L 213.141452 143.843242 
L 354.030673 185.574869 
" style="fill: none; stroke: #b0b0b0; stroke-width: 0.8"/>
    <path d="M 120.7416 199.473863 
L 212.985839 129.1176 
L 354.733743 170.336365 
" style="fill: none; stroke: #b0b0b0; stroke-width: 0.8"/>
    <path d="M 119.978801 183.688321 
L 212.828396 114.218748 
L 355.445518 154.909192 
" style="fill: none; stroke: #b0b0b0; stroke-width: 0.8"/>
    <path d="M 119.206161 167.699124 
L 212.66909 99.14361 
L 356.16616 139.289824 
" style="fill: none; stroke: #b0b0b0; stroke-width: 0.8"/>
    <path d="M 118.423489 151.502308 
L 212.507888 83.889041 
L 356.895837 123.474647 
" style="fill: none; stroke: #b0b0b0; stroke-width: 0.8"/>
    <path d="M 117.630586 135.0938 
L 212.344755 68.451815 
L 357.634718 107.459955 
" style="fill: none; stroke: #b0b0b0; stroke-width: 0.8"/>
   </g>
  </g>
  <g id="axis3d_1">
   <g id="line2d_1">
    <path d="M 352.877662 210.565507 
L 270.038432 291.179583 
" style="fill: none; stroke: #000000; stroke-width: 0.8; stroke-linecap: square"/>
   </g>
   <g id="xtick_1">
    <g id="line2d_2">
     <path d="M 346.849792 214.924309 
L 350.384 216.010235 
" style="fill: none; stroke: #000000; stroke-width: 0.8; stroke-linecap: square"/>
    </g>
    <g id="text_1">
     <!-- 0 -->
     <g transform="translate(356.679543 235.41182) scale(0.1 -0.1)">
      <defs>
       <path id="DejaVuSans-30" d="M 2034 4250 
Q 1547 4250 1301 3770 
Q 1056 3291 1056 2328 
Q 1056 1369 1301 889 
Q 1547 409 2034 409 
Q 2525 409 2770 889 
Q 3016 1369 3016 2328 
Q 3016 3291 2770 3770 
Q 2525 4250 2034 4250 
z
M 2034 4750 
Q 2819 4750 3233 4129 
Q 3647 3509 3647 2328 
Q 3647 1150 3233 529 
Q 2819 -91 2034 -91 
Q 1250 -91 836 529 
Q 422 1150 422 2328 
Q 422 3509 836 4129 
Q 1250 4750 2034 4750 
z
" transform="scale(0.015625)"/>
      </defs>
      <use xlink:href="#DejaVuSans-30"/>
     </g>
    </g>
   </g>
   <g id="xtick_2">
    <g id="line2d_3">
     <path d="M 329.350523 231.924228 
L 332.93137 233.052813 
" style="fill: none; stroke: #000000; stroke-width: 0.8; stroke-linecap: square"/>
    </g>
    <g id="text_2">
     <!-- 50 -->
     <g transform="translate(336.232236 252.682033) scale(0.1 -0.1)">
      <defs>
       <path id="DejaVuSans-35" d="M 691 4666 
L 3169 4666 
L 3169 4134 
L 1269 4134 
L 1269 2991 
Q 1406 3038 1543 3061 
Q 1681 3084 1819 3084 
Q 2600 3084 3056 2656 
Q 3513 2228 3513 1497 
Q 3513 744 3044 326 
Q 2575 -91 1722 -91 
Q 1428 -91 1123 -41 
Q 819 9 494 109 
L 494 744 
Q 775 591 1075 516 
Q 1375 441 1709 441 
Q 2250 441 2565 725 
Q 2881 1009 2881 1497 
Q 2881 1984 2565 2268 
Q 2250 2553 1709 2553 
Q 1456 2553 1204 2497 
Q 953 2441 691 2322 
L 691 4666 
z
" transform="scale(0.015625)"/>
      </defs>
      <use xlink:href="#DejaVuSans-35"/>
      <use xlink:href="#DejaVuSans-30" x="63.623047"/>
     </g>
    </g>
   </g>
   <g id="xtick_3">
    <g id="line2d_4">
     <path d="M 311.157392 249.598211 
L 314.785833 250.772018 
" style="fill: none; stroke: #000000; stroke-width: 0.8; stroke-linecap: square"/>
    </g>
    <g id="text_3">
     <!-- 100 -->
     <g transform="translate(315.099514 270.637825) scale(0.1 -0.1)">
      <defs>
       <path id="DejaVuSans-31" d="M 794 531 
L 1825 531 
L 1825 4091 
L 703 3866 
L 703 4441 
L 1819 4666 
L 2450 4666 
L 2450 531 
L 3481 531 
L 3481 0 
L 794 0 
L 794 531 
z
" transform="scale(0.015625)"/>
      </defs>
      <use xlink:href="#DejaVuSans-31"/>
      <use xlink:href="#DejaVuSans-30" x="63.623047"/>
      <use xlink:href="#DejaVuSans-30" x="127.246094"/>
     </g>
    </g>
   </g>
   <g id="xtick_4">
    <g id="line2d_5">
     <path d="M 292.228295 267.987158 
L 295.905289 269.208962 
" style="fill: none; stroke: #000000; stroke-width: 0.8; stroke-linecap: square"/>
    </g>
    <g id="text_4">
     <!-- 150 -->
     <g transform="translate(296.420987 289.320847) scale(0.1 -0.1)">
      <use xlink:href="#DejaVuSans-31"/>
      <use xlink:href="#DejaVuSans-35" x="63.623047"/>
      <use xlink:href="#DejaVuSans-30" x="127.246094"/>
     </g>
    </g>
   </g>
   <g id="xtick_5">
    <g id="line2d_6">
     <path d="M 272.517651 287.13535 
L 276.244155 288.408155 
" style="fill: none; stroke: #000000; stroke-width: 0.8; stroke-linecap: square"/>
    </g>
    <g id="text_5">
     <!-- 200 -->
     <g transform="translate(276.970323 308.776192) scale(0.1 -0.1)">
      <defs>
       <path id="DejaVuSans-32" d="M 1228 531 
L 3431 531 
L 3431 0 
L 469 0 
L 469 531 
Q 828 903 1448 1529 
Q 2069 2156 2228 2338 
Q 2531 2678 2651 2914 
Q 2772 3150 2772 3378 
Q 2772 3750 2511 3984 
Q 2250 4219 1831 4219 
Q 1534 4219 1204 4116 
Q 875 4013 500 3803 
L 500 4441 
Q 881 4594 1212 4672 
Q 1544 4750 1819 4750 
Q 2544 4750 2975 4387 
Q 3406 4025 3406 3419 
Q 3406 3131 3298 2873 
Q 3191 2616 2906 2266 
Q 2828 2175 2409 1742 
Q 1991 1309 1228 531 
z
" transform="scale(0.015625)"/>
      </defs>
      <use xlink:href="#DejaVuSans-32"/>
      <use xlink:href="#DejaVuSans-30" x="63.623047"/>
      <use xlink:href="#DejaVuSans-30" x="127.246094"/>
     </g>
    </g>
   </g>
   <g id="text_6">
    <!-- Handover Cost -->
    <g transform="translate(315.371465 305.250802) rotate(-44.220058) scale(0.1 -0.1)">
     <defs>
      <path id="DejaVuSans-48" d="M 628 4666 
L 1259 4666 
L 1259 2753 
L 3553 2753 
L 3553 4666 
L 4184 4666 
L 4184 0 
L 3553 0 
L 3553 2222 
L 1259 2222 
L 1259 0 
L 628 0 
L 628 4666 
z
" transform="scale(0.015625)"/>
      <path id="DejaVuSans-61" d="M 2194 1759 
Q 1497 1759 1228 1600 
Q 959 1441 959 1056 
Q 959 750 1161 570 
Q 1363 391 1709 391 
Q 2188 391 2477 730 
Q 2766 1069 2766 1631 
L 2766 1759 
L 2194 1759 
z
M 3341 1997 
L 3341 0 
L 2766 0 
L 2766 531 
Q 2569 213 2275 61 
Q 1981 -91 1556 -91 
Q 1019 -91 701 211 
Q 384 513 384 1019 
Q 384 1609 779 1909 
Q 1175 2209 1959 2209 
L 2766 2209 
L 2766 2266 
Q 2766 2663 2505 2880 
Q 2244 3097 1772 3097 
Q 1472 3097 1187 3025 
Q 903 2953 641 2809 
L 641 3341 
Q 956 3463 1253 3523 
Q 1550 3584 1831 3584 
Q 2591 3584 2966 3190 
Q 3341 2797 3341 1997 
z
" transform="scale(0.015625)"/>
      <path id="DejaVuSans-6e" d="M 3513 2113 
L 3513 0 
L 2938 0 
L 2938 2094 
Q 2938 2591 2744 2837 
Q 2550 3084 2163 3084 
Q 1697 3084 1428 2787 
Q 1159 2491 1159 1978 
L 1159 0 
L 581 0 
L 581 3500 
L 1159 3500 
L 1159 2956 
Q 1366 3272 1645 3428 
Q 1925 3584 2291 3584 
Q 2894 3584 3203 3211 
Q 3513 2838 3513 2113 
z
" transform="scale(0.015625)"/>
      <path id="DejaVuSans-64" d="M 2906 2969 
L 2906 4863 
L 3481 4863 
L 3481 0 
L 2906 0 
L 2906 525 
Q 2725 213 2448 61 
Q 2172 -91 1784 -91 
Q 1150 -91 751 415 
Q 353 922 353 1747 
Q 353 2572 751 3078 
Q 1150 3584 1784 3584 
Q 2172 3584 2448 3432 
Q 2725 3281 2906 2969 
z
M 947 1747 
Q 947 1113 1208 752 
Q 1469 391 1925 391 
Q 2381 391 2643 752 
Q 2906 1113 2906 1747 
Q 2906 2381 2643 2742 
Q 2381 3103 1925 3103 
Q 1469 3103 1208 2742 
Q 947 2381 947 1747 
z
" transform="scale(0.015625)"/>
      <path id="DejaVuSans-6f" d="M 1959 3097 
Q 1497 3097 1228 2736 
Q 959 2375 959 1747 
Q 959 1119 1226 758 
Q 1494 397 1959 397 
Q 2419 397 2687 759 
Q 2956 1122 2956 1747 
Q 2956 2369 2687 2733 
Q 2419 3097 1959 3097 
z
M 1959 3584 
Q 2709 3584 3137 3096 
Q 3566 2609 3566 1747 
Q 3566 888 3137 398 
Q 2709 -91 1959 -91 
Q 1206 -91 779 398 
Q 353 888 353 1747 
Q 353 2609 779 3096 
Q 1206 3584 1959 3584 
z
" transform="scale(0.015625)"/>
      <path id="DejaVuSans-76" d="M 191 3500 
L 800 3500 
L 1894 563 
L 2988 3500 
L 3597 3500 
L 2284 0 
L 1503 0 
L 191 3500 
z
" transform="scale(0.015625)"/>
      <path id="DejaVuSans-65" d="M 3597 1894 
L 3597 1613 
L 953 1613 
Q 991 1019 1311 708 
Q 1631 397 2203 397 
Q 2534 397 2845 478 
Q 3156 559 3463 722 
L 3463 178 
Q 3153 47 2828 -22 
Q 2503 -91 2169 -91 
Q 1331 -91 842 396 
Q 353 884 353 1716 
Q 353 2575 817 3079 
Q 1281 3584 2069 3584 
Q 2775 3584 3186 3129 
Q 3597 2675 3597 1894 
z
M 3022 2063 
Q 3016 2534 2758 2815 
Q 2500 3097 2075 3097 
Q 1594 3097 1305 2825 
Q 1016 2553 972 2059 
L 3022 2063 
z
" transform="scale(0.015625)"/>
      <path id="DejaVuSans-72" d="M 2631 2963 
Q 2534 3019 2420 3045 
Q 2306 3072 2169 3072 
Q 1681 3072 1420 2755 
Q 1159 2438 1159 1844 
L 1159 0 
L 581 0 
L 581 3500 
L 1159 3500 
L 1159 2956 
Q 1341 3275 1631 3429 
Q 1922 3584 2338 3584 
Q 2397 3584 2469 3576 
Q 2541 3569 2628 3553 
L 2631 2963 
z
" transform="scale(0.015625)"/>
      <path id="DejaVuSans-20" transform="scale(0.015625)"/>
      <path id="DejaVuSans-43" d="M 4122 4306 
L 4122 3641 
Q 3803 3938 3442 4084 
Q 3081 4231 2675 4231 
Q 1875 4231 1450 3742 
Q 1025 3253 1025 2328 
Q 1025 1406 1450 917 
Q 1875 428 2675 428 
Q 3081 428 3442 575 
Q 3803 722 4122 1019 
L 4122 359 
Q 3791 134 3420 21 
Q 3050 -91 2638 -91 
Q 1578 -91 968 557 
Q 359 1206 359 2328 
Q 359 3453 968 4101 
Q 1578 4750 2638 4750 
Q 3056 4750 3426 4639 
Q 3797 4528 4122 4306 
z
" transform="scale(0.015625)"/>
      <path id="DejaVuSans-73" d="M 2834 3397 
L 2834 2853 
Q 2591 2978 2328 3040 
Q 2066 3103 1784 3103 
Q 1356 3103 1142 2972 
Q 928 2841 928 2578 
Q 928 2378 1081 2264 
Q 1234 2150 1697 2047 
L 1894 2003 
Q 2506 1872 2764 1633 
Q 3022 1394 3022 966 
Q 3022 478 2636 193 
Q 2250 -91 1575 -91 
Q 1294 -91 989 -36 
Q 684 19 347 128 
L 347 722 
Q 666 556 975 473 
Q 1284 391 1588 391 
Q 1994 391 2212 530 
Q 2431 669 2431 922 
Q 2431 1156 2273 1281 
Q 2116 1406 1581 1522 
L 1381 1569 
Q 847 1681 609 1914 
Q 372 2147 372 2553 
Q 372 3047 722 3315 
Q 1072 3584 1716 3584 
Q 2034 3584 2315 3537 
Q 2597 3491 2834 3397 
z
" transform="scale(0.015625)"/>
      <path id="DejaVuSans-74" d="M 1172 4494 
L 1172 3500 
L 2356 3500 
L 2356 3053 
L 1172 3053 
L 1172 1153 
Q 1172 725 1289 603 
Q 1406 481 1766 481 
L 2356 481 
L 2356 0 
L 1766 0 
Q 1100 0 847 248 
Q 594 497 594 1153 
L 594 3053 
L 172 3053 
L 172 3500 
L 594 3500 
L 594 4494 
L 1172 4494 
z
" transform="scale(0.015625)"/>
     </defs>
     <use xlink:href="#DejaVuSans-48"/>
     <use xlink:href="#DejaVuSans-61" x="75.195312"/>
     <use xlink:href="#DejaVuSans-6e" x="136.474609"/>
     <use xlink:href="#DejaVuSans-64" x="199.853516"/>
     <use xlink:href="#DejaVuSans-6f" x="263.330078"/>
     <use xlink:href="#DejaVuSans-76" x="324.511719"/>
     <use xlink:href="#DejaVuSans-65" x="383.691406"/>
     <use xlink:href="#DejaVuSans-72" x="445.214844"/>
     <use xlink:href="#DejaVuSans-20" x="486.328125"/>
     <use xlink:href="#DejaVuSans-43" x="518.115234"/>
     <use xlink:href="#DejaVuSans-6f" x="587.939453"/>
     <use xlink:href="#DejaVuSans-73" x="649.121094"/>
     <use xlink:href="#DejaVuSans-74" x="701.220703"/>
    </g>
   </g>
  </g>
  <g id="axis3d_2">
   <g id="line2d_7">
    <path d="M 122.729177 240.60526 
L 270.038432 291.179583 
" style="fill: none; stroke: #000000; stroke-width: 0.8; stroke-linecap: square"/>
   </g>
   <g id="xtick_6">
    <g id="line2d_8">
     <path d="M 132.419711 243.027237 
L 130.061919 244.936539 
" style="fill: none; stroke: #000000; stroke-width: 0.8; stroke-linecap: square"/>
    </g>
    <g id="text_7">
     <!-- 0 -->
     <g transform="translate(120.679892 266.858828) scale(0.1 -0.1)">
      <use xlink:href="#DejaVuSans-30"/>
     </g>
    </g>
   </g>
   <g id="xtick_7">
    <g id="line2d_9">
     <path d="M 165.056509 254.220903 
L 162.739311 256.177908 
" style="fill: none; stroke: #000000; stroke-width: 0.8; stroke-linecap: square"/>
    </g>
    <g id="text_8">
     <!-- 50 -->
     <g transform="translate(150.171726 278.303706) scale(0.1 -0.1)">
      <use xlink:href="#DejaVuSans-35"/>
      <use xlink:href="#DejaVuSans-30" x="63.623047"/>
     </g>
    </g>
   </g>
   <g id="xtick_8">
    <g id="line2d_10">
     <path d="M 198.512986 265.695701 
L 196.239181 267.702219 
" style="fill: none; stroke: #000000; stroke-width: 0.8; stroke-linecap: square"/>
    </g>
    <g id="text_9">
     <!-- 100 -->
     <g transform="translate(180.487787 290.037297) scale(0.1 -0.1)">
      <use xlink:href="#DejaVuSans-31"/>
      <use xlink:href="#DejaVuSans-30" x="63.623047"/>
      <use xlink:href="#DejaVuSans-30" x="127.246094"/>
     </g>
    </g>
   </g>
   <g id="xtick_9">
    <g id="line2d_11">
     <path d="M 232.820414 277.462354 
L 230.592976 279.520289 
" style="fill: none; stroke: #000000; stroke-width: 0.8; stroke-linecap: square"/>
    </g>
    <g id="text_10">
     <!-- 150 -->
     <g transform="translate(214.840913 302.070668) scale(0.1 -0.1)">
      <use xlink:href="#DejaVuSans-31"/>
      <use xlink:href="#DejaVuSans-35" x="63.623047"/>
      <use xlink:href="#DejaVuSans-30" x="127.246094"/>
     </g>
    </g>
   </g>
   <g id="text_11">
    <!-- Switching Cost -->
    <g transform="translate(141.639145 290.85274) rotate(-341.05159) scale(0.1 -0.1)">
     <defs>
      <path id="DejaVuSans-53" d="M 3425 4513 
L 3425 3897 
Q 3066 4069 2747 4153 
Q 2428 4238 2131 4238 
Q 1616 4238 1336 4038 
Q 1056 3838 1056 3469 
Q 1056 3159 1242 3001 
Q 1428 2844 1947 2747 
L 2328 2669 
Q 3034 2534 3370 2195 
Q 3706 1856 3706 1288 
Q 3706 609 3251 259 
Q 2797 -91 1919 -91 
Q 1588 -91 1214 -16 
Q 841 59 441 206 
L 441 856 
Q 825 641 1194 531 
Q 1563 422 1919 422 
Q 2459 422 2753 634 
Q 3047 847 3047 1241 
Q 3047 1584 2836 1778 
Q 2625 1972 2144 2069 
L 1759 2144 
Q 1053 2284 737 2584 
Q 422 2884 422 3419 
Q 422 4038 858 4394 
Q 1294 4750 2059 4750 
Q 2388 4750 2728 4690 
Q 3069 4631 3425 4513 
z
" transform="scale(0.015625)"/>
      <path id="DejaVuSans-77" d="M 269 3500 
L 844 3500 
L 1563 769 
L 2278 3500 
L 2956 3500 
L 3675 769 
L 4391 3500 
L 4966 3500 
L 4050 0 
L 3372 0 
L 2619 2869 
L 1863 0 
L 1184 0 
L 269 3500 
z
" transform="scale(0.015625)"/>
      <path id="DejaVuSans-69" d="M 603 3500 
L 1178 3500 
L 1178 0 
L 603 0 
L 603 3500 
z
M 603 4863 
L 1178 4863 
L 1178 4134 
L 603 4134 
L 603 4863 
z
" transform="scale(0.015625)"/>
      <path id="DejaVuSans-63" d="M 3122 3366 
L 3122 2828 
Q 2878 2963 2633 3030 
Q 2388 3097 2138 3097 
Q 1578 3097 1268 2742 
Q 959 2388 959 1747 
Q 959 1106 1268 751 
Q 1578 397 2138 397 
Q 2388 397 2633 464 
Q 2878 531 3122 666 
L 3122 134 
Q 2881 22 2623 -34 
Q 2366 -91 2075 -91 
Q 1284 -91 818 406 
Q 353 903 353 1747 
Q 353 2603 823 3093 
Q 1294 3584 2113 3584 
Q 2378 3584 2631 3529 
Q 2884 3475 3122 3366 
z
" transform="scale(0.015625)"/>
      <path id="DejaVuSans-68" d="M 3513 2113 
L 3513 0 
L 2938 0 
L 2938 2094 
Q 2938 2591 2744 2837 
Q 2550 3084 2163 3084 
Q 1697 3084 1428 2787 
Q 1159 2491 1159 1978 
L 1159 0 
L 581 0 
L 581 4863 
L 1159 4863 
L 1159 2956 
Q 1366 3272 1645 3428 
Q 1925 3584 2291 3584 
Q 2894 3584 3203 3211 
Q 3513 2838 3513 2113 
z
" transform="scale(0.015625)"/>
      <path id="DejaVuSans-67" d="M 2906 1791 
Q 2906 2416 2648 2759 
Q 2391 3103 1925 3103 
Q 1463 3103 1205 2759 
Q 947 2416 947 1791 
Q 947 1169 1205 825 
Q 1463 481 1925 481 
Q 2391 481 2648 825 
Q 2906 1169 2906 1791 
z
M 3481 434 
Q 3481 -459 3084 -895 
Q 2688 -1331 1869 -1331 
Q 1566 -1331 1297 -1286 
Q 1028 -1241 775 -1147 
L 775 -588 
Q 1028 -725 1275 -790 
Q 1522 -856 1778 -856 
Q 2344 -856 2625 -561 
Q 2906 -266 2906 331 
L 2906 616 
Q 2728 306 2450 153 
Q 2172 0 1784 0 
Q 1141 0 747 490 
Q 353 981 353 1791 
Q 353 2603 747 3093 
Q 1141 3584 1784 3584 
Q 2172 3584 2450 3431 
Q 2728 3278 2906 2969 
L 2906 3500 
L 3481 3500 
L 3481 434 
z
" transform="scale(0.015625)"/>
     </defs>
     <use xlink:href="#DejaVuSans-53"/>
     <use xlink:href="#DejaVuSans-77" x="63.476562"/>
     <use xlink:href="#DejaVuSans-69" x="145.263672"/>
     <use xlink:href="#DejaVuSans-74" x="173.046875"/>
     <use xlink:href="#DejaVuSans-63" x="212.255859"/>
     <use xlink:href="#DejaVuSans-68" x="267.236328"/>
     <use xlink:href="#DejaVuSans-69" x="330.615234"/>
     <use xlink:href="#DejaVuSans-6e" x="358.398438"/>
     <use xlink:href="#DejaVuSans-67" x="421.777344"/>
     <use xlink:href="#DejaVuSans-20" x="485.253906"/>
     <use xlink:href="#DejaVuSans-43" x="517.041016"/>
     <use xlink:href="#DejaVuSans-6f" x="586.865234"/>
     <use xlink:href="#DejaVuSans-73" x="648.046875"/>
     <use xlink:href="#DejaVuSans-74" x="700.146484"/>
    </g>
   </g>
  </g>
  <g id="axis3d_3">
   <g id="line2d_12">
    <path d="M 122.729177 240.60526 
L 117.288951 128.023923 
" style="fill: none; stroke: #000000; stroke-width: 0.8; stroke-linecap: square"/>
   </g>
   <g id="xtick_10">
    <g id="line2d_13">
     <path d="M 123.030481 229.822619 
L 120.650936 231.705485 
" style="fill: none; stroke: #000000; stroke-width: 0.8; stroke-linecap: square"/>
    </g>
    <g id="text_12">
     <!-- 600 -->
     <g transform="translate(92.797897 240.615304) scale(0.1 -0.1)">
      <defs>
       <path id="DejaVuSans-36" d="M 2113 2584 
Q 1688 2584 1439 2293 
Q 1191 2003 1191 1497 
Q 1191 994 1439 701 
Q 1688 409 2113 409 
Q 2538 409 2786 701 
Q 3034 994 3034 1497 
Q 3034 2003 2786 2293 
Q 2538 2584 2113 2584 
z
M 3366 4563 
L 3366 3988 
Q 3128 4100 2886 4159 
Q 2644 4219 2406 4219 
Q 1781 4219 1451 3797 
Q 1122 3375 1075 2522 
Q 1259 2794 1537 2939 
Q 1816 3084 2150 3084 
Q 2853 3084 3261 2657 
Q 3669 2231 3669 1497 
Q 3669 778 3244 343 
Q 2819 -91 2113 -91 
Q 1303 -91 875 529 
Q 447 1150 447 2328 
Q 447 3434 972 4092 
Q 1497 4750 2381 4750 
Q 2619 4750 2861 4703 
Q 3103 4656 3366 4563 
z
" transform="scale(0.015625)"/>
      </defs>
      <use xlink:href="#DejaVuSans-36"/>
      <use xlink:href="#DejaVuSans-30" x="63.623047"/>
      <use xlink:href="#DejaVuSans-30" x="127.246094"/>
     </g>
    </g>
   </g>
   <g id="xtick_11">
    <g id="line2d_14">
     <path d="M 122.292344 214.439824 
L 119.896147 216.301849 
" style="fill: none; stroke: #000000; stroke-width: 0.8; stroke-linecap: square"/>
    </g>
    <g id="text_13">
     <!-- 800 -->
     <g transform="translate(91.92579 225.197183) scale(0.1 -0.1)">
      <defs>
       <path id="DejaVuSans-38" d="M 2034 2216 
Q 1584 2216 1326 1975 
Q 1069 1734 1069 1313 
Q 1069 891 1326 650 
Q 1584 409 2034 409 
Q 2484 409 2743 651 
Q 3003 894 3003 1313 
Q 3003 1734 2745 1975 
Q 2488 2216 2034 2216 
z
M 1403 2484 
Q 997 2584 770 2862 
Q 544 3141 544 3541 
Q 544 4100 942 4425 
Q 1341 4750 2034 4750 
Q 2731 4750 3128 4425 
Q 3525 4100 3525 3541 
Q 3525 3141 3298 2862 
Q 3072 2584 2669 2484 
Q 3125 2378 3379 2068 
Q 3634 1759 3634 1313 
Q 3634 634 3220 271 
Q 2806 -91 2034 -91 
Q 1263 -91 848 271 
Q 434 634 434 1313 
Q 434 1759 690 2068 
Q 947 2378 1403 2484 
z
M 1172 3481 
Q 1172 3119 1398 2916 
Q 1625 2713 2034 2713 
Q 2441 2713 2670 2916 
Q 2900 3119 2900 3481 
Q 2900 3844 2670 4047 
Q 2441 4250 2034 4250 
Q 1625 4250 1398 4047 
Q 1172 3844 1172 3481 
z
" transform="scale(0.015625)"/>
      </defs>
      <use xlink:href="#DejaVuSans-38"/>
      <use xlink:href="#DejaVuSans-30" x="63.623047"/>
      <use xlink:href="#DejaVuSans-30" x="127.246094"/>
     </g>
    </g>
   </g>
   <g id="xtick_12">
    <g id="line2d_15">
     <path d="M 121.544813 198.861239 
L 119.131731 200.701738 
" style="fill: none; stroke: #000000; stroke-width: 0.8; stroke-linecap: square"/>
    </g>
    <g id="text_14">
     <!-- 1000 -->
     <g transform="translate(87.861292 209.582109) scale(0.1 -0.1)">
      <use xlink:href="#DejaVuSans-31"/>
      <use xlink:href="#DejaVuSans-30" x="63.623047"/>
      <use xlink:href="#DejaVuSans-30" x="127.246094"/>
      <use xlink:href="#DejaVuSans-30" x="190.869141"/>
     </g>
    </g>
   </g>
   <g id="xtick_13">
    <g id="line2d_16">
     <path d="M 120.787705 183.083103 
L 118.357502 184.901368 
" style="fill: none; stroke: #000000; stroke-width: 0.8; stroke-linecap: square"/>
    </g>
    <g id="text_15">
     <!-- 1200 -->
     <g transform="translate(86.966689 193.766282) scale(0.1 -0.1)">
      <use xlink:href="#DejaVuSans-31"/>
      <use xlink:href="#DejaVuSans-32" x="63.623047"/>
      <use xlink:href="#DejaVuSans-30" x="127.246094"/>
      <use xlink:href="#DejaVuSans-30" x="190.869141"/>
     </g>
    </g>
   </g>
   <g id="xtick_14">
    <g id="line2d_17">
     <path d="M 120.020838 167.101555 
L 117.573269 168.896858 
" style="fill: none; stroke: #000000; stroke-width: 0.8; stroke-linecap: square"/>
    </g>
    <g id="text_16">
     <!-- 1400 -->
     <g transform="translate(86.06051 177.745808) scale(0.1 -0.1)">
      <defs>
       <path id="DejaVuSans-34" d="M 2419 4116 
L 825 1625 
L 2419 1625 
L 2419 4116 
z
M 2253 4666 
L 3047 4666 
L 3047 1625 
L 3713 1625 
L 3713 1100 
L 3047 1100 
L 3047 0 
L 2419 0 
L 2419 1100 
L 313 1100 
L 313 1709 
L 2253 4666 
z
" transform="scale(0.015625)"/>
      </defs>
      <use xlink:href="#DejaVuSans-31"/>
      <use xlink:href="#DejaVuSans-34" x="63.623047"/>
      <use xlink:href="#DejaVuSans-30" x="127.246094"/>
      <use xlink:href="#DejaVuSans-30" x="190.869141"/>
     </g>
    </g>
   </g>
   <g id="xtick_15">
    <g id="line2d_18">
     <path d="M 119.24402 150.912637 
L 116.778839 152.684226 
" style="fill: none; stroke: #000000; stroke-width: 0.8; stroke-linecap: square"/>
    </g>
    <g id="text_17">
     <!-- 1600 -->
     <g transform="translate(85.14253 161.516687) scale(0.1 -0.1)">
      <use xlink:href="#DejaVuSans-31"/>
      <use xlink:href="#DejaVuSans-36" x="63.623047"/>
      <use xlink:href="#DejaVuSans-30" x="127.246094"/>
      <use xlink:href="#DejaVuSans-30" x="190.869141"/>
     </g>
    </g>
   </g>
   <g id="xtick_16">
    <g id="line2d_19">
     <path d="M 118.457056 134.512287 
L 115.97401 136.259386 
" style="fill: none; stroke: #000000; stroke-width: 0.8; stroke-linecap: square"/>
    </g>
    <g id="text_18">
     <!-- 1800 -->
     <g transform="translate(84.212516 145.074818) scale(0.1 -0.1)">
      <use xlink:href="#DejaVuSans-31"/>
      <use xlink:href="#DejaVuSans-38" x="63.623047"/>
      <use xlink:href="#DejaVuSans-30" x="127.246094"/>
      <use xlink:href="#DejaVuSans-30" x="190.869141"/>
     </g>
    </g>
   </g>
   <g id="text_19">
    <!-- Number of handovers -->
    <g transform="translate(70.46793 136.79199) rotate(-272.76653) scale(0.1 -0.1)">
     <defs>
      <path id="DejaVuSans-4e" d="M 628 4666 
L 1478 4666 
L 3547 763 
L 3547 4666 
L 4159 4666 
L 4159 0 
L 3309 0 
L 1241 3903 
L 1241 0 
L 628 0 
L 628 4666 
z
" transform="scale(0.015625)"/>
      <path id="DejaVuSans-75" d="M 544 1381 
L 544 3500 
L 1119 3500 
L 1119 1403 
Q 1119 906 1312 657 
Q 1506 409 1894 409 
Q 2359 409 2629 706 
Q 2900 1003 2900 1516 
L 2900 3500 
L 3475 3500 
L 3475 0 
L 2900 0 
L 2900 538 
Q 2691 219 2414 64 
Q 2138 -91 1772 -91 
Q 1169 -91 856 284 
Q 544 659 544 1381 
z
M 1991 3584 
L 1991 3584 
z
" transform="scale(0.015625)"/>
      <path id="DejaVuSans-6d" d="M 3328 2828 
Q 3544 3216 3844 3400 
Q 4144 3584 4550 3584 
Q 5097 3584 5394 3201 
Q 5691 2819 5691 2113 
L 5691 0 
L 5113 0 
L 5113 2094 
Q 5113 2597 4934 2840 
Q 4756 3084 4391 3084 
Q 3944 3084 3684 2787 
Q 3425 2491 3425 1978 
L 3425 0 
L 2847 0 
L 2847 2094 
Q 2847 2600 2669 2842 
Q 2491 3084 2119 3084 
Q 1678 3084 1418 2786 
Q 1159 2488 1159 1978 
L 1159 0 
L 581 0 
L 581 3500 
L 1159 3500 
L 1159 2956 
Q 1356 3278 1631 3431 
Q 1906 3584 2284 3584 
Q 2666 3584 2933 3390 
Q 3200 3197 3328 2828 
z
" transform="scale(0.015625)"/>
      <path id="DejaVuSans-62" d="M 3116 1747 
Q 3116 2381 2855 2742 
Q 2594 3103 2138 3103 
Q 1681 3103 1420 2742 
Q 1159 2381 1159 1747 
Q 1159 1113 1420 752 
Q 1681 391 2138 391 
Q 2594 391 2855 752 
Q 3116 1113 3116 1747 
z
M 1159 2969 
Q 1341 3281 1617 3432 
Q 1894 3584 2278 3584 
Q 2916 3584 3314 3078 
Q 3713 2572 3713 1747 
Q 3713 922 3314 415 
Q 2916 -91 2278 -91 
Q 1894 -91 1617 61 
Q 1341 213 1159 525 
L 1159 0 
L 581 0 
L 581 4863 
L 1159 4863 
L 1159 2969 
z
" transform="scale(0.015625)"/>
      <path id="DejaVuSans-66" d="M 2375 4863 
L 2375 4384 
L 1825 4384 
Q 1516 4384 1395 4259 
Q 1275 4134 1275 3809 
L 1275 3500 
L 2222 3500 
L 2222 3053 
L 1275 3053 
L 1275 0 
L 697 0 
L 697 3053 
L 147 3053 
L 147 3500 
L 697 3500 
L 697 3744 
Q 697 4328 969 4595 
Q 1241 4863 1831 4863 
L 2375 4863 
z
" transform="scale(0.015625)"/>
     </defs>
     <use xlink:href="#DejaVuSans-4e"/>
     <use xlink:href="#DejaVuSans-75" x="74.804688"/>
     <use xlink:href="#DejaVuSans-6d" x="138.183594"/>
     <use xlink:href="#DejaVuSans-62" x="235.595703"/>
     <use xlink:href="#DejaVuSans-65" x="299.072266"/>
     <use xlink:href="#DejaVuSans-72" x="360.595703"/>
     <use xlink:href="#DejaVuSans-20" x="401.708984"/>
     <use xlink:href="#DejaVuSans-6f" x="433.496094"/>
     <use xlink:href="#DejaVuSans-66" x="494.677734"/>
     <use xlink:href="#DejaVuSans-20" x="529.882812"/>
     <use xlink:href="#DejaVuSans-68" x="561.669922"/>
     <use xlink:href="#DejaVuSans-61" x="625.048828"/>
     <use xlink:href="#DejaVuSans-6e" x="686.328125"/>
     <use xlink:href="#DejaVuSans-64" x="749.707031"/>
     <use xlink:href="#DejaVuSans-6f" x="813.183594"/>
     <use xlink:href="#DejaVuSans-76" x="874.365234"/>
     <use xlink:href="#DejaVuSans-65" x="933.544922"/>
     <use xlink:href="#DejaVuSans-72" x="995.068359"/>
     <use xlink:href="#DejaVuSans-73" x="1036.181641"/>
    </g>
   </g>
  </g>
  <g id="axes_1">
   <g id="Poly3DCollection_1">
    <path d="M 228.749071 139.751939 
L 226.855068 141.238671 
L 224.954006 142.730943 
L 223.046841 144.37876 
L 221.117758 144.004073 
L 219.209299 147.391672 
L 217.279049 148.831342 
L 223.675064 155.841177 
L 230.058946 158.729046 
L 231.968221 156.967034 
L 233.872438 155.960911 
L 235.768141 154.584859 
L 237.653659 149.771792 
L 239.537642 151.47544 
L 241.411932 149.966617 
L 235.071033 143.248467 
z
" clip-path="url(#p61e4043e2c)" style="fill: #e4d9d2"/>
    <path d="M 241.411932 149.966617 
L 239.537642 151.47544 
L 237.653659 149.771792 
L 235.768141 154.584859 
L 233.872438 155.960911 
L 231.968221 156.967034 
L 230.058946 158.729046 
L 236.474314 166.581919 
L 242.893832 170.845024 
L 244.783212 168.834443 
L 246.665141 167.20439 
L 248.53934 165.804249 
L 250.406941 164.260456 
L 252.268313 162.573539 
L 254.119553 161.487479 
L 247.755603 157.359252 
z
" clip-path="url(#p61e4043e2c)" style="fill: #c4d5f3"/>
    <path d="M 254.119553 161.487479 
L 252.268313 162.573539 
L 250.406941 164.260456 
L 248.53934 165.804249 
L 246.665141 167.20439 
L 244.783212 168.834443 
L 242.893832 170.845024 
L 249.337005 173.696996 
L 255.772992 181.650655 
L 257.63976 180.214747 
L 259.500468 178.635402 
L 261.353544 177.1364 
L 263.199565 175.643106 
L 265.059705 172.075635 
L 266.876257 172.154545 
L 260.514057 164.140397 
z
" clip-path="url(#p61e4043e2c)" style="fill: #9fbfff"/>
    <path d="M 266.876257 172.154545 
L 265.059705 172.075635 
L 263.199565 175.643106 
L 261.353544 177.1364 
L 259.500468 178.635402 
L 257.63976 180.214747 
L 255.772992 181.650655 
L 262.240717 186.024098 
L 268.736051 189.588304 
L 270.586126 187.908646 
L 272.428348 186.309743 
L 274.265705 184.568006 
L 276.092017 183.12997 
L 277.913541 181.549031 
L 279.730631 179.82571 
L 273.283874 176.688386 
z
" clip-path="url(#p61e4043e2c)" style="fill: #7ea1fa"/>
    <path d="M 215.64117 76.308727 
L 213.625539 71.672534 
L 211.801196 86.204349 
L 209.806257 84.967197 
L 207.875153 89.819635 
L 205.890503 90.777815 
L 203.987919 98.218195 
L 210.652498 121.362202 
L 217.279049 148.831342 
L 219.209299 147.391672 
L 221.117758 144.004073 
L 223.046841 144.37876 
L 224.954006 142.730943 
L 226.855068 141.238671 
L 228.749071 139.751939 
L 222.255059 108.09898 
z
" clip-path="url(#p61e4043e2c)" style="fill: #b40426"/>
    <path d="M 279.730631 179.82571 
L 277.913541 181.549031 
L 276.092017 183.12997 
L 274.265705 184.568006 
L 272.428348 186.309743 
L 270.586126 187.908646 
L 268.736051 189.588304 
L 275.25703 192.94064 
L 281.791552 196.903159 
L 283.618225 195.502681 
L 285.445929 193.660574 
L 287.26276 192.048472 
L 289.062357 190.96286 
L 290.875904 188.842475 
L 292.667537 187.47102 
L 286.269533 179.33356 
z
" clip-path="url(#p61e4043e2c)" style="fill: #6b8df0"/>
    <path d="M 217.279049 148.831342 
L 215.300329 146.048506 
L 213.373372 149.536566 
L 211.442155 153.032336 
L 209.482931 154.569687 
L 207.516279 156.112867 
L 205.514151 155.611621 
L 211.995857 163.619635 
L 218.489041 173.06045 
L 220.440031 171.632661 
L 222.32554 161.909924 
L 224.284717 163.223596 
L 226.215721 161.518764 
L 228.141072 160.121192 
L 230.058946 158.729046 
L 223.675064 155.841177 
z
" clip-path="url(#p61e4043e2c)" style="fill: #e3d9d3"/>
    <path d="M 292.667537 187.47102 
L 290.875904 188.842475 
L 289.062357 190.96286 
L 287.26276 192.048472 
L 285.445929 193.660574 
L 283.618225 195.502681 
L 281.791552 196.903159 
L 288.359999 200.205474 
L 294.947804 203.744449 
L 296.753112 202.399948 
L 298.55825 200.762561 
L 300.358377 199.056883 
L 302.148031 197.506378 
L 303.93275 195.887512 
L 305.71074 194.274751 
L 299.188285 190.421622 
z
" clip-path="url(#p61e4043e2c)" style="fill: #5977e3"/>
    <path d="M 230.058946 158.729046 
L 228.141072 160.121192 
L 226.215721 161.518764 
L 224.284717 163.223596 
L 222.32554 161.909924 
L 220.440031 171.632661 
L 218.489041 173.06045 
L 224.916473 172.841147 
L 231.411056 180.114168 
L 233.343687 178.742908 
L 235.267678 176.850247 
L 237.185462 175.565795 
L 239.09541 173.836095 
L 240.998376 172.112719 
L 242.893832 170.845024 
L 236.474314 166.581919 
z
" clip-path="url(#p61e4043e2c)" style="fill: #c3d5f4"/>
    <path d="M 242.893832 170.845024 
L 240.998376 172.112719 
L 239.09541 173.836095 
L 237.185462 175.565795 
L 235.267678 176.850247 
L 233.343687 178.742908 
L 231.411056 180.114168 
L 237.905606 183.093256 
L 244.416128 191.288513 
L 246.333575 187.18371 
L 248.230297 188.126525 
L 250.126904 186.442135 
L 252.015696 184.913811 
L 253.897229 183.391359 
L 255.772992 181.650655 
L 249.337005 173.696996 
z
" clip-path="url(#p61e4043e2c)" style="fill: #9fbfff"/>
    <path d="M 203.987919 98.218195 
L 201.998753 99.663349 
L 200.098681 107.343881 
L 198.080295 107.641115 
L 196.24109 118.972774 
L 194.26129 122.008509 
L 192.179125 119.857224 
L 199.135127 153.991052 
L 205.514151 155.611621 
L 207.516279 156.112867 
L 209.482931 154.569687 
L 211.442155 153.032336 
L 213.373372 149.536566 
L 215.300329 146.048506 
L 217.279049 148.831342 
L 210.652498 121.362202 
z
" clip-path="url(#p61e4043e2c)" style="fill: #de614d"/>
    <path d="M 305.71074 194.274751 
L 303.93275 195.887512 
L 302.148031 197.506378 
L 300.358377 199.056883 
L 298.55825 200.762561 
L 296.753112 202.399948 
L 294.947804 203.744449 
L 301.572098 206.77212 
L 308.222708 209.811819 
L 310.016755 208.150446 
L 311.803958 206.495411 
L 313.584356 204.846678 
L 315.357989 203.20421 
L 317.124894 201.567973 
L 318.88511 199.937929 
L 312.286804 197.026332 
z
" clip-path="url(#p61e4043e2c)" style="fill: #4e68d8"/>
    <path d="M 255.772992 181.650655 
L 253.897229 183.391359 
L 252.015696 184.913811 
L 250.126904 186.442135 
L 248.230297 188.126525 
L 246.333575 187.18371 
L 244.416128 191.288513 
L 250.940747 196.026579 
L 257.492949 199.272486 
L 259.384262 197.705623 
L 261.268896 196.069768 
L 263.147773 194.290181 
L 265.018201 192.666939 
L 266.88153 191.049857 
L 268.736051 189.588304 
L 262.240717 186.024098 
z
" clip-path="url(#p61e4043e2c)" style="fill: #7ea1fa"/>
    <path d="M 318.88511 199.937929 
L 317.124894 201.567973 
L 315.357989 203.20421 
L 313.584356 204.846678 
L 311.803958 206.495411 
L 310.016755 208.150446 
L 308.222708 209.811819 
L 314.883697 213.38822 
L 321.593466 216.227609 
L 323.368784 214.547519 
L 325.137304 212.873863 
L 326.899064 211.206604 
L 328.654103 209.545705 
L 330.40246 207.89113 
L 332.149774 206.093946 
L 325.486438 203.530679 
z
" clip-path="url(#p61e4043e2c)" style="fill: #445acc"/>
    <path d="M 268.736051 189.588304 
L 266.88153 191.049857 
L 265.018201 192.666939 
L 263.147773 194.290181 
L 261.268896 196.069768 
L 259.384262 197.705623 
L 257.492949 199.272486 
L 264.067063 202.831907 
L 270.653208 207.307401 
L 272.530915 205.268863 
L 274.394597 203.763202 
L 276.257606 201.813513 
L 278.104625 200.470107 
L 279.947824 198.907764 
L 281.791552 196.903159 
L 275.25703 192.94064 
z
" clip-path="url(#p61e4043e2c)" style="fill: #6a8bef"/>
    <path d="M 205.514151 155.611621 
L 203.560523 159.216843 
L 201.338864 145.547825 
L 199.542692 160.362635 
L 197.568827 163.841091 
L 195.555295 165.343478 
L 193.533902 166.851731 
L 200.077762 174.411816 
L 206.622626 181.898199 
L 208.606809 179.372528 
L 210.605334 178.600482 
L 212.55427 174.116855 
L 214.504122 170.019973 
L 216.5318 174.644881 
L 218.489041 173.06045 
L 211.995857 163.619635 
z
" clip-path="url(#p61e4043e2c)" style="fill: #e2dad5"/>
    <path d="M 332.149774 206.093946 
L 330.40246 207.89113 
L 328.654103 209.545705 
L 326.899064 211.206604 
L 325.137304 212.873863 
L 323.368784 214.547519 
L 321.593466 216.227609 
L 328.339452 218.853652 
L 330.116752 216.864869 
L 331.870744 215.332738 
L 333.623539 213.657049 
L 335.369632 211.987766 
L 337.106099 210.399479 
L 338.835847 208.817337 
z
" clip-path="url(#p61e4043e2c)" style="fill: #3e51c5"/>
    <path d="M 281.791552 196.903159 
L 279.947824 198.907764 
L 278.104625 200.470107 
L 276.257606 201.813513 
L 274.394597 203.763202 
L 272.530915 205.268863 
L 270.653208 207.307401 
L 277.284463 210.064158 
L 283.919433 214.189184 
L 285.773492 212.507137 
L 287.620427 210.831554 
L 289.460278 209.162397 
L 291.302528 207.049849 
L 293.128648 205.393991 
L 294.947804 203.744449 
L 288.359999 200.205474 
z
" clip-path="url(#p61e4043e2c)" style="fill: #5977e3"/>
    <path d="M 218.489041 173.06045 
L 216.5318 174.644881 
L 214.504122 170.019973 
L 212.55427 174.116855 
L 210.605334 178.600482 
L 208.606809 179.372528 
L 206.622626 181.898199 
L 213.137268 186.350687 
L 219.663556 189.979714 
L 221.615897 184.999353 
L 223.608652 186.564942 
L 225.571338 185.094471 
L 227.525529 183.478518 
L 229.47257 181.944287 
L 231.411056 180.114168 
L 224.916473 172.841147 
z
" clip-path="url(#p61e4043e2c)" style="fill: #bed2f6"/>
    <path d="M 192.179125 119.857224 
L 190.15747 121.508842 
L 188.155195 124.489926 
L 186.007304 120.847502 
L 184.069464 127.515249 
L 182.011191 128.880448 
L 179.989009 132.127376 
L 187.080831 163.505061 
L 193.533902 166.851731 
L 195.555295 165.343478 
L 197.568827 163.841091 
L 199.542692 160.362635 
L 201.338864 145.547825 
L 203.560523 159.216843 
L 205.514151 155.611621 
L 199.135127 153.991052 
z
" clip-path="url(#p61e4043e2c)" style="fill: #e9785d"/>
    <path d="M 231.411056 180.114168 
L 229.47257 181.944287 
L 227.525529 183.478518 
L 225.571338 185.094471 
L 223.608652 186.564942 
L 221.615897 184.999353 
L 219.663556 189.979714 
L 226.2061 192.404045 
L 232.79644 201.301437 
L 234.75152 199.566127 
L 236.699196 197.837388 
L 238.639545 196.190736 
L 240.572454 194.550397 
L 242.497968 192.916335 
L 244.416128 191.288513 
L 237.905606 183.093256 
z
" clip-path="url(#p61e4043e2c)" style="fill: #9fbfff"/>
    <path d="M 294.947804 203.744449 
L 293.128648 205.393991 
L 291.302528 207.049849 
L 289.460278 209.162397 
L 287.620427 210.831554 
L 285.773492 212.507137 
L 283.919433 214.189184 
L 290.605043 216.895397 
L 297.312478 219.915208 
L 299.148425 218.215033 
L 300.977289 216.521419 
L 302.799108 214.834329 
L 304.613924 213.153723 
L 306.421777 211.479565 
L 308.222708 209.811819 
L 301.572098 206.77212 
z
" clip-path="url(#p61e4043e2c)" style="fill: #4e68d8"/>
    <path d="M 244.416128 191.288513 
L 242.497968 192.916335 
L 240.572454 194.550397 
L 238.639545 196.190736 
L 236.699196 197.837388 
L 234.75152 199.566127 
L 232.79644 201.301437 
L 239.381255 205.804037 
L 246.008759 200.888709 
L 247.923618 207.577908 
L 249.852262 205.903997 
L 251.773475 204.236537 
L 253.687726 202.500037 
L 255.593776 200.920818 
L 257.492949 199.272486 
L 250.940747 196.026579 
z
" clip-path="url(#p61e4043e2c)" style="fill: #81a4fb"/>
    <path d="M 308.222708 209.811819 
L 306.421777 211.479565 
L 304.613924 213.153723 
L 302.799108 214.834329 
L 300.977289 216.521419 
L 299.148425 218.215033 
L 297.312478 219.915208 
L 304.031419 223.551396 
L 310.805384 226.143105 
L 312.613514 224.725877 
L 314.423419 223.013055 
L 316.226327 221.306855 
L 318.022277 219.60724 
L 319.811311 217.91417 
L 321.593466 216.227609 
L 314.883697 213.38822 
z
" clip-path="url(#p61e4043e2c)" style="fill: #445acc"/>
    <path d="M 257.492949 199.272486 
L 255.593776 200.920818 
L 253.687726 202.500037 
L 251.773475 204.236537 
L 249.852262 205.903997 
L 247.923618 207.577908 
L 246.008759 200.888709 
L 252.637855 209.002525 
L 259.264135 217.419175 
L 261.182719 215.490331 
L 263.09639 213.341602 
L 264.998696 211.653947 
L 266.887815 210.501087 
L 268.779542 208.448912 
L 270.653208 207.307401 
L 264.067063 202.831907 
z
" clip-path="url(#p61e4043e2c)" style="fill: #6e90f2"/>
    <path d="M 193.533902 166.851731 
L 191.510529 168.672154 
L 189.49673 171.34205 
L 187.447899 172.639964 
L 185.397344 174.250489 
L 183.338837 175.86726 
L 181.272331 177.490314 
L 187.887932 185.137154 
L 194.495777 192.250379 
L 196.458669 186.076608 
L 198.496571 184.436227 
L 200.527794 182.87877 
L 202.547601 181.098003 
L 204.619322 183.518439 
L 206.622626 181.898199 
L 200.077762 174.411816 
z
" clip-path="url(#p61e4043e2c)" style="fill: #dedcdb"/>
    <path d="M 321.593466 216.227609 
L 319.811311 217.91417 
L 318.022277 219.60724 
L 316.226327 221.306855 
L 314.423419 223.013055 
L 312.613514 224.725877 
L 310.805384 226.143105 
L 317.602432 228.973386 
L 319.410255 227.245089 
L 321.203493 225.749863 
L 322.997167 224.034668 
L 324.78915 222.175576 
L 326.574436 220.323432 
L 328.339452 218.853652 
z
" clip-path="url(#p61e4043e2c)" style="fill: #3e51c5"/>
    <path d="M 270.653208 207.307401 
L 268.779542 208.448912 
L 266.887815 210.501087 
L 264.998696 211.653947 
L 263.09639 213.341602 
L 261.182719 215.490331 
L 259.264135 217.419175 
L 265.947659 220.305747 
L 272.643119 224.419327 
L 274.540806 222.697699 
L 276.431116 220.982765 
L 278.314091 219.274485 
L 280.189774 217.57282 
L 282.058207 215.877733 
L 283.919433 214.189184 
L 277.284463 210.064158 
z
" clip-path="url(#p61e4043e2c)" style="fill: #5977e3"/>
    <path d="M 206.622626 181.898199 
L 204.619322 183.518439 
L 202.547601 181.098003 
L 200.527794 182.87877 
L 198.496571 184.436227 
L 196.458669 186.076608 
L 194.495777 192.250379 
L 201.067757 196.768701 
L 207.639578 199.8451 
L 209.647083 196.870547 
L 211.680253 196.658374 
L 213.687844 194.998114 
L 215.690637 193.649122 
L 217.649109 188.266534 
L 219.663556 189.979714 
L 213.137268 186.350687 
z
" clip-path="url(#p61e4043e2c)" style="fill: #bfd3f6"/>
    <path d="M 179.989009 132.127376 
L 177.92351 133.819152 
L 175.313017 114.275125 
L 173.390011 122.712697 
L 171.393129 128.290848 
L 169.282469 129.836811 
L 167.510168 143.475375 
L 174.578016 166.75282 
L 181.272331 177.490314 
L 183.338837 175.86726 
L 185.397344 174.250489 
L 187.447899 172.639964 
L 189.49673 171.34205 
L 191.510529 168.672154 
L 193.533902 166.851731 
L 187.080831 163.505061 
z
" clip-path="url(#p61e4043e2c)" style="fill: #e67259"/>
    <path d="M 219.663556 189.979714 
L 217.649109 188.266534 
L 215.690637 193.649122 
L 213.687844 194.998114 
L 211.680253 196.658374 
L 209.647083 196.870547 
L 207.639578 199.8451 
L 214.243617 203.470587 
L 220.912193 212.387916 
L 222.915297 211.069135 
L 224.904917 208.918515 
L 226.891134 207.460015 
L 228.867266 205.551762 
L 230.833914 203.043357 
L 232.79644 201.301437 
L 226.2061 192.404045 
z
" clip-path="url(#p61e4043e2c)" style="fill: #9ebeff"/>
    <path d="M 283.919433 214.189184 
L 282.058207 215.877733 
L 280.189774 217.57282 
L 278.314091 219.274485 
L 276.431116 220.982765 
L 274.540806 222.697699 
L 272.643119 224.419327 
L 279.383779 227.103677 
L 286.150029 230.028093 
L 288.034049 228.060166 
L 289.901693 226.55475 
L 291.761711 225.05548 
L 293.619162 223.335393 
L 295.469404 221.621982 
L 297.312478 219.915208 
L 290.605043 216.895397 
z
" clip-path="url(#p61e4043e2c)" style="fill: #4e68d8"/>
    <path d="M 232.79644 201.301437 
L 230.833914 203.043357 
L 228.867266 205.551762 
L 226.891134 207.460015 
L 224.904917 208.918515 
L 222.915297 211.069135 
L 220.912193 212.387916 
L 227.550363 216.117815 
L 234.203879 216.189409 
L 236.194686 218.750509 
L 238.167939 216.883553 
L 240.134371 210.985203 
L 242.095927 209.213093 
L 244.043728 211.021151 
L 246.008759 200.888709 
L 239.381255 205.804037 
z
" clip-path="url(#p61e4043e2c)" style="fill: #81a4fb"/>
    <path d="M 297.312478 219.915208 
L 295.469404 221.621982 
L 293.619162 223.335393 
L 291.761711 225.05548 
L 289.901693 226.55475 
L 288.034049 228.060166 
L 286.150029 230.028093 
L 292.92347 233.954009 
L 299.752295 236.599836 
L 301.612565 234.839935 
L 303.465543 233.086932 
L 305.311272 231.340788 
L 307.149794 229.601462 
L 308.981151 227.868914 
L 310.805384 226.143105 
L 304.031419 223.551396 
z
" clip-path="url(#p61e4043e2c)" style="fill: #455cce"/>
    <path d="M 246.008759 200.888709 
L 244.043728 211.021151 
L 242.095927 209.213093 
L 240.134371 210.985203 
L 238.167939 216.883553 
L 236.194686 218.750509 
L 234.203879 216.189409 
L 240.897402 224.61034 
L 247.607456 227.387627 
L 249.577816 223.660188 
L 251.523754 224.063823 
L 253.472371 222.031198 
L 255.409477 220.690366 
L 257.341167 218.975612 
L 259.264135 217.419175 
L 252.637855 209.002525 
z
" clip-path="url(#p61e4043e2c)" style="fill: #7093f3"/>
    <path d="M 181.272331 177.490314 
L 179.197781 179.119686 
L 177.115137 180.755414 
L 175.018301 182.165601 
L 172.919122 183.813853 
L 170.811705 185.468573 
L 168.702687 187.362632 
L 175.289214 191.071236 
L 182.075444 202.302164 
L 184.165816 200.610424 
L 186.247998 198.925313 
L 188.320433 197.169907 
L 190.387982 195.574821 
L 192.44735 193.986046 
L 194.495777 192.250379 
L 187.887932 185.137154 
z
" clip-path="url(#p61e4043e2c)" style="fill: #dadce0"/>
    <path d="M 310.805384 226.143105 
L 308.981151 227.868914 
L 307.149794 229.601462 
L 305.311272 231.340788 
L 303.465543 233.086932 
L 301.612565 234.839935 
L 299.752295 236.599836 
L 306.601557 239.638727 
L 308.452262 237.869141 
L 310.295698 236.106507 
L 312.131907 234.350784 
L 313.965562 232.45027 
L 315.787548 230.708433 
L 317.602432 228.973386 
z
" clip-path="url(#p61e4043e2c)" style="fill: #3e51c5"/>
    <path d="M 194.495777 192.250379 
L 192.44735 193.986046 
L 190.387982 195.574821 
L 188.320433 197.169907 
L 186.247998 198.925313 
L 184.165816 200.610424 
L 182.075444 202.302164 
L 188.638068 203.566722 
L 195.33146 210.021969 
L 197.403017 208.309119 
L 199.465165 206.525994 
L 201.522939 204.98049 
L 203.569008 203.210818 
L 205.607206 201.447953 
L 207.639578 199.8451 
L 201.067757 196.768701 
z
" clip-path="url(#p61e4043e2c)" style="fill: #b9d0f9"/>
    <path d="M 259.264135 217.419175 
L 257.341167 218.975612 
L 255.409477 220.690366 
L 253.472371 222.031198 
L 251.523754 224.063823 
L 249.577816 223.660188 
L 247.607456 227.387627 
L 254.337898 231.706084 
L 261.099622 234.891865 
L 263.064475 230.836293 
L 264.977726 231.373556 
L 266.905359 229.624761 
L 268.825439 227.882818 
L 270.738012 226.147686 
L 272.643119 224.419327 
L 265.947659 220.305747 
z
" clip-path="url(#p61e4043e2c)" style="fill: #5a78e4"/>
    <path d="M 167.510168 143.475375 
L 165.351836 143.631934 
L 163.271351 146.709186 
L 161.079012 146.400349 
L 158.938351 148.070135 
L 156.731748 148.001682 
L 154.61046 150.794259 
L 162.154251 184.132669 
L 168.702687 187.362632 
L 170.811705 185.468573 
L 172.919122 183.813853 
L 175.018301 182.165601 
L 177.115137 180.755414 
L 179.197781 179.119686 
L 181.272331 177.490314 
L 174.578016 166.75282 
z
" clip-path="url(#p61e4043e2c)" style="fill: #f08b6e"/>
    <path d="M 207.639578 199.8451 
L 205.607206 201.447953 
L 203.569008 203.210818 
L 201.522939 204.98049 
L 199.465165 206.525994 
L 197.403017 208.309119 
L 195.33146 210.021969 
L 202.024638 215.869594 
L 208.74028 222.497865 
L 210.785 220.450323 
L 212.834021 219.484737 
L 214.86669 217.834271 
L 216.889116 215.960838 
L 218.903227 214.018067 
L 220.912193 212.387916 
L 214.243617 203.470587 
z
" clip-path="url(#p61e4043e2c)" style="fill: #9bbcff"/>
    <path d="M 272.643119 224.419327 
L 270.738012 226.147686 
L 268.825439 227.882818 
L 266.905359 229.624761 
L 264.977726 231.373556 
L 263.064475 230.836293 
L 261.099622 234.891865 
L 267.886442 238.320234 
L 274.695468 242.068166 
L 276.619971 240.208246 
L 278.535775 238.431888 
L 280.44275 236.738767 
L 282.342106 235.05241 
L 284.258964 232.00338 
L 286.150029 230.028093 
L 279.383779 227.103677 
z
" clip-path="url(#p61e4043e2c)" style="fill: #4c66d6"/>
    <path d="M 220.912193 212.387916 
L 218.903227 214.018067 
L 216.889116 215.960838 
L 214.86669 217.834271 
L 212.834021 219.484737 
L 210.785 220.450323 
L 208.74028 222.497865 
L 215.434486 226.136739 
L 222.129162 226.396971 
L 224.160987 224.563047 
L 226.208848 227.041704 
L 228.221292 225.216877 
L 230.196533 215.872671 
L 232.211733 217.988856 
L 234.203879 216.189409 
L 227.550363 216.117815 
z
" clip-path="url(#p61e4043e2c)" style="fill: #82a6fb"/>
    <path d="M 286.150029 230.028093 
L 284.258964 232.00338 
L 282.342106 235.05241 
L 280.44275 236.738767 
L 278.535775 238.431888 
L 276.619971 240.208246 
L 274.695468 242.068166 
L 281.549383 244.681234 
L 288.433551 247.383131 
L 290.338435 245.580873 
L 292.235764 243.785764 
L 294.125581 241.997762 
L 295.999071 240.598371 
L 297.884689 238.366677 
L 299.752295 236.599836 
L 292.92347 233.954009 
z
" clip-path="url(#p61e4043e2c)" style="fill: #4358cb"/>
    <path d="M 234.203879 216.189409 
L 232.211733 217.988856 
L 230.196533 215.872671 
L 228.221292 225.216877 
L 226.208848 227.041704 
L 224.160987 224.563047 
L 222.129162 226.396971 
L 228.905313 235.071637 
L 235.665165 235.593388 
L 237.676825 234.044154 
L 239.680173 234.269224 
L 241.675642 230.273504 
L 243.66009 230.508243 
L 245.636617 229.442027 
L 247.607456 227.387627 
L 240.897402 224.61034 
z
" clip-path="url(#p61e4043e2c)" style="fill: #7295f4"/>
    <path d="M 168.702687 187.362632 
L 166.470652 185.373194 
L 164.446657 190.705359 
L 162.298689 192.152898 
L 160.272447 197.657687 
L 157.931876 193.736735 
L 155.774383 195.748793 
L 162.329745 196.61755 
L 169.298083 210.492375 
L 171.414575 207.828708 
L 173.633169 209.213766 
L 175.623147 202.371415 
L 177.869935 205.705686 
L 179.974954 203.923293 
L 182.075444 202.302164 
L 175.289214 191.071236 
z
" clip-path="url(#p61e4043e2c)" style="fill: #dfdbd9"/>
    <path d="M 299.752295 236.599836 
L 297.884689 238.366677 
L 295.999071 240.598371 
L 294.125581 241.997762 
L 292.235764 243.785764 
L 290.338435 245.580873 
L 288.433551 247.383131 
L 295.313921 251.632272 
L 297.208257 249.818579 
L 299.177914 244.641225 
L 301.055814 242.99932 
L 302.838323 244.725783 
L 304.743538 241.415305 
L 306.601557 239.638727 
z
" clip-path="url(#p61e4043e2c)" style="fill: #3e51c5"/>
    <path d="M 182.075444 202.302164 
L 179.974954 203.923293 
L 177.869935 205.705686 
L 175.623147 202.371415 
L 173.633169 209.213766 
L 171.414575 207.828708 
L 169.298083 210.492375 
L 175.975825 214.370504 
L 182.730165 220.520547 
L 184.793881 216.199788 
L 186.935997 215.69931 
L 189.069043 215.278824 
L 191.16372 213.468032 
L 193.251711 211.741593 
L 195.33146 210.021969 
L 188.638068 203.566722 
z
" clip-path="url(#p61e4043e2c)" style="fill: #bed2f6"/>
    <path d="M 247.607456 227.387627 
L 245.636617 229.442027 
L 243.66009 230.508243 
L 241.675642 230.273504 
L 239.680173 234.269224 
L 237.676825 234.044154 
L 235.665165 235.593388 
L 242.460902 242.600335 
L 249.278118 245.923596 
L 251.269024 243.81042 
L 253.251653 241.858824 
L 255.223715 240.375214 
L 257.190768 238.438071 
L 259.149062 236.66146 
L 261.099622 234.891865 
L 254.337898 231.706084 
z
" clip-path="url(#p61e4043e2c)" style="fill: #5a78e4"/>
    <path d="M 154.61046 150.794259 
L 152.521431 154.70671 
L 150.263516 154.018833 
L 148.097447 156.198633 
L 145.804004 155.192113 
L 143.360851 150.644324 
L 142.170546 178.503909 
L 149.223658 193.947497 
L 155.774383 195.748793 
L 157.931876 193.736735 
L 160.272447 197.657687 
L 162.298689 192.152898 
L 164.446657 190.705359 
L 166.470652 185.373194 
L 168.702687 187.362632 
L 162.154251 184.132669 
z
" clip-path="url(#p61e4043e2c)" style="fill: #f18f71"/>
    <path d="M 195.33146 210.021969 
L 193.251711 211.741593 
L 191.16372 213.468032 
L 189.069043 215.278824 
L 186.935997 215.69931 
L 184.793881 216.199788 
L 182.730165 220.520547 
L 189.456054 224.738079 
L 196.287683 233.627551 
L 198.384981 231.844721 
L 200.472675 229.991703 
L 202.55456 228.300327 
L 204.625827 226.461584 
L 206.690067 224.70701 
L 208.74028 222.497865 
L 202.024638 215.869594 
z
" clip-path="url(#p61e4043e2c)" style="fill: #9bbcff"/>
    <path d="M 261.099622 234.891865 
L 259.149062 236.66146 
L 257.190768 238.438071 
L 255.223715 240.375214 
L 253.251653 241.858824 
L 251.269024 243.81042 
L 249.278118 245.923596 
L 256.124262 249.106317 
L 262.994881 252.765191 
L 264.962456 251.16974 
L 266.924392 249.350304 
L 268.878503 247.538123 
L 270.825825 245.656448 
L 272.764489 243.858744 
L 274.695468 242.068166 
L 267.886442 238.320234 
z
" clip-path="url(#p61e4043e2c)" style="fill: #4a63d3"/>
    <path d="M 208.74028 222.497865 
L 206.690067 224.70701 
L 204.625827 226.461584 
L 202.55456 228.300327 
L 200.472675 229.991703 
L 198.384981 231.844721 
L 196.287683 233.627551 
L 203.032682 237.020278 
L 209.772266 237.786166 
L 211.847002 235.442193 
L 213.917657 233.417004 
L 215.982703 231.632054 
L 218.038128 229.699408 
L 220.088752 228.160781 
L 222.129162 226.396971 
L 215.434486 226.136739 
z
" clip-path="url(#p61e4043e2c)" style="fill: #82a6fb"/>
    <path d="M 142.170546 178.503909 
L 139.966204 180.175969 
L 138.061122 189.3465 
L 135.981976 194.265377 
L 142.50333 195.446274 
L 149.221586 200.965696 
L 151.603747 204.495473 
L 153.59787 197.454721 
L 155.774383 195.748793 
L 149.223658 193.947497 
z
" clip-path="url(#p61e4043e2c)" style="fill: #f5c0a7"/>
    <path d="M 155.774383 195.748793 
L 153.59787 197.454721 
L 151.603747 204.495473 
L 149.221586 200.965696 
L 156.13672 211.826031 
L 162.909956 218.613137 
L 164.81046 208.178917 
L 167.153968 212.462923 
L 169.298083 210.492375 
L 162.329745 196.61755 
z
" clip-path="url(#p61e4043e2c)" style="fill: #e0dbd8"/>
    <path d="M 274.695468 242.068166 
L 272.764489 243.858744 
L 270.825825 245.656448 
L 268.878503 247.538123 
L 266.924392 249.350304 
L 264.962456 251.16974 
L 262.994881 252.765191 
L 269.90258 255.589393 
L 276.834675 258.890035 
L 278.785434 257.043302 
L 280.728365 255.203981 
L 282.663513 253.372026 
L 284.600934 251.009263 
L 286.521066 249.19258 
L 288.433551 247.383131 
L 281.549383 244.681234 
z
" clip-path="url(#p61e4043e2c)" style="fill: #4257c9"/>
    <path d="M 169.298083 210.492375 
L 167.153968 212.462923 
L 164.81046 208.178917 
L 162.909956 218.613137 
L 169.617488 222.836666 
L 176.357537 227.464268 
L 178.459915 223.972072 
L 180.658772 224.694023 
L 182.730165 220.520547 
L 175.975825 214.370504 
z
" clip-path="url(#p61e4043e2c)" style="fill: #bcd2f7"/>
    <path d="M 222.129162 226.396971 
L 220.088752 228.160781 
L 218.038128 229.699408 
L 215.982703 231.632054 
L 213.917657 233.417004 
L 211.847002 235.442193 
L 209.772266 237.786166 
L 216.622382 245.708498 
L 223.44384 249.066145 
L 225.502406 247.316627 
L 227.551408 245.34216 
L 229.581411 240.744941 
L 231.625359 241.338956 
L 233.651309 239.618727 
L 235.665165 235.593388 
L 228.905313 235.071637 
z
" clip-path="url(#p61e4043e2c)" style="fill: #7396f5"/>
    <path d="M 182.730165 220.520547 
L 180.658772 224.694023 
L 178.459915 223.972072 
L 176.357537 227.464268 
L 183.18144 234.831188 
L 189.860274 234.889835 
L 191.991321 233.324485 
L 194.180522 235.339943 
L 196.287683 233.627551 
L 189.456054 224.738079 
z
" clip-path="url(#p61e4043e2c)" style="fill: #9bbcff"/>
    <path d="M 288.433551 247.383131 
L 286.521066 249.19258 
L 284.600934 251.009263 
L 282.663513 253.372026 
L 280.728365 255.203981 
L 278.785434 257.043302 
L 276.834675 258.890035 
L 283.846925 259.418575 
L 285.727754 260.81035 
L 287.660406 258.959972 
L 289.585302 257.11702 
L 291.502489 255.281449 
L 293.487376 250.069752 
L 295.313921 251.632272 
z
" clip-path="url(#p61e4043e2c)" style="fill: #3d50c3"/>
    <path d="M 235.665165 235.593388 
L 233.651309 239.618727 
L 231.625359 241.338956 
L 229.581411 240.744941 
L 227.551408 245.34216 
L 225.502406 247.316627 
L 223.44384 249.066145 
L 230.298612 253.756274 
L 237.172004 256.444193 
L 239.210395 254.750298 
L 241.240503 252.753779 
L 243.261809 251.383587 
L 245.275998 249.247437 
L 247.281672 247.427841 
L 249.278118 245.923596 
L 242.460902 242.600335 
z
" clip-path="url(#p61e4043e2c)" style="fill: #5977e3"/>
    <path d="M 196.287683 233.627551 
L 194.180522 235.339943 
L 191.991321 233.324485 
L 189.860274 234.889835 
L 196.718087 242.443267 
L 203.46943 242.606268 
L 205.580686 241.096762 
L 207.678771 239.282301 
L 209.772266 237.786166 
L 203.032682 237.020278 
z
" clip-path="url(#p61e4043e2c)" style="fill: #85a8fc"/>
    <path d="M 249.278118 245.923596 
L 247.281672 247.427841 
L 245.275998 249.247437 
L 243.261809 251.383587 
L 241.240503 252.753779 
L 239.210395 254.750298 
L 237.172004 256.444193 
L 244.07605 260.154695 
L 251.006215 264.034979 
L 253.025176 262.008453 
L 255.034753 260.222332 
L 257.036646 258.366151 
L 259.030476 256.517448 
L 261.01629 254.676175 
L 262.994881 252.765191 
L 256.124262 249.106317 
z
" clip-path="url(#p61e4043e2c)" style="fill: #4a63d3"/>
    <path d="M 209.772266 237.786166 
L 207.678771 239.282301 
L 205.580686 241.096762 
L 203.46943 242.606268 
L 210.371354 251.357661 
L 217.219452 254.591512 
L 219.302642 252.742272 
L 221.378013 250.97815 
L 223.44384 249.066145 
L 216.622382 245.708498 
z
" clip-path="url(#p61e4043e2c)" style="fill: #6f92f3"/>
    <path d="M 262.994881 252.765191 
L 261.01629 254.676175 
L 259.030476 256.517448 
L 257.036646 258.366151 
L 255.034753 260.222332 
L 253.025176 262.008453 
L 251.006215 264.034979 
L 257.970164 266.919468 
L 264.963023 270.128618 
L 266.969718 267.536732 
L 268.956175 266.041435 
L 270.934945 264.475155 
L 272.911618 262.451037 
L 274.876038 260.744225 
L 276.834675 258.890035 
L 269.90258 255.589393 
z
" clip-path="url(#p61e4043e2c)" style="fill: #4257c9"/>
    <path d="M 223.44384 249.066145 
L 221.378013 250.97815 
L 219.302642 252.742272 
L 217.219452 254.591512 
L 224.106997 259.396435 
L 231.007731 262.191952 
L 233.07089 260.320205 
L 235.125686 258.456044 
L 237.172004 256.444193 
L 230.298612 253.756274 
z
" clip-path="url(#p61e4043e2c)" style="fill: #5875e1"/>
    <path d="M 276.834675 258.890035 
L 274.876038 260.744225 
L 272.911618 262.451037 
L 270.934945 264.475155 
L 268.956175 266.041435 
L 266.969718 267.536732 
L 264.963023 270.128618 
L 271.978044 273.974726 
L 273.966321 272.071091 
L 275.946505 270.175204 
L 277.923593 267.976754 
L 279.887984 266.096607 
L 281.838996 264.533561 
L 283.846925 259.418575 
z
" clip-path="url(#p61e4043e2c)" style="fill: #3c4ec2"/>
    <path d="M 237.172004 256.444193 
L 235.125686 258.456044 
L 233.07089 260.320205 
L 231.007731 262.191952 
L 237.941401 265.780253 
L 244.902771 269.539019 
L 246.945558 267.722736 
L 248.980499 265.758415 
L 251.006215 264.034979 
L 244.07605 260.154695 
z
" clip-path="url(#p61e4043e2c)" style="fill: #4b64d5"/>
    <path d="M 251.006215 264.034979 
L 248.980499 265.758415 
L 246.945558 267.722736 
L 244.902771 269.539019 
L 251.895792 272.454186 
L 258.917575 275.851685 
L 260.940977 273.936183 
L 262.95611 272.02851 
L 264.963023 270.128618 
L 257.970164 266.919468 
z
" clip-path="url(#p61e4043e2c)" style="fill: #4055c8"/>
    <path d="M 264.963023 270.128618 
L 262.95611 272.02851 
L 260.940977 273.936183 
L 258.917575 275.851685 
L 265.964159 279.732596 
L 267.977013 277.80543 
L 269.981625 275.886157 
L 271.978044 273.974726 
z
" clip-path="url(#p61e4043e2c)" style="fill: #3b4cc0"/>
   </g>
  </g>
 </g>
 <defs>
  <clipPath id="p61e4043e2c">
   <rect x="103.104" y="41.472" width="266.112" height="266.112"/>
  </clipPath>
 </defs>
</svg>
