<?xml version="1.0" encoding="utf-8" standalone="no"?>
<!DOCTYPE svg PUBLIC "-//W3C//DTD SVG 1.1//EN"
  "http://www.w3.org/Graphics/SVG/1.1/DTD/svg11.dtd">
<svg xmlns:xlink="http://www.w3.org/1999/xlink" width="460.8pt" height="345.6pt" viewBox="0 0 460.8 345.6" xmlns="http://www.w3.org/2000/svg" version="1.1">
 <metadata>
  <rdf:RDF xmlns:dc="http://purl.org/dc/elements/1.1/" xmlns:cc="http://creativecommons.org/ns#" xmlns:rdf="http://www.w3.org/1999/02/22-rdf-syntax-ns#">
   <cc:Work>
    <dc:type rdf:resource="http://purl.org/dc/dcmitype/StillImage"/>
    <dc:date>2023-12-12T22:03:42.987310</dc:date>
    <dc:format>image/svg+xml</dc:format>
    <dc:creator>
     <cc:Agent>
      <dc:title>Matplotlib v3.8.0, https://matplotlib.org/</dc:title>
     </cc:Agent>
    </dc:creator>
   </cc:Work>
  </rdf:RDF>
 </metadata>
 <defs>
  <style type="text/css">*{stroke-linejoin: round; stroke-linecap: butt}</style>
 </defs>
 <g id="figure_1">
  <g id="patch_1">
   <path d="M 0 345.6 
L 460.8 345.6 
L 460.8 0 
L 0 0 
z
" style="fill: #ffffff"/>
  </g>
  <g id="patch_2">
   <path d="M 103.104 307.584 
L 369.216 307.584 
L 369.216 41.472 
L 103.104 41.472 
z
" style="fill: #ffffff"/>
  </g>
  <g id="pane3d_1">
   <g id="patch_3">
    <path d="M 220.16302 161.695664 
L 354.723457 211.983879 
L 360.317841 104.521556 
L 219.2618 57.80302 
" style="fill: #f2f2f2; opacity: 0.5; stroke: #f2f2f2; stroke-linejoin: miter"/>
   </g>
  </g>
  <g id="pane3d_2">
   <g id="patch_4">
    <path d="M 220.16302 161.695664 
L 121.935341 235.832391 
L 116.052708 126.760478 
L 219.2618 57.80302 
" style="fill: #e6e6e6; opacity: 0.5; stroke: #e6e6e6; stroke-linejoin: miter"/>
   </g>
  </g>
  <g id="pane3d_3">
   <g id="patch_5">
    <path d="M 220.16302 161.695664 
L 121.935341 235.832391 
L 262.215502 294.908063 
L 354.723457 211.983879 
" style="fill: #ececec; opacity: 0.5; stroke: #ececec; stroke-linejoin: miter"/>
   </g>
  </g>
  <g id="grid3d_1">
   <g id="Line3DCollection_1">
    <path d="M 351.358186 215.00051 
L 216.574126 164.404359 
L 215.504511 60.313391 
" style="fill: none; stroke: #b0b0b0; stroke-width: 0.8"/>
    <path d="M 340.869682 224.402411 
L 205.39622 172.840814 
L 203.79553 68.136554 
" style="fill: none; stroke: #b0b0b0; stroke-width: 0.8"/>
    <path d="M 330.174552 233.989532 
L 194.009882 181.434582 
L 191.857943 76.112456 
" style="fill: none; stroke: #b0b0b0; stroke-width: 0.8"/>
    <path d="M 319.26663 243.767399 
L 182.409226 190.190104 
L 179.684989 84.245616 
" style="fill: none; stroke: #b0b0b0; stroke-width: 0.8"/>
    <path d="M 308.139501 253.741764 
L 170.588144 199.111992 
L 167.269637 92.540729 
" style="fill: none; stroke: #b0b0b0; stroke-width: 0.8"/>
    <path d="M 296.78649 263.91861 
L 158.540294 208.205032 
L 154.604576 101.002681 
" style="fill: none; stroke: #b0b0b0; stroke-width: 0.8"/>
    <path d="M 285.200649 274.304164 
L 146.259086 217.474197 
L 141.682193 109.636559 
" style="fill: none; stroke: #b0b0b0; stroke-width: 0.8"/>
    <path d="M 273.374741 284.904915 
L 133.737675 226.924653 
L 128.494568 118.447654 
" style="fill: none; stroke: #b0b0b0; stroke-width: 0.8"/>
   </g>
  </g>
  <g id="grid3d_2">
   <g id="Line3DCollection_2">
    <path d="M 226.235506 60.112749 
L 226.83169 164.187894 
L 128.857759 238.747604 
" style="fill: none; stroke: #b0b0b0; stroke-width: 0.8"/>
    <path d="M 257.426604 70.443413 
L 256.637927 175.327145 
L 159.835899 251.793314 
" style="fill: none; stroke: #b0b0b0; stroke-width: 0.8"/>
    <path d="M 289.424594 81.041323 
L 287.180391 186.741539 
L 191.643366 265.188277 
" style="fill: none; stroke: #b0b0b0; stroke-width: 0.8"/>
    <path d="M 322.261198 91.916987 
L 318.4867 198.4414 
L 224.313916 278.946707 
" style="fill: none; stroke: #b0b0b0; stroke-width: 0.8"/>
    <path d="M 355.969819 103.081467 
L 350.585873 210.437572 
L 257.883162 293.083601 
" style="fill: none; stroke: #b0b0b0; stroke-width: 0.8"/>
   </g>
  </g>
  <g id="grid3d_3">
   <g id="Line3DCollection_3">
    <path d="M 121.408894 226.071352 
L 220.082092 152.366317 
L 355.22466 202.356298 
" style="fill: none; stroke: #b0b0b0; stroke-width: 0.8"/>
    <path d="M 120.508028 209.368085 
L 219.943733 136.416315 
L 356.082075 185.88624 
" style="fill: none; stroke: #b0b0b0; stroke-width: 0.8"/>
    <path d="M 119.593342 192.408575 
L 219.803415 120.240385 
L 356.952319 169.169753 
" style="fill: none; stroke: #b0b0b0; stroke-width: 0.8"/>
    <path d="M 118.664515 175.18688 
L 219.661094 103.833694 
L 357.835682 152.201266 
" style="fill: none; stroke: #b0b0b0; stroke-width: 0.8"/>
    <path d="M 117.721217 157.696872 
L 219.516729 87.191266 
L 358.732463 134.975038 
" style="fill: none; stroke: #b0b0b0; stroke-width: 0.8"/>
    <path d="M 116.763107 139.932232 
L 219.370275 70.307985 
L 359.642969 117.48515 
" style="fill: none; stroke: #b0b0b0; stroke-width: 0.8"/>
   </g>
  </g>
  <g id="axis3d_1">
   <g id="line2d_1">
    <path d="M 354.723457 211.983879 
L 262.215502 294.908063 
" style="fill: none; stroke: #000000; stroke-width: 0.8; stroke-linecap: square"/>
   </g>
   <g id="xtick_1">
    <g id="line2d_2">
     <path d="M 350.220683 214.573506 
L 353.636221 215.855654 
" style="fill: none; stroke: #000000; stroke-width: 0.8; stroke-linecap: square"/>
    </g>
    <g id="text_1">
     <!-- 0 -->
     <g transform="translate(359.557191 235.55685) scale(0.1 -0.1)">
      <defs>
       <path id="DejaVuSans-30" d="M 2034 4250 
Q 1547 4250 1301 3770 
Q 1056 3291 1056 2328 
Q 1056 1369 1301 889 
Q 1547 409 2034 409 
Q 2525 409 2770 889 
Q 3016 1369 3016 2328 
Q 3016 3291 2770 3770 
Q 2525 4250 2034 4250 
z
M 2034 4750 
Q 2819 4750 3233 4129 
Q 3647 3509 3647 2328 
Q 3647 1150 3233 529 
Q 2819 -91 2034 -91 
Q 1250 -91 836 529 
Q 422 1150 422 2328 
Q 422 3509 836 4129 
Q 1250 4750 2034 4750 
z
" transform="scale(0.015625)"/>
      </defs>
      <use xlink:href="#DejaVuSans-30"/>
     </g>
    </g>
   </g>
   <g id="xtick_2">
    <g id="line2d_3">
     <path d="M 339.72578 223.967038 
L 343.160561 225.274326 
" style="fill: none; stroke: #000000; stroke-width: 0.8; stroke-linecap: square"/>
    </g>
    <g id="text_2">
     <!-- 25 -->
     <g transform="translate(345.990739 245.092214) scale(0.1 -0.1)">
      <defs>
       <path id="DejaVuSans-32" d="M 1228 531 
L 3431 531 
L 3431 0 
L 469 0 
L 469 531 
Q 828 903 1448 1529 
Q 2069 2156 2228 2338 
Q 2531 2678 2651 2914 
Q 2772 3150 2772 3378 
Q 2772 3750 2511 3984 
Q 2250 4219 1831 4219 
Q 1534 4219 1204 4116 
Q 875 4013 500 3803 
L 500 4441 
Q 881 4594 1212 4672 
Q 1544 4750 1819 4750 
Q 2544 4750 2975 4387 
Q 3406 4025 3406 3419 
Q 3406 3131 3298 2873 
Q 3191 2616 2906 2266 
Q 2828 2175 2409 1742 
Q 1991 1309 1228 531 
z
" transform="scale(0.015625)"/>
       <path id="DejaVuSans-35" d="M 691 4666 
L 3169 4666 
L 3169 4134 
L 1269 4134 
L 1269 2991 
Q 1406 3038 1543 3061 
Q 1681 3084 1819 3084 
Q 2600 3084 3056 2656 
Q 3513 2228 3513 1497 
Q 3513 744 3044 326 
Q 2575 -91 1722 -91 
Q 1428 -91 1123 -41 
Q 819 9 494 109 
L 494 744 
Q 775 591 1075 516 
Q 1375 441 1709 441 
Q 2250 441 2565 725 
Q 2881 1009 2881 1497 
Q 2881 1984 2565 2268 
Q 2250 2553 1709 2553 
Q 1456 2553 1204 2497 
Q 953 2441 691 2322 
L 691 4666 
z
" transform="scale(0.015625)"/>
      </defs>
      <use xlink:href="#DejaVuSans-32"/>
      <use xlink:href="#DejaVuSans-35" x="63.623047"/>
     </g>
    </g>
   </g>
   <g id="xtick_3">
    <g id="line2d_4">
     <path d="M 329.024219 233.545542 
L 332.478341 234.878716 
" style="fill: none; stroke: #000000; stroke-width: 0.8; stroke-linecap: square"/>
    </g>
    <g id="text_3">
     <!-- 50 -->
     <g transform="translate(335.400793 254.815567) scale(0.1 -0.1)">
      <use xlink:href="#DejaVuSans-35"/>
      <use xlink:href="#DejaVuSans-30" x="63.623047"/>
     </g>
    </g>
   </g>
   <g id="xtick_4">
    <g id="line2d_5">
     <path d="M 318.109834 243.314534 
L 321.583392 244.674372 
" style="fill: none; stroke: #000000; stroke-width: 0.8; stroke-linecap: square"/>
    </g>
    <g id="text_4">
     <!-- 75 -->
     <g transform="translate(324.599988 264.732524) scale(0.1 -0.1)">
      <defs>
       <path id="DejaVuSans-37" d="M 525 4666 
L 3525 4666 
L 3525 4397 
L 1831 0 
L 1172 0 
L 2766 4134 
L 525 4134 
L 525 4666 
z
" transform="scale(0.015625)"/>
      </defs>
      <use xlink:href="#DejaVuSans-37"/>
      <use xlink:href="#DejaVuSans-35" x="63.623047"/>
     </g>
    </g>
   </g>
   <g id="xtick_5">
    <g id="line2d_6">
     <path d="M 306.976214 253.279755 
L 310.469294 254.667063 
" style="fill: none; stroke: #000000; stroke-width: 0.8; stroke-linecap: square"/>
    </g>
    <g id="text_5">
     <!-- 100 -->
     <g transform="translate(310.400713 274.848926) scale(0.1 -0.1)">
      <defs>
       <path id="DejaVuSans-31" d="M 794 531 
L 1825 531 
L 1825 4091 
L 703 3866 
L 703 4441 
L 1819 4666 
L 2450 4666 
L 2450 531 
L 3481 531 
L 3481 0 
L 794 0 
L 794 531 
z
" transform="scale(0.015625)"/>
      </defs>
      <use xlink:href="#DejaVuSans-31"/>
      <use xlink:href="#DejaVuSans-30" x="63.623047"/>
      <use xlink:href="#DejaVuSans-30" x="127.246094"/>
     </g>
    </g>
   </g>
   <g id="xtick_6">
    <g id="line2d_7">
     <path d="M 295.616686 263.447176 
L 299.129369 264.862796 
" style="fill: none; stroke: #000000; stroke-width: 0.8; stroke-linecap: square"/>
    </g>
    <g id="text_6">
     <!-- 125 -->
     <g transform="translate(299.158848 285.17085) scale(0.1 -0.1)">
      <use xlink:href="#DejaVuSans-31"/>
      <use xlink:href="#DejaVuSans-32" x="63.623047"/>
      <use xlink:href="#DejaVuSans-35" x="127.246094"/>
     </g>
    </g>
   </g>
   <g id="xtick_7">
    <g id="line2d_8">
     <path d="M 284.024303 273.823015 
L 287.556663 275.267823 
" style="fill: none; stroke: #000000; stroke-width: 0.8; stroke-linecap: square"/>
    </g>
    <g id="text_7">
     <!-- 150 -->
     <g transform="translate(287.686253 295.704624) scale(0.1 -0.1)">
      <use xlink:href="#DejaVuSans-31"/>
      <use xlink:href="#DejaVuSans-35" x="63.623047"/>
      <use xlink:href="#DejaVuSans-30" x="127.246094"/>
     </g>
    </g>
   </g>
   <g id="xtick_8">
    <g id="line2d_9">
     <path d="M 272.191832 284.413746 
L 275.743935 285.888654 
" style="fill: none; stroke: #000000; stroke-width: 0.8; stroke-linecap: square"/>
    </g>
    <g id="text_8">
     <!-- 175 -->
     <g transform="translate(275.97575 306.456837) scale(0.1 -0.1)">
      <use xlink:href="#DejaVuSans-31"/>
      <use xlink:href="#DejaVuSans-37" x="63.623047"/>
      <use xlink:href="#DejaVuSans-35" x="127.246094"/>
     </g>
    </g>
   </g>
   <g id="text_9">
    <!-- Handover Cost -->
    <g transform="translate(310.29474 307.828352) rotate(-41.873068) scale(0.1 -0.1)">
     <defs>
      <path id="DejaVuSans-48" d="M 628 4666 
L 1259 4666 
L 1259 2753 
L 3553 2753 
L 3553 4666 
L 4184 4666 
L 4184 0 
L 3553 0 
L 3553 2222 
L 1259 2222 
L 1259 0 
L 628 0 
L 628 4666 
z
" transform="scale(0.015625)"/>
      <path id="DejaVuSans-61" d="M 2194 1759 
Q 1497 1759 1228 1600 
Q 959 1441 959 1056 
Q 959 750 1161 570 
Q 1363 391 1709 391 
Q 2188 391 2477 730 
Q 2766 1069 2766 1631 
L 2766 1759 
L 2194 1759 
z
M 3341 1997 
L 3341 0 
L 2766 0 
L 2766 531 
Q 2569 213 2275 61 
Q 1981 -91 1556 -91 
Q 1019 -91 701 211 
Q 384 513 384 1019 
Q 384 1609 779 1909 
Q 1175 2209 1959 2209 
L 2766 2209 
L 2766 2266 
Q 2766 2663 2505 2880 
Q 2244 3097 1772 3097 
Q 1472 3097 1187 3025 
Q 903 2953 641 2809 
L 641 3341 
Q 956 3463 1253 3523 
Q 1550 3584 1831 3584 
Q 2591 3584 2966 3190 
Q 3341 2797 3341 1997 
z
" transform="scale(0.015625)"/>
      <path id="DejaVuSans-6e" d="M 3513 2113 
L 3513 0 
L 2938 0 
L 2938 2094 
Q 2938 2591 2744 2837 
Q 2550 3084 2163 3084 
Q 1697 3084 1428 2787 
Q 1159 2491 1159 1978 
L 1159 0 
L 581 0 
L 581 3500 
L 1159 3500 
L 1159 2956 
Q 1366 3272 1645 3428 
Q 1925 3584 2291 3584 
Q 2894 3584 3203 3211 
Q 3513 2838 3513 2113 
z
" transform="scale(0.015625)"/>
      <path id="DejaVuSans-64" d="M 2906 2969 
L 2906 4863 
L 3481 4863 
L 3481 0 
L 2906 0 
L 2906 525 
Q 2725 213 2448 61 
Q 2172 -91 1784 -91 
Q 1150 -91 751 415 
Q 353 922 353 1747 
Q 353 2572 751 3078 
Q 1150 3584 1784 3584 
Q 2172 3584 2448 3432 
Q 2725 3281 2906 2969 
z
M 947 1747 
Q 947 1113 1208 752 
Q 1469 391 1925 391 
Q 2381 391 2643 752 
Q 2906 1113 2906 1747 
Q 2906 2381 2643 2742 
Q 2381 3103 1925 3103 
Q 1469 3103 1208 2742 
Q 947 2381 947 1747 
z
" transform="scale(0.015625)"/>
      <path id="DejaVuSans-6f" d="M 1959 3097 
Q 1497 3097 1228 2736 
Q 959 2375 959 1747 
Q 959 1119 1226 758 
Q 1494 397 1959 397 
Q 2419 397 2687 759 
Q 2956 1122 2956 1747 
Q 2956 2369 2687 2733 
Q 2419 3097 1959 3097 
z
M 1959 3584 
Q 2709 3584 3137 3096 
Q 3566 2609 3566 1747 
Q 3566 888 3137 398 
Q 2709 -91 1959 -91 
Q 1206 -91 779 398 
Q 353 888 353 1747 
Q 353 2609 779 3096 
Q 1206 3584 1959 3584 
z
" transform="scale(0.015625)"/>
      <path id="DejaVuSans-76" d="M 191 3500 
L 800 3500 
L 1894 563 
L 2988 3500 
L 3597 3500 
L 2284 0 
L 1503 0 
L 191 3500 
z
" transform="scale(0.015625)"/>
      <path id="DejaVuSans-65" d="M 3597 1894 
L 3597 1613 
L 953 1613 
Q 991 1019 1311 708 
Q 1631 397 2203 397 
Q 2534 397 2845 478 
Q 3156 559 3463 722 
L 3463 178 
Q 3153 47 2828 -22 
Q 2503 -91 2169 -91 
Q 1331 -91 842 396 
Q 353 884 353 1716 
Q 353 2575 817 3079 
Q 1281 3584 2069 3584 
Q 2775 3584 3186 3129 
Q 3597 2675 3597 1894 
z
M 3022 2063 
Q 3016 2534 2758 2815 
Q 2500 3097 2075 3097 
Q 1594 3097 1305 2825 
Q 1016 2553 972 2059 
L 3022 2063 
z
" transform="scale(0.015625)"/>
      <path id="DejaVuSans-72" d="M 2631 2963 
Q 2534 3019 2420 3045 
Q 2306 3072 2169 3072 
Q 1681 3072 1420 2755 
Q 1159 2438 1159 1844 
L 1159 0 
L 581 0 
L 581 3500 
L 1159 3500 
L 1159 2956 
Q 1341 3275 1631 3429 
Q 1922 3584 2338 3584 
Q 2397 3584 2469 3576 
Q 2541 3569 2628 3553 
L 2631 2963 
z
" transform="scale(0.015625)"/>
      <path id="DejaVuSans-20" transform="scale(0.015625)"/>
      <path id="DejaVuSans-43" d="M 4122 4306 
L 4122 3641 
Q 3803 3938 3442 4084 
Q 3081 4231 2675 4231 
Q 1875 4231 1450 3742 
Q 1025 3253 1025 2328 
Q 1025 1406 1450 917 
Q 1875 428 2675 428 
Q 3081 428 3442 575 
Q 3803 722 4122 1019 
L 4122 359 
Q 3791 134 3420 21 
Q 3050 -91 2638 -91 
Q 1578 -91 968 557 
Q 359 1206 359 2328 
Q 359 3453 968 4101 
Q 1578 4750 2638 4750 
Q 3056 4750 3426 4639 
Q 3797 4528 4122 4306 
z
" transform="scale(0.015625)"/>
      <path id="DejaVuSans-73" d="M 2834 3397 
L 2834 2853 
Q 2591 2978 2328 3040 
Q 2066 3103 1784 3103 
Q 1356 3103 1142 2972 
Q 928 2841 928 2578 
Q 928 2378 1081 2264 
Q 1234 2150 1697 2047 
L 1894 2003 
Q 2506 1872 2764 1633 
Q 3022 1394 3022 966 
Q 3022 478 2636 193 
Q 2250 -91 1575 -91 
Q 1294 -91 989 -36 
Q 684 19 347 128 
L 347 722 
Q 666 556 975 473 
Q 1284 391 1588 391 
Q 1994 391 2212 530 
Q 2431 669 2431 922 
Q 2431 1156 2273 1281 
Q 2116 1406 1581 1522 
L 1381 1569 
Q 847 1681 609 1914 
Q 372 2147 372 2553 
Q 372 3047 722 3315 
Q 1072 3584 1716 3584 
Q 2034 3584 2315 3537 
Q 2597 3491 2834 3397 
z
" transform="scale(0.015625)"/>
      <path id="DejaVuSans-74" d="M 1172 4494 
L 1172 3500 
L 2356 3500 
L 2356 3053 
L 1172 3053 
L 1172 1153 
Q 1172 725 1289 603 
Q 1406 481 1766 481 
L 2356 481 
L 2356 0 
L 1766 0 
Q 1100 0 847 248 
Q 594 497 594 1153 
L 594 3053 
L 172 3053 
L 172 3500 
L 594 3500 
L 594 4494 
L 1172 4494 
z
" transform="scale(0.015625)"/>
     </defs>
     <use xlink:href="#DejaVuSans-48"/>
     <use xlink:href="#DejaVuSans-61" x="75.195312"/>
     <use xlink:href="#DejaVuSans-6e" x="136.474609"/>
     <use xlink:href="#DejaVuSans-64" x="199.853516"/>
     <use xlink:href="#DejaVuSans-6f" x="263.330078"/>
     <use xlink:href="#DejaVuSans-76" x="324.511719"/>
     <use xlink:href="#DejaVuSans-65" x="383.691406"/>
     <use xlink:href="#DejaVuSans-72" x="445.214844"/>
     <use xlink:href="#DejaVuSans-20" x="486.328125"/>
     <use xlink:href="#DejaVuSans-43" x="518.115234"/>
     <use xlink:href="#DejaVuSans-6f" x="587.939453"/>
     <use xlink:href="#DejaVuSans-73" x="649.121094"/>
     <use xlink:href="#DejaVuSans-74" x="701.220703"/>
    </g>
   </g>
  </g>
  <g id="axis3d_2">
   <g id="line2d_10">
    <path d="M 121.935341 235.832391 
L 262.215502 294.908063 
" style="fill: none; stroke: #000000; stroke-width: 0.8; stroke-linecap: square"/>
   </g>
   <g id="xtick_9">
    <g id="line2d_11">
     <path d="M 129.704999 238.102841 
L 127.159954 240.03966 
" style="fill: none; stroke: #000000; stroke-width: 0.8; stroke-linecap: square"/>
    </g>
    <g id="text_10">
     <!-- 0 -->
     <g transform="translate(117.298819 261.714515) scale(0.1 -0.1)">
      <use xlink:href="#DejaVuSans-30"/>
     </g>
    </g>
   </g>
   <g id="xtick_10">
    <g id="line2d_12">
     <path d="M 160.673832 251.131412 
L 158.1567 253.119752 
" style="fill: none; stroke: #000000; stroke-width: 0.8; stroke-linecap: square"/>
    </g>
    <g id="text_11">
     <!-- 50 -->
     <g transform="translate(145.073431 275.001161) scale(0.1 -0.1)">
      <use xlink:href="#DejaVuSans-35"/>
      <use xlink:href="#DejaVuSans-30" x="63.623047"/>
     </g>
    </g>
   </g>
   <g id="xtick_11">
    <g id="line2d_13">
     <path d="M 192.471188 264.508542 
L 189.984387 266.550487 
" style="fill: none; stroke: #000000; stroke-width: 0.8; stroke-linecap: square"/>
    </g>
    <g id="text_12">
     <!-- 100 -->
     <g transform="translate(173.679179 288.644541) scale(0.1 -0.1)">
      <use xlink:href="#DejaVuSans-31"/>
      <use xlink:href="#DejaVuSans-30" x="63.623047"/>
      <use xlink:href="#DejaVuSans-30" x="127.246094"/>
     </g>
    </g>
   </g>
   <g id="xtick_12">
    <g id="line2d_14">
     <path d="M 225.130766 278.248408 
L 222.676881 280.346156 
" style="fill: none; stroke: #000000; stroke-width: 0.8; stroke-linecap: square"/>
    </g>
    <g id="text_13">
     <!-- 150 -->
     <g transform="translate(206.331242 302.659218) scale(0.1 -0.1)">
      <use xlink:href="#DejaVuSans-31"/>
      <use xlink:href="#DejaVuSans-35" x="63.623047"/>
      <use xlink:href="#DejaVuSans-30" x="127.246094"/>
     </g>
    </g>
   </g>
   <g id="xtick_13">
    <g id="line2d_15">
     <path d="M 258.688119 292.365968 
L 256.269915 294.521838 
" style="fill: none; stroke: #000000; stroke-width: 0.8; stroke-linecap: square"/>
    </g>
    <g id="text_14">
     <!-- 200 -->
     <g transform="translate(239.884169 317.060558) scale(0.1 -0.1)">
      <use xlink:href="#DejaVuSans-32"/>
      <use xlink:href="#DejaVuSans-30" x="63.623047"/>
      <use xlink:href="#DejaVuSans-30" x="127.246094"/>
     </g>
    </g>
   </g>
   <g id="text_15">
    <!-- Switching Cost -->
    <g transform="translate(136.526769 287.269374) rotate(-337.162758) scale(0.1 -0.1)">
     <defs>
      <path id="DejaVuSans-53" d="M 3425 4513 
L 3425 3897 
Q 3066 4069 2747 4153 
Q 2428 4238 2131 4238 
Q 1616 4238 1336 4038 
Q 1056 3838 1056 3469 
Q 1056 3159 1242 3001 
Q 1428 2844 1947 2747 
L 2328 2669 
Q 3034 2534 3370 2195 
Q 3706 1856 3706 1288 
Q 3706 609 3251 259 
Q 2797 -91 1919 -91 
Q 1588 -91 1214 -16 
Q 841 59 441 206 
L 441 856 
Q 825 641 1194 531 
Q 1563 422 1919 422 
Q 2459 422 2753 634 
Q 3047 847 3047 1241 
Q 3047 1584 2836 1778 
Q 2625 1972 2144 2069 
L 1759 2144 
Q 1053 2284 737 2584 
Q 422 2884 422 3419 
Q 422 4038 858 4394 
Q 1294 4750 2059 4750 
Q 2388 4750 2728 4690 
Q 3069 4631 3425 4513 
z
" transform="scale(0.015625)"/>
      <path id="DejaVuSans-77" d="M 269 3500 
L 844 3500 
L 1563 769 
L 2278 3500 
L 2956 3500 
L 3675 769 
L 4391 3500 
L 4966 3500 
L 4050 0 
L 3372 0 
L 2619 2869 
L 1863 0 
L 1184 0 
L 269 3500 
z
" transform="scale(0.015625)"/>
      <path id="DejaVuSans-69" d="M 603 3500 
L 1178 3500 
L 1178 0 
L 603 0 
L 603 3500 
z
M 603 4863 
L 1178 4863 
L 1178 4134 
L 603 4134 
L 603 4863 
z
" transform="scale(0.015625)"/>
      <path id="DejaVuSans-63" d="M 3122 3366 
L 3122 2828 
Q 2878 2963 2633 3030 
Q 2388 3097 2138 3097 
Q 1578 3097 1268 2742 
Q 959 2388 959 1747 
Q 959 1106 1268 751 
Q 1578 397 2138 397 
Q 2388 397 2633 464 
Q 2878 531 3122 666 
L 3122 134 
Q 2881 22 2623 -34 
Q 2366 -91 2075 -91 
Q 1284 -91 818 406 
Q 353 903 353 1747 
Q 353 2603 823 3093 
Q 1294 3584 2113 3584 
Q 2378 3584 2631 3529 
Q 2884 3475 3122 3366 
z
" transform="scale(0.015625)"/>
      <path id="DejaVuSans-68" d="M 3513 2113 
L 3513 0 
L 2938 0 
L 2938 2094 
Q 2938 2591 2744 2837 
Q 2550 3084 2163 3084 
Q 1697 3084 1428 2787 
Q 1159 2491 1159 1978 
L 1159 0 
L 581 0 
L 581 4863 
L 1159 4863 
L 1159 2956 
Q 1366 3272 1645 3428 
Q 1925 3584 2291 3584 
Q 2894 3584 3203 3211 
Q 3513 2838 3513 2113 
z
" transform="scale(0.015625)"/>
      <path id="DejaVuSans-67" d="M 2906 1791 
Q 2906 2416 2648 2759 
Q 2391 3103 1925 3103 
Q 1463 3103 1205 2759 
Q 947 2416 947 1791 
Q 947 1169 1205 825 
Q 1463 481 1925 481 
Q 2391 481 2648 825 
Q 2906 1169 2906 1791 
z
M 3481 434 
Q 3481 -459 3084 -895 
Q 2688 -1331 1869 -1331 
Q 1566 -1331 1297 -1286 
Q 1028 -1241 775 -1147 
L 775 -588 
Q 1028 -725 1275 -790 
Q 1522 -856 1778 -856 
Q 2344 -856 2625 -561 
Q 2906 -266 2906 331 
L 2906 616 
Q 2728 306 2450 153 
Q 2172 0 1784 0 
Q 1141 0 747 490 
Q 353 981 353 1791 
Q 353 2603 747 3093 
Q 1141 3584 1784 3584 
Q 2172 3584 2450 3431 
Q 2728 3278 2906 2969 
L 2906 3500 
L 3481 3500 
L 3481 434 
z
" transform="scale(0.015625)"/>
     </defs>
     <use xlink:href="#DejaVuSans-53"/>
     <use xlink:href="#DejaVuSans-77" x="63.476562"/>
     <use xlink:href="#DejaVuSans-69" x="145.263672"/>
     <use xlink:href="#DejaVuSans-74" x="173.046875"/>
     <use xlink:href="#DejaVuSans-63" x="212.255859"/>
     <use xlink:href="#DejaVuSans-68" x="267.236328"/>
     <use xlink:href="#DejaVuSans-69" x="330.615234"/>
     <use xlink:href="#DejaVuSans-6e" x="358.398438"/>
     <use xlink:href="#DejaVuSans-67" x="421.777344"/>
     <use xlink:href="#DejaVuSans-20" x="485.253906"/>
     <use xlink:href="#DejaVuSans-43" x="517.041016"/>
     <use xlink:href="#DejaVuSans-6f" x="586.865234"/>
     <use xlink:href="#DejaVuSans-73" x="648.046875"/>
     <use xlink:href="#DejaVuSans-74" x="700.146484"/>
    </g>
   </g>
  </g>
  <g id="axis3d_3">
   <g id="line2d_16">
    <path d="M 121.935341 235.832391 
L 116.052708 126.760478 
" style="fill: none; stroke: #000000; stroke-width: 0.8; stroke-linecap: square"/>
   </g>
   <g id="xtick_14">
    <g id="line2d_17">
     <path d="M 122.262277 225.433909 
L 119.698774 227.348745 
" style="fill: none; stroke: #000000; stroke-width: 0.8; stroke-linecap: square"/>
    </g>
    <g id="text_16">
     <!-- 600 -->
     <g transform="translate(91.939976 235.690725) scale(0.1 -0.1)">
      <defs>
       <path id="DejaVuSans-36" d="M 2113 2584 
Q 1688 2584 1439 2293 
Q 1191 2003 1191 1497 
Q 1191 994 1439 701 
Q 1688 409 2113 409 
Q 2538 409 2786 701 
Q 3034 994 3034 1497 
Q 3034 2003 2786 2293 
Q 2538 2584 2113 2584 
z
M 3366 4563 
L 3366 3988 
Q 3128 4100 2886 4159 
Q 2644 4219 2406 4219 
Q 1781 4219 1451 3797 
Q 1122 3375 1075 2522 
Q 1259 2794 1537 2939 
Q 1816 3084 2150 3084 
Q 2853 3084 3261 2657 
Q 3669 2231 3669 1497 
Q 3669 778 3244 343 
Q 2819 -91 2113 -91 
Q 1303 -91 875 529 
Q 447 1150 447 2328 
Q 447 3434 972 4092 
Q 1497 4750 2381 4750 
Q 2619 4750 2861 4703 
Q 3103 4656 3366 4563 
z
" transform="scale(0.015625)"/>
      </defs>
      <use xlink:href="#DejaVuSans-36"/>
      <use xlink:href="#DejaVuSans-30" x="63.623047"/>
      <use xlink:href="#DejaVuSans-30" x="127.246094"/>
     </g>
    </g>
   </g>
   <g id="xtick_15">
    <g id="line2d_18">
     <path d="M 121.368496 208.736796 
L 118.783684 210.633164 
" style="fill: none; stroke: #000000; stroke-width: 0.8; stroke-linecap: square"/>
    </g>
    <g id="text_17">
     <!-- 800 -->
     <g transform="translate(90.88524 218.967986) scale(0.1 -0.1)">
      <defs>
       <path id="DejaVuSans-38" d="M 2034 2216 
Q 1584 2216 1326 1975 
Q 1069 1734 1069 1313 
Q 1069 891 1326 650 
Q 1584 409 2034 409 
Q 2484 409 2743 651 
Q 3003 894 3003 1313 
Q 3003 1734 2745 1975 
Q 2488 2216 2034 2216 
z
M 1403 2484 
Q 997 2584 770 2862 
Q 544 3141 544 3541 
Q 544 4100 942 4425 
Q 1341 4750 2034 4750 
Q 2731 4750 3128 4425 
Q 3525 4100 3525 3541 
Q 3525 3141 3298 2862 
Q 3072 2584 2669 2484 
Q 3125 2378 3379 2068 
Q 3634 1759 3634 1313 
Q 3634 634 3220 271 
Q 2806 -91 2034 -91 
Q 1263 -91 848 271 
Q 434 634 434 1313 
Q 434 1759 690 2068 
Q 947 2378 1403 2484 
z
M 1172 3481 
Q 1172 3119 1398 2916 
Q 1625 2713 2034 2713 
Q 2441 2713 2670 2916 
Q 2900 3119 2900 3481 
Q 2900 3844 2670 4047 
Q 2441 4250 2034 4250 
Q 1625 4250 1398 4047 
Q 1172 3844 1172 3481 
z
" transform="scale(0.015625)"/>
      </defs>
      <use xlink:href="#DejaVuSans-38"/>
      <use xlink:href="#DejaVuSans-30" x="63.623047"/>
      <use xlink:href="#DejaVuSans-30" x="127.246094"/>
     </g>
    </g>
   </g>
   <g id="xtick_16">
    <g id="line2d_19">
     <path d="M 120.461013 191.783705 
L 117.854537 193.660808 
" style="fill: none; stroke: #000000; stroke-width: 0.8; stroke-linecap: square"/>
    </g>
    <g id="text_18">
     <!-- 1000 -->
     <g transform="translate(86.633039 201.988166) scale(0.1 -0.1)">
      <use xlink:href="#DejaVuSans-31"/>
      <use xlink:href="#DejaVuSans-30" x="63.623047"/>
      <use xlink:href="#DejaVuSans-30" x="127.246094"/>
      <use xlink:href="#DejaVuSans-30" x="190.869141"/>
     </g>
    </g>
   </g>
   <g id="xtick_17">
    <g id="line2d_20">
     <path d="M 119.53951 174.568704 
L 116.911006 176.425718 
" style="fill: none; stroke: #000000; stroke-width: 0.8; stroke-linecap: square"/>
    </g>
    <g id="text_19">
     <!-- 1200 -->
     <g transform="translate(85.545497 184.74529) scale(0.1 -0.1)">
      <use xlink:href="#DejaVuSans-31"/>
      <use xlink:href="#DejaVuSans-32" x="63.623047"/>
      <use xlink:href="#DejaVuSans-30" x="127.246094"/>
      <use xlink:href="#DejaVuSans-30" x="190.869141"/>
     </g>
    </g>
   </g>
   <g id="xtick_18">
    <g id="line2d_21">
     <path d="M 118.603659 157.085675 
L 115.952756 158.921744 
" style="fill: none; stroke: #000000; stroke-width: 0.8; stroke-linecap: square"/>
    </g>
    <g id="text_20">
     <!-- 1400 -->
     <g transform="translate(84.440974 167.233198) scale(0.1 -0.1)">
      <defs>
       <path id="DejaVuSans-34" d="M 2419 4116 
L 825 1625 
L 2419 1625 
L 2419 4116 
z
M 2253 4666 
L 3047 4666 
L 3047 1625 
L 3713 1625 
L 3713 1100 
L 3047 1100 
L 3047 0 
L 2419 0 
L 2419 1100 
L 313 1100 
L 313 1709 
L 2253 4666 
z
" transform="scale(0.015625)"/>
      </defs>
      <use xlink:href="#DejaVuSans-31"/>
      <use xlink:href="#DejaVuSans-34" x="63.623047"/>
      <use xlink:href="#DejaVuSans-30" x="127.246094"/>
      <use xlink:href="#DejaVuSans-30" x="190.869141"/>
     </g>
    </g>
   </g>
   <g id="xtick_19">
    <g id="line2d_22">
     <path d="M 117.653124 139.32831 
L 114.979438 141.142544 
" style="fill: none; stroke: #000000; stroke-width: 0.8; stroke-linecap: square"/>
    </g>
    <g id="text_21">
     <!-- 1600 -->
     <g transform="translate(83.319071 149.445534) scale(0.1 -0.1)">
      <use xlink:href="#DejaVuSans-31"/>
      <use xlink:href="#DejaVuSans-36" x="63.623047"/>
      <use xlink:href="#DejaVuSans-30" x="127.246094"/>
      <use xlink:href="#DejaVuSans-30" x="190.869141"/>
     </g>
    </g>
   </g>
   <g id="text_22">
    <!-- Number of Handovers -->
    <g transform="translate(69.052197 132.138409) rotate(-273.087172) scale(0.1 -0.1)">
     <defs>
      <path id="DejaVuSans-4e" d="M 628 4666 
L 1478 4666 
L 3547 763 
L 3547 4666 
L 4159 4666 
L 4159 0 
L 3309 0 
L 1241 3903 
L 1241 0 
L 628 0 
L 628 4666 
z
" transform="scale(0.015625)"/>
      <path id="DejaVuSans-75" d="M 544 1381 
L 544 3500 
L 1119 3500 
L 1119 1403 
Q 1119 906 1312 657 
Q 1506 409 1894 409 
Q 2359 409 2629 706 
Q 2900 1003 2900 1516 
L 2900 3500 
L 3475 3500 
L 3475 0 
L 2900 0 
L 2900 538 
Q 2691 219 2414 64 
Q 2138 -91 1772 -91 
Q 1169 -91 856 284 
Q 544 659 544 1381 
z
M 1991 3584 
L 1991 3584 
z
" transform="scale(0.015625)"/>
      <path id="DejaVuSans-6d" d="M 3328 2828 
Q 3544 3216 3844 3400 
Q 4144 3584 4550 3584 
Q 5097 3584 5394 3201 
Q 5691 2819 5691 2113 
L 5691 0 
L 5113 0 
L 5113 2094 
Q 5113 2597 4934 2840 
Q 4756 3084 4391 3084 
Q 3944 3084 3684 2787 
Q 3425 2491 3425 1978 
L 3425 0 
L 2847 0 
L 2847 2094 
Q 2847 2600 2669 2842 
Q 2491 3084 2119 3084 
Q 1678 3084 1418 2786 
Q 1159 2488 1159 1978 
L 1159 0 
L 581 0 
L 581 3500 
L 1159 3500 
L 1159 2956 
Q 1356 3278 1631 3431 
Q 1906 3584 2284 3584 
Q 2666 3584 2933 3390 
Q 3200 3197 3328 2828 
z
" transform="scale(0.015625)"/>
      <path id="DejaVuSans-62" d="M 3116 1747 
Q 3116 2381 2855 2742 
Q 2594 3103 2138 3103 
Q 1681 3103 1420 2742 
Q 1159 2381 1159 1747 
Q 1159 1113 1420 752 
Q 1681 391 2138 391 
Q 2594 391 2855 752 
Q 3116 1113 3116 1747 
z
M 1159 2969 
Q 1341 3281 1617 3432 
Q 1894 3584 2278 3584 
Q 2916 3584 3314 3078 
Q 3713 2572 3713 1747 
Q 3713 922 3314 415 
Q 2916 -91 2278 -91 
Q 1894 -91 1617 61 
Q 1341 213 1159 525 
L 1159 0 
L 581 0 
L 581 4863 
L 1159 4863 
L 1159 2969 
z
" transform="scale(0.015625)"/>
      <path id="DejaVuSans-66" d="M 2375 4863 
L 2375 4384 
L 1825 4384 
Q 1516 4384 1395 4259 
Q 1275 4134 1275 3809 
L 1275 3500 
L 2222 3500 
L 2222 3053 
L 1275 3053 
L 1275 0 
L 697 0 
L 697 3053 
L 147 3053 
L 147 3500 
L 697 3500 
L 697 3744 
Q 697 4328 969 4595 
Q 1241 4863 1831 4863 
L 2375 4863 
z
" transform="scale(0.015625)"/>
     </defs>
     <use xlink:href="#DejaVuSans-4e"/>
     <use xlink:href="#DejaVuSans-75" x="74.804688"/>
     <use xlink:href="#DejaVuSans-6d" x="138.183594"/>
     <use xlink:href="#DejaVuSans-62" x="235.595703"/>
     <use xlink:href="#DejaVuSans-65" x="299.072266"/>
     <use xlink:href="#DejaVuSans-72" x="360.595703"/>
     <use xlink:href="#DejaVuSans-20" x="401.708984"/>
     <use xlink:href="#DejaVuSans-6f" x="433.496094"/>
     <use xlink:href="#DejaVuSans-66" x="494.677734"/>
     <use xlink:href="#DejaVuSans-20" x="529.882812"/>
     <use xlink:href="#DejaVuSans-48" x="561.669922"/>
     <use xlink:href="#DejaVuSans-61" x="636.865234"/>
     <use xlink:href="#DejaVuSans-6e" x="698.144531"/>
     <use xlink:href="#DejaVuSans-64" x="761.523438"/>
     <use xlink:href="#DejaVuSans-6f" x="825"/>
     <use xlink:href="#DejaVuSans-76" x="886.181641"/>
     <use xlink:href="#DejaVuSans-65" x="945.361328"/>
     <use xlink:href="#DejaVuSans-72" x="1006.884766"/>
     <use xlink:href="#DejaVuSans-73" x="1047.998047"/>
    </g>
   </g>
  </g>
  <g id="axes_1">
   <g id="Poly3DCollection_1">
    <path d="M 234.298053 132.493409 
L 225.249377 139.140767 
L 231.38055 145.322657 
L 240.390037 137.660607 
z
" clip-path="url(#pa3e945078a)" style="fill: #d1dae9"/>
    <path d="M 240.390037 137.660607 
L 231.38055 145.322657 
L 237.519202 149.582113 
L 246.494003 143.658709 
z
" clip-path="url(#pa3e945078a)" style="fill: #c5d6f2"/>
    <path d="M 246.494003 143.658709 
L 237.519202 149.582113 
L 243.669572 158.575259 
L 252.591741 152.542624 
z
" clip-path="url(#pa3e945078a)" style="fill: #b2ccfb"/>
    <path d="M 252.591741 152.542624 
L 243.669572 158.575259 
L 249.834369 163.045318 
L 258.723912 156.662631 
z
" clip-path="url(#pa3e945078a)" style="fill: #a1c0ff"/>
    <path d="M 258.723912 156.662631 
L 249.834369 163.045318 
L 256.022136 166.976578 
L 264.885085 160.022234 
z
" clip-path="url(#pa3e945078a)" style="fill: #98b9ff"/>
    <path d="M 264.885085 160.022234 
L 256.022136 166.976578 
L 262.175318 176.598482 
L 270.994552 168.90719 
z
" clip-path="url(#pa3e945078a)" style="fill: #86a9fc"/>
    <path d="M 270.994552 168.90719 
L 262.175318 176.598482 
L 268.386928 180.924644 
L 277.163041 173.919456 
z
" clip-path="url(#pa3e945078a)" style="fill: #7396f5"/>
    <path d="M 228.080378 99.500083 
L 218.875663 105.036252 
L 225.249377 139.140767 
L 234.298053 132.493409 
z
" clip-path="url(#pa3e945078a)" style="fill: #f7b99e"/>
    <path d="M 277.163041 173.919456 
L 268.386928 180.924644 
L 274.620958 185.122378 
L 283.409731 175.740428 
z
" clip-path="url(#pa3e945078a)" style="fill: #6c8ff1"/>
    <path d="M 225.249377 139.140767 
L 216.057449 145.455004 
L 222.248109 154.065924 
L 231.38055 145.322657 
z
" clip-path="url(#pa3e945078a)" style="fill: #cedaeb"/>
    <path d="M 231.38055 145.322657 
L 222.248109 154.065924 
L 228.419958 159.605768 
L 237.519202 149.582113 
z
" clip-path="url(#pa3e945078a)" style="fill: #c0d4f5"/>
    <path d="M 283.409731 175.740428 
L 274.620958 185.122378 
L 280.915141 187.215521 
L 289.637988 179.92916 
z
" clip-path="url(#pa3e945078a)" style="fill: #6a8bef"/>
    <path d="M 237.519202 149.582113 
L 228.419958 159.605768 
L 234.605956 165.507379 
L 243.669572 158.575259 
z
" clip-path="url(#pa3e945078a)" style="fill: #b1cbfc"/>
    <path d="M 243.669572 158.575259 
L 234.605956 165.507379 
L 240.80396 170.269247 
L 249.834369 163.045318 
z
" clip-path="url(#pa3e945078a)" style="fill: #a1c0ff"/>
    <path d="M 289.637988 179.92916 
L 280.915141 187.215521 
L 287.168462 192.807356 
L 295.838744 186.05882 
z
" clip-path="url(#pa3e945078a)" style="fill: #6180e9"/>
    <path d="M 249.834369 163.045318 
L 240.80396 170.269247 
L 247.023953 173.770365 
L 256.022136 166.976578 
z
" clip-path="url(#pa3e945078a)" style="fill: #9abbff"/>
    <path d="M 218.875663 105.036252 
L 209.695751 124.036033 
L 216.057449 145.455004 
L 225.249377 139.140767 
z
" clip-path="url(#pa3e945078a)" style="fill: #f5c2aa"/>
    <path d="M 295.838744 186.05882 
L 287.168462 192.807356 
L 293.459431 197.414497 
L 302.110143 190.032117 
z
" clip-path="url(#pa3e945078a)" style="fill: #5572df"/>
    <path d="M 256.022136 166.976578 
L 247.023953 173.770365 
L 253.231295 183.544032 
L 262.175318 176.598482 
z
" clip-path="url(#pa3e945078a)" style="fill: #86a9fc"/>
    <path d="M 262.175318 176.598482 
L 253.231295 183.544032 
L 259.4749 188.099247 
L 268.386928 180.924644 
z
" clip-path="url(#pa3e945078a)" style="fill: #7295f4"/>
    <path d="M 302.110143 190.032117 
L 293.459431 197.414497 
L 299.807171 200.651718 
L 308.403979 194.019629 
z
" clip-path="url(#pa3e945078a)" style="fill: #4f69d9"/>
    <path d="M 268.386928 180.924644 
L 259.4749 188.099247 
L 265.767527 190.130916 
L 274.620958 185.122378 
z
" clip-path="url(#pa3e945078a)" style="fill: #6c8ff1"/>
    <path d="M 221.733646 66.898226 
L 212.494593 82.162595 
L 218.875663 105.036252 
L 228.080378 99.500083 
z
" clip-path="url(#pa3e945078a)" style="fill: #b40426"/>
    <path d="M 216.057449 145.455004 
L 206.715673 151.577677 
L 212.967124 160.961276 
L 222.248109 154.065924 
z
" clip-path="url(#pa3e945078a)" style="fill: #cedaeb"/>
    <path d="M 222.248109 154.065924 
L 212.967124 160.961276 
L 219.17627 166.510107 
L 228.419958 159.605768 
z
" clip-path="url(#pa3e945078a)" style="fill: #bbd1f8"/>
    <path d="M 308.403979 194.019629 
L 299.807171 200.651718 
L 306.156761 204.75863 
L 314.740886 197.413301 
z
" clip-path="url(#pa3e945078a)" style="fill: #4a63d3"/>
    <path d="M 274.620958 185.122378 
L 265.767527 190.130916 
L 272.029076 196.659576 
L 280.915141 187.215521 
z
" clip-path="url(#pa3e945078a)" style="fill: #6788ee"/>
    <path d="M 228.419958 159.605768 
L 219.17627 166.510107 
L 225.396274 171.616285 
L 234.605956 165.507379 
z
" clip-path="url(#pa3e945078a)" style="fill: #aec9fc"/>
    <path d="M 314.740886 197.413301 
L 306.156761 204.75863 
L 312.543055 208.452461 
L 321.091396 201.165859 
z
" clip-path="url(#pa3e945078a)" style="fill: #455cce"/>
    <path d="M 234.605956 165.507379 
L 225.396274 171.616285 
L 231.635748 177.603413 
L 240.80396 170.269247 
z
" clip-path="url(#pa3e945078a)" style="fill: #a2c1ff"/>
    <path d="M 209.695751 124.036033 
L 200.320964 134.307568 
L 206.715673 151.577677 
L 216.057449 145.455004 
z
" clip-path="url(#pa3e945078a)" style="fill: #f0cdbb"/>
    <path d="M 280.915141 187.215521 
L 272.029076 196.659576 
L 278.34465 200.583335 
L 287.168462 192.807356 
z
" clip-path="url(#pa3e945078a)" style="fill: #5e7de7"/>
    <path d="M 240.80396 170.269247 
L 231.635748 177.603413 
L 237.884418 180.774264 
L 247.023953 173.770365 
z
" clip-path="url(#pa3e945078a)" style="fill: #9abbff"/>
    <path d="M 287.168462 192.807356 
L 278.34465 200.583335 
L 284.675538 204.930618 
L 293.459431 197.414497 
z
" clip-path="url(#pa3e945078a)" style="fill: #5572df"/>
    <path d="M 321.091396 201.165859 
L 312.543055 208.452461 
L 318.961943 211.957122 
L 327.476714 204.669072 
z
" clip-path="url(#pa3e945078a)" style="fill: #4055c8"/>
    <path d="M 212.494593 82.162595 
L 203.156522 95.872629 
L 209.695751 124.036033 
L 218.875663 105.036252 
z
" clip-path="url(#pa3e945078a)" style="fill: #d0473d"/>
    <path d="M 247.023953 173.770365 
L 237.884418 180.774264 
L 244.146935 190.865365 
L 253.231295 183.544032 
z
" clip-path="url(#pa3e945078a)" style="fill: #86a9fc"/>
    <path d="M 253.231295 183.544032 
L 244.146935 190.865365 
L 250.425525 195.241162 
L 259.4749 188.099247 
z
" clip-path="url(#pa3e945078a)" style="fill: #7295f4"/>
    <path d="M 293.459431 197.414497 
L 284.675538 204.930618 
L 291.042476 208.658952 
L 299.807171 200.651718 
z
" clip-path="url(#pa3e945078a)" style="fill: #4f69d9"/>
    <path d="M 327.476714 204.669072 
L 318.961943 211.957122 
L 325.423332 215.068441 
L 333.908843 207.699295 
z
" clip-path="url(#pa3e945078a)" style="fill: #3e51c5"/>
    <path d="M 259.4749 188.099247 
L 250.425525 195.241162 
L 256.741892 197.431639 
L 265.767527 190.130916 
z
" clip-path="url(#pa3e945078a)" style="fill: #6f92f3"/>
    <path d="M 206.715673 151.577677 
L 197.24392 158.950919 
L 203.525066 166.943046 
L 212.967124 160.961276 
z
" clip-path="url(#pa3e945078a)" style="fill: #cfdaea"/>
    <path d="M 212.967124 160.961276 
L 203.525066 166.943046 
L 209.788555 173.564038 
L 219.17627 166.510107 
z
" clip-path="url(#pa3e945078a)" style="fill: #bcd2f7"/>
    <path d="M 299.807171 200.651718 
L 291.042476 208.658952 
L 297.441008 212.156597 
L 306.156761 204.75863 
z
" clip-path="url(#pa3e945078a)" style="fill: #4a63d3"/>
    <path d="M 333.908843 207.699295 
L 325.423332 215.068441 
L 331.925979 217.908006 
L 340.375699 210.621296 
z
" clip-path="url(#pa3e945078a)" style="fill: #3c4ec2"/>
    <path d="M 265.767527 190.130916 
L 256.741892 197.431639 
L 263.04722 203.892925 
L 272.029076 196.659576 
z
" clip-path="url(#pa3e945078a)" style="fill: #6788ee"/>
    <path d="M 219.17627 166.510107 
L 209.788555 173.564038 
L 216.034633 177.76316 
L 225.396274 171.616285 
z
" clip-path="url(#pa3e945078a)" style="fill: #b1cbfc"/>
    <path d="M 203.156522 95.872629 
L 193.648904 105.584441 
L 200.320964 134.307568 
L 209.695751 124.036033 
z
" clip-path="url(#pa3e945078a)" style="fill: #e57058"/>
    <path d="M 200.320964 134.307568 
L 190.763555 141.663748 
L 197.24392 158.950919 
L 206.715673 151.577677 
z
" clip-path="url(#pa3e945078a)" style="fill: #eed0c0"/>
    <path d="M 306.156761 204.75863 
L 297.441008 212.156597 
L 303.858001 215.955367 
L 312.543055 208.452461 
z
" clip-path="url(#pa3e945078a)" style="fill: #455cce"/>
    <path d="M 272.029076 196.659576 
L 263.04722 203.892925 
L 269.404298 207.203684 
L 278.34465 200.583335 
z
" clip-path="url(#pa3e945078a)" style="fill: #5d7ce6"/>
    <path d="M 225.396274 171.616285 
L 216.034633 177.76316 
L 222.324775 184.822222 
L 231.635748 177.603413 
z
" clip-path="url(#pa3e945078a)" style="fill: #a3c2fe"/>
    <path d="M 231.635748 177.603413 
L 222.324775 184.822222 
L 228.606962 189.091916 
L 237.884418 180.774264 
z
" clip-path="url(#pa3e945078a)" style="fill: #98b9ff"/>
    <path d="M 278.34465 200.583335 
L 269.404298 207.203684 
L 275.760644 212.27544 
L 284.675538 204.930618 
z
" clip-path="url(#pa3e945078a)" style="fill: #5572df"/>
    <path d="M 312.543055 208.452461 
L 303.858001 215.955367 
L 310.31008 219.462064 
L 318.961943 211.957122 
z
" clip-path="url(#pa3e945078a)" style="fill: #4257c9"/>
    <path d="M 237.884418 180.774264 
L 228.606962 189.091916 
L 234.920962 197.969918 
L 244.146935 190.865365 
z
" clip-path="url(#pa3e945078a)" style="fill: #86a9fc"/>
    <path d="M 244.146935 190.865365 
L 234.920962 197.969918 
L 241.234164 201.793513 
L 250.425525 195.241162 
z
" clip-path="url(#pa3e945078a)" style="fill: #7396f5"/>
    <path d="M 284.675538 204.930618 
L 275.760644 212.27544 
L 282.160353 216.027192 
L 291.042476 208.658952 
z
" clip-path="url(#pa3e945078a)" style="fill: #4f69d9"/>
    <path d="M 318.961943 211.957122 
L 310.31008 219.462064 
L 316.802331 222.614847 
L 325.423332 215.068441 
z
" clip-path="url(#pa3e945078a)" style="fill: #3e51c5"/>
    <path d="M 250.425525 195.241162 
L 241.234164 201.793513 
L 247.571604 205.755994 
L 256.741892 197.431639 
z
" clip-path="url(#pa3e945078a)" style="fill: #6f92f3"/>
    <path d="M 197.24392 158.950919 
L 187.611013 165.743558 
L 193.923778 172.919511 
L 203.525066 166.943046 
z
" clip-path="url(#pa3e945078a)" style="fill: #d2dbe8"/>
    <path d="M 291.042476 208.658952 
L 282.160353 216.027192 
L 288.587974 219.69125 
L 297.441008 212.156597 
z
" clip-path="url(#pa3e945078a)" style="fill: #4a63d3"/>
    <path d="M 203.525066 166.943046 
L 193.923778 172.919511 
L 200.266467 181.480926 
L 209.788555 173.564038 
z
" clip-path="url(#pa3e945078a)" style="fill: #bfd3f6"/>
    <path d="M 193.648904 105.584441 
L 183.995502 114.516114 
L 190.763555 141.663748 
L 200.320964 134.307568 
z
" clip-path="url(#pa3e945078a)" style="fill: #eb7d62"/>
    <path d="M 190.763555 141.663748 
L 181.286401 157.899164 
L 187.611013 165.743558 
L 197.24392 158.950919 
z
" clip-path="url(#pa3e945078a)" style="fill: #e9d5cb"/>
    <path d="M 256.741892 197.431639 
L 247.571604 205.755994 
L 253.922031 211.467433 
L 263.04722 203.892925 
z
" clip-path="url(#pa3e945078a)" style="fill: #6687ed"/>
    <path d="M 325.423332 215.068441 
L 316.802331 222.614847 
L 323.336742 225.453904 
L 331.925979 217.908006 
z
" clip-path="url(#pa3e945078a)" style="fill: #3c4ec2"/>
    <path d="M 209.788555 173.564038 
L 200.266467 181.480926 
L 206.535096 185.203534 
L 216.034633 177.76316 
z
" clip-path="url(#pa3e945078a)" style="fill: #b1cbfc"/>
    <path d="M 297.441008 212.156597 
L 288.587974 219.69125 
L 295.03734 223.555319 
L 303.858001 215.955367 
z
" clip-path="url(#pa3e945078a)" style="fill: #455cce"/>
    <path d="M 263.04722 203.892925 
L 253.922031 211.467433 
L 260.308741 214.820678 
L 269.404298 207.203684 
z
" clip-path="url(#pa3e945078a)" style="fill: #5d7ce6"/>
    <path d="M 216.034633 177.76316 
L 206.535096 185.203534 
L 212.867319 192.133568 
L 222.324775 184.822222 
z
" clip-path="url(#pa3e945078a)" style="fill: #a5c3fe"/>
    <path d="M 222.324775 184.822222 
L 212.867319 192.133568 
L 219.187469 196.991174 
L 228.606962 189.091916 
z
" clip-path="url(#pa3e945078a)" style="fill: #97b8ff"/>
    <path d="M 303.858001 215.955367 
L 295.03734 223.555319 
L 301.522 227.085165 
L 310.31008 219.462064 
z
" clip-path="url(#pa3e945078a)" style="fill: #4257c9"/>
    <path d="M 269.404298 207.203684 
L 260.308741 214.820678 
L 266.704086 219.777808 
L 275.760644 212.27544 
z
" clip-path="url(#pa3e945078a)" style="fill: #5673e0"/>
    <path d="M 228.606962 189.091916 
L 219.187469 196.991174 
L 225.545575 204.8142 
L 234.920962 197.969918 
z
" clip-path="url(#pa3e945078a)" style="fill: #85a8fc"/>
    <path d="M 234.920962 197.969918 
L 225.545575 204.8142 
L 231.896832 210.093012 
L 241.234164 201.793513 
z
" clip-path="url(#pa3e945078a)" style="fill: #7597f6"/>
    <path d="M 275.760644 212.27544 
L 266.704086 219.777808 
L 273.134631 223.677506 
L 282.160353 216.027192 
z
" clip-path="url(#pa3e945078a)" style="fill: #4f69d9"/>
    <path d="M 183.995502 114.516114 
L 174.328091 127.788102 
L 181.286401 157.899164 
L 190.763555 141.663748 
z
" clip-path="url(#pa3e945078a)" style="fill: #f39475"/>
    <path d="M 310.31008 219.462064 
L 301.522 227.085165 
L 308.040795 230.424372 
L 316.802331 222.614847 
z
" clip-path="url(#pa3e945078a)" style="fill: #3e51c5"/>
    <path d="M 241.234164 201.793513 
L 231.896832 210.093012 
L 238.262869 212.275203 
L 247.571604 205.755994 
z
" clip-path="url(#pa3e945078a)" style="fill: #6f92f3"/>
    <path d="M 181.286401 157.899164 
L 171.576835 168.947634 
L 177.841939 173.321228 
L 187.611013 165.743558 
z
" clip-path="url(#pa3e945078a)" style="fill: #dfdbd9"/>
    <path d="M 282.160353 216.027192 
L 273.134631 223.677506 
L 279.595402 227.324343 
L 288.587974 219.69125 
z
" clip-path="url(#pa3e945078a)" style="fill: #4a63d3"/>
    <path d="M 187.611013 165.743558 
L 177.841939 173.321228 
L 184.179313 179.755644 
L 193.923778 172.919511 
z
" clip-path="url(#pa3e945078a)" style="fill: #d3dbe7"/>
    <path d="M 193.923778 172.919511 
L 184.179313 179.755644 
L 190.603222 189.664612 
L 200.266467 181.480926 
z
" clip-path="url(#pa3e945078a)" style="fill: #bfd3f6"/>
    <path d="M 316.802331 222.614847 
L 308.040795 230.424372 
L 314.576771 234.128478 
L 323.336742 225.453904 
z
" clip-path="url(#pa3e945078a)" style="fill: #3c4ec2"/>
    <path d="M 247.571604 205.755994 
L 238.262869 212.275203 
L 244.653748 219.036653 
L 253.922031 211.467433 
z
" clip-path="url(#pa3e945078a)" style="fill: #6687ed"/>
    <path d="M 200.266467 181.480926 
L 190.603222 189.664612 
L 196.887117 192.781471 
L 206.535096 185.203534 
z
" clip-path="url(#pa3e945078a)" style="fill: #afcafc"/>
    <path d="M 288.587974 219.69125 
L 279.595402 227.324343 
L 286.077171 231.275473 
L 295.03734 223.555319 
z
" clip-path="url(#pa3e945078a)" style="fill: #455cce"/>
    <path d="M 253.922031 211.467433 
L 244.653748 219.036653 
L 251.070604 222.433232 
L 260.308741 214.820678 
z
" clip-path="url(#pa3e945078a)" style="fill: #5d7ce6"/>
    <path d="M 206.535096 185.203534 
L 196.887117 192.781471 
L 203.261007 199.623583 
L 212.867319 192.133568 
z
" clip-path="url(#pa3e945078a)" style="fill: #a5c3fe"/>
    <path d="M 212.867319 192.133568 
L 203.261007 199.623583 
L 209.624827 205.137342 
L 219.187469 196.991174 
z
" clip-path="url(#pa3e945078a)" style="fill: #96b7ff"/>
    <path d="M 295.03734 223.555319 
L 286.077171 231.275473 
L 292.592961 234.891189 
L 301.522 227.085165 
z
" clip-path="url(#pa3e945078a)" style="fill: #4055c8"/>
    <path d="M 219.187469 196.991174 
L 209.624827 205.137342 
L 216.031587 213.188163 
L 225.545575 204.8142 
z
" clip-path="url(#pa3e945078a)" style="fill: #84a7fc"/>
    <path d="M 260.308741 214.820678 
L 251.070604 222.433232 
L 257.502827 227.461773 
L 266.704086 219.777808 
z
" clip-path="url(#pa3e945078a)" style="fill: #5673e0"/>
    <path d="M 174.328091 127.788102 
L 164.282168 132.73321 
L 171.576835 168.947634 
L 181.286401 157.899164 
z
" clip-path="url(#pa3e945078a)" style="fill: #f7a889"/>
    <path d="M 225.545575 204.8142 
L 216.031587 213.188163 
L 222.395707 215.663746 
L 231.896832 210.093012 
z
" clip-path="url(#pa3e945078a)" style="fill: #7699f6"/>
    <path d="M 266.704086 219.777808 
L 257.502827 227.461773 
L 263.963487 231.656291 
L 273.134631 223.677506 
z
" clip-path="url(#pa3e945078a)" style="fill: #4f69d9"/>
    <path d="M 301.522 227.085165 
L 292.592961 234.891189 
L 299.141077 238.357064 
L 308.040795 230.424372 
z
" clip-path="url(#pa3e945078a)" style="fill: #3e51c5"/>
    <path d="M 171.576835 168.947634 
L 161.607664 176.129335 
L 167.789781 176.937901 
L 177.841939 173.321228 
z
" clip-path="url(#pa3e945078a)" style="fill: #dfdbd9"/>
    <path d="M 231.896832 210.093012 
L 222.395707 215.663746 
L 228.80167 219.801752 
L 238.262869 212.275203 
z
" clip-path="url(#pa3e945078a)" style="fill: #7295f4"/>
    <path d="M 273.134631 223.677506 
L 263.963487 231.656291 
L 270.458825 235.120629 
L 279.595402 227.324343 
z
" clip-path="url(#pa3e945078a)" style="fill: #4a63d3"/>
    <path d="M 184.179313 179.755644 
L 174.258413 186.110227 
L 180.713125 194.937963 
L 190.603222 189.664612 
z
" clip-path="url(#pa3e945078a)" style="fill: #c1d4f4"/>
    <path d="M 308.040795 230.424372 
L 299.141077 238.357064 
L 305.712583 242.024358 
L 314.576771 234.128478 
z
" clip-path="url(#pa3e945078a)" style="fill: #3b4cc0"/>
    <path d="M 177.841939 173.321228 
L 167.789781 176.937901 
L 174.258413 186.110227 
L 184.179313 179.755644 
z
" clip-path="url(#pa3e945078a)" style="fill: #d6dce4"/>
    <path d="M 238.262869 212.275203 
L 228.80167 219.801752 
L 235.237664 226.747421 
L 244.653748 219.036653 
z
" clip-path="url(#pa3e945078a)" style="fill: #6788ee"/>
    <path d="M 190.603222 189.664612 
L 180.713125 194.937963 
L 187.107949 201.363688 
L 196.887117 192.781471 
z
" clip-path="url(#pa3e945078a)" style="fill: #afcafc"/>
    <path d="M 279.595402 227.324343 
L 270.458825 235.120629 
L 276.976278 238.99432 
L 286.077171 231.275473 
z
" clip-path="url(#pa3e945078a)" style="fill: #455cce"/>
    <path d="M 244.653748 219.036653 
L 235.237664 226.747421 
L 241.684813 230.125842 
L 251.070604 222.433232 
z
" clip-path="url(#pa3e945078a)" style="fill: #5d7ce6"/>
    <path d="M 196.887117 192.781471 
L 187.107949 201.363688 
L 193.479805 206.181088 
L 203.261007 199.623583 
z
" clip-path="url(#pa3e945078a)" style="fill: #a3c2fe"/>
    <path d="M 203.261007 199.623583 
L 193.479805 206.181088 
L 199.91472 213.387822 
L 209.624827 205.137342 
z
" clip-path="url(#pa3e945078a)" style="fill: #94b6ff"/>
    <path d="M 209.624827 205.137342 
L 199.91472 213.387822 
L 206.360319 220.873938 
L 216.031587 213.188163 
z
" clip-path="url(#pa3e945078a)" style="fill: #82a6fb"/>
    <path d="M 286.077171 231.275473 
L 276.976278 238.99432 
L 283.524112 242.69719 
L 292.592961 234.891189 
z
" clip-path="url(#pa3e945078a)" style="fill: #4055c8"/>
    <path d="M 251.070604 222.433232 
L 241.684813 230.125842 
L 248.154504 235.247812 
L 257.502827 227.461773 
z
" clip-path="url(#pa3e945078a)" style="fill: #5673e0"/>
    <path d="M 164.282168 132.73321 
L 154.000605 136.278573 
L 161.607664 176.129335 
L 171.576835 168.947634 
z
" clip-path="url(#pa3e945078a)" style="fill: #f7a688"/>
    <path d="M 216.031587 213.188163 
L 206.360319 220.873938 
L 212.774942 225.441466 
L 222.395707 215.663746 
z
" clip-path="url(#pa3e945078a)" style="fill: #7597f6"/>
    <path d="M 257.502827 227.461773 
L 248.154504 235.247812 
L 254.649225 239.511448 
L 263.963487 231.656291 
z
" clip-path="url(#pa3e945078a)" style="fill: #4f69d9"/>
    <path d="M 292.592961 234.891189 
L 283.524112 242.69719 
L 290.103247 246.270605 
L 299.141077 238.357064 
z
" clip-path="url(#pa3e945078a)" style="fill: #3d50c3"/>
    <path d="M 222.395707 215.663746 
L 212.774942 225.441466 
L 219.189488 227.659531 
L 228.80167 219.801752 
z
" clip-path="url(#pa3e945078a)" style="fill: #7295f4"/>
    <path d="M 161.607664 176.129335 
L 151.336359 179.838861 
L 157.803615 187.746849 
L 167.789781 176.937901 
z
" clip-path="url(#pa3e945078a)" style="fill: #e2dad5"/>
    <path d="M 263.963487 231.656291 
L 254.649225 239.511448 
L 261.175713 243.041955 
L 270.458825 235.120629 
z
" clip-path="url(#pa3e945078a)" style="fill: #4a63d3"/>
    <path d="M 174.258413 186.110227 
L 164.244682 194.807839 
L 170.769171 204.313521 
L 180.713125 194.937963 
z
" clip-path="url(#pa3e945078a)" style="fill: #c1d4f4"/>
    <path d="M 299.141077 238.357064 
L 290.103247 246.270605 
L 296.731566 249.091256 
L 305.712583 242.024358 
z
" clip-path="url(#pa3e945078a)" style="fill: #3b4cc0"/>
    <path d="M 167.789781 176.937901 
L 157.803615 187.746849 
L 164.244682 194.807839 
L 174.258413 186.110227 
z
" clip-path="url(#pa3e945078a)" style="fill: #d7dce3"/>
    <path d="M 180.713125 194.937963 
L 170.769171 204.313521 
L 177.135183 208.44694 
L 187.107949 201.363688 
z
" clip-path="url(#pa3e945078a)" style="fill: #afcafc"/>
    <path d="M 228.80167 219.801752 
L 219.189488 227.659531 
L 225.662943 233.431848 
L 235.237664 226.747421 
z
" clip-path="url(#pa3e945078a)" style="fill: #688aef"/>
    <path d="M 270.458825 235.120629 
L 261.175713 243.041955 
L 267.726459 246.963054 
L 276.976278 238.99432 
z
" clip-path="url(#pa3e945078a)" style="fill: #455cce"/>
    <path d="M 187.107949 201.363688 
L 177.135183 208.44694 
L 183.576832 214.605062 
L 193.479805 206.181088 
z
" clip-path="url(#pa3e945078a)" style="fill: #a3c2fe"/>
    <path d="M 235.237664 226.747421 
L 225.662943 233.431848 
L 232.150457 238.820898 
L 241.684813 230.125842 
z
" clip-path="url(#pa3e945078a)" style="fill: #5d7ce6"/>
    <path d="M 193.479805 206.181088 
L 183.576832 214.605062 
L 189.970419 218.073016 
L 199.91472 213.387822 
z
" clip-path="url(#pa3e945078a)" style="fill: #97b8ff"/>
    <path d="M 154.000605 136.278573 
L 144.265643 157.571101 
L 151.336359 179.838861 
L 161.607664 176.129335 
z
" clip-path="url(#pa3e945078a)" style="fill: #f7ad90"/>
    <path d="M 241.684813 230.125842 
L 232.150457 238.820898 
L 238.655308 243.180416 
L 248.154504 235.247812 
z
" clip-path="url(#pa3e945078a)" style="fill: #5572df"/>
    <path d="M 276.976278 238.99432 
L 267.726459 246.963054 
L 274.307172 250.712844 
L 283.524112 242.69719 
z
" clip-path="url(#pa3e945078a)" style="fill: #4257c9"/>
    <path d="M 199.91472 213.387822 
L 189.970419 218.073016 
L 196.533701 228.704516 
L 206.360319 220.873938 
z
" clip-path="url(#pa3e945078a)" style="fill: #84a7fc"/>
    <path d="M 206.360319 220.873938 
L 196.533701 228.704516 
L 202.96565 232.292501 
L 212.774942 225.441466 
z
" clip-path="url(#pa3e945078a)" style="fill: #7396f5"/>
    <path d="M 248.154504 235.247812 
L 238.655308 243.180416 
L 245.184839 247.368095 
L 254.649225 239.511448 
z
" clip-path="url(#pa3e945078a)" style="fill: #4f69d9"/>
    <path d="M 283.524112 242.69719 
L 274.307172 250.712844 
L 280.923319 254.103591 
L 290.103247 246.270605 
z
" clip-path="url(#pa3e945078a)" style="fill: #3e51c5"/>
    <path d="M 212.774942 225.441466 
L 202.96565 232.292501 
L 209.425454 235.854268 
L 219.189488 227.659531 
z
" clip-path="url(#pa3e945078a)" style="fill: #7093f3"/>
    <path d="M 151.336359 179.838861 
L 141.150613 190.092434 
L 147.607748 196.795347 
L 157.803615 187.746849 
z
" clip-path="url(#pa3e945078a)" style="fill: #dfdbd9"/>
    <path d="M 157.803615 187.746849 
L 147.607748 196.795347 
L 154.16471 205.832519 
L 164.244682 194.807839 
z
" clip-path="url(#pa3e945078a)" style="fill: #cfdaea"/>
    <path d="M 164.244682 194.807839 
L 154.16471 205.832519 
L 160.595546 211.445468 
L 170.769171 204.313521 
z
" clip-path="url(#pa3e945078a)" style="fill: #bcd2f7"/>
    <path d="M 254.649225 239.511448 
L 245.184839 247.368095 
L 251.742858 251.028629 
L 261.175713 243.041955 
z
" clip-path="url(#pa3e945078a)" style="fill: #4a63d3"/>
    <path d="M 170.769171 204.313521 
L 160.595546 211.445468 
L 167.10306 218.898195 
L 177.135183 208.44694 
z
" clip-path="url(#pa3e945078a)" style="fill: #abc8fd"/>
    <path d="M 290.103247 246.270605 
L 280.923319 254.103591 
L 287.563376 257.823024 
L 296.731566 249.091256 
z
" clip-path="url(#pa3e945078a)" style="fill: #3b4cc0"/>
    <path d="M 219.189488 227.659531 
L 209.425454 235.854268 
L 215.936208 241.451254 
L 225.662943 233.431848 
z
" clip-path="url(#pa3e945078a)" style="fill: #688aef"/>
    <path d="M 144.265643 157.571101 
L 134.118022 170.933455 
L 141.150613 190.092434 
L 151.336359 179.838861 
z
" clip-path="url(#pa3e945078a)" style="fill: #f6bfa6"/>
    <path d="M 177.135183 208.44694 
L 167.10306 218.898195 
L 173.491871 222.22637 
L 183.576832 214.605062 
z
" clip-path="url(#pa3e945078a)" style="fill: #a1c0ff"/>
    <path d="M 261.175713 243.041955 
L 251.742858 251.028629 
L 258.327138 255.019067 
L 267.726459 246.963054 
z
" clip-path="url(#pa3e945078a)" style="fill: #455cce"/>
    <path d="M 225.662943 233.431848 
L 215.936208 241.451254 
L 222.462167 246.831995 
L 232.150457 238.820898 
z
" clip-path="url(#pa3e945078a)" style="fill: #5e7de7"/>
    <path d="M 183.576832 214.605062 
L 173.491871 222.22637 
L 180.011745 229.281338 
L 189.970419 218.073016 
z
" clip-path="url(#pa3e945078a)" style="fill: #97b8ff"/>
    <path d="M 232.150457 238.820898 
L 222.462167 246.831995 
L 229.00267 251.430827 
L 238.655308 243.180416 
z
" clip-path="url(#pa3e945078a)" style="fill: #5572df"/>
    <path d="M 267.726459 246.963054 
L 258.327138 255.019067 
L 264.939606 258.942324 
L 274.307172 250.712844 
z
" clip-path="url(#pa3e945078a)" style="fill: #4055c8"/>
    <path d="M 189.970419 218.073016 
L 180.011745 229.281338 
L 186.496751 234.570154 
L 196.533701 228.704516 
z
" clip-path="url(#pa3e945078a)" style="fill: #86a9fc"/>
    <path d="M 196.533701 228.704516 
L 186.496751 234.570154 
L 193.032371 241.352516 
L 202.96565 232.292501 
z
" clip-path="url(#pa3e945078a)" style="fill: #7699f6"/>
    <path d="M 238.655308 243.180416 
L 229.00267 251.430827 
L 235.565472 255.479542 
L 245.184839 247.368095 
z
" clip-path="url(#pa3e945078a)" style="fill: #4f69d9"/>
    <path d="M 274.307172 250.712844 
L 264.939606 258.942324 
L 271.592325 262.044801 
L 280.923319 254.103591 
z
" clip-path="url(#pa3e945078a)" style="fill: #3e51c5"/>
    <path d="M 202.96565 232.292501 
L 193.032371 241.352516 
L 199.453591 241.408956 
L 209.425454 235.854268 
z
" clip-path="url(#pa3e945078a)" style="fill: #7295f4"/>
    <path d="M 245.184839 247.368095 
L 235.565472 255.479542 
L 242.155597 259.229957 
L 251.742858 251.028629 
z
" clip-path="url(#pa3e945078a)" style="fill: #4a63d3"/>
    <path d="M 280.923319 254.103591 
L 271.592325 262.044801 
L 278.258898 266.252376 
L 287.563376 257.823024 
z
" clip-path="url(#pa3e945078a)" style="fill: #3b4cc0"/>
    <path d="M 209.425454 235.854268 
L 199.453591 241.408956 
L 206.050217 249.537829 
L 215.936208 241.451254 
z
" clip-path="url(#pa3e945078a)" style="fill: #6b8df0"/>
    <path d="M 251.742858 251.028629 
L 242.155597 259.229957 
L 248.774533 263.059941 
L 258.327138 255.019067 
z
" clip-path="url(#pa3e945078a)" style="fill: #455cce"/>
    <path d="M 215.936208 241.451254 
L 206.050217 249.537829 
L 212.617812 255.163854 
L 222.462167 246.831995 
z
" clip-path="url(#pa3e945078a)" style="fill: #5d7ce6"/>
    <path d="M 222.462167 246.831995 
L 212.617812 255.163854 
L 219.191992 259.646343 
L 229.00267 251.430827 
z
" clip-path="url(#pa3e945078a)" style="fill: #5470de"/>
    <path d="M 258.327138 255.019067 
L 248.774533 263.059941 
L 255.420817 267.116773 
L 264.939606 258.942324 
z
" clip-path="url(#pa3e945078a)" style="fill: #4257c9"/>
    <path d="M 229.00267 251.430827 
L 219.191992 259.646343 
L 225.788454 263.76632 
L 235.565472 255.479542 
z
" clip-path="url(#pa3e945078a)" style="fill: #4e68d8"/>
    <path d="M 264.939606 258.942324 
L 255.420817 267.116773 
L 262.100753 270.62297 
L 271.592325 262.044801 
z
" clip-path="url(#pa3e945078a)" style="fill: #3e51c5"/>
    <path d="M 235.565472 255.479542 
L 225.788454 263.76632 
L 232.410753 267.502632 
L 242.155597 259.229957 
z
" clip-path="url(#pa3e945078a)" style="fill: #4a63d3"/>
    <path d="M 271.592325 262.044801 
L 262.100753 270.62297 
L 268.805359 274.65059 
L 278.258898 266.252376 
z
" clip-path="url(#pa3e945078a)" style="fill: #3b4cc0"/>
    <path d="M 242.155597 259.229957 
L 232.410753 267.502632 
L 239.062982 271.508976 
L 248.774533 263.059941 
z
" clip-path="url(#pa3e945078a)" style="fill: #455cce"/>
    <path d="M 248.774533 263.059941 
L 239.062982 271.508976 
L 245.743861 275.469159 
L 255.420817 267.116773 
z
" clip-path="url(#pa3e945078a)" style="fill: #4257c9"/>
    <path d="M 255.420817 267.116773 
L 245.743861 275.469159 
L 252.456047 279.066512 
L 262.100753 270.62297 
z
" clip-path="url(#pa3e945078a)" style="fill: #3e51c5"/>
    <path d="M 262.100753 270.62297 
L 252.456047 279.066512 
L 259.195659 283.145628 
L 268.805359 274.65059 
z
" clip-path="url(#pa3e945078a)" style="fill: #3b4cc0"/>
   </g>
  </g>
 </g>
 <defs>
  <clipPath id="pa3e945078a">
   <rect x="103.104" y="41.472" width="266.112" height="266.112"/>
  </clipPath>
 </defs>
</svg>
