<?xml version="1.0" encoding="utf-8" standalone="no"?>
<!DOCTYPE svg PUBLIC "-//W3C//DTD SVG 1.1//EN"
  "http://www.w3.org/Graphics/SVG/1.1/DTD/svg11.dtd">
<svg xmlns:xlink="http://www.w3.org/1999/xlink" width="460.8pt" height="345.6pt" viewBox="0 0 460.8 345.6" xmlns="http://www.w3.org/2000/svg" version="1.1">
 <metadata>
  <rdf:RDF xmlns:dc="http://purl.org/dc/elements/1.1/" xmlns:cc="http://creativecommons.org/ns#" xmlns:rdf="http://www.w3.org/1999/02/22-rdf-syntax-ns#">
   <cc:Work>
    <dc:type rdf:resource="http://purl.org/dc/dcmitype/StillImage"/>
    <dc:date>2023-12-04T10:41:41.756124</dc:date>
    <dc:format>image/svg+xml</dc:format>
    <dc:creator>
     <cc:Agent>
      <dc:title>Matplotlib v3.8.0, https://matplotlib.org/</dc:title>
     </cc:Agent>
    </dc:creator>
   </cc:Work>
  </rdf:RDF>
 </metadata>
 <defs>
  <style type="text/css">*{stroke-linejoin: round; stroke-linecap: butt}</style>
 </defs>
 <g id="figure_1">
  <g id="patch_1">
   <path d="M 0 345.6 
L 460.8 345.6 
L 460.8 0 
L 0 0 
z
" style="fill: #ffffff"/>
  </g>
  <g id="patch_2">
   <path d="M 103.104 307.584 
L 369.216 307.584 
L 369.216 41.472 
L 103.104 41.472 
z
" style="fill: #ffffff"/>
  </g>
  <g id="pane3d_1">
   <g id="patch_3">
    <path d="M 236.370817 153.73542 
L 357.463816 219.447396 
L 363.76975 115.37154 
L 236.200964 52.965997 
" style="fill: #f2f2f2; opacity: 0.5; stroke: #f2f2f2; stroke-linejoin: miter"/>
   </g>
  </g>
  <g id="pane3d_2">
   <g id="patch_4">
    <path d="M 236.370817 153.73542 
L 121.568463 223.882092 
L 115.209613 119.597649 
L 236.200964 52.965997 
" style="fill: #e6e6e6; opacity: 0.5; stroke: #e6e6e6; stroke-linejoin: miter"/>
   </g>
  </g>
  <g id="pane3d_3">
   <g id="patch_5">
    <path d="M 236.370817 153.73542 
L 121.568463 223.882092 
L 243.623463 299.257512 
L 357.463816 219.447396 
" style="fill: #ececec; opacity: 0.5; stroke: #ececec; stroke-linejoin: miter"/>
   </g>
  </g>
  <g id="grid3d_1">
   <g id="Line3DCollection_1">
    <path d="M 353.274495 222.384406 
L 232.128057 156.327837 
L 231.74431 55.42034 
" style="fill: none; stroke: #b0b0b0; stroke-width: 0.8"/>
    <path d="M 340.241178 231.521681 
L 218.937333 164.387648 
L 217.881338 63.054875 
" style="fill: none; stroke: #b0b0b0; stroke-width: 0.8"/>
    <path d="M 326.987619 240.81336 
L 205.537423 172.575277 
L 203.787274 70.816675 
" style="fill: none; stroke: #b0b0b0; stroke-width: 0.8"/>
    <path d="M 313.508187 250.263392 
L 191.923311 180.893788 
L 189.456293 78.70895 
" style="fill: none; stroke: #b0b0b0; stroke-width: 0.8"/>
    <path d="M 299.797061 259.875859 
L 178.089819 189.346345 
L 174.882368 86.735017 
" style="fill: none; stroke: #b0b0b0; stroke-width: 0.8"/>
    <path d="M 285.848213 269.654985 
L 164.031602 197.936214 
L 160.05927 94.898307 
" style="fill: none; stroke: #b0b0b0; stroke-width: 0.8"/>
    <path d="M 271.655408 279.605142 
L 149.743139 206.666768 
L 144.980554 103.20237 
" style="fill: none; stroke: #b0b0b0; stroke-width: 0.8"/>
    <path d="M 257.212188 289.730857 
L 135.218726 215.541492 
L 129.63955 111.650879 
" style="fill: none; stroke: #b0b0b0; stroke-width: 0.8"/>
   </g>
  </g>
  <g id="grid3d_2">
   <g id="Line3DCollection_2">
    <path d="M 239.465015 54.562742 
L 239.478945 155.422068 
L 124.687809 225.808453 
" style="fill: none; stroke: #b0b0b0; stroke-width: 0.8"/>
    <path d="M 254.109877 61.726881 
L 253.417895 162.986138 
L 138.685765 234.452931 
" style="fill: none; stroke: #b0b0b0; stroke-width: 0.8"/>
    <path d="M 268.983919 69.003134 
L 267.564384 170.662831 
L 152.906698 243.235109 
" style="fill: none; stroke: #b0b0b0; stroke-width: 0.8"/>
    <path d="M 284.092565 76.394152 
L 281.923082 178.454681 
L 167.355979 252.158305 
" style="fill: none; stroke: #b0b0b0; stroke-width: 0.8"/>
    <path d="M 299.441407 83.902673 
L 296.498801 186.364298 
L 182.039152 261.225942 
" style="fill: none; stroke: #b0b0b0; stroke-width: 0.8"/>
    <path d="M 315.036221 91.531521 
L 311.296498 194.394373 
L 196.961944 270.441555 
" style="fill: none; stroke: #b0b0b0; stroke-width: 0.8"/>
    <path d="M 330.882967 99.283611 
L 326.321282 202.547679 
L 212.130267 279.808797 
" style="fill: none; stroke: #b0b0b0; stroke-width: 0.8"/>
    <path d="M 346.987799 107.161955 
L 341.578421 210.827074 
L 227.550233 289.331441 
" style="fill: none; stroke: #b0b0b0; stroke-width: 0.8"/>
   </g>
  </g>
  <g id="grid3d_3">
   <g id="Line3DCollection_3">
    <path d="M 121.447656 221.900867 
L 236.367579 151.814485 
L 357.583644 217.46971 
" style="fill: none; stroke: #b0b0b0; stroke-width: 0.8"/>
    <path d="M 120.496216 206.297359 
L 236.342094 136.694608 
L 358.527334 201.894649 
" style="fill: none; stroke: #b0b0b0; stroke-width: 0.8"/>
    <path d="M 119.52935 190.440849 
L 236.316222 121.345571 
L 359.486261 186.068089 
" style="fill: none; stroke: #b0b0b0; stroke-width: 0.8"/>
    <path d="M 118.546677 174.325134 
L 236.289955 105.762126 
L 360.460799 169.98389 
" style="fill: none; stroke: #b0b0b0; stroke-width: 0.8"/>
    <path d="M 117.547809 157.943803 
L 236.263284 89.938862 
L 361.451332 153.635709 
" style="fill: none; stroke: #b0b0b0; stroke-width: 0.8"/>
    <path d="M 116.532341 141.290238 
L 236.2362 73.870198 
L 362.458256 137.016994 
" style="fill: none; stroke: #b0b0b0; stroke-width: 0.8"/>
    <path d="M 115.499855 124.357593 
L 236.208692 57.550382 
L 363.481983 120.120973 
" style="fill: none; stroke: #b0b0b0; stroke-width: 0.8"/>
   </g>
  </g>
  <g id="axis3d_1">
   <g id="line2d_1">
    <path d="M 357.463816 219.447396 
L 243.623463 299.257512 
" style="fill: none; stroke: #000000; stroke-width: 0.8; stroke-linecap: square"/>
   </g>
   <g id="xtick_1">
    <g id="line2d_2">
     <path d="M 352.243368 221.822171 
L 355.339945 223.510617 
" style="fill: none; stroke: #000000; stroke-width: 0.8; stroke-linecap: square"/>
    </g>
    <g id="text_1">
     <!-- 0 -->
     <g transform="translate(360.324395 244.038893) scale(0.1 -0.1)">
      <defs>
       <path id="DejaVuSans-30" d="M 2034 4250 
Q 1547 4250 1301 3770 
Q 1056 3291 1056 2328 
Q 1056 1369 1301 889 
Q 1547 409 2034 409 
Q 2525 409 2770 889 
Q 3016 1369 3016 2328 
Q 3016 3291 2770 3770 
Q 2525 4250 2034 4250 
z
M 2034 4750 
Q 2819 4750 3233 4129 
Q 3647 3509 3647 2328 
Q 3647 1150 3233 529 
Q 2819 -91 2034 -91 
Q 1250 -91 836 529 
Q 422 1150 422 2328 
Q 422 3509 836 4129 
Q 1250 4750 2034 4750 
z
" transform="scale(0.015625)"/>
      </defs>
      <use xlink:href="#DejaVuSans-30"/>
     </g>
    </g>
   </g>
   <g id="xtick_2">
    <g id="line2d_3">
     <path d="M 339.208191 230.949987 
L 342.310378 232.666853 
" style="fill: none; stroke: #000000; stroke-width: 0.8; stroke-linecap: square"/>
    </g>
    <g id="text_2">
     <!-- 25 -->
     <g transform="translate(344.180918 253.304392) scale(0.1 -0.1)">
      <defs>
       <path id="DejaVuSans-32" d="M 1228 531 
L 3431 531 
L 3431 0 
L 469 0 
L 469 531 
Q 828 903 1448 1529 
Q 2069 2156 2228 2338 
Q 2531 2678 2651 2914 
Q 2772 3150 2772 3378 
Q 2772 3750 2511 3984 
Q 2250 4219 1831 4219 
Q 1534 4219 1204 4116 
Q 875 4013 500 3803 
L 500 4441 
Q 881 4594 1212 4672 
Q 1544 4750 1819 4750 
Q 2544 4750 2975 4387 
Q 3406 4025 3406 3419 
Q 3406 3131 3298 2873 
Q 3191 2616 2906 2266 
Q 2828 2175 2409 1742 
Q 1991 1309 1228 531 
z
" transform="scale(0.015625)"/>
       <path id="DejaVuSans-35" d="M 691 4666 
L 3169 4666 
L 3169 4134 
L 1269 4134 
L 1269 2991 
Q 1406 3038 1543 3061 
Q 1681 3084 1819 3084 
Q 2600 3084 3056 2656 
Q 3513 2228 3513 1497 
Q 3513 744 3044 326 
Q 2575 -91 1722 -91 
Q 1428 -91 1123 -41 
Q 819 9 494 109 
L 494 744 
Q 775 591 1075 516 
Q 1375 441 1709 441 
Q 2250 441 2565 725 
Q 2881 1009 2881 1497 
Q 2881 1984 2565 2268 
Q 2250 2553 1709 2553 
Q 1456 2553 1204 2497 
Q 953 2441 691 2322 
L 691 4666 
z
" transform="scale(0.015625)"/>
      </defs>
      <use xlink:href="#DejaVuSans-32"/>
      <use xlink:href="#DejaVuSans-35" x="63.623047"/>
     </g>
    </g>
   </g>
   <g id="xtick_3">
    <g id="line2d_4">
     <path d="M 325.952856 240.231968 
L 329.060402 241.977976 
" style="fill: none; stroke: #000000; stroke-width: 0.8; stroke-linecap: square"/>
    </g>
    <g id="text_3">
     <!-- 50 -->
     <g transform="translate(330.999401 262.726642) scale(0.1 -0.1)">
      <use xlink:href="#DejaVuSans-35"/>
      <use xlink:href="#DejaVuSans-30" x="63.623047"/>
     </g>
    </g>
   </g>
   <g id="xtick_4">
    <g id="line2d_5">
     <path d="M 312.471739 249.672052 
L 315.584377 251.447951 
" style="fill: none; stroke: #000000; stroke-width: 0.8; stroke-linecap: square"/>
    </g>
    <g id="text_4">
     <!-- 75 -->
     <g transform="translate(317.592982 272.309653) scale(0.1 -0.1)">
      <defs>
       <path id="DejaVuSans-37" d="M 525 4666 
L 3525 4666 
L 3525 4397 
L 1831 0 
L 1172 0 
L 2766 4134 
L 525 4134 
L 525 4666 
z
" transform="scale(0.015625)"/>
      </defs>
      <use xlink:href="#DejaVuSans-37"/>
      <use xlink:href="#DejaVuSans-35" x="63.623047"/>
     </g>
    </g>
   </g>
   <g id="xtick_5">
    <g id="line2d_6">
     <path d="M 298.759021 259.274313 
L 301.876466 261.080877 
" style="fill: none; stroke: #000000; stroke-width: 0.8; stroke-linecap: square"/>
    </g>
    <g id="text_5">
     <!-- 100 -->
     <g transform="translate(300.774606 282.057576) scale(0.1 -0.1)">
      <defs>
       <path id="DejaVuSans-31" d="M 794 531 
L 1825 531 
L 1825 4091 
L 703 3866 
L 703 4441 
L 1819 4666 
L 2450 4666 
L 2450 531 
L 3481 531 
L 3481 0 
L 794 0 
L 794 531 
z
" transform="scale(0.015625)"/>
      </defs>
      <use xlink:href="#DejaVuSans-31"/>
      <use xlink:href="#DejaVuSans-30" x="63.623047"/>
      <use xlink:href="#DejaVuSans-30" x="127.246094"/>
     </g>
    </g>
   </g>
   <g id="xtick_6">
    <g id="line2d_7">
     <path d="M 284.808683 269.042967 
L 287.930634 270.880997 
" style="fill: none; stroke: #000000; stroke-width: 0.8; stroke-linecap: square"/>
    </g>
    <g id="text_6">
     <!-- 125 -->
     <g transform="translate(286.900765 291.974704) scale(0.1 -0.1)">
      <use xlink:href="#DejaVuSans-31"/>
      <use xlink:href="#DejaVuSans-32" x="63.623047"/>
      <use xlink:href="#DejaVuSans-35" x="127.246094"/>
     </g>
    </g>
   </g>
   <g id="xtick_7">
    <g id="line2d_8">
     <path d="M 270.614492 278.982377 
L 273.740633 280.852702 
" style="fill: none; stroke: #000000; stroke-width: 0.8; stroke-linecap: square"/>
    </g>
    <g id="text_7">
     <!-- 150 -->
     <g transform="translate(272.783992 302.065482) scale(0.1 -0.1)">
      <use xlink:href="#DejaVuSans-31"/>
      <use xlink:href="#DejaVuSans-35" x="63.623047"/>
      <use xlink:href="#DejaVuSans-30" x="127.246094"/>
     </g>
    </g>
   </g>
   <g id="xtick_8">
    <g id="line2d_9">
     <path d="M 256.170001 289.097059 
L 259.299992 291.000539 
" style="fill: none; stroke: #000000; stroke-width: 0.8; stroke-linecap: square"/>
    </g>
    <g id="text_8">
     <!-- 175 -->
     <g transform="translate(258.41785 312.33451) scale(0.1 -0.1)">
      <use xlink:href="#DejaVuSans-31"/>
      <use xlink:href="#DejaVuSans-37" x="63.623047"/>
      <use xlink:href="#DejaVuSans-35" x="127.246094"/>
     </g>
    </g>
   </g>
   <g id="text_9">
    <!-- Handover Cost -->
    <g transform="translate(296.69834 313.138966) rotate(-35.033165) scale(0.1 -0.1)">
     <defs>
      <path id="DejaVuSans-48" d="M 628 4666 
L 1259 4666 
L 1259 2753 
L 3553 2753 
L 3553 4666 
L 4184 4666 
L 4184 0 
L 3553 0 
L 3553 2222 
L 1259 2222 
L 1259 0 
L 628 0 
L 628 4666 
z
" transform="scale(0.015625)"/>
      <path id="DejaVuSans-61" d="M 2194 1759 
Q 1497 1759 1228 1600 
Q 959 1441 959 1056 
Q 959 750 1161 570 
Q 1363 391 1709 391 
Q 2188 391 2477 730 
Q 2766 1069 2766 1631 
L 2766 1759 
L 2194 1759 
z
M 3341 1997 
L 3341 0 
L 2766 0 
L 2766 531 
Q 2569 213 2275 61 
Q 1981 -91 1556 -91 
Q 1019 -91 701 211 
Q 384 513 384 1019 
Q 384 1609 779 1909 
Q 1175 2209 1959 2209 
L 2766 2209 
L 2766 2266 
Q 2766 2663 2505 2880 
Q 2244 3097 1772 3097 
Q 1472 3097 1187 3025 
Q 903 2953 641 2809 
L 641 3341 
Q 956 3463 1253 3523 
Q 1550 3584 1831 3584 
Q 2591 3584 2966 3190 
Q 3341 2797 3341 1997 
z
" transform="scale(0.015625)"/>
      <path id="DejaVuSans-6e" d="M 3513 2113 
L 3513 0 
L 2938 0 
L 2938 2094 
Q 2938 2591 2744 2837 
Q 2550 3084 2163 3084 
Q 1697 3084 1428 2787 
Q 1159 2491 1159 1978 
L 1159 0 
L 581 0 
L 581 3500 
L 1159 3500 
L 1159 2956 
Q 1366 3272 1645 3428 
Q 1925 3584 2291 3584 
Q 2894 3584 3203 3211 
Q 3513 2838 3513 2113 
z
" transform="scale(0.015625)"/>
      <path id="DejaVuSans-64" d="M 2906 2969 
L 2906 4863 
L 3481 4863 
L 3481 0 
L 2906 0 
L 2906 525 
Q 2725 213 2448 61 
Q 2172 -91 1784 -91 
Q 1150 -91 751 415 
Q 353 922 353 1747 
Q 353 2572 751 3078 
Q 1150 3584 1784 3584 
Q 2172 3584 2448 3432 
Q 2725 3281 2906 2969 
z
M 947 1747 
Q 947 1113 1208 752 
Q 1469 391 1925 391 
Q 2381 391 2643 752 
Q 2906 1113 2906 1747 
Q 2906 2381 2643 2742 
Q 2381 3103 1925 3103 
Q 1469 3103 1208 2742 
Q 947 2381 947 1747 
z
" transform="scale(0.015625)"/>
      <path id="DejaVuSans-6f" d="M 1959 3097 
Q 1497 3097 1228 2736 
Q 959 2375 959 1747 
Q 959 1119 1226 758 
Q 1494 397 1959 397 
Q 2419 397 2687 759 
Q 2956 1122 2956 1747 
Q 2956 2369 2687 2733 
Q 2419 3097 1959 3097 
z
M 1959 3584 
Q 2709 3584 3137 3096 
Q 3566 2609 3566 1747 
Q 3566 888 3137 398 
Q 2709 -91 1959 -91 
Q 1206 -91 779 398 
Q 353 888 353 1747 
Q 353 2609 779 3096 
Q 1206 3584 1959 3584 
z
" transform="scale(0.015625)"/>
      <path id="DejaVuSans-76" d="M 191 3500 
L 800 3500 
L 1894 563 
L 2988 3500 
L 3597 3500 
L 2284 0 
L 1503 0 
L 191 3500 
z
" transform="scale(0.015625)"/>
      <path id="DejaVuSans-65" d="M 3597 1894 
L 3597 1613 
L 953 1613 
Q 991 1019 1311 708 
Q 1631 397 2203 397 
Q 2534 397 2845 478 
Q 3156 559 3463 722 
L 3463 178 
Q 3153 47 2828 -22 
Q 2503 -91 2169 -91 
Q 1331 -91 842 396 
Q 353 884 353 1716 
Q 353 2575 817 3079 
Q 1281 3584 2069 3584 
Q 2775 3584 3186 3129 
Q 3597 2675 3597 1894 
z
M 3022 2063 
Q 3016 2534 2758 2815 
Q 2500 3097 2075 3097 
Q 1594 3097 1305 2825 
Q 1016 2553 972 2059 
L 3022 2063 
z
" transform="scale(0.015625)"/>
      <path id="DejaVuSans-72" d="M 2631 2963 
Q 2534 3019 2420 3045 
Q 2306 3072 2169 3072 
Q 1681 3072 1420 2755 
Q 1159 2438 1159 1844 
L 1159 0 
L 581 0 
L 581 3500 
L 1159 3500 
L 1159 2956 
Q 1341 3275 1631 3429 
Q 1922 3584 2338 3584 
Q 2397 3584 2469 3576 
Q 2541 3569 2628 3553 
L 2631 2963 
z
" transform="scale(0.015625)"/>
      <path id="DejaVuSans-20" transform="scale(0.015625)"/>
      <path id="DejaVuSans-43" d="M 4122 4306 
L 4122 3641 
Q 3803 3938 3442 4084 
Q 3081 4231 2675 4231 
Q 1875 4231 1450 3742 
Q 1025 3253 1025 2328 
Q 1025 1406 1450 917 
Q 1875 428 2675 428 
Q 3081 428 3442 575 
Q 3803 722 4122 1019 
L 4122 359 
Q 3791 134 3420 21 
Q 3050 -91 2638 -91 
Q 1578 -91 968 557 
Q 359 1206 359 2328 
Q 359 3453 968 4101 
Q 1578 4750 2638 4750 
Q 3056 4750 3426 4639 
Q 3797 4528 4122 4306 
z
" transform="scale(0.015625)"/>
      <path id="DejaVuSans-73" d="M 2834 3397 
L 2834 2853 
Q 2591 2978 2328 3040 
Q 2066 3103 1784 3103 
Q 1356 3103 1142 2972 
Q 928 2841 928 2578 
Q 928 2378 1081 2264 
Q 1234 2150 1697 2047 
L 1894 2003 
Q 2506 1872 2764 1633 
Q 3022 1394 3022 966 
Q 3022 478 2636 193 
Q 2250 -91 1575 -91 
Q 1294 -91 989 -36 
Q 684 19 347 128 
L 347 722 
Q 666 556 975 473 
Q 1284 391 1588 391 
Q 1994 391 2212 530 
Q 2431 669 2431 922 
Q 2431 1156 2273 1281 
Q 2116 1406 1581 1522 
L 1381 1569 
Q 847 1681 609 1914 
Q 372 2147 372 2553 
Q 372 3047 722 3315 
Q 1072 3584 1716 3584 
Q 2034 3584 2315 3537 
Q 2597 3491 2834 3397 
z
" transform="scale(0.015625)"/>
      <path id="DejaVuSans-74" d="M 1172 4494 
L 1172 3500 
L 2356 3500 
L 2356 3053 
L 1172 3053 
L 1172 1153 
Q 1172 725 1289 603 
Q 1406 481 1766 481 
L 2356 481 
L 2356 0 
L 1766 0 
Q 1100 0 847 248 
Q 594 497 594 1153 
L 594 3053 
L 172 3053 
L 172 3500 
L 594 3500 
L 594 4494 
L 1172 4494 
z
" transform="scale(0.015625)"/>
     </defs>
     <use xlink:href="#DejaVuSans-48"/>
     <use xlink:href="#DejaVuSans-61" x="75.195312"/>
     <use xlink:href="#DejaVuSans-6e" x="136.474609"/>
     <use xlink:href="#DejaVuSans-64" x="199.853516"/>
     <use xlink:href="#DejaVuSans-6f" x="263.330078"/>
     <use xlink:href="#DejaVuSans-76" x="324.511719"/>
     <use xlink:href="#DejaVuSans-65" x="383.691406"/>
     <use xlink:href="#DejaVuSans-72" x="445.214844"/>
     <use xlink:href="#DejaVuSans-20" x="486.328125"/>
     <use xlink:href="#DejaVuSans-43" x="518.115234"/>
     <use xlink:href="#DejaVuSans-6f" x="587.939453"/>
     <use xlink:href="#DejaVuSans-73" x="649.121094"/>
     <use xlink:href="#DejaVuSans-74" x="701.220703"/>
    </g>
   </g>
  </g>
  <g id="axis3d_2">
   <g id="line2d_10">
    <path d="M 121.568463 223.882092 
L 243.623463 299.257512 
" style="fill: none; stroke: #000000; stroke-width: 0.8; stroke-linecap: square"/>
   </g>
   <g id="xtick_9">
    <g id="line2d_11">
     <path d="M 125.668746 225.206973 
L 122.722696 227.0134 
" style="fill: none; stroke: #000000; stroke-width: 0.8; stroke-linecap: square"/>
    </g>
    <g id="text_10">
     <!-- 0 -->
     <g transform="translate(111.801244 247.887063) scale(0.1 -0.1)">
      <use xlink:href="#DejaVuSans-30"/>
     </g>
    </g>
   </g>
   <g id="xtick_10">
    <g id="line2d_12">
     <path d="M 139.666691 233.841911 
L 136.720646 235.677006 
" style="fill: none; stroke: #000000; stroke-width: 0.8; stroke-linecap: square"/>
    </g>
    <g id="text_11">
     <!-- 25 -->
     <g transform="translate(122.5618 256.658882) scale(0.1 -0.1)">
      <use xlink:href="#DejaVuSans-32"/>
      <use xlink:href="#DejaVuSans-35" x="63.623047"/>
     </g>
    </g>
   </g>
   <g id="xtick_11">
    <g id="line2d_13">
     <path d="M 153.887489 242.61432 
L 150.941823 244.478772 
" style="fill: none; stroke: #000000; stroke-width: 0.8; stroke-linecap: square"/>
    </g>
    <g id="text_12">
     <!-- 50 -->
     <g transform="translate(136.72602 265.570638) scale(0.1 -0.1)">
      <use xlink:href="#DejaVuSans-35"/>
      <use xlink:href="#DejaVuSans-30" x="63.623047"/>
     </g>
    </g>
   </g>
   <g id="xtick_12">
    <g id="line2d_14">
     <path d="M 168.336505 251.52751 
L 165.391609 253.422029 
" style="fill: none; stroke: #000000; stroke-width: 0.8; stroke-linecap: square"/>
    </g>
    <g id="text_13">
     <!-- 75 -->
     <g transform="translate(151.118018 274.625706) scale(0.1 -0.1)">
      <use xlink:href="#DejaVuSans-37"/>
      <use xlink:href="#DejaVuSans-35" x="63.623047"/>
     </g>
    </g>
   </g>
   <g id="xtick_13">
    <g id="line2d_15">
     <path d="M 183.019276 260.584898 
L 180.075562 262.510216 
" style="fill: none; stroke: #000000; stroke-width: 0.8; stroke-linecap: square"/>
    </g>
    <g id="text_14">
     <!-- 100 -->
     <g transform="translate(162.562084 283.827571) scale(0.1 -0.1)">
      <use xlink:href="#DejaVuSans-31"/>
      <use xlink:href="#DejaVuSans-30" x="63.623047"/>
      <use xlink:href="#DejaVuSans-30" x="127.246094"/>
     </g>
    </g>
   </g>
   <g id="xtick_14">
    <g id="line2d_16">
     <path d="M 197.941521 269.79001 
L 194.999421 271.746885 
" style="fill: none; stroke: #000000; stroke-width: 0.8; stroke-linecap: square"/>
    </g>
    <g id="text_15">
     <!-- 125 -->
     <g transform="translate(177.426437 293.179832) scale(0.1 -0.1)">
      <use xlink:href="#DejaVuSans-31"/>
      <use xlink:href="#DejaVuSans-32" x="63.623047"/>
      <use xlink:href="#DejaVuSans-35" x="127.246094"/>
     </g>
    </g>
   </g>
   <g id="xtick_15">
    <g id="line2d_17">
     <path d="M 213.109148 279.146491 
L 210.169113 281.135706 
" style="fill: none; stroke: #000000; stroke-width: 0.8; stroke-linecap: square"/>
    </g>
    <g id="text_16">
     <!-- 150 -->
     <g transform="translate(192.535736 302.686207) scale(0.1 -0.1)">
      <use xlink:href="#DejaVuSans-31"/>
      <use xlink:href="#DejaVuSans-35" x="63.623047"/>
      <use xlink:href="#DejaVuSans-30" x="127.246094"/>
     </g>
    </g>
   </g>
   <g id="xtick_16">
    <g id="line2d_18">
     <path d="M 228.528258 288.658106 
L 225.590762 290.680467 
" style="fill: none; stroke: #000000; stroke-width: 0.8; stroke-linecap: square"/>
    </g>
    <g id="text_17">
     <!-- 175 -->
     <g transform="translate(207.896086 312.350537) scale(0.1 -0.1)">
      <use xlink:href="#DejaVuSans-31"/>
      <use xlink:href="#DejaVuSans-37" x="63.623047"/>
      <use xlink:href="#DejaVuSans-35" x="127.246094"/>
     </g>
    </g>
   </g>
   <g id="text_18">
    <!-- Switching Cost -->
    <g transform="translate(126.037481 275.880585) rotate(-328.302475) scale(0.1 -0.1)">
     <defs>
      <path id="DejaVuSans-53" d="M 3425 4513 
L 3425 3897 
Q 3066 4069 2747 4153 
Q 2428 4238 2131 4238 
Q 1616 4238 1336 4038 
Q 1056 3838 1056 3469 
Q 1056 3159 1242 3001 
Q 1428 2844 1947 2747 
L 2328 2669 
Q 3034 2534 3370 2195 
Q 3706 1856 3706 1288 
Q 3706 609 3251 259 
Q 2797 -91 1919 -91 
Q 1588 -91 1214 -16 
Q 841 59 441 206 
L 441 856 
Q 825 641 1194 531 
Q 1563 422 1919 422 
Q 2459 422 2753 634 
Q 3047 847 3047 1241 
Q 3047 1584 2836 1778 
Q 2625 1972 2144 2069 
L 1759 2144 
Q 1053 2284 737 2584 
Q 422 2884 422 3419 
Q 422 4038 858 4394 
Q 1294 4750 2059 4750 
Q 2388 4750 2728 4690 
Q 3069 4631 3425 4513 
z
" transform="scale(0.015625)"/>
      <path id="DejaVuSans-77" d="M 269 3500 
L 844 3500 
L 1563 769 
L 2278 3500 
L 2956 3500 
L 3675 769 
L 4391 3500 
L 4966 3500 
L 4050 0 
L 3372 0 
L 2619 2869 
L 1863 0 
L 1184 0 
L 269 3500 
z
" transform="scale(0.015625)"/>
      <path id="DejaVuSans-69" d="M 603 3500 
L 1178 3500 
L 1178 0 
L 603 0 
L 603 3500 
z
M 603 4863 
L 1178 4863 
L 1178 4134 
L 603 4134 
L 603 4863 
z
" transform="scale(0.015625)"/>
      <path id="DejaVuSans-63" d="M 3122 3366 
L 3122 2828 
Q 2878 2963 2633 3030 
Q 2388 3097 2138 3097 
Q 1578 3097 1268 2742 
Q 959 2388 959 1747 
Q 959 1106 1268 751 
Q 1578 397 2138 397 
Q 2388 397 2633 464 
Q 2878 531 3122 666 
L 3122 134 
Q 2881 22 2623 -34 
Q 2366 -91 2075 -91 
Q 1284 -91 818 406 
Q 353 903 353 1747 
Q 353 2603 823 3093 
Q 1294 3584 2113 3584 
Q 2378 3584 2631 3529 
Q 2884 3475 3122 3366 
z
" transform="scale(0.015625)"/>
      <path id="DejaVuSans-68" d="M 3513 2113 
L 3513 0 
L 2938 0 
L 2938 2094 
Q 2938 2591 2744 2837 
Q 2550 3084 2163 3084 
Q 1697 3084 1428 2787 
Q 1159 2491 1159 1978 
L 1159 0 
L 581 0 
L 581 4863 
L 1159 4863 
L 1159 2956 
Q 1366 3272 1645 3428 
Q 1925 3584 2291 3584 
Q 2894 3584 3203 3211 
Q 3513 2838 3513 2113 
z
" transform="scale(0.015625)"/>
      <path id="DejaVuSans-67" d="M 2906 1791 
Q 2906 2416 2648 2759 
Q 2391 3103 1925 3103 
Q 1463 3103 1205 2759 
Q 947 2416 947 1791 
Q 947 1169 1205 825 
Q 1463 481 1925 481 
Q 2391 481 2648 825 
Q 2906 1169 2906 1791 
z
M 3481 434 
Q 3481 -459 3084 -895 
Q 2688 -1331 1869 -1331 
Q 1566 -1331 1297 -1286 
Q 1028 -1241 775 -1147 
L 775 -588 
Q 1028 -725 1275 -790 
Q 1522 -856 1778 -856 
Q 2344 -856 2625 -561 
Q 2906 -266 2906 331 
L 2906 616 
Q 2728 306 2450 153 
Q 2172 0 1784 0 
Q 1141 0 747 490 
Q 353 981 353 1791 
Q 353 2603 747 3093 
Q 1141 3584 1784 3584 
Q 2172 3584 2450 3431 
Q 2728 3278 2906 2969 
L 2906 3500 
L 3481 3500 
L 3481 434 
z
" transform="scale(0.015625)"/>
     </defs>
     <use xlink:href="#DejaVuSans-53"/>
     <use xlink:href="#DejaVuSans-77" x="63.476562"/>
     <use xlink:href="#DejaVuSans-69" x="145.263672"/>
     <use xlink:href="#DejaVuSans-74" x="173.046875"/>
     <use xlink:href="#DejaVuSans-63" x="212.255859"/>
     <use xlink:href="#DejaVuSans-68" x="267.236328"/>
     <use xlink:href="#DejaVuSans-69" x="330.615234"/>
     <use xlink:href="#DejaVuSans-6e" x="358.398438"/>
     <use xlink:href="#DejaVuSans-67" x="421.777344"/>
     <use xlink:href="#DejaVuSans-20" x="485.253906"/>
     <use xlink:href="#DejaVuSans-43" x="517.041016"/>
     <use xlink:href="#DejaVuSans-6f" x="586.865234"/>
     <use xlink:href="#DejaVuSans-73" x="648.046875"/>
     <use xlink:href="#DejaVuSans-74" x="700.146484"/>
    </g>
   </g>
  </g>
  <g id="axis3d_3">
   <g id="line2d_19">
    <path d="M 121.568463 223.882092 
L 115.209613 119.597649 
" style="fill: none; stroke: #000000; stroke-width: 0.8; stroke-linecap: square"/>
   </g>
   <g id="xtick_17">
    <g id="line2d_20">
     <path d="M 122.429647 221.301979 
L 119.480433 223.10062 
" style="fill: none; stroke: #000000; stroke-width: 0.8; stroke-linecap: square"/>
    </g>
    <g id="text_19">
     <!-- 0 -->
     <g transform="translate(98.58696 229.868594) scale(0.1 -0.1)">
      <use xlink:href="#DejaVuSans-30"/>
     </g>
    </g>
   </g>
   <g id="xtick_18">
    <g id="line2d_21">
     <path d="M 121.486627 205.702299 
L 118.5121 207.48946 
" style="fill: none; stroke: #000000; stroke-width: 0.8; stroke-linecap: square"/>
    </g>
    <g id="text_20">
     <!-- 10 -->
     <g transform="translate(94.295629 214.262729) scale(0.1 -0.1)">
      <use xlink:href="#DejaVuSans-31"/>
      <use xlink:href="#DejaVuSans-30" x="63.623047"/>
     </g>
    </g>
   </g>
   <g id="xtick_19">
    <g id="line2d_22">
     <path d="M 120.528324 189.84982 
L 117.528048 191.624891 
" style="fill: none; stroke: #000000; stroke-width: 0.8; stroke-linecap: square"/>
    </g>
    <g id="text_21">
     <!-- 20 -->
     <g transform="translate(93.167542 198.403737) scale(0.1 -0.1)">
      <use xlink:href="#DejaVuSans-32"/>
      <use xlink:href="#DejaVuSans-30" x="63.623047"/>
     </g>
    </g>
   </g>
   <g id="xtick_20">
    <g id="line2d_23">
     <path d="M 119.554366 173.738347 
L 116.527892 175.500691 
" style="fill: none; stroke: #000000; stroke-width: 0.8; stroke-linecap: square"/>
    </g>
    <g id="text_22">
     <!-- 30 -->
     <g transform="translate(92.021008 182.285407) scale(0.1 -0.1)">
      <defs>
       <path id="DejaVuSans-33" d="M 2597 2516 
Q 3050 2419 3304 2112 
Q 3559 1806 3559 1356 
Q 3559 666 3084 287 
Q 2609 -91 1734 -91 
Q 1441 -91 1130 -33 
Q 819 25 488 141 
L 488 750 
Q 750 597 1062 519 
Q 1375 441 1716 441 
Q 2309 441 2620 675 
Q 2931 909 2931 1356 
Q 2931 1769 2642 2001 
Q 2353 2234 1838 2234 
L 1294 2234 
L 1294 2753 
L 1863 2753 
Q 2328 2753 2575 2939 
Q 2822 3125 2822 3475 
Q 2822 3834 2567 4026 
Q 2313 4219 1838 4219 
Q 1578 4219 1281 4162 
Q 984 4106 628 3988 
L 628 4550 
Q 988 4650 1302 4700 
Q 1616 4750 1894 4750 
Q 2613 4750 3031 4423 
Q 3450 4097 3450 3541 
Q 3450 3153 3228 2886 
Q 3006 2619 2597 2516 
z
" transform="scale(0.015625)"/>
      </defs>
      <use xlink:href="#DejaVuSans-33"/>
      <use xlink:href="#DejaVuSans-30" x="63.623047"/>
     </g>
    </g>
   </g>
   <g id="xtick_21">
    <g id="line2d_24">
     <path d="M 118.564364 157.36148 
L 115.511232 159.110436 
" style="fill: none; stroke: #000000; stroke-width: 0.8; stroke-linecap: square"/>
    </g>
    <g id="text_23">
     <!-- 40 -->
     <g transform="translate(90.85557 165.901327) scale(0.1 -0.1)">
      <defs>
       <path id="DejaVuSans-34" d="M 2419 4116 
L 825 1625 
L 2419 1625 
L 2419 4116 
z
M 2253 4666 
L 3047 4666 
L 3047 1625 
L 3713 1625 
L 3713 1100 
L 3047 1100 
L 3047 0 
L 2419 0 
L 2419 1100 
L 313 1100 
L 313 1709 
L 2253 4666 
z
" transform="scale(0.015625)"/>
      </defs>
      <use xlink:href="#DejaVuSans-34"/>
      <use xlink:href="#DejaVuSans-30" x="63.623047"/>
     </g>
    </g>
   </g>
   <g id="xtick_22">
    <g id="line2d_25">
     <path d="M 117.557919 140.712608 
L 114.477658 142.447484 
" style="fill: none; stroke: #000000; stroke-width: 0.8; stroke-linecap: square"/>
    </g>
    <g id="text_24">
     <!-- 50 -->
     <g transform="translate(89.670758 149.24487) scale(0.1 -0.1)">
      <use xlink:href="#DejaVuSans-35"/>
      <use xlink:href="#DejaVuSans-30" x="63.623047"/>
     </g>
    </g>
   </g>
   <g id="xtick_23">
    <g id="line2d_26">
     <path d="M 116.534617 123.784897 
L 113.426743 125.504973 
" style="fill: none; stroke: #000000; stroke-width: 0.8; stroke-linecap: square"/>
    </g>
    <g id="text_25">
     <!-- 60 -->
     <g transform="translate(88.466083 132.309187) scale(0.1 -0.1)">
      <defs>
       <path id="DejaVuSans-36" d="M 2113 2584 
Q 1688 2584 1439 2293 
Q 1191 2003 1191 1497 
Q 1191 994 1439 701 
Q 1688 409 2113 409 
Q 2538 409 2786 701 
Q 3034 994 3034 1497 
Q 3034 2003 2786 2293 
Q 2538 2584 2113 2584 
z
M 3366 4563 
L 3366 3988 
Q 3128 4100 2886 4159 
Q 2644 4219 2406 4219 
Q 1781 4219 1451 3797 
Q 1122 3375 1075 2522 
Q 1259 2794 1537 2939 
Q 1816 3084 2150 3084 
Q 2853 3084 3261 2657 
Q 3669 2231 3669 1497 
Q 3669 778 3244 343 
Q 2819 -91 2113 -91 
Q 1303 -91 875 529 
Q 447 1150 447 2328 
Q 447 3434 972 4092 
Q 1497 4750 2381 4750 
Q 2619 4750 2861 4703 
Q 3103 4656 3366 4563 
z
" transform="scale(0.015625)"/>
      </defs>
      <use xlink:href="#DejaVuSans-36"/>
      <use xlink:href="#DejaVuSans-30" x="63.623047"/>
     </g>
    </g>
   </g>
   <g id="text_26">
    <!-- Number of gNB switching -->
    <g transform="translate(67.962614 110.467429) rotate(-273.489348) scale(0.1 -0.1)">
     <defs>
      <path id="DejaVuSans-4e" d="M 628 4666 
L 1478 4666 
L 3547 763 
L 3547 4666 
L 4159 4666 
L 4159 0 
L 3309 0 
L 1241 3903 
L 1241 0 
L 628 0 
L 628 4666 
z
" transform="scale(0.015625)"/>
      <path id="DejaVuSans-75" d="M 544 1381 
L 544 3500 
L 1119 3500 
L 1119 1403 
Q 1119 906 1312 657 
Q 1506 409 1894 409 
Q 2359 409 2629 706 
Q 2900 1003 2900 1516 
L 2900 3500 
L 3475 3500 
L 3475 0 
L 2900 0 
L 2900 538 
Q 2691 219 2414 64 
Q 2138 -91 1772 -91 
Q 1169 -91 856 284 
Q 544 659 544 1381 
z
M 1991 3584 
L 1991 3584 
z
" transform="scale(0.015625)"/>
      <path id="DejaVuSans-6d" d="M 3328 2828 
Q 3544 3216 3844 3400 
Q 4144 3584 4550 3584 
Q 5097 3584 5394 3201 
Q 5691 2819 5691 2113 
L 5691 0 
L 5113 0 
L 5113 2094 
Q 5113 2597 4934 2840 
Q 4756 3084 4391 3084 
Q 3944 3084 3684 2787 
Q 3425 2491 3425 1978 
L 3425 0 
L 2847 0 
L 2847 2094 
Q 2847 2600 2669 2842 
Q 2491 3084 2119 3084 
Q 1678 3084 1418 2786 
Q 1159 2488 1159 1978 
L 1159 0 
L 581 0 
L 581 3500 
L 1159 3500 
L 1159 2956 
Q 1356 3278 1631 3431 
Q 1906 3584 2284 3584 
Q 2666 3584 2933 3390 
Q 3200 3197 3328 2828 
z
" transform="scale(0.015625)"/>
      <path id="DejaVuSans-62" d="M 3116 1747 
Q 3116 2381 2855 2742 
Q 2594 3103 2138 3103 
Q 1681 3103 1420 2742 
Q 1159 2381 1159 1747 
Q 1159 1113 1420 752 
Q 1681 391 2138 391 
Q 2594 391 2855 752 
Q 3116 1113 3116 1747 
z
M 1159 2969 
Q 1341 3281 1617 3432 
Q 1894 3584 2278 3584 
Q 2916 3584 3314 3078 
Q 3713 2572 3713 1747 
Q 3713 922 3314 415 
Q 2916 -91 2278 -91 
Q 1894 -91 1617 61 
Q 1341 213 1159 525 
L 1159 0 
L 581 0 
L 581 4863 
L 1159 4863 
L 1159 2969 
z
" transform="scale(0.015625)"/>
      <path id="DejaVuSans-66" d="M 2375 4863 
L 2375 4384 
L 1825 4384 
Q 1516 4384 1395 4259 
Q 1275 4134 1275 3809 
L 1275 3500 
L 2222 3500 
L 2222 3053 
L 1275 3053 
L 1275 0 
L 697 0 
L 697 3053 
L 147 3053 
L 147 3500 
L 697 3500 
L 697 3744 
Q 697 4328 969 4595 
Q 1241 4863 1831 4863 
L 2375 4863 
z
" transform="scale(0.015625)"/>
      <path id="DejaVuSans-42" d="M 1259 2228 
L 1259 519 
L 2272 519 
Q 2781 519 3026 730 
Q 3272 941 3272 1375 
Q 3272 1813 3026 2020 
Q 2781 2228 2272 2228 
L 1259 2228 
z
M 1259 4147 
L 1259 2741 
L 2194 2741 
Q 2656 2741 2882 2914 
Q 3109 3088 3109 3444 
Q 3109 3797 2882 3972 
Q 2656 4147 2194 4147 
L 1259 4147 
z
M 628 4666 
L 2241 4666 
Q 2963 4666 3353 4366 
Q 3744 4066 3744 3513 
Q 3744 3084 3544 2831 
Q 3344 2578 2956 2516 
Q 3422 2416 3680 2098 
Q 3938 1781 3938 1306 
Q 3938 681 3513 340 
Q 3088 0 2303 0 
L 628 0 
L 628 4666 
z
" transform="scale(0.015625)"/>
     </defs>
     <use xlink:href="#DejaVuSans-4e"/>
     <use xlink:href="#DejaVuSans-75" x="74.804688"/>
     <use xlink:href="#DejaVuSans-6d" x="138.183594"/>
     <use xlink:href="#DejaVuSans-62" x="235.595703"/>
     <use xlink:href="#DejaVuSans-65" x="299.072266"/>
     <use xlink:href="#DejaVuSans-72" x="360.595703"/>
     <use xlink:href="#DejaVuSans-20" x="401.708984"/>
     <use xlink:href="#DejaVuSans-6f" x="433.496094"/>
     <use xlink:href="#DejaVuSans-66" x="494.677734"/>
     <use xlink:href="#DejaVuSans-20" x="529.882812"/>
     <use xlink:href="#DejaVuSans-67" x="561.669922"/>
     <use xlink:href="#DejaVuSans-4e" x="625.146484"/>
     <use xlink:href="#DejaVuSans-42" x="699.951172"/>
     <use xlink:href="#DejaVuSans-20" x="768.554688"/>
     <use xlink:href="#DejaVuSans-73" x="800.341797"/>
     <use xlink:href="#DejaVuSans-77" x="852.441406"/>
     <use xlink:href="#DejaVuSans-69" x="934.228516"/>
     <use xlink:href="#DejaVuSans-74" x="962.011719"/>
     <use xlink:href="#DejaVuSans-63" x="1001.220703"/>
     <use xlink:href="#DejaVuSans-68" x="1056.201172"/>
     <use xlink:href="#DejaVuSans-69" x="1119.580078"/>
     <use xlink:href="#DejaVuSans-6e" x="1147.363281"/>
     <use xlink:href="#DejaVuSans-67" x="1210.742188"/>
    </g>
   </g>
  </g>
  <g id="axes_1">
   <g id="Poly3DCollection_1">
    <path d="M 259.511275 151.804085 
L 248.86139 154.903145 
L 260.330304 175.900595 
L 270.858376 173.589333 
z
" clip-path="url(#p3a29f99748)" style="fill: #82a6fb"/>
    <path d="M 270.858376 173.589333 
L 260.330304 175.900595 
L 271.866302 190.935074 
L 282.390705 184.877435 
z
" clip-path="url(#p3a29f99748)" style="fill: #485fd1"/>
    <path d="M 248.150361 123.658785 
L 237.373822 142.869309 
L 248.86139 154.903145 
L 259.511275 151.804085 
z
" clip-path="url(#p3a29f99748)" style="fill: #cfdaea"/>
    <path d="M 282.390705 184.877435 
L 271.866302 190.935074 
L 283.702785 194.358326 
L 294.268707 186.696677 
z
" clip-path="url(#p3a29f99748)" style="fill: #4055c8"/>
    <path d="M 237.373822 142.869309 
L 226.523151 151.39647 
L 238.040103 164.108637 
L 248.86139 154.903145 
z
" clip-path="url(#p3a29f99748)" style="fill: #bfd3f6"/>
    <path d="M 248.86139 154.903145 
L 238.040103 164.108637 
L 249.587734 184.241665 
L 260.330304 175.900595 
z
" clip-path="url(#p3a29f99748)" style="fill: #88abfd"/>
    <path d="M 260.330304 175.900595 
L 249.587734 184.241665 
L 261.196319 197.076506 
L 271.866302 190.935074 
z
" clip-path="url(#p3a29f99748)" style="fill: #4e68d8"/>
    <path d="M 226.523151 151.39647 
L 215.497474 155.508304 
L 227.103466 173.216334 
L 238.040103 164.108637 
z
" clip-path="url(#p3a29f99748)" style="fill: #bad0f8"/>
    <path d="M 271.866302 190.935074 
L 261.196319 197.076506 
L 272.999777 202.500099 
L 283.702785 194.358326 
z
" clip-path="url(#p3a29f99748)" style="fill: #4055c8"/>
    <path d="M 238.040103 164.108637 
L 227.103466 173.216334 
L 238.721498 192.871717 
L 249.587734 184.241665 
z
" clip-path="url(#p3a29f99748)" style="fill: #7da0f9"/>
    <path d="M 236.630537 62.828227 
L 225.593283 77.076737 
L 237.373822 142.869309 
L 248.150361 123.658785 
z
" clip-path="url(#p3a29f99748)" style="fill: #b40426"/>
    <path d="M 294.268707 186.696677 
L 283.702785 194.358326 
L 295.585641 202.660224 
L 306.166658 193.946285 
z
" clip-path="url(#p3a29f99748)" style="fill: #465ecf"/>
    <path d="M 249.587734 184.241665 
L 238.721498 192.871717 
L 250.369362 204.843476 
L 261.196319 197.076506 
z
" clip-path="url(#p3a29f99748)" style="fill: #4961d2"/>
    <path d="M 225.593283 77.076737 
L 214.434877 86.46373 
L 226.523151 151.39647 
L 237.373822 142.869309 
z
" clip-path="url(#p3a29f99748)" style="fill: #d65244"/>
    <path d="M 215.497474 155.508304 
L 204.44099 167.756534 
L 216.037028 181.44675 
L 227.103466 173.216334 
z
" clip-path="url(#p3a29f99748)" style="fill: #b1cbfc"/>
    <path d="M 227.103466 173.216334 
L 216.037028 181.44675 
L 227.73506 202.179191 
L 238.721498 192.871717 
z
" clip-path="url(#p3a29f99748)" style="fill: #7295f4"/>
    <path d="M 306.166658 193.946285 
L 295.585641 202.660224 
L 307.621728 210.279175 
L 318.140594 202.820129 
z
" clip-path="url(#p3a29f99748)" style="fill: #3f53c6"/>
    <path d="M 283.702785 194.358326 
L 272.999777 202.500099 
L 284.901562 210.702335 
L 295.585641 202.660224 
z
" clip-path="url(#p3a29f99748)" style="fill: #4257c9"/>
    <path d="M 261.196319 197.076506 
L 250.369362 204.843476 
L 262.181303 209.580925 
L 272.999777 202.500099 
z
" clip-path="url(#p3a29f99748)" style="fill: #3e51c5"/>
    <path d="M 238.721498 192.871717 
L 227.73506 202.179191 
L 239.407563 210.777373 
L 250.369362 204.843476 
z
" clip-path="url(#p3a29f99748)" style="fill: #455cce"/>
    <path d="M 214.434877 86.46373 
L 203.146301 95.121789 
L 215.497474 155.508304 
L 226.523151 151.39647 
z
" clip-path="url(#p3a29f99748)" style="fill: #da5a49"/>
    <path d="M 318.140594 202.820129 
L 307.621728 210.279175 
L 319.851942 216.632145 
L 330.359879 209.084606 
z
" clip-path="url(#p3a29f99748)" style="fill: #3d50c3"/>
    <path d="M 216.037028 181.44675 
L 204.780379 186.444703 
L 216.597287 208.880469 
L 227.73506 202.179191 
z
" clip-path="url(#p3a29f99748)" style="fill: #6f92f3"/>
    <path d="M 295.585641 202.660224 
L 284.901562 210.702335 
L 297.012799 216.286083 
L 307.621728 210.279175 
z
" clip-path="url(#p3a29f99748)" style="fill: #3d50c3"/>
    <path d="M 204.44099 167.756534 
L 192.999867 167.301996 
L 204.780379 186.444703 
L 216.037028 181.44675 
z
" clip-path="url(#p3a29f99748)" style="fill: #b5cdfa"/>
    <path d="M 250.369362 204.843476 
L 239.407563 210.777373 
L 251.214218 217.531071 
L 262.181303 209.580925 
z
" clip-path="url(#p3a29f99748)" style="fill: #3e51c5"/>
    <path d="M 272.999777 202.500099 
L 262.181303 209.580925 
L 274.185413 213.221348 
L 284.901562 210.702335 
z
" clip-path="url(#p3a29f99748)" style="fill: #445acc"/>
    <path d="M 227.73506 202.179191 
L 216.597287 208.880469 
L 228.300315 219.122028 
L 239.407563 210.777373 
z
" clip-path="url(#p3a29f99748)" style="fill: #4358cb"/>
    <path d="M 203.146301 95.121789 
L 191.793734 106.563112 
L 204.44099 167.756534 
L 215.497474 155.508304 
z
" clip-path="url(#p3a29f99748)" style="fill: #e46e56"/>
    <path d="M 330.359879 209.084606 
L 319.851942 216.632145 
L 332.166933 224.619286 
L 342.654908 216.977659 
z
" clip-path="url(#p3a29f99748)" style="fill: #3b4cc0"/>
    <path d="M 307.621728 210.279175 
L 297.012799 216.286083 
L 309.207645 224.277626 
L 319.851942 216.632145 
z
" clip-path="url(#p3a29f99748)" style="fill: #3d50c3"/>
    <path d="M 204.780379 186.444703 
L 193.461854 196.241404 
L 205.313381 216.062316 
L 216.597287 208.880469 
z
" clip-path="url(#p3a29f99748)" style="fill: #6f92f3"/>
    <path d="M 284.901562 210.702335 
L 274.185413 213.221348 
L 286.221007 223.546975 
L 297.012799 216.286083 
z
" clip-path="url(#p3a29f99748)" style="fill: #4358cb"/>
    <path d="M 192.999867 167.301996 
L 181.571433 175.411859 
L 193.461854 196.241404 
L 204.780379 186.444703 
z
" clip-path="url(#p3a29f99748)" style="fill: #bbd1f8"/>
    <path d="M 239.407563 210.777373 
L 228.300315 219.122028 
L 240.109255 224.416046 
L 251.214218 217.531071 
z
" clip-path="url(#p3a29f99748)" style="fill: #3e51c5"/>
    <path d="M 262.181303 209.580925 
L 251.214218 217.531071 
L 263.183699 223.203844 
L 274.185413 213.221348 
z
" clip-path="url(#p3a29f99748)" style="fill: #455cce"/>
    <path d="M 191.793734 106.563112 
L 180.444815 121.600606 
L 192.999867 167.301996 
L 204.44099 167.756534 
z
" clip-path="url(#p3a29f99748)" style="fill: #ed8366"/>
    <path d="M 216.597287 208.880469 
L 205.313381 216.062316 
L 217.04862 226.792783 
L 228.300315 219.122028 
z
" clip-path="url(#p3a29f99748)" style="fill: #4055c8"/>
    <path d="M 319.851942 216.632145 
L 309.207645 224.277626 
L 321.575029 231.583166 
L 332.166933 224.619286 
z
" clip-path="url(#p3a29f99748)" style="fill: #3b4cc0"/>
    <path d="M 193.461854 196.241404 
L 181.988543 204.963329 
L 193.887201 223.730079 
L 205.313381 216.062316 
z
" clip-path="url(#p3a29f99748)" style="fill: #688aef"/>
    <path d="M 297.012799 216.286083 
L 286.221007 223.546975 
L 298.400681 232.800581 
L 309.207645 224.277626 
z
" clip-path="url(#p3a29f99748)" style="fill: #3c4ec2"/>
    <path d="M 181.571433 175.411859 
L 170.087299 186.00511 
L 181.988543 204.963329 
L 193.461854 196.241404 
z
" clip-path="url(#p3a29f99748)" style="fill: #afcafc"/>
    <path d="M 251.214218 217.531071 
L 240.109255 224.416046 
L 252.072271 232.125125 
L 263.183699 223.203844 
z
" clip-path="url(#p3a29f99748)" style="fill: #4055c8"/>
    <path d="M 228.300315 219.122028 
L 217.04862 226.792783 
L 228.849952 231.396711 
L 240.109255 224.416046 
z
" clip-path="url(#p3a29f99748)" style="fill: #3d50c3"/>
    <path d="M 180.444815 121.600606 
L 168.822029 130.56622 
L 181.571433 175.411859 
L 192.999867 167.301996 
z
" clip-path="url(#p3a29f99748)" style="fill: #f08a6c"/>
    <path d="M 274.185413 213.221348 
L 263.183699 223.203844 
L 275.298075 230.12612 
L 286.221007 223.546975 
z
" clip-path="url(#p3a29f99748)" style="fill: #465ecf"/>
    <path d="M 205.313381 216.062316 
L 193.887201 223.730079 
L 205.622236 233.00693 
L 217.04862 226.792783 
z
" clip-path="url(#p3a29f99748)" style="fill: #4257c9"/>
    <path d="M 181.988543 204.963329 
L 170.511802 217.521588 
L 182.311268 231.498337 
L 193.887201 223.730079 
z
" clip-path="url(#p3a29f99748)" style="fill: #5f7fe8"/>
    <path d="M 170.087299 186.00511 
L 158.309197 192.329471 
L 170.511802 217.521588 
L 181.988543 204.963329 
z
" clip-path="url(#p3a29f99748)" style="fill: #a2c1ff"/>
    <path d="M 309.207645 224.277626 
L 298.400681 232.800581 
L 310.892994 237.082275 
L 321.575029 231.583166 
z
" clip-path="url(#p3a29f99748)" style="fill: #3b4cc0"/>
    <path d="M 286.221007 223.546975 
L 275.298075 230.12612 
L 287.518595 239.089971 
L 298.400681 232.800581 
z
" clip-path="url(#p3a29f99748)" style="fill: #3d50c3"/>
    <path d="M 168.822029 130.56622 
L 157.100831 140.456875 
L 170.087299 186.00511 
L 181.571433 175.411859 
z
" clip-path="url(#p3a29f99748)" style="fill: #f49a7b"/>
    <path d="M 263.183699 223.203844 
L 252.072271 232.125125 
L 264.202981 237.973534 
L 275.298075 230.12612 
z
" clip-path="url(#p3a29f99748)" style="fill: #4257c9"/>
    <path d="M 240.109255 224.416046 
L 228.849952 231.396711 
L 240.829071 239.592026 
L 252.072271 232.125125 
z
" clip-path="url(#p3a29f99748)" style="fill: #3f53c6"/>
    <path d="M 217.04862 226.792783 
L 205.622236 233.00693 
L 217.437608 238.866232 
L 228.849952 231.396711 
z
" clip-path="url(#p3a29f99748)" style="fill: #3e51c5"/>
    <path d="M 193.887201 223.730079 
L 182.311268 231.498337 
L 194.082351 241.657141 
L 205.622236 233.00693 
z
" clip-path="url(#p3a29f99748)" style="fill: #4055c8"/>
    <path d="M 170.511802 217.521588 
L 158.75393 225.672027 
L 170.54035 238.194243 
L 182.311268 231.498337 
z
" clip-path="url(#p3a29f99748)" style="fill: #5875e1"/>
    <path d="M 158.309197 192.329471 
L 146.199146 195.339003 
L 158.75393 225.672027 
L 170.511802 217.521588 
z
" clip-path="url(#p3a29f99748)" style="fill: #a1c0ff"/>
    <path d="M 157.100831 140.456875 
L 145.216704 149.628933 
L 158.309197 192.329471 
L 170.087299 186.00511 
z
" clip-path="url(#p3a29f99748)" style="fill: #f7a688"/>
    <path d="M 298.400681 232.800581 
L 287.518595 239.089971 
L 299.969151 245.021363 
L 310.892994 237.082275 
z
" clip-path="url(#p3a29f99748)" style="fill: #3d50c3"/>
    <path d="M 275.298075 230.12612 
L 264.202981 237.973534 
L 276.452009 246.647797 
L 287.518595 239.089971 
z
" clip-path="url(#p3a29f99748)" style="fill: #3f53c6"/>
    <path d="M 252.072271 232.125125 
L 240.829071 239.592026 
L 252.963511 245.532983 
L 264.202981 237.973534 
z
" clip-path="url(#p3a29f99748)" style="fill: #3f53c6"/>
    <path d="M 228.849952 231.396711 
L 217.437608 238.866232 
L 229.430122 246.769227 
L 240.829071 239.592026 
z
" clip-path="url(#p3a29f99748)" style="fill: #4055c8"/>
    <path d="M 205.622236 233.00693 
L 194.082351 241.657141 
L 205.876091 246.830053 
L 217.437608 238.866232 
z
" clip-path="url(#p3a29f99748)" style="fill: #3e51c5"/>
    <path d="M 182.311268 231.498337 
L 170.54035 238.194243 
L 182.263828 245.909774 
L 194.082351 241.657141 
z
" clip-path="url(#p3a29f99748)" style="fill: #445acc"/>
    <path d="M 145.216704 149.628933 
L 133.730734 168.958113 
L 146.199146 195.339003 
L 158.309197 192.329471 
z
" clip-path="url(#p3a29f99748)" style="fill: #f7b396"/>
    <path d="M 287.518595 239.089971 
L 276.452009 246.647797 
L 288.879443 253.851453 
L 299.969151 245.021363 
z
" clip-path="url(#p3a29f99748)" style="fill: #3c4ec2"/>
    <path d="M 264.202981 237.973534 
L 252.963511 245.532983 
L 265.262174 252.148435 
L 276.452009 246.647797 
z
" clip-path="url(#p3a29f99748)" style="fill: #4257c9"/>
    <path d="M 240.829071 239.592026 
L 229.430122 246.769227 
L 241.568991 253.589574 
L 252.963511 245.532983 
z
" clip-path="url(#p3a29f99748)" style="fill: #3f53c6"/>
    <path d="M 217.437608 238.866232 
L 205.876091 246.830053 
L 217.874081 254.44119 
L 229.430122 246.769227 
z
" clip-path="url(#p3a29f99748)" style="fill: #4055c8"/>
    <path d="M 194.082351 241.657141 
L 182.263828 245.909774 
L 194.141368 254.113912 
L 205.876091 246.830053 
z
" clip-path="url(#p3a29f99748)" style="fill: #4055c8"/>
    <path d="M 276.452009 246.647797 
L 265.262174 252.148435 
L 277.658024 262.399551 
L 288.879443 253.851453 
z
" clip-path="url(#p3a29f99748)" style="fill: #3d50c3"/>
    <path d="M 252.963511 245.532983 
L 241.568991 253.589574 
L 253.873974 260.10729 
L 265.262174 252.148435 
z
" clip-path="url(#p3a29f99748)" style="fill: #4358cb"/>
    <path d="M 229.430122 246.769227 
L 217.874081 254.44119 
L 230.019346 261.360362 
L 241.568991 253.589574 
z
" clip-path="url(#p3a29f99748)" style="fill: #3f53c6"/>
    <path d="M 205.876091 246.830053 
L 194.141368 254.113912 
L 206.130009 260.641988 
L 217.874081 254.44119 
z
" clip-path="url(#p3a29f99748)" style="fill: #4257c9"/>
    <path d="M 265.262174 252.148435 
L 253.873974 260.10729 
L 266.311891 269.482348 
L 277.658024 262.399551 
z
" clip-path="url(#p3a29f99748)" style="fill: #3f53c6"/>
    <path d="M 241.568991 253.589574 
L 230.019346 261.360362 
L 242.330098 267.582182 
L 253.873974 260.10729 
z
" clip-path="url(#p3a29f99748)" style="fill: #4358cb"/>
    <path d="M 217.874081 254.44119 
L 206.130009 260.641988 
L 218.313049 269.634721 
L 230.019346 261.360362 
z
" clip-path="url(#p3a29f99748)" style="fill: #4055c8"/>
    <path d="M 253.873974 260.10729 
L 242.330098 267.582182 
L 254.793832 277.066459 
L 266.311891 269.482348 
z
" clip-path="url(#p3a29f99748)" style="fill: #4055c8"/>
    <path d="M 230.019346 261.360362 
L 218.313049 269.634721 
L 230.622959 275.958829 
L 242.330098 267.582182 
z
" clip-path="url(#p3a29f99748)" style="fill: #4358cb"/>
    <path d="M 242.330098 267.582182 
L 230.622959 275.958829 
L 243.108817 284.363754 
L 254.793832 277.066459 
z
" clip-path="url(#p3a29f99748)" style="fill: #4257c9"/>
   </g>
  </g>
 </g>
 <defs>
  <clipPath id="p3a29f99748">
   <rect x="103.104" y="41.472" width="266.112" height="266.112"/>
  </clipPath>
 </defs>
</svg>
