<?xml version="1.0" encoding="utf-8" standalone="no"?>
<!DOCTYPE svg PUBLIC "-//W3C//DTD SVG 1.1//EN"
  "http://www.w3.org/Graphics/SVG/1.1/DTD/svg11.dtd">
<svg xmlns:xlink="http://www.w3.org/1999/xlink" width="460.8pt" height="345.6pt" viewBox="0 0 460.8 345.6" xmlns="http://www.w3.org/2000/svg" version="1.1">
 <metadata>
  <rdf:RDF xmlns:dc="http://purl.org/dc/elements/1.1/" xmlns:cc="http://creativecommons.org/ns#" xmlns:rdf="http://www.w3.org/1999/02/22-rdf-syntax-ns#">
   <cc:Work>
    <dc:type rdf:resource="http://purl.org/dc/dcmitype/StillImage"/>
    <dc:date>2023-12-04T10:30:30.262030</dc:date>
    <dc:format>image/svg+xml</dc:format>
    <dc:creator>
     <cc:Agent>
      <dc:title>Matplotlib v3.8.0, https://matplotlib.org/</dc:title>
     </cc:Agent>
    </dc:creator>
   </cc:Work>
  </rdf:RDF>
 </metadata>
 <defs>
  <style type="text/css">*{stroke-linejoin: round; stroke-linecap: butt}</style>
 </defs>
 <g id="figure_1">
  <g id="patch_1">
   <path d="M 0 345.6 
L 460.8 345.6 
L 460.8 0 
L 0 0 
z
" style="fill: #ffffff"/>
  </g>
  <g id="patch_2">
   <path d="M 103.104 307.584 
L 369.216 307.584 
L 369.216 41.472 
L 103.104 41.472 
z
" style="fill: #ffffff"/>
  </g>
  <g id="pane3d_1">
   <g id="patch_3">
    <path d="M 207.302409 181.885471 
L 351.030276 213.626293 
L 355.026568 98.202742 
L 206.193294 70.964953 
" style="fill: #f2f2f2; opacity: 0.5; stroke: #f2f2f2; stroke-linejoin: miter"/>
   </g>
  </g>
  <g id="pane3d_2">
   <g id="patch_4">
    <path d="M 207.302409 181.885471 
L 123.445307 244.317438 
L 119.071947 124.627003 
L 206.193294 70.964953 
" style="fill: #e6e6e6; opacity: 0.5; stroke: #e6e6e6; stroke-linejoin: miter"/>
   </g>
  </g>
  <g id="pane3d_3">
   <g id="patch_5">
    <path d="M 207.302409 181.885471 
L 123.445307 244.317438 
L 277.270448 282.668461 
L 351.030276 213.626293 
" style="fill: #ececec; opacity: 0.5; stroke: #ececec; stroke-linejoin: miter"/>
   </g>
  </g>
  <g id="grid3d_1">
   <g id="Line3DCollection_1">
    <path d="M 348.383475 216.103806 
L 204.279451 184.136076 
L 203.062659 72.893255 
" style="fill: none; stroke: #b0b0b0; stroke-width: 0.8"/>
    <path d="M 340.116776 223.841768 
L 194.844563 191.16039 
L 193.286908 78.914591 
" style="fill: none; stroke: #b0b0b0; stroke-width: 0.8"/>
    <path d="M 331.659924 231.757722 
L 185.203068 198.338524 
L 183.289577 85.072407 
" style="fill: none; stroke: #b0b0b0; stroke-width: 0.8"/>
    <path d="M 323.006281 239.85788 
L 175.348105 205.675585 
L 173.063046 91.371398 
" style="fill: none; stroke: #b0b0b0; stroke-width: 0.8"/>
    <path d="M 314.148898 248.148748 
L 165.272505 213.176912 
L 162.599343 97.816475 
" style="fill: none; stroke: #b0b0b0; stroke-width: 0.8"/>
    <path d="M 305.080493 256.63714 
L 154.968774 220.848083 
L 151.890119 104.41278 
" style="fill: none; stroke: #b0b0b0; stroke-width: 0.8"/>
    <path d="M 295.793434 265.3302 
L 144.429076 228.694933 
L 140.92663 111.165697 
" style="fill: none; stroke: #b0b0b0; stroke-width: 0.8"/>
    <path d="M 286.279717 274.235422 
L 133.645212 236.723565 
L 129.699713 118.080872 
" style="fill: none; stroke: #b0b0b0; stroke-width: 0.8"/>
   </g>
  </g>
  <g id="grid3d_2">
   <g id="Line3DCollection_2">
    <path d="M 213.598336 72.32014 
L 214.464859 183.467225 
L 131.076378 246.219984 
" style="fill: none; stroke: #b0b0b0; stroke-width: 0.8"/>
    <path d="M 246.65874 78.370483 
L 246.427586 190.525864 
L 165.174378 254.72115 
" style="fill: none; stroke: #b0b0b0; stroke-width: 0.8"/>
    <path d="M 280.472964 84.558781 
L 279.094431 197.740001 
L 200.098048 263.42817 
" style="fill: none; stroke: #b0b0b0; stroke-width: 0.8"/>
    <path d="M 315.067087 90.889808 
L 312.488917 205.11483 
L 235.877747 272.348611 
" style="fill: none; stroke: #b0b0b0; stroke-width: 0.8"/>
    <path d="M 350.468405 97.368559 
L 346.635633 212.655782 
L 272.545339 281.490417 
" style="fill: none; stroke: #b0b0b0; stroke-width: 0.8"/>
   </g>
  </g>
  <g id="grid3d_3">
   <g id="Line3DCollection_3">
    <path d="M 123.360948 242.008703 
L 207.280945 179.738952 
L 351.107484 211.396308 
" style="fill: none; stroke: #b0b0b0; stroke-width: 0.8"/>
    <path d="M 122.774969 225.971585 
L 207.13193 164.836193 
L 351.643662 195.910073 
" style="fill: none; stroke: #b0b0b0; stroke-width: 0.8"/>
    <path d="M 122.18306 209.772176 
L 206.981541 149.796039 
L 352.185028 180.273978 
" style="fill: none; stroke: #b0b0b0; stroke-width: 0.8"/>
    <path d="M 121.585131 193.407999 
L 206.829758 134.61658 
L 352.731659 164.485838 
" style="fill: none; stroke: #b0b0b0; stroke-width: 0.8"/>
    <path d="M 120.981089 176.876529 
L 206.676564 119.295871 
L 353.283631 148.543423 
" style="fill: none; stroke: #b0b0b0; stroke-width: 0.8"/>
    <path d="M 120.37084 160.175186 
L 206.521937 103.831933 
L 353.841023 132.444462 
" style="fill: none; stroke: #b0b0b0; stroke-width: 0.8"/>
    <path d="M 119.754287 143.301338 
L 206.365858 88.222746 
L 354.403915 116.186637 
" style="fill: none; stroke: #b0b0b0; stroke-width: 0.8"/>
   </g>
  </g>
  <g id="axis3d_1">
   <g id="line2d_1">
    <path d="M 351.030276 213.626293 
L 277.270448 282.668461 
" style="fill: none; stroke: #000000; stroke-width: 0.8; stroke-linecap: square"/>
   </g>
   <g id="xtick_1">
    <g id="line2d_2">
     <path d="M 347.174297 215.835564 
L 350.804694 216.640924 
" style="fill: none; stroke: #000000; stroke-width: 0.8; stroke-linecap: square"/>
    </g>
    <g id="text_1">
     <!-- 0 -->
     <g transform="translate(357.449363 235.771535) scale(0.1 -0.1)">
      <defs>
       <path id="DejaVuSans-30" d="M 2034 4250 
Q 1547 4250 1301 3770 
Q 1056 3291 1056 2328 
Q 1056 1369 1301 889 
Q 1547 409 2034 409 
Q 2525 409 2770 889 
Q 3016 1369 3016 2328 
Q 3016 3291 2770 3770 
Q 2525 4250 2034 4250 
z
M 2034 4750 
Q 2819 4750 3233 4129 
Q 3647 3509 3647 2328 
Q 3647 1150 3233 529 
Q 2819 -91 2034 -91 
Q 1250 -91 836 529 
Q 422 1150 422 2328 
Q 422 3509 836 4129 
Q 1250 4750 2034 4750 
z
" transform="scale(0.015625)"/>
      </defs>
      <use xlink:href="#DejaVuSans-30"/>
     </g>
    </g>
   </g>
   <g id="xtick_2">
    <g id="line2d_3">
     <path d="M 338.89715 223.567393 
L 342.558949 224.391175 
" style="fill: none; stroke: #000000; stroke-width: 0.8; stroke-linecap: square"/>
    </g>
    <g id="text_2">
     <!-- 25 -->
     <g transform="translate(346.130771 243.656321) scale(0.1 -0.1)">
      <defs>
       <path id="DejaVuSans-32" d="M 1228 531 
L 3431 531 
L 3431 0 
L 469 0 
L 469 531 
Q 828 903 1448 1529 
Q 2069 2156 2228 2338 
Q 2531 2678 2651 2914 
Q 2772 3150 2772 3378 
Q 2772 3750 2511 3984 
Q 2250 4219 1831 4219 
Q 1534 4219 1204 4116 
Q 875 4013 500 3803 
L 500 4441 
Q 881 4594 1212 4672 
Q 1544 4750 1819 4750 
Q 2544 4750 2975 4387 
Q 3406 4025 3406 3419 
Q 3406 3131 3298 2873 
Q 3191 2616 2906 2266 
Q 2828 2175 2409 1742 
Q 1991 1309 1228 531 
z
" transform="scale(0.015625)"/>
       <path id="DejaVuSans-35" d="M 691 4666 
L 3169 4666 
L 3169 4134 
L 1269 4134 
L 1269 2991 
Q 1406 3038 1543 3061 
Q 1681 3084 1819 3084 
Q 2600 3084 3056 2656 
Q 3513 2228 3513 1497 
Q 3513 744 3044 326 
Q 2575 -91 1722 -91 
Q 1428 -91 1123 -41 
Q 819 9 494 109 
L 494 744 
Q 775 591 1075 516 
Q 1375 441 1709 441 
Q 2250 441 2565 725 
Q 2881 1009 2881 1497 
Q 2881 1984 2565 2268 
Q 2250 2553 1709 2553 
Q 1456 2553 1204 2497 
Q 953 2441 691 2322 
L 691 4666 
z
" transform="scale(0.015625)"/>
      </defs>
      <use xlink:href="#DejaVuSans-32"/>
      <use xlink:href="#DejaVuSans-35" x="63.623047"/>
     </g>
    </g>
   </g>
   <g id="xtick_3">
    <g id="line2d_4">
     <path d="M 330.429686 231.477001 
L 334.123379 232.319845 
" style="fill: none; stroke: #000000; stroke-width: 0.8; stroke-linecap: square"/>
    </g>
    <g id="text_3">
     <!-- 50 -->
     <g transform="translate(337.806022 251.722698) scale(0.1 -0.1)">
      <use xlink:href="#DejaVuSans-35"/>
      <use xlink:href="#DejaVuSans-30" x="63.623047"/>
     </g>
    </g>
   </g>
   <g id="xtick_4">
    <g id="line2d_5">
     <path d="M 321.765266 239.57059 
L 325.491353 240.433165 
" style="fill: none; stroke: #000000; stroke-width: 0.8; stroke-linecap: square"/>
    </g>
    <g id="text_4">
     <!-- 75 -->
     <g transform="translate(329.287314 259.977014) scale(0.1 -0.1)">
      <defs>
       <path id="DejaVuSans-37" d="M 525 4666 
L 3525 4666 
L 3525 4397 
L 1831 0 
L 1172 0 
L 2766 4134 
L 525 4134 
L 525 4666 
z
" transform="scale(0.015625)"/>
      </defs>
      <use xlink:href="#DejaVuSans-37"/>
      <use xlink:href="#DejaVuSans-35" x="63.623047"/>
     </g>
    </g>
   </g>
   <g id="xtick_5">
    <g id="line2d_6">
     <path d="M 312.896935 247.854655 
L 316.655928 248.737662 
" style="fill: none; stroke: #000000; stroke-width: 0.8; stroke-linecap: square"/>
    </g>
    <g id="text_5">
     <!-- 100 -->
     <g transform="translate(317.386539 268.425914) scale(0.1 -0.1)">
      <defs>
       <path id="DejaVuSans-31" d="M 794 531 
L 1825 531 
L 1825 4091 
L 703 3866 
L 703 4441 
L 1819 4666 
L 2450 4666 
L 2450 531 
L 3481 531 
L 3481 0 
L 794 0 
L 794 531 
z
" transform="scale(0.015625)"/>
      </defs>
      <use xlink:href="#DejaVuSans-31"/>
      <use xlink:href="#DejaVuSans-30" x="63.623047"/>
      <use xlink:href="#DejaVuSans-30" x="127.246094"/>
     </g>
    </g>
   </g>
   <g id="xtick_6">
    <g id="line2d_7">
     <path d="M 303.817409 256.336 
L 307.609828 257.240174 
" style="fill: none; stroke: #000000; stroke-width: 0.8; stroke-linecap: square"/>
    </g>
    <g id="text_6">
     <!-- 125 -->
     <g transform="translate(308.459013 277.07636) scale(0.1 -0.1)">
      <use xlink:href="#DejaVuSans-31"/>
      <use xlink:href="#DejaVuSans-32" x="63.623047"/>
      <use xlink:href="#DejaVuSans-35" x="127.246094"/>
     </g>
    </g>
   </g>
   <g id="xtick_7">
    <g id="line2d_8">
     <path d="M 294.519055 265.021758 
L 298.345428 265.947869 
" style="fill: none; stroke: #000000; stroke-width: 0.8; stroke-linecap: square"/>
    </g>
    <g id="text_7">
     <!-- 150 -->
     <g transform="translate(299.315951 285.935651) scale(0.1 -0.1)">
      <use xlink:href="#DejaVuSans-31"/>
      <use xlink:href="#DejaVuSans-35" x="63.623047"/>
      <use xlink:href="#DejaVuSans-30" x="127.246094"/>
     </g>
    </g>
   </g>
   <g id="xtick_8">
    <g id="line2d_9">
     <path d="M 284.993864 273.919407 
L 288.854729 274.868264 
" style="fill: none; stroke: #000000; stroke-width: 0.8; stroke-linecap: square"/>
    </g>
    <g id="text_8">
     <!-- 175 -->
     <g transform="translate(289.949454 295.011443) scale(0.1 -0.1)">
      <use xlink:href="#DejaVuSans-31"/>
      <use xlink:href="#DejaVuSans-37" x="63.623047"/>
      <use xlink:href="#DejaVuSans-35" x="127.246094"/>
     </g>
    </g>
   </g>
   <g id="text_9">
    <!-- Handover Cost -->
    <g transform="translate(318.559796 301.32355) rotate(-43.107843) scale(0.1 -0.1)">
     <defs>
      <path id="DejaVuSans-48" d="M 628 4666 
L 1259 4666 
L 1259 2753 
L 3553 2753 
L 3553 4666 
L 4184 4666 
L 4184 0 
L 3553 0 
L 3553 2222 
L 1259 2222 
L 1259 0 
L 628 0 
L 628 4666 
z
" transform="scale(0.015625)"/>
      <path id="DejaVuSans-61" d="M 2194 1759 
Q 1497 1759 1228 1600 
Q 959 1441 959 1056 
Q 959 750 1161 570 
Q 1363 391 1709 391 
Q 2188 391 2477 730 
Q 2766 1069 2766 1631 
L 2766 1759 
L 2194 1759 
z
M 3341 1997 
L 3341 0 
L 2766 0 
L 2766 531 
Q 2569 213 2275 61 
Q 1981 -91 1556 -91 
Q 1019 -91 701 211 
Q 384 513 384 1019 
Q 384 1609 779 1909 
Q 1175 2209 1959 2209 
L 2766 2209 
L 2766 2266 
Q 2766 2663 2505 2880 
Q 2244 3097 1772 3097 
Q 1472 3097 1187 3025 
Q 903 2953 641 2809 
L 641 3341 
Q 956 3463 1253 3523 
Q 1550 3584 1831 3584 
Q 2591 3584 2966 3190 
Q 3341 2797 3341 1997 
z
" transform="scale(0.015625)"/>
      <path id="DejaVuSans-6e" d="M 3513 2113 
L 3513 0 
L 2938 0 
L 2938 2094 
Q 2938 2591 2744 2837 
Q 2550 3084 2163 3084 
Q 1697 3084 1428 2787 
Q 1159 2491 1159 1978 
L 1159 0 
L 581 0 
L 581 3500 
L 1159 3500 
L 1159 2956 
Q 1366 3272 1645 3428 
Q 1925 3584 2291 3584 
Q 2894 3584 3203 3211 
Q 3513 2838 3513 2113 
z
" transform="scale(0.015625)"/>
      <path id="DejaVuSans-64" d="M 2906 2969 
L 2906 4863 
L 3481 4863 
L 3481 0 
L 2906 0 
L 2906 525 
Q 2725 213 2448 61 
Q 2172 -91 1784 -91 
Q 1150 -91 751 415 
Q 353 922 353 1747 
Q 353 2572 751 3078 
Q 1150 3584 1784 3584 
Q 2172 3584 2448 3432 
Q 2725 3281 2906 2969 
z
M 947 1747 
Q 947 1113 1208 752 
Q 1469 391 1925 391 
Q 2381 391 2643 752 
Q 2906 1113 2906 1747 
Q 2906 2381 2643 2742 
Q 2381 3103 1925 3103 
Q 1469 3103 1208 2742 
Q 947 2381 947 1747 
z
" transform="scale(0.015625)"/>
      <path id="DejaVuSans-6f" d="M 1959 3097 
Q 1497 3097 1228 2736 
Q 959 2375 959 1747 
Q 959 1119 1226 758 
Q 1494 397 1959 397 
Q 2419 397 2687 759 
Q 2956 1122 2956 1747 
Q 2956 2369 2687 2733 
Q 2419 3097 1959 3097 
z
M 1959 3584 
Q 2709 3584 3137 3096 
Q 3566 2609 3566 1747 
Q 3566 888 3137 398 
Q 2709 -91 1959 -91 
Q 1206 -91 779 398 
Q 353 888 353 1747 
Q 353 2609 779 3096 
Q 1206 3584 1959 3584 
z
" transform="scale(0.015625)"/>
      <path id="DejaVuSans-76" d="M 191 3500 
L 800 3500 
L 1894 563 
L 2988 3500 
L 3597 3500 
L 2284 0 
L 1503 0 
L 191 3500 
z
" transform="scale(0.015625)"/>
      <path id="DejaVuSans-65" d="M 3597 1894 
L 3597 1613 
L 953 1613 
Q 991 1019 1311 708 
Q 1631 397 2203 397 
Q 2534 397 2845 478 
Q 3156 559 3463 722 
L 3463 178 
Q 3153 47 2828 -22 
Q 2503 -91 2169 -91 
Q 1331 -91 842 396 
Q 353 884 353 1716 
Q 353 2575 817 3079 
Q 1281 3584 2069 3584 
Q 2775 3584 3186 3129 
Q 3597 2675 3597 1894 
z
M 3022 2063 
Q 3016 2534 2758 2815 
Q 2500 3097 2075 3097 
Q 1594 3097 1305 2825 
Q 1016 2553 972 2059 
L 3022 2063 
z
" transform="scale(0.015625)"/>
      <path id="DejaVuSans-72" d="M 2631 2963 
Q 2534 3019 2420 3045 
Q 2306 3072 2169 3072 
Q 1681 3072 1420 2755 
Q 1159 2438 1159 1844 
L 1159 0 
L 581 0 
L 581 3500 
L 1159 3500 
L 1159 2956 
Q 1341 3275 1631 3429 
Q 1922 3584 2338 3584 
Q 2397 3584 2469 3576 
Q 2541 3569 2628 3553 
L 2631 2963 
z
" transform="scale(0.015625)"/>
      <path id="DejaVuSans-20" transform="scale(0.015625)"/>
      <path id="DejaVuSans-43" d="M 4122 4306 
L 4122 3641 
Q 3803 3938 3442 4084 
Q 3081 4231 2675 4231 
Q 1875 4231 1450 3742 
Q 1025 3253 1025 2328 
Q 1025 1406 1450 917 
Q 1875 428 2675 428 
Q 3081 428 3442 575 
Q 3803 722 4122 1019 
L 4122 359 
Q 3791 134 3420 21 
Q 3050 -91 2638 -91 
Q 1578 -91 968 557 
Q 359 1206 359 2328 
Q 359 3453 968 4101 
Q 1578 4750 2638 4750 
Q 3056 4750 3426 4639 
Q 3797 4528 4122 4306 
z
" transform="scale(0.015625)"/>
      <path id="DejaVuSans-73" d="M 2834 3397 
L 2834 2853 
Q 2591 2978 2328 3040 
Q 2066 3103 1784 3103 
Q 1356 3103 1142 2972 
Q 928 2841 928 2578 
Q 928 2378 1081 2264 
Q 1234 2150 1697 2047 
L 1894 2003 
Q 2506 1872 2764 1633 
Q 3022 1394 3022 966 
Q 3022 478 2636 193 
Q 2250 -91 1575 -91 
Q 1294 -91 989 -36 
Q 684 19 347 128 
L 347 722 
Q 666 556 975 473 
Q 1284 391 1588 391 
Q 1994 391 2212 530 
Q 2431 669 2431 922 
Q 2431 1156 2273 1281 
Q 2116 1406 1581 1522 
L 1381 1569 
Q 847 1681 609 1914 
Q 372 2147 372 2553 
Q 372 3047 722 3315 
Q 1072 3584 1716 3584 
Q 2034 3584 2315 3537 
Q 2597 3491 2834 3397 
z
" transform="scale(0.015625)"/>
      <path id="DejaVuSans-74" d="M 1172 4494 
L 1172 3500 
L 2356 3500 
L 2356 3053 
L 1172 3053 
L 1172 1153 
Q 1172 725 1289 603 
Q 1406 481 1766 481 
L 2356 481 
L 2356 0 
L 1766 0 
Q 1100 0 847 248 
Q 594 497 594 1153 
L 594 3053 
L 172 3053 
L 172 3500 
L 594 3500 
L 594 4494 
L 1172 4494 
z
" transform="scale(0.015625)"/>
     </defs>
     <use xlink:href="#DejaVuSans-48"/>
     <use xlink:href="#DejaVuSans-61" x="75.195312"/>
     <use xlink:href="#DejaVuSans-6e" x="136.474609"/>
     <use xlink:href="#DejaVuSans-64" x="199.853516"/>
     <use xlink:href="#DejaVuSans-6f" x="263.330078"/>
     <use xlink:href="#DejaVuSans-76" x="324.511719"/>
     <use xlink:href="#DejaVuSans-65" x="383.691406"/>
     <use xlink:href="#DejaVuSans-72" x="445.214844"/>
     <use xlink:href="#DejaVuSans-20" x="486.328125"/>
     <use xlink:href="#DejaVuSans-43" x="518.115234"/>
     <use xlink:href="#DejaVuSans-6f" x="587.939453"/>
     <use xlink:href="#DejaVuSans-73" x="649.121094"/>
     <use xlink:href="#DejaVuSans-74" x="701.220703"/>
    </g>
   </g>
  </g>
  <g id="axis3d_2">
   <g id="line2d_10">
    <path d="M 123.445307 244.317438 
L 277.270448 282.668461 
" style="fill: none; stroke: #000000; stroke-width: 0.8; stroke-linecap: square"/>
   </g>
   <g id="xtick_9">
    <g id="line2d_11">
     <path d="M 131.807533 245.669764 
L 129.610665 247.322984 
" style="fill: none; stroke: #000000; stroke-width: 0.8; stroke-linecap: square"/>
    </g>
    <g id="text_10">
     <!-- 0 -->
     <g transform="translate(120.597034 269.197812) scale(0.1 -0.1)">
      <use xlink:href="#DejaVuSans-30"/>
     </g>
    </g>
   </g>
   <g id="xtick_10">
    <g id="line2d_12">
     <path d="M 165.887556 254.157693 
L 163.744661 255.850719 
" style="fill: none; stroke: #000000; stroke-width: 0.8; stroke-linecap: square"/>
    </g>
    <g id="text_11">
     <!-- 50 -->
     <g transform="translate(151.600192 277.927315) scale(0.1 -0.1)">
      <use xlink:href="#DejaVuSans-35"/>
      <use xlink:href="#DejaVuSans-30" x="63.623047"/>
     </g>
    </g>
   </g>
   <g id="xtick_11">
    <g id="line2d_13">
     <path d="M 200.792161 262.850992 
L 198.706513 264.585279 
" style="fill: none; stroke: #000000; stroke-width: 0.8; stroke-linecap: square"/>
    </g>
    <g id="text_12">
     <!-- 100 -->
     <g transform="translate(183.435392 286.869292) scale(0.1 -0.1)">
      <use xlink:href="#DejaVuSans-31"/>
      <use xlink:href="#DejaVuSans-30" x="63.623047"/>
      <use xlink:href="#DejaVuSans-30" x="127.246094"/>
     </g>
    </g>
   </g>
   <g id="xtick_12">
    <g id="line2d_14">
     <path d="M 236.55164 271.757205 
L 234.526709 273.534279 
" style="fill: none; stroke: #000000; stroke-width: 0.8; stroke-linecap: square"/>
    </g>
    <g id="text_13">
     <!-- 150 -->
     <g transform="translate(219.314637 296.031596) scale(0.1 -0.1)">
      <use xlink:href="#DejaVuSans-31"/>
      <use xlink:href="#DejaVuSans-35" x="63.623047"/>
      <use xlink:href="#DejaVuSans-30" x="127.246094"/>
     </g>
    </g>
   </g>
   <g id="xtick_13">
    <g id="line2d_15">
     <path d="M 273.197789 280.88425 
L 271.237251 282.705715 
" style="fill: none; stroke: #000000; stroke-width: 0.8; stroke-linecap: square"/>
    </g>
    <g id="text_14">
     <!-- 200 -->
     <g transform="translate(256.088963 305.422473) scale(0.1 -0.1)">
      <use xlink:href="#DejaVuSans-32"/>
      <use xlink:href="#DejaVuSans-30" x="63.623047"/>
      <use xlink:href="#DejaVuSans-30" x="127.246094"/>
     </g>
    </g>
   </g>
   <g id="text_15">
    <!-- Switching Cost -->
    <g transform="translate(146.214254 291.347206) rotate(-346.000663) scale(0.1 -0.1)">
     <defs>
      <path id="DejaVuSans-53" d="M 3425 4513 
L 3425 3897 
Q 3066 4069 2747 4153 
Q 2428 4238 2131 4238 
Q 1616 4238 1336 4038 
Q 1056 3838 1056 3469 
Q 1056 3159 1242 3001 
Q 1428 2844 1947 2747 
L 2328 2669 
Q 3034 2534 3370 2195 
Q 3706 1856 3706 1288 
Q 3706 609 3251 259 
Q 2797 -91 1919 -91 
Q 1588 -91 1214 -16 
Q 841 59 441 206 
L 441 856 
Q 825 641 1194 531 
Q 1563 422 1919 422 
Q 2459 422 2753 634 
Q 3047 847 3047 1241 
Q 3047 1584 2836 1778 
Q 2625 1972 2144 2069 
L 1759 2144 
Q 1053 2284 737 2584 
Q 422 2884 422 3419 
Q 422 4038 858 4394 
Q 1294 4750 2059 4750 
Q 2388 4750 2728 4690 
Q 3069 4631 3425 4513 
z
" transform="scale(0.015625)"/>
      <path id="DejaVuSans-77" d="M 269 3500 
L 844 3500 
L 1563 769 
L 2278 3500 
L 2956 3500 
L 3675 769 
L 4391 3500 
L 4966 3500 
L 4050 0 
L 3372 0 
L 2619 2869 
L 1863 0 
L 1184 0 
L 269 3500 
z
" transform="scale(0.015625)"/>
      <path id="DejaVuSans-69" d="M 603 3500 
L 1178 3500 
L 1178 0 
L 603 0 
L 603 3500 
z
M 603 4863 
L 1178 4863 
L 1178 4134 
L 603 4134 
L 603 4863 
z
" transform="scale(0.015625)"/>
      <path id="DejaVuSans-63" d="M 3122 3366 
L 3122 2828 
Q 2878 2963 2633 3030 
Q 2388 3097 2138 3097 
Q 1578 3097 1268 2742 
Q 959 2388 959 1747 
Q 959 1106 1268 751 
Q 1578 397 2138 397 
Q 2388 397 2633 464 
Q 2878 531 3122 666 
L 3122 134 
Q 2881 22 2623 -34 
Q 2366 -91 2075 -91 
Q 1284 -91 818 406 
Q 353 903 353 1747 
Q 353 2603 823 3093 
Q 1294 3584 2113 3584 
Q 2378 3584 2631 3529 
Q 2884 3475 3122 3366 
z
" transform="scale(0.015625)"/>
      <path id="DejaVuSans-68" d="M 3513 2113 
L 3513 0 
L 2938 0 
L 2938 2094 
Q 2938 2591 2744 2837 
Q 2550 3084 2163 3084 
Q 1697 3084 1428 2787 
Q 1159 2491 1159 1978 
L 1159 0 
L 581 0 
L 581 4863 
L 1159 4863 
L 1159 2956 
Q 1366 3272 1645 3428 
Q 1925 3584 2291 3584 
Q 2894 3584 3203 3211 
Q 3513 2838 3513 2113 
z
" transform="scale(0.015625)"/>
      <path id="DejaVuSans-67" d="M 2906 1791 
Q 2906 2416 2648 2759 
Q 2391 3103 1925 3103 
Q 1463 3103 1205 2759 
Q 947 2416 947 1791 
Q 947 1169 1205 825 
Q 1463 481 1925 481 
Q 2391 481 2648 825 
Q 2906 1169 2906 1791 
z
M 3481 434 
Q 3481 -459 3084 -895 
Q 2688 -1331 1869 -1331 
Q 1566 -1331 1297 -1286 
Q 1028 -1241 775 -1147 
L 775 -588 
Q 1028 -725 1275 -790 
Q 1522 -856 1778 -856 
Q 2344 -856 2625 -561 
Q 2906 -266 2906 331 
L 2906 616 
Q 2728 306 2450 153 
Q 2172 0 1784 0 
Q 1141 0 747 490 
Q 353 981 353 1791 
Q 353 2603 747 3093 
Q 1141 3584 1784 3584 
Q 2172 3584 2450 3431 
Q 2728 3278 2906 2969 
L 2906 3500 
L 3481 3500 
L 3481 434 
z
" transform="scale(0.015625)"/>
     </defs>
     <use xlink:href="#DejaVuSans-53"/>
     <use xlink:href="#DejaVuSans-77" x="63.476562"/>
     <use xlink:href="#DejaVuSans-69" x="145.263672"/>
     <use xlink:href="#DejaVuSans-74" x="173.046875"/>
     <use xlink:href="#DejaVuSans-63" x="212.255859"/>
     <use xlink:href="#DejaVuSans-68" x="267.236328"/>
     <use xlink:href="#DejaVuSans-69" x="330.615234"/>
     <use xlink:href="#DejaVuSans-6e" x="358.398438"/>
     <use xlink:href="#DejaVuSans-67" x="421.777344"/>
     <use xlink:href="#DejaVuSans-20" x="485.253906"/>
     <use xlink:href="#DejaVuSans-43" x="517.041016"/>
     <use xlink:href="#DejaVuSans-6f" x="586.865234"/>
     <use xlink:href="#DejaVuSans-73" x="648.046875"/>
     <use xlink:href="#DejaVuSans-74" x="700.146484"/>
    </g>
   </g>
  </g>
  <g id="axis3d_3">
   <g id="line2d_16">
    <path d="M 123.445307 244.317438 
L 119.071947 124.627003 
" style="fill: none; stroke: #000000; stroke-width: 0.8; stroke-linecap: square"/>
   </g>
   <g id="xtick_14">
    <g id="line2d_17">
     <path d="M 124.096637 241.462812 
L 121.886151 243.103022 
" style="fill: none; stroke: #000000; stroke-width: 0.8; stroke-linecap: square"/>
    </g>
    <g id="text_16">
     <!-- 0 -->
     <g transform="translate(100.352515 252.272197) scale(0.1 -0.1)">
      <use xlink:href="#DejaVuSans-30"/>
     </g>
    </g>
   </g>
   <g id="xtick_15">
    <g id="line2d_18">
     <path d="M 123.514814 225.435403 
L 121.291824 227.046454 
" style="fill: none; stroke: #000000; stroke-width: 0.8; stroke-linecap: square"/>
    </g>
    <g id="text_17">
     <!-- 10 -->
     <g transform="translate(96.482868 236.187742) scale(0.1 -0.1)">
      <use xlink:href="#DejaVuSans-31"/>
      <use xlink:href="#DejaVuSans-30" x="63.623047"/>
     </g>
    </g>
   </g>
   <g id="xtick_16">
    <g id="line2d_19">
     <path d="M 122.927108 209.245927 
L 120.691472 210.827144 
" style="fill: none; stroke: #000000; stroke-width: 0.8; stroke-linecap: square"/>
    </g>
    <g id="text_18">
     <!-- 20 -->
     <g transform="translate(95.787478 219.939895) scale(0.1 -0.1)">
      <use xlink:href="#DejaVuSans-32"/>
      <use xlink:href="#DejaVuSans-30" x="63.623047"/>
     </g>
    </g>
   </g>
   <g id="xtick_17">
    <g id="line2d_20">
     <path d="M 122.333429 192.891914 
L 120.085005 194.442605 
" style="fill: none; stroke: #000000; stroke-width: 0.8; stroke-linecap: square"/>
    </g>
    <g id="text_19">
     <!-- 30 -->
     <g transform="translate(95.084988 203.526155) scale(0.1 -0.1)">
      <defs>
       <path id="DejaVuSans-33" d="M 2597 2516 
Q 3050 2419 3304 2112 
Q 3559 1806 3559 1356 
Q 3559 666 3084 287 
Q 2609 -91 1734 -91 
Q 1441 -91 1130 -33 
Q 819 25 488 141 
L 488 750 
Q 750 597 1062 519 
Q 1375 441 1716 441 
Q 2309 441 2620 675 
Q 2931 909 2931 1356 
Q 2931 1769 2642 2001 
Q 2353 2234 1838 2234 
L 1294 2234 
L 1294 2753 
L 1863 2753 
Q 2328 2753 2575 2939 
Q 2822 3125 2822 3475 
Q 2822 3834 2567 4026 
Q 2313 4219 1838 4219 
Q 1578 4219 1281 4162 
Q 984 4106 628 3988 
L 628 4550 
Q 988 4650 1302 4700 
Q 1616 4750 1894 4750 
Q 2613 4750 3031 4423 
Q 3450 4097 3450 3541 
Q 3450 3153 3228 2886 
Q 3006 2619 2597 2516 
z
" transform="scale(0.015625)"/>
      </defs>
      <use xlink:href="#DejaVuSans-33"/>
      <use xlink:href="#DejaVuSans-30" x="63.623047"/>
     </g>
    </g>
   </g>
   <g id="xtick_18">
    <g id="line2d_21">
     <path d="M 121.733685 176.370843 
L 119.472328 177.890298 
" style="fill: none; stroke: #000000; stroke-width: 0.8; stroke-linecap: square"/>
    </g>
    <g id="text_20">
     <!-- 40 -->
     <g transform="translate(94.375288 186.943969) scale(0.1 -0.1)">
      <defs>
       <path id="DejaVuSans-34" d="M 2419 4116 
L 825 1625 
L 2419 1625 
L 2419 4116 
z
M 2253 4666 
L 3047 4666 
L 3047 1625 
L 3713 1625 
L 3713 1100 
L 3047 1100 
L 3047 0 
L 2419 0 
L 2419 1100 
L 313 1100 
L 313 1709 
L 2253 4666 
z
" transform="scale(0.015625)"/>
      </defs>
      <use xlink:href="#DejaVuSans-34"/>
      <use xlink:href="#DejaVuSans-30" x="63.623047"/>
     </g>
    </g>
   </g>
   <g id="xtick_19">
    <g id="line2d_22">
     <path d="M 121.127783 159.680141 
L 118.853345 161.167635 
" style="fill: none; stroke: #000000; stroke-width: 0.8; stroke-linecap: square"/>
    </g>
    <g id="text_21">
     <!-- 50 -->
     <g transform="translate(93.658268 170.190729) scale(0.1 -0.1)">
      <use xlink:href="#DejaVuSans-35"/>
      <use xlink:href="#DejaVuSans-30" x="63.623047"/>
     </g>
    </g>
   </g>
   <g id="xtick_20">
    <g id="line2d_23">
     <path d="M 120.515628 142.817181 
L 118.227958 144.271971 
" style="fill: none; stroke: #000000; stroke-width: 0.8; stroke-linecap: square"/>
    </g>
    <g id="text_22">
     <!-- 60 -->
     <g transform="translate(92.933813 153.263776) scale(0.1 -0.1)">
      <defs>
       <path id="DejaVuSans-36" d="M 2113 2584 
Q 1688 2584 1439 2293 
Q 1191 2003 1191 1497 
Q 1191 994 1439 701 
Q 1688 409 2113 409 
Q 2538 409 2786 701 
Q 3034 994 3034 1497 
Q 3034 2003 2786 2293 
Q 2538 2584 2113 2584 
z
M 3366 4563 
L 3366 3988 
Q 3128 4100 2886 4159 
Q 2644 4219 2406 4219 
Q 1781 4219 1451 3797 
Q 1122 3375 1075 2522 
Q 1259 2794 1537 2939 
Q 1816 3084 2150 3084 
Q 2853 3084 3261 2657 
Q 3669 2231 3669 1497 
Q 3669 778 3244 343 
Q 2819 -91 2113 -91 
Q 1303 -91 875 529 
Q 447 1150 447 2328 
Q 447 3434 972 4092 
Q 1497 4750 2381 4750 
Q 2619 4750 2861 4703 
Q 3103 4656 3366 4563 
z
" transform="scale(0.015625)"/>
      </defs>
      <use xlink:href="#DejaVuSans-36"/>
      <use xlink:href="#DejaVuSans-30" x="63.623047"/>
     </g>
    </g>
   </g>
   <g id="text_23">
    <!-- Number of gNB switching -->
    <g transform="translate(72.130072 127.459036) rotate(-272.092595) scale(0.1 -0.1)">
     <defs>
      <path id="DejaVuSans-4e" d="M 628 4666 
L 1478 4666 
L 3547 763 
L 3547 4666 
L 4159 4666 
L 4159 0 
L 3309 0 
L 1241 3903 
L 1241 0 
L 628 0 
L 628 4666 
z
" transform="scale(0.015625)"/>
      <path id="DejaVuSans-75" d="M 544 1381 
L 544 3500 
L 1119 3500 
L 1119 1403 
Q 1119 906 1312 657 
Q 1506 409 1894 409 
Q 2359 409 2629 706 
Q 2900 1003 2900 1516 
L 2900 3500 
L 3475 3500 
L 3475 0 
L 2900 0 
L 2900 538 
Q 2691 219 2414 64 
Q 2138 -91 1772 -91 
Q 1169 -91 856 284 
Q 544 659 544 1381 
z
M 1991 3584 
L 1991 3584 
z
" transform="scale(0.015625)"/>
      <path id="DejaVuSans-6d" d="M 3328 2828 
Q 3544 3216 3844 3400 
Q 4144 3584 4550 3584 
Q 5097 3584 5394 3201 
Q 5691 2819 5691 2113 
L 5691 0 
L 5113 0 
L 5113 2094 
Q 5113 2597 4934 2840 
Q 4756 3084 4391 3084 
Q 3944 3084 3684 2787 
Q 3425 2491 3425 1978 
L 3425 0 
L 2847 0 
L 2847 2094 
Q 2847 2600 2669 2842 
Q 2491 3084 2119 3084 
Q 1678 3084 1418 2786 
Q 1159 2488 1159 1978 
L 1159 0 
L 581 0 
L 581 3500 
L 1159 3500 
L 1159 2956 
Q 1356 3278 1631 3431 
Q 1906 3584 2284 3584 
Q 2666 3584 2933 3390 
Q 3200 3197 3328 2828 
z
" transform="scale(0.015625)"/>
      <path id="DejaVuSans-62" d="M 3116 1747 
Q 3116 2381 2855 2742 
Q 2594 3103 2138 3103 
Q 1681 3103 1420 2742 
Q 1159 2381 1159 1747 
Q 1159 1113 1420 752 
Q 1681 391 2138 391 
Q 2594 391 2855 752 
Q 3116 1113 3116 1747 
z
M 1159 2969 
Q 1341 3281 1617 3432 
Q 1894 3584 2278 3584 
Q 2916 3584 3314 3078 
Q 3713 2572 3713 1747 
Q 3713 922 3314 415 
Q 2916 -91 2278 -91 
Q 1894 -91 1617 61 
Q 1341 213 1159 525 
L 1159 0 
L 581 0 
L 581 4863 
L 1159 4863 
L 1159 2969 
z
" transform="scale(0.015625)"/>
      <path id="DejaVuSans-66" d="M 2375 4863 
L 2375 4384 
L 1825 4384 
Q 1516 4384 1395 4259 
Q 1275 4134 1275 3809 
L 1275 3500 
L 2222 3500 
L 2222 3053 
L 1275 3053 
L 1275 0 
L 697 0 
L 697 3053 
L 147 3053 
L 147 3500 
L 697 3500 
L 697 3744 
Q 697 4328 969 4595 
Q 1241 4863 1831 4863 
L 2375 4863 
z
" transform="scale(0.015625)"/>
      <path id="DejaVuSans-42" d="M 1259 2228 
L 1259 519 
L 2272 519 
Q 2781 519 3026 730 
Q 3272 941 3272 1375 
Q 3272 1813 3026 2020 
Q 2781 2228 2272 2228 
L 1259 2228 
z
M 1259 4147 
L 1259 2741 
L 2194 2741 
Q 2656 2741 2882 2914 
Q 3109 3088 3109 3444 
Q 3109 3797 2882 3972 
Q 2656 4147 2194 4147 
L 1259 4147 
z
M 628 4666 
L 2241 4666 
Q 2963 4666 3353 4366 
Q 3744 4066 3744 3513 
Q 3744 3084 3544 2831 
Q 3344 2578 2956 2516 
Q 3422 2416 3680 2098 
Q 3938 1781 3938 1306 
Q 3938 681 3513 340 
Q 3088 0 2303 0 
L 628 0 
L 628 4666 
z
" transform="scale(0.015625)"/>
     </defs>
     <use xlink:href="#DejaVuSans-4e"/>
     <use xlink:href="#DejaVuSans-75" x="74.804688"/>
     <use xlink:href="#DejaVuSans-6d" x="138.183594"/>
     <use xlink:href="#DejaVuSans-62" x="235.595703"/>
     <use xlink:href="#DejaVuSans-65" x="299.072266"/>
     <use xlink:href="#DejaVuSans-72" x="360.595703"/>
     <use xlink:href="#DejaVuSans-20" x="401.708984"/>
     <use xlink:href="#DejaVuSans-6f" x="433.496094"/>
     <use xlink:href="#DejaVuSans-66" x="494.677734"/>
     <use xlink:href="#DejaVuSans-20" x="529.882812"/>
     <use xlink:href="#DejaVuSans-67" x="561.669922"/>
     <use xlink:href="#DejaVuSans-4e" x="625.146484"/>
     <use xlink:href="#DejaVuSans-42" x="699.951172"/>
     <use xlink:href="#DejaVuSans-20" x="768.554688"/>
     <use xlink:href="#DejaVuSans-73" x="800.341797"/>
     <use xlink:href="#DejaVuSans-77" x="852.441406"/>
     <use xlink:href="#DejaVuSans-69" x="934.228516"/>
     <use xlink:href="#DejaVuSans-74" x="962.011719"/>
     <use xlink:href="#DejaVuSans-63" x="1001.220703"/>
     <use xlink:href="#DejaVuSans-68" x="1056.201172"/>
     <use xlink:href="#DejaVuSans-69" x="1119.580078"/>
     <use xlink:href="#DejaVuSans-6e" x="1147.363281"/>
     <use xlink:href="#DejaVuSans-67" x="1210.742188"/>
    </g>
   </g>
  </g>
  <g id="axes_1">
   <g id="Poly3DCollection_1">
    <path d="M 230.271124 154.28661 
L 222.857275 172.462977 
L 229.387551 169.649403 
L 236.809831 167.526244 
z
" clip-path="url(#pf2ed079c82)" style="fill: #9ebeff"/>
    <path d="M 223.708107 139.851611 
L 216.245816 157.603396 
L 222.857275 172.462977 
L 230.271124 154.28661 
z
" clip-path="url(#pf2ed079c82)" style="fill: #bed2f6"/>
    <path d="M 249.859879 184.810624 
L 242.56787 186.338863 
L 249.156664 195.832307 
L 256.378706 194.587344 
z
" clip-path="url(#pf2ed079c82)" style="fill: #516ddb"/>
    <path d="M 236.809831 167.526244 
L 229.387551 169.649403 
L 235.976608 177.609151 
L 243.335813 175.407405 
z
" clip-path="url(#pf2ed079c82)" style="fill: #8badfd"/>
    <path d="M 243.335813 175.407405 
L 235.976608 177.609151 
L 242.56787 186.338863 
L 249.859879 184.810624 
z
" clip-path="url(#pf2ed079c82)" style="fill: #6e90f2"/>
    <path d="M 256.378706 194.587344 
L 249.156664 195.832307 
L 255.755332 202.653667 
L 262.946958 196.800751 
z
" clip-path="url(#pf2ed079c82)" style="fill: #3e51c5"/>
    <path d="M 262.946958 196.800751 
L 255.755332 202.653667 
L 262.409807 202.614525 
L 269.548192 198.26438 
z
" clip-path="url(#pf2ed079c82)" style="fill: #3b4cc0"/>
    <path d="M 269.548192 198.26438 
L 262.409807 202.614525 
L 269.107407 201.808127 
L 276.230247 195.167751 
z
" clip-path="url(#pf2ed079c82)" style="fill: #4055c8"/>
    <path d="M 216.979708 104.651424 
L 209.375632 117.248526 
L 216.245816 157.603396 
L 223.708107 139.851611 
z
" clip-path="url(#pf2ed079c82)" style="fill: #f7b89c"/>
    <path d="M 216.245816 157.603396 
L 208.667114 171.287511 
L 215.24231 173.874966 
L 222.857275 172.462977 
z
" clip-path="url(#pf2ed079c82)" style="fill: #a3c2fe"/>
    <path d="M 222.857275 172.462977 
L 215.24231 173.874966 
L 221.846609 177.247086 
L 229.387551 169.649403 
z
" clip-path="url(#pf2ed079c82)" style="fill: #97b8ff"/>
    <path d="M 276.230247 195.167751 
L 269.107407 201.808127 
L 275.81889 203.304378 
L 282.899812 196.636337 
z
" clip-path="url(#pf2ed079c82)" style="fill: #465ecf"/>
    <path d="M 229.387551 169.649403 
L 221.846609 177.247086 
L 228.492902 186.433812 
L 235.976608 177.609151 
z
" clip-path="url(#pf2ed079c82)" style="fill: #8caffe"/>
    <path d="M 242.56787 186.338863 
L 235.134608 193.691564 
L 241.780953 203.263283 
L 249.156664 195.832307 
z
" clip-path="url(#pf2ed079c82)" style="fill: #5673e0"/>
    <path d="M 235.976608 177.609151 
L 228.492902 186.433812 
L 235.134608 193.691564 
L 242.56787 186.338863 
z
" clip-path="url(#pf2ed079c82)" style="fill: #7295f4"/>
    <path d="M 249.156664 195.832307 
L 241.780953 203.263283 
L 248.437327 207.842849 
L 255.755332 202.653667 
z
" clip-path="url(#pf2ed079c82)" style="fill: #4055c8"/>
    <path d="M 282.899812 196.636337 
L 275.81889 203.304378 
L 282.529927 207.115602 
L 289.610951 197.346389 
z
" clip-path="url(#pf2ed079c82)" style="fill: #455cce"/>
    <path d="M 255.755332 202.653667 
L 248.437327 207.842849 
L 255.132997 207.817532 
L 262.409807 202.614525 
z
" clip-path="url(#pf2ed079c82)" style="fill: #3d50c3"/>
    <path d="M 289.610951 197.346389 
L 282.529927 207.115602 
L 289.314898 207.473727 
L 296.288178 201.890376 
z
" clip-path="url(#pf2ed079c82)" style="fill: #4358cb"/>
    <path d="M 209.375632 117.248526 
L 201.578096 122.085313 
L 208.667114 171.287511 
L 216.245816 157.603396 
z
" clip-path="url(#pf2ed079c82)" style="fill: #f1cdba"/>
    <path d="M 210.22292 78.070577 
L 202.536965 90.957661 
L 209.375632 117.248526 
L 216.979708 104.651424 
z
" clip-path="url(#pf2ed079c82)" style="fill: #b40426"/>
    <path d="M 296.288178 201.890376 
L 289.314898 207.473727 
L 296.108388 209.378426 
L 303.057779 202.616124 
z
" clip-path="url(#pf2ed079c82)" style="fill: #4257c9"/>
    <path d="M 262.409807 202.614525 
L 255.132997 207.817532 
L 261.865371 207.792075 
L 269.107407 201.808127 
z
" clip-path="url(#pf2ed079c82)" style="fill: #4358cb"/>
    <path d="M 208.667114 171.287511 
L 200.856021 173.870362 
L 207.49344 177.660044 
L 215.24231 173.874966 
z
" clip-path="url(#pf2ed079c82)" style="fill: #a5c3fe"/>
    <path d="M 303.057779 202.616124 
L 296.108388 209.378426 
L 302.893071 213.223069 
L 309.777553 207.184054 
z
" clip-path="url(#pf2ed079c82)" style="fill: #3d50c3"/>
    <path d="M 269.107407 201.808127 
L 261.865371 207.792075 
L 268.600047 211.635879 
L 275.81889 203.304378 
z
" clip-path="url(#pf2ed079c82)" style="fill: #445acc"/>
    <path d="M 215.24231 173.874966 
L 207.49344 177.660044 
L 214.188279 186.14094 
L 221.846609 177.247086 
z
" clip-path="url(#pf2ed079c82)" style="fill: #98b9ff"/>
    <path d="M 221.846609 177.247086 
L 214.188279 186.14094 
L 220.879938 193.846531 
L 228.492902 186.433812 
z
" clip-path="url(#pf2ed079c82)" style="fill: #82a6fb"/>
    <path d="M 228.492902 186.433812 
L 220.879938 193.846531 
L 227.584949 203.882568 
L 235.134608 193.691564 
z
" clip-path="url(#pf2ed079c82)" style="fill: #6788ee"/>
    <path d="M 235.134608 193.691564 
L 227.584949 203.882568 
L 234.275661 208.499303 
L 241.780953 203.263283 
z
" clip-path="url(#pf2ed079c82)" style="fill: #506bda"/>
    <path d="M 309.777553 207.184054 
L 302.893071 213.223069 
L 309.782971 213.212387 
L 316.661382 205.618468 
z
" clip-path="url(#pf2ed079c82)" style="fill: #3d50c3"/>
    <path d="M 241.780953 203.263283 
L 234.275661 208.499303 
L 240.983256 214.675944 
L 248.437327 207.842849 
z
" clip-path="url(#pf2ed079c82)" style="fill: #4055c8"/>
    <path d="M 275.81889 203.304378 
L 268.600047 211.635879 
L 275.38127 213.170239 
L 282.529927 207.115602 
z
" clip-path="url(#pf2ed079c82)" style="fill: #3f53c6"/>
    <path d="M 202.536965 90.957661 
L 194.727636 102.411637 
L 201.578096 122.085313 
L 209.375632 117.248526 
z
" clip-path="url(#pf2ed079c82)" style="fill: #c83836"/>
    <path d="M 248.437327 207.842849 
L 240.983256 214.675944 
L 247.717257 214.669245 
L 255.132997 207.817532 
z
" clip-path="url(#pf2ed079c82)" style="fill: #3d50c3"/>
    <path d="M 282.529927 207.115602 
L 275.38127 213.170239 
L 282.183099 215.487116 
L 289.314898 207.473727 
z
" clip-path="url(#pf2ed079c82)" style="fill: #3e51c5"/>
    <path d="M 201.578096 122.085313 
L 193.648219 127.811872 
L 200.856021 173.870362 
L 208.667114 171.287511 
z
" clip-path="url(#pf2ed079c82)" style="fill: #eed0c0"/>
    <path d="M 316.661382 205.618468 
L 309.782971 213.212387 
L 316.673728 214.75392 
L 323.449097 209.441161 
z
" clip-path="url(#pf2ed079c82)" style="fill: #3e51c5"/>
    <path d="M 323.449097 209.441161 
L 316.673728 214.75392 
L 323.555345 217.856042 
L 330.30109 211.734543 
z
" clip-path="url(#pf2ed079c82)" style="fill: #3b4cc0"/>
    <path d="M 255.132997 207.817532 
L 247.717257 214.669245 
L 254.484932 215.440154 
L 261.865371 207.792075 
z
" clip-path="url(#pf2ed079c82)" style="fill: #4055c8"/>
    <path d="M 289.314898 207.473727 
L 282.183099 215.487116 
L 289.072281 213.926902 
L 296.108388 209.378426 
z
" clip-path="url(#pf2ed079c82)" style="fill: #4055c8"/>
    <path d="M 200.856021 173.870362 
L 193.086009 190.230793 
L 199.623681 183.878851 
L 207.49344 177.660044 
z
" clip-path="url(#pf2ed079c82)" style="fill: #9fbfff"/>
    <path d="M 330.30109 211.734543 
L 323.555345 217.856042 
L 330.527705 218.636488 
L 337.251061 211.719798 
z
" clip-path="url(#pf2ed079c82)" style="fill: #3b4cc0"/>
    <path d="M 296.108388 209.378426 
L 289.072281 213.926902 
L 295.89727 218.593722 
L 302.893071 213.223069 
z
" clip-path="url(#pf2ed079c82)" style="fill: #3e51c5"/>
    <path d="M 261.865371 207.792075 
L 254.484932 215.440154 
L 261.286834 216.214961 
L 268.600047 211.635879 
z
" clip-path="url(#pf2ed079c82)" style="fill: #4257c9"/>
    <path d="M 207.49344 177.660044 
L 199.623681 183.878851 
L 206.405943 195.178806 
L 214.188279 186.14094 
z
" clip-path="url(#pf2ed079c82)" style="fill: #94b6ff"/>
    <path d="M 214.188279 186.14094 
L 206.405943 195.178806 
L 213.120076 199.430248 
L 220.879938 193.846531 
z
" clip-path="url(#pf2ed079c82)" style="fill: #7b9ff9"/>
    <path d="M 220.879938 193.846531 
L 213.120076 199.430248 
L 219.90175 211.505873 
L 227.584949 203.882568 
z
" clip-path="url(#pf2ed079c82)" style="fill: #6180e9"/>
    <path d="M 227.584949 203.882568 
L 219.90175 211.505873 
L 226.64623 217.729955 
L 234.275661 208.499303 
z
" clip-path="url(#pf2ed079c82)" style="fill: #4a63d3"/>
    <path d="M 302.893071 213.223069 
L 295.89727 218.593722 
L 302.816786 219.377964 
L 309.782971 213.212387 
z
" clip-path="url(#pf2ed079c82)" style="fill: #3c4ec2"/>
    <path d="M 234.275661 208.499303 
L 226.64623 217.729955 
L 233.395735 220.85106 
L 240.983256 214.675944 
z
" clip-path="url(#pf2ed079c82)" style="fill: #3e51c5"/>
    <path d="M 268.600047 211.635879 
L 261.286834 216.214961 
L 268.14394 214.648926 
L 275.38127 213.170239 
z
" clip-path="url(#pf2ed079c82)" style="fill: #4358cb"/>
    <path d="M 194.727636 102.411637 
L 186.768015 111.612403 
L 193.648219 127.811872 
L 201.578096 122.085313 
z
" clip-path="url(#pf2ed079c82)" style="fill: #d1493f"/>
    <path d="M 193.648219 127.811872 
L 185.720485 142.488061 
L 193.086009 190.230793 
L 200.856021 173.870362 
z
" clip-path="url(#pf2ed079c82)" style="fill: #e5d8d1"/>
    <path d="M 240.983256 214.675944 
L 233.395735 220.85106 
L 240.170328 218.516019 
L 247.717257 214.669245 
z
" clip-path="url(#pf2ed079c82)" style="fill: #3d50c3"/>
    <path d="M 309.782971 213.212387 
L 302.816786 219.377964 
L 309.737338 221.728846 
L 316.673728 214.75392 
z
" clip-path="url(#pf2ed079c82)" style="fill: #3d50c3"/>
    <path d="M 275.38127 213.170239 
L 268.14394 214.648926 
L 275.002958 216.993385 
L 282.183099 215.487116 
z
" clip-path="url(#pf2ed079c82)" style="fill: #445acc"/>
    <path d="M 316.673728 214.75392 
L 309.737338 221.728846 
L 316.705127 223.307225 
L 323.555345 217.856042 
z
" clip-path="url(#pf2ed079c82)" style="fill: #3c4ec2"/>
    <path d="M 247.717257 214.669245 
L 240.170328 218.516019 
L 246.982121 220.871964 
L 254.484932 215.440154 
z
" clip-path="url(#pf2ed079c82)" style="fill: #4257c9"/>
    <path d="M 282.183099 215.487116 
L 275.002958 216.993385 
L 281.890215 219.347497 
L 289.072281 213.926902 
z
" clip-path="url(#pf2ed079c82)" style="fill: #455cce"/>
    <path d="M 193.086009 190.230793 
L 184.879554 186.332283 
L 191.535112 185.055192 
L 199.623681 183.878851 
z
" clip-path="url(#pf2ed079c82)" style="fill: #a2c1ff"/>
    <path d="M 323.555345 217.856042 
L 316.705127 223.307225 
L 323.705046 224.892883 
L 330.527705 218.636488 
z
" clip-path="url(#pf2ed079c82)" style="fill: #3b4cc0"/>
    <path d="M 254.484932 215.440154 
L 246.982121 220.871964 
L 253.815117 224.805782 
L 261.286834 216.214961 
z
" clip-path="url(#pf2ed079c82)" style="fill: #4055c8"/>
    <path d="M 289.072281 213.926902 
L 281.890215 219.347497 
L 288.745885 225.632873 
L 295.89727 218.593722 
z
" clip-path="url(#pf2ed079c82)" style="fill: #4055c8"/>
    <path d="M 213.120076 199.430248 
L 205.220344 205.512043 
L 212.078733 218.476849 
L 219.90175 211.505873 
z
" clip-path="url(#pf2ed079c82)" style="fill: #5f7fe8"/>
    <path d="M 219.90175 211.505873 
L 212.078733 218.476849 
L 218.861438 222.409543 
L 226.64623 217.729955 
z
" clip-path="url(#pf2ed079c82)" style="fill: #465ecf"/>
    <path d="M 206.405943 195.178806 
L 198.405688 197.265101 
L 205.220344 205.512043 
L 213.120076 199.430248 
z
" clip-path="url(#pf2ed079c82)" style="fill: #7da0f9"/>
    <path d="M 199.623681 183.878851 
L 191.535112 185.055192 
L 198.405688 197.265101 
L 206.405943 195.178806 
z
" clip-path="url(#pf2ed079c82)" style="fill: #98b9ff"/>
    <path d="M 185.720485 142.488061 
L 177.745075 160.161021 
L 184.879554 186.332283 
L 193.086009 190.230793 
z
" clip-path="url(#pf2ed079c82)" style="fill: #d6dce4"/>
    <path d="M 186.768015 111.612403 
L 178.614454 117.308717 
L 185.720485 142.488061 
L 193.648219 127.811872 
z
" clip-path="url(#pf2ed079c82)" style="fill: #dd5f4b"/>
    <path d="M 295.89727 218.593722 
L 288.745885 225.632873 
L 295.695224 227.227078 
L 302.816786 219.377964 
z
" clip-path="url(#pf2ed079c82)" style="fill: #3b4cc0"/>
    <path d="M 226.64623 217.729955 
L 218.861438 222.409543 
L 225.665506 226.354623 
L 233.395735 220.85106 
z
" clip-path="url(#pf2ed079c82)" style="fill: #3d50c3"/>
    <path d="M 261.286834 216.214961 
L 253.815117 224.805782 
L 260.710704 222.467966 
L 268.14394 214.648926 
z
" clip-path="url(#pf2ed079c82)" style="fill: #455cce"/>
    <path d="M 302.816786 219.377964 
L 295.695224 227.227078 
L 302.676745 228.828665 
L 309.737338 221.728846 
z
" clip-path="url(#pf2ed079c82)" style="fill: #3b4cc0"/>
    <path d="M 233.395735 220.85106 
L 225.665506 226.354623 
L 232.485679 227.95438 
L 240.170328 218.516019 
z
" clip-path="url(#pf2ed079c82)" style="fill: #3d50c3"/>
    <path d="M 268.14394 214.648926 
L 260.710704 222.467966 
L 267.593562 227.211592 
L 275.002958 216.993385 
z
" clip-path="url(#pf2ed079c82)" style="fill: #485fd1"/>
    <path d="M 309.737338 221.728846 
L 302.676745 228.828665 
L 309.742399 228.073074 
L 316.705127 223.307225 
z
" clip-path="url(#pf2ed079c82)" style="fill: #3c4ec2"/>
    <path d="M 240.170328 218.516019 
L 232.485679 227.95438 
L 239.337412 228.773439 
L 246.982121 220.871964 
z
" clip-path="url(#pf2ed079c82)" style="fill: #4055c8"/>
    <path d="M 275.002958 216.993385 
L 267.593562 227.211592 
L 274.571945 224.870891 
L 281.890215 219.347497 
z
" clip-path="url(#pf2ed079c82)" style="fill: #465ecf"/>
    <path d="M 178.614454 117.308717 
L 170.397666 127.194877 
L 177.745075 160.161021 
L 185.720485 142.488061 
z
" clip-path="url(#pf2ed079c82)" style="fill: #ec7f63"/>
    <path d="M 246.982121 220.871964 
L 239.337412 228.773439 
L 246.226028 228.806374 
L 253.815117 224.805782 
z
" clip-path="url(#pf2ed079c82)" style="fill: #3f53c6"/>
    <path d="M 316.705127 223.307225 
L 309.742399 228.073074 
L 316.813348 228.894855 
L 323.705046 224.892883 
z
" clip-path="url(#pf2ed079c82)" style="fill: #3e51c5"/>
    <path d="M 184.879554 186.332283 
L 176.766388 197.508965 
L 183.307539 188.261968 
L 191.535112 185.055192 
z
" clip-path="url(#pf2ed079c82)" style="fill: #aec9fc"/>
    <path d="M 281.890215 219.347497 
L 274.571945 224.870891 
L 281.486494 231.220584 
L 288.745885 225.632873 
z
" clip-path="url(#pf2ed079c82)" style="fill: #4257c9"/>
    <path d="M 205.220344 205.512043 
L 197.200814 213.691199 
L 204.106335 224.783067 
L 212.078733 218.476849 
z
" clip-path="url(#pf2ed079c82)" style="fill: #5d7ce6"/>
    <path d="M 198.405688 197.265101 
L 190.35362 206.961198 
L 197.200814 213.691199 
L 205.220344 205.512043 
z
" clip-path="url(#pf2ed079c82)" style="fill: #7b9ff9"/>
    <path d="M 212.078733 218.476849 
L 204.106335 224.783067 
L 210.939123 228.762141 
L 218.861438 222.409543 
z
" clip-path="url(#pf2ed079c82)" style="fill: #465ecf"/>
    <path d="M 177.745075 160.161021 
L 169.507956 169.988429 
L 176.766388 197.508965 
L 184.879554 186.332283 
z
" clip-path="url(#pf2ed079c82)" style="fill: #cdd9ec"/>
    <path d="M 191.535112 185.055192 
L 183.307539 188.261968 
L 190.35362 206.961198 
L 198.405688 197.265101 
z
" clip-path="url(#pf2ed079c82)" style="fill: #a1c0ff"/>
    <path d="M 288.745885 225.632873 
L 281.486494 231.220584 
L 288.497073 232.051944 
L 295.695224 227.227078 
z
" clip-path="url(#pf2ed079c82)" style="fill: #3b4cc0"/>
    <path d="M 218.861438 222.409543 
L 210.939123 228.762141 
L 217.799065 233.544434 
L 225.665506 226.354623 
z
" clip-path="url(#pf2ed079c82)" style="fill: #3e51c5"/>
    <path d="M 253.815117 224.805782 
L 246.226028 228.806374 
L 253.143688 231.216027 
L 260.710704 222.467966 
z
" clip-path="url(#pf2ed079c82)" style="fill: #4257c9"/>
    <path d="M 225.665506 226.354623 
L 217.799065 233.544434 
L 224.658732 234.383433 
L 232.485679 227.95438 
z
" clip-path="url(#pf2ed079c82)" style="fill: #3b4cc0"/>
    <path d="M 295.695224 227.227078 
L 288.497073 232.051944 
L 295.51624 234.472971 
L 302.676745 228.828665 
z
" clip-path="url(#pf2ed079c82)" style="fill: #3b4cc0"/>
    <path d="M 260.710704 222.467966 
L 253.143688 231.216027 
L 260.085217 234.428199 
L 267.593562 227.211592 
z
" clip-path="url(#pf2ed079c82)" style="fill: #4055c8"/>
    <path d="M 232.485679 227.95438 
L 224.658732 234.383433 
L 231.553962 235.226781 
L 239.337412 228.773439 
z
" clip-path="url(#pf2ed079c82)" style="fill: #3d50c3"/>
    <path d="M 302.676745 228.828665 
L 295.51624 234.472971 
L 302.611689 234.52233 
L 309.742399 228.073074 
z
" clip-path="url(#pf2ed079c82)" style="fill: #3d50c3"/>
    <path d="M 267.593562 227.211592 
L 260.085217 234.428199 
L 267.086323 233.682741 
L 274.571945 224.870891 
z
" clip-path="url(#pf2ed079c82)" style="fill: #4257c9"/>
    <path d="M 170.397666 127.194877 
L 161.953139 133.132672 
L 169.507956 169.988429 
L 177.745075 160.161021 
z
" clip-path="url(#pf2ed079c82)" style="fill: #f4987a"/>
    <path d="M 176.766388 197.508965 
L 168.387237 202.460013 
L 175.137765 202.820045 
L 183.307539 188.261968 
z
" clip-path="url(#pf2ed079c82)" style="fill: #a5c3fe"/>
    <path d="M 197.200814 213.691199 
L 189.022824 220.814745 
L 196.028884 234.38764 
L 204.106335 224.783067 
z
" clip-path="url(#pf2ed079c82)" style="fill: #5875e1"/>
    <path d="M 190.35362 206.961198 
L 182.148168 215.617748 
L 189.022824 220.814745 
L 197.200814 213.691199 
z
" clip-path="url(#pf2ed079c82)" style="fill: #7396f5"/>
    <path d="M 169.507956 169.988429 
L 161.059047 176.731022 
L 168.387237 202.460013 
L 176.766388 197.508965 
z
" clip-path="url(#pf2ed079c82)" style="fill: #c6d6f1"/>
    <path d="M 239.337412 228.773439 
L 231.553962 235.226781 
L 238.484397 234.481908 
L 246.226028 228.806374 
z
" clip-path="url(#pf2ed079c82)" style="fill: #4055c8"/>
    <path d="M 309.742399 228.073074 
L 302.611689 234.52233 
L 309.712669 236.164735 
L 316.813348 228.894855 
z
" clip-path="url(#pf2ed079c82)" style="fill: #4055c8"/>
    <path d="M 274.571945 224.870891 
L 267.086323 233.682741 
L 274.096557 236.119622 
L 281.486494 231.220584 
z
" clip-path="url(#pf2ed079c82)" style="fill: #4358cb"/>
    <path d="M 183.307539 188.261968 
L 175.137765 202.820045 
L 182.148168 215.617748 
L 190.35362 206.961198 
z
" clip-path="url(#pf2ed079c82)" style="fill: #96b7ff"/>
    <path d="M 204.106335 224.783067 
L 196.028884 234.38764 
L 202.84127 232.84277 
L 210.939123 228.762141 
z
" clip-path="url(#pf2ed079c82)" style="fill: #465ecf"/>
    <path d="M 281.486494 231.220584 
L 274.096557 236.119622 
L 281.136299 238.56676 
L 288.497073 232.051944 
z
" clip-path="url(#pf2ed079c82)" style="fill: #3e51c5"/>
    <path d="M 210.939123 228.762141 
L 202.84127 232.84277 
L 209.774546 239.272775 
L 217.799065 233.544434 
z
" clip-path="url(#pf2ed079c82)" style="fill: #4055c8"/>
    <path d="M 246.226028 228.806374 
L 238.484397 234.481908 
L 245.449374 238.521399 
L 253.143688 231.216027 
z
" clip-path="url(#pf2ed079c82)" style="fill: #4257c9"/>
    <path d="M 217.799065 233.544434 
L 209.774546 239.272775 
L 216.67351 239.336208 
L 224.658732 234.383433 
z
" clip-path="url(#pf2ed079c82)" style="fill: #3c4ec2"/>
    <path d="M 288.497073 232.051944 
L 281.136299 238.56676 
L 288.205737 241.024221 
L 295.51624 234.472971 
z
" clip-path="url(#pf2ed079c82)" style="fill: #3d50c3"/>
    <path d="M 253.143688 231.216027 
L 245.449374 238.521399 
L 252.44627 240.180371 
L 260.085217 234.428199 
z
" clip-path="url(#pf2ed079c82)" style="fill: #3e51c5"/>
    <path d="M 161.953139 133.132672 
L 153.481912 144.143164 
L 161.059047 176.731022 
L 169.507956 169.988429 
z
" clip-path="url(#pf2ed079c82)" style="fill: #f6a385"/>
    <path d="M 295.51624 234.472971 
L 288.205737 241.024221 
L 295.332956 241.892983 
L 302.611689 234.52233 
z
" clip-path="url(#pf2ed079c82)" style="fill: #3d50c3"/>
    <path d="M 224.658732 234.383433 
L 216.67351 239.336208 
L 223.612071 239.400005 
L 231.553962 235.226781 
z
" clip-path="url(#pf2ed079c82)" style="fill: #3f53c6"/>
    <path d="M 260.085217 234.428199 
L 252.44627 240.180371 
L 259.486177 240.246579 
L 267.086323 233.682741 
z
" clip-path="url(#pf2ed079c82)" style="fill: #3f53c6"/>
    <path d="M 182.148168 215.617748 
L 173.908343 229.640755 
L 180.739558 230.480108 
L 189.022824 220.814745 
z
" clip-path="url(#pf2ed079c82)" style="fill: #6687ed"/>
    <path d="M 168.387237 202.460013 
L 159.854463 207.911594 
L 166.646796 208.29008 
L 175.137765 202.820045 
z
" clip-path="url(#pf2ed079c82)" style="fill: #9fbfff"/>
    <path d="M 175.137765 202.820045 
L 166.646796 208.29008 
L 173.908343 229.640755 
L 182.148168 215.617748 
z
" clip-path="url(#pf2ed079c82)" style="fill: #85a8fc"/>
    <path d="M 189.022824 220.814745 
L 180.739558 230.480108 
L 187.724589 238.553116 
L 196.028884 234.38764 
z
" clip-path="url(#pf2ed079c82)" style="fill: #5470de"/>
    <path d="M 161.059047 176.731022 
L 152.488011 184.823164 
L 159.854463 207.911594 
L 168.387237 202.460013 
z
" clip-path="url(#pf2ed079c82)" style="fill: #c5d6f2"/>
    <path d="M 302.611689 234.52233 
L 295.332956 241.892983 
L 302.465997 244.369145 
L 309.712669 236.164735 
z
" clip-path="url(#pf2ed079c82)" style="fill: #3e51c5"/>
    <path d="M 231.553962 235.226781 
L 223.612071 239.400005 
L 230.602104 243.475915 
L 238.484397 234.481908 
z
" clip-path="url(#pf2ed079c82)" style="fill: #4257c9"/>
    <path d="M 267.086323 233.682741 
L 259.486177 240.246579 
L 266.54635 242.720336 
L 274.096557 236.119622 
z
" clip-path="url(#pf2ed079c82)" style="fill: #4257c9"/>
    <path d="M 196.028884 234.38764 
L 187.724589 238.553116 
L 194.657922 242.628418 
L 202.84127 232.84277 
z
" clip-path="url(#pf2ed079c82)" style="fill: #455cce"/>
    <path d="M 202.84127 232.84277 
L 194.657922 242.628418 
L 201.604084 245.914744 
L 209.774546 239.272775 
z
" clip-path="url(#pf2ed079c82)" style="fill: #4055c8"/>
    <path d="M 238.484397 234.481908 
L 230.602104 243.475915 
L 237.612604 244.355361 
L 245.449374 238.521399 
z
" clip-path="url(#pf2ed079c82)" style="fill: #4055c8"/>
    <path d="M 274.096557 236.119622 
L 266.54635 242.720336 
L 273.666466 242.39211 
L 281.136299 238.56676 
z
" clip-path="url(#pf2ed079c82)" style="fill: #4257c9"/>
    <path d="M 209.774546 239.272775 
L 201.604084 245.914744 
L 208.568416 248.410146 
L 216.67351 239.336208 
z
" clip-path="url(#pf2ed079c82)" style="fill: #3c4ec2"/>
    <path d="M 245.449374 238.521399 
L 237.612604 244.355361 
L 244.657592 246.848867 
L 252.44627 240.180371 
z
" clip-path="url(#pf2ed079c82)" style="fill: #3e51c5"/>
    <path d="M 281.136299 238.56676 
L 273.666466 242.39211 
L 280.777628 246.09076 
L 288.205737 241.024221 
z
" clip-path="url(#pf2ed079c82)" style="fill: #4055c8"/>
    <path d="M 153.481912 144.143164 
L 144.793622 152.420697 
L 152.488011 184.823164 
L 161.059047 176.731022 
z
" clip-path="url(#pf2ed079c82)" style="fill: #f7ad90"/>
    <path d="M 288.205737 241.024221 
L 280.777628 246.09076 
L 287.907633 250.204944 
L 295.332956 241.892983 
z
" clip-path="url(#pf2ed079c82)" style="fill: #3d50c3"/>
    <path d="M 216.67351 239.336208 
L 208.568416 248.410146 
L 215.531778 246.888442 
L 223.612071 239.400005 
z
" clip-path="url(#pf2ed079c82)" style="fill: #4055c8"/>
    <path d="M 252.44627 240.180371 
L 244.657592 246.848867 
L 251.73872 247.741426 
L 259.486177 240.246579 
z
" clip-path="url(#pf2ed079c82)" style="fill: #3f53c6"/>
    <path d="M 173.908343 229.640755 
L 165.411694 237.824875 
L 172.247584 237.075954 
L 180.739558 230.480108 
z
" clip-path="url(#pf2ed079c82)" style="fill: #5b7ae5"/>
    <path d="M 166.646796 208.29008 
L 157.927748 211.416467 
L 165.411694 237.824875 
L 173.908343 229.640755 
z
" clip-path="url(#pf2ed079c82)" style="fill: #80a3fa"/>
    <path d="M 152.488011 184.823164 
L 144.17776 206.973226 
L 151.03201 208.985899 
L 159.854463 207.911594 
z
" clip-path="url(#pf2ed079c82)" style="fill: #bcd2f7"/>
    <path d="M 180.739558 230.480108 
L 172.247584 237.075954 
L 179.280533 244.420439 
L 187.724589 238.553116 
z
" clip-path="url(#pf2ed079c82)" style="fill: #5470de"/>
    <path d="M 159.854463 207.911594 
L 151.03201 208.985899 
L 157.927748 211.416467 
L 166.646796 208.29008 
z
" clip-path="url(#pf2ed079c82)" style="fill: #a9c6fd"/>
    <path d="M 295.332956 241.892983 
L 287.907633 250.204944 
L 295.117072 251.108128 
L 302.465997 244.369145 
z
" clip-path="url(#pf2ed079c82)" style="fill: #3c4ec2"/>
    <path d="M 223.612071 239.400005 
L 215.531778 246.888442 
L 222.56894 250.207233 
L 230.602104 243.475915 
z
" clip-path="url(#pf2ed079c82)" style="fill: #4055c8"/>
    <path d="M 259.486177 240.246579 
L 251.73872 247.741426 
L 258.852512 249.446619 
L 266.54635 242.720336 
z
" clip-path="url(#pf2ed079c82)" style="fill: #4055c8"/>
    <path d="M 187.724589 238.553116 
L 179.280533 244.420439 
L 186.267803 248.545121 
L 194.657922 242.628418 
z
" clip-path="url(#pf2ed079c82)" style="fill: #455cce"/>
    <path d="M 194.657922 242.628418 
L 186.267803 248.545121 
L 193.277918 252.68329 
L 201.604084 245.914744 
z
" clip-path="url(#pf2ed079c82)" style="fill: #3e51c5"/>
    <path d="M 230.602104 243.475915 
L 222.56894 250.207233 
L 229.630112 252.730431 
L 237.612604 244.355361 
z
" clip-path="url(#pf2ed079c82)" style="fill: #3e51c5"/>
    <path d="M 266.54635 242.720336 
L 258.852512 249.446619 
L 266.020525 248.730534 
L 273.666466 242.39211 
z
" clip-path="url(#pf2ed079c82)" style="fill: #445acc"/>
    <path d="M 144.793622 152.420697 
L 136.151101 167.102605 
L 144.17776 206.973226 
L 152.488011 184.823164 
z
" clip-path="url(#pf2ed079c82)" style="fill: #f4c5ad"/>
    <path d="M 201.604084 245.914744 
L 193.277918 252.68329 
L 200.205088 248.322325 
L 208.568416 248.410146 
z
" clip-path="url(#pf2ed079c82)" style="fill: #3f53c6"/>
    <path d="M 237.612604 244.355361 
L 229.630112 252.730431 
L 236.718529 252.023454 
L 244.657592 246.848867 
z
" clip-path="url(#pf2ed079c82)" style="fill: #3f53c6"/>
    <path d="M 273.666466 242.39211 
L 266.020525 248.730534 
L 273.174251 253.692124 
L 280.777628 246.09076 
z
" clip-path="url(#pf2ed079c82)" style="fill: #4358cb"/>
    <path d="M 280.777628 246.09076 
L 273.174251 253.692124 
L 280.368573 257.046345 
L 287.907633 250.204944 
z
" clip-path="url(#pf2ed079c82)" style="fill: #3c4ec2"/>
    <path d="M 244.657592 246.848867 
L 236.718529 252.023454 
L 243.848919 253.75164 
L 251.73872 247.741426 
z
" clip-path="url(#pf2ed079c82)" style="fill: #4055c8"/>
    <path d="M 208.568416 248.410146 
L 200.205088 248.322325 
L 207.300813 254.516514 
L 215.531778 246.888442 
z
" clip-path="url(#pf2ed079c82)" style="fill: #4358cb"/>
    <path d="M 287.907633 250.204944 
L 280.368573 257.046345 
L 287.651632 256.34984 
L 295.117072 251.108128 
z
" clip-path="url(#pf2ed079c82)" style="fill: #3c4ec2"/>
    <path d="M 215.531778 246.888442 
L 207.300813 254.516514 
L 214.368515 255.44048 
L 222.56894 250.207233 
z
" clip-path="url(#pf2ed079c82)" style="fill: #4055c8"/>
    <path d="M 251.73872 247.741426 
L 243.848919 253.75164 
L 251.008016 257.115579 
L 258.852512 249.446619 
z
" clip-path="url(#pf2ed079c82)" style="fill: #4055c8"/>
    <path d="M 222.56894 250.207233 
L 214.368515 255.44048 
L 221.46471 254.736526 
L 229.630112 252.730431 
z
" clip-path="url(#pf2ed079c82)" style="fill: #4257c9"/>
    <path d="M 258.852512 249.446619 
L 251.008016 257.115579 
L 258.20865 258.048574 
L 266.020525 248.730534 
z
" clip-path="url(#pf2ed079c82)" style="fill: #4257c9"/>
    <path d="M 229.630112 252.730431 
L 221.46471 254.736526 
L 228.629427 260.57183 
L 236.718529 252.023454 
z
" clip-path="url(#pf2ed079c82)" style="fill: #4257c9"/>
    <path d="M 266.020525 248.730534 
L 258.20865 258.048574 
L 265.461248 257.351403 
L 273.174251 253.692124 
z
" clip-path="url(#pf2ed079c82)" style="fill: #445acc"/>
    <path d="M 273.174251 253.692124 
L 265.461248 257.351403 
L 272.700788 262.38513 
L 280.368573 257.046345 
z
" clip-path="url(#pf2ed079c82)" style="fill: #3f53c6"/>
    <path d="M 236.718529 252.023454 
L 228.629427 260.57183 
L 235.802329 259.881291 
L 243.848919 253.75164 
z
" clip-path="url(#pf2ed079c82)" style="fill: #4358cb"/>
    <path d="M 280.368573 257.046345 
L 272.700788 262.38513 
L 280.002295 264.158792 
L 287.651632 256.34984 
z
" clip-path="url(#pf2ed079c82)" style="fill: #3d50c3"/>
    <path d="M 243.848919 253.75164 
L 235.802329 259.881291 
L 243.014694 265.747926 
L 251.008016 257.115579 
z
" clip-path="url(#pf2ed079c82)" style="fill: #3f53c6"/>
    <path d="M 251.008016 257.115579 
L 243.014694 265.747926 
L 250.257195 267.533107 
L 258.20865 258.048574 
z
" clip-path="url(#pf2ed079c82)" style="fill: #3c4ec2"/>
    <path d="M 258.20865 258.048574 
L 250.257195 267.533107 
L 257.572275 262.740649 
L 265.461248 257.351403 
z
" clip-path="url(#pf2ed079c82)" style="fill: #445acc"/>
    <path d="M 265.461248 257.351403 
L 257.572275 262.740649 
L 264.868607 268.658451 
L 272.700788 262.38513 
z
" clip-path="url(#pf2ed079c82)" style="fill: #455cce"/>
    <path d="M 272.700788 262.38513 
L 264.868607 268.658451 
L 272.224214 270.465408 
L 280.002295 264.158792 
z
" clip-path="url(#pf2ed079c82)" style="fill: #3f53c6"/>
   </g>
  </g>
 </g>
 <defs>
  <clipPath id="pf2ed079c82">
   <rect x="103.104" y="41.472" width="266.112" height="266.112"/>
  </clipPath>
 </defs>
</svg>
