<?xml version="1.0" encoding="utf-8" standalone="no"?>
<!DOCTYPE svg PUBLIC "-//W3C//DTD SVG 1.1//EN"
  "http://www.w3.org/Graphics/SVG/1.1/DTD/svg11.dtd">
<svg xmlns:xlink="http://www.w3.org/1999/xlink" width="460.8pt" height="345.6pt" viewBox="0 0 460.8 345.6" xmlns="http://www.w3.org/2000/svg" version="1.1">
 <metadata>
  <rdf:RDF xmlns:dc="http://purl.org/dc/elements/1.1/" xmlns:cc="http://creativecommons.org/ns#" xmlns:rdf="http://www.w3.org/1999/02/22-rdf-syntax-ns#">
   <cc:Work>
    <dc:type rdf:resource="http://purl.org/dc/dcmitype/StillImage"/>
    <dc:date>2023-12-04T10:14:05.678619</dc:date>
    <dc:format>image/svg+xml</dc:format>
    <dc:creator>
     <cc:Agent>
      <dc:title>Matplotlib v3.8.0, https://matplotlib.org/</dc:title>
     </cc:Agent>
    </dc:creator>
   </cc:Work>
  </rdf:RDF>
 </metadata>
 <defs>
  <style type="text/css">*{stroke-linejoin: round; stroke-linecap: butt}</style>
 </defs>
 <g id="figure_1">
  <g id="patch_1">
   <path d="M 0 345.6 
L 460.8 345.6 
L 460.8 0 
L 0 0 
z
" style="fill: #ffffff"/>
  </g>
  <g id="patch_2">
   <path d="M 103.104 307.584 
L 369.216 307.584 
L 369.216 41.472 
L 103.104 41.472 
z
" style="fill: #ffffff"/>
  </g>
  <g id="pane3d_1">
   <g id="patch_3">
    <path d="M 228.857787 151.211265 
L 356.342478 213.495009 
L 362.758341 111.332967 
L 228.292747 51.731775 
" style="fill: #f2f2f2; opacity: 0.5; stroke: #f2f2f2; stroke-linejoin: miter"/>
   </g>
  </g>
  <g id="pane3d_2">
   <g id="patch_4">
    <path d="M 228.857787 151.211265 
L 121.660226 228.153516 
L 115.072453 125.412634 
L 228.292747 51.731775 
" style="fill: #e6e6e6; opacity: 0.5; stroke: #e6e6e6; stroke-linejoin: miter"/>
   </g>
  </g>
  <g id="pane3d_3">
   <g id="patch_5">
    <path d="M 228.857787 151.211265 
L 121.660226 228.153516 
L 252.170289 300.018966 
L 356.342478 213.495009 
" style="fill: #ececec; opacity: 0.5; stroke: #ececec; stroke-linejoin: miter"/>
   </g>
  </g>
  <g id="grid3d_1">
   <g id="Line3DCollection_1">
    <path d="M 351.276546 217.7027 
L 223.623883 154.967958 
L 222.784393 55.31647 
" style="fill: none; stroke: #b0b0b0; stroke-width: 0.8"/>
    <path d="M 328.512374 236.610302 
L 200.131298 171.830024 
L 198.035201 71.422609 
" style="fill: none; stroke: #b0b0b0; stroke-width: 0.8"/>
    <path d="M 304.977842 256.157754 
L 175.888995 189.230209 
L 172.453705 88.070389 
" style="fill: none; stroke: #b0b0b0; stroke-width: 0.8"/>
    <path d="M 280.633172 276.378095 
L 150.860503 207.19469 
L 145.997203 105.287601 
" style="fill: none; stroke: #b0b0b0; stroke-width: 0.8"/>
    <path d="M 255.435802 297.306676 
L 125.006946 225.75137 
L 118.620019 123.103969 
" style="fill: none; stroke: #b0b0b0; stroke-width: 0.8"/>
   </g>
  </g>
  <g id="grid3d_2">
   <g id="Line3DCollection_2">
    <path d="M 233.294753 53.948889 
L 233.613931 153.53492 
L 126.509611 230.823833 
" style="fill: none; stroke: #b0b0b0; stroke-width: 0.8"/>
    <path d="M 248.82992 60.834773 
L 248.378676 160.748364 
L 141.573466 239.118755 
" style="fill: none; stroke: #b0b0b0; stroke-width: 0.8"/>
    <path d="M 264.586631 67.818855 
L 263.343436 168.059526 
L 156.856312 247.534264 
" style="fill: none; stroke: #b0b0b0; stroke-width: 0.8"/>
    <path d="M 280.569659 74.903251 
L 278.512303 175.470406 
L 172.36296 256.073009 
" style="fill: none; stroke: #b0b0b0; stroke-width: 0.8"/>
    <path d="M 296.783915 82.090138 
L 293.889481 182.983059 
L 188.09836 264.737718 
" style="fill: none; stroke: #b0b0b0; stroke-width: 0.8"/>
    <path d="M 313.234452 89.381755 
L 309.479291 190.599595 
L 204.067614 273.531198 
" style="fill: none; stroke: #b0b0b0; stroke-width: 0.8"/>
    <path d="M 329.926475 96.780409 
L 325.286173 198.322184 
L 220.275973 282.456341 
" style="fill: none; stroke: #b0b0b0; stroke-width: 0.8"/>
    <path d="M 346.86534 104.288475 
L 341.314695 206.153056 
L 236.728848 291.516127 
" style="fill: none; stroke: #b0b0b0; stroke-width: 0.8"/>
   </g>
  </g>
  <g id="grid3d_3">
   <g id="Line3DCollection_3">
    <path d="M 121.5353 226.205208 
L 228.847033 149.317877 
L 356.464229 211.556322 
" style="fill: none; stroke: #b0b0b0; stroke-width: 0.8"/>
    <path d="M 120.625678 212.019036 
L 228.768773 135.539697 
L 357.350634 197.441788 
" style="fill: none; stroke: #b0b0b0; stroke-width: 0.8"/>
    <path d="M 119.701951 197.612867 
L 228.689382 121.562404 
L 358.250606 183.111211 
" style="fill: none; stroke: #b0b0b0; stroke-width: 0.8"/>
    <path d="M 118.763787 182.981543 
L 228.608836 107.381651 
L 359.16446 168.559594 
" style="fill: none; stroke: #b0b0b0; stroke-width: 0.8"/>
    <path d="M 117.810844 168.119746 
L 228.527109 92.992963 
L 360.092519 153.781782 
" style="fill: none; stroke: #b0b0b0; stroke-width: 0.8"/>
    <path d="M 116.842772 153.021985 
L 228.444174 78.391732 
L 361.035118 138.77246 
" style="fill: none; stroke: #b0b0b0; stroke-width: 0.8"/>
    <path d="M 115.859206 137.682596 
L 228.360006 63.573215 
L 361.992599 123.526145 
" style="fill: none; stroke: #b0b0b0; stroke-width: 0.8"/>
   </g>
  </g>
  <g id="axis3d_1">
   <g id="line2d_1">
    <path d="M 356.342478 213.495009 
L 252.170289 300.018966 
" style="fill: none; stroke: #000000; stroke-width: 0.8; stroke-linecap: square"/>
   </g>
   <g id="xtick_1">
    <g id="line2d_2">
     <path d="M 350.196157 217.171744 
L 353.440358 218.766103 
" style="fill: none; stroke: #000000; stroke-width: 0.8; stroke-linecap: square"/>
    </g>
    <g id="text_1">
     <!-- 0 -->
     <g transform="translate(358.826843 238.863487) scale(0.1 -0.1)">
      <defs>
       <path id="DejaVuSans-30" d="M 2034 4250 
Q 1547 4250 1301 3770 
Q 1056 3291 1056 2328 
Q 1056 1369 1301 889 
Q 1547 409 2034 409 
Q 2525 409 2770 889 
Q 3016 1369 3016 2328 
Q 3016 3291 2770 3770 
Q 2525 4250 2034 4250 
z
M 2034 4750 
Q 2819 4750 3233 4129 
Q 3647 3509 3647 2328 
Q 3647 1150 3233 529 
Q 2819 -91 2034 -91 
Q 1250 -91 836 529 
Q 422 1150 422 2328 
Q 422 3509 836 4129 
Q 1250 4750 2034 4750 
z
" transform="scale(0.015625)"/>
      </defs>
      <use xlink:href="#DejaVuSans-30"/>
     </g>
    </g>
   </g>
   <g id="xtick_2">
    <g id="line2d_3">
     <path d="M 327.42483 236.061535 
L 330.690566 237.709404 
" style="fill: none; stroke: #000000; stroke-width: 0.8; stroke-linecap: square"/>
    </g>
    <g id="text_2">
     <!-- 50 -->
     <g transform="translate(333.048395 258.006567) scale(0.1 -0.1)">
      <defs>
       <path id="DejaVuSans-35" d="M 691 4666 
L 3169 4666 
L 3169 4134 
L 1269 4134 
L 1269 2991 
Q 1406 3038 1543 3061 
Q 1681 3084 1819 3084 
Q 2600 3084 3056 2656 
Q 3513 2228 3513 1497 
Q 3513 744 3044 326 
Q 2575 -91 1722 -91 
Q 1428 -91 1123 -41 
Q 819 9 494 109 
L 494 744 
Q 775 591 1075 516 
Q 1375 441 1709 441 
Q 2250 441 2565 725 
Q 2881 1009 2881 1497 
Q 2881 1984 2565 2268 
Q 2250 2553 1709 2553 
Q 1456 2553 1204 2497 
Q 953 2441 691 2322 
L 691 4666 
z
" transform="scale(0.015625)"/>
      </defs>
      <use xlink:href="#DejaVuSans-35"/>
      <use xlink:href="#DejaVuSans-30" x="63.623047"/>
     </g>
    </g>
   </g>
   <g id="xtick_3">
    <g id="line2d_4">
     <path d="M 303.883273 255.590263 
L 307.170156 257.294384 
" style="fill: none; stroke: #000000; stroke-width: 0.8; stroke-linecap: square"/>
    </g>
    <g id="text_3">
     <!-- 100 -->
     <g transform="translate(306.504838 277.797804) scale(0.1 -0.1)">
      <defs>
       <path id="DejaVuSans-31" d="M 794 531 
L 1825 531 
L 1825 4091 
L 703 3866 
L 703 4441 
L 1819 4666 
L 2450 4666 
L 2450 531 
L 3481 531 
L 3481 0 
L 794 0 
L 794 531 
z
" transform="scale(0.015625)"/>
      </defs>
      <use xlink:href="#DejaVuSans-31"/>
      <use xlink:href="#DejaVuSans-30" x="63.623047"/>
      <use xlink:href="#DejaVuSans-30" x="127.246094"/>
     </g>
    </g>
   </g>
   <g id="xtick_4">
    <g id="line2d_5">
     <path d="M 279.531736 275.790905 
L 282.839298 277.554207 
" style="fill: none; stroke: #000000; stroke-width: 0.8; stroke-linecap: square"/>
    </g>
    <g id="text_4">
     <!-- 150 -->
     <g transform="translate(282.337896 298.270683) scale(0.1 -0.1)">
      <use xlink:href="#DejaVuSans-31"/>
      <use xlink:href="#DejaVuSans-35" x="63.623047"/>
      <use xlink:href="#DejaVuSans-30" x="127.246094"/>
     </g>
    </g>
   </g>
   <g id="xtick_5">
    <g id="line2d_6">
     <path d="M 254.327683 296.698745 
L 257.655369 298.524365 
" style="fill: none; stroke: #000000; stroke-width: 0.8; stroke-linecap: square"/>
    </g>
    <g id="text_5">
     <!-- 200 -->
     <g transform="translate(257.324022 319.461037) scale(0.1 -0.1)">
      <defs>
       <path id="DejaVuSans-32" d="M 1228 531 
L 3431 531 
L 3431 0 
L 469 0 
L 469 531 
Q 828 903 1448 1529 
Q 2069 2156 2228 2338 
Q 2531 2678 2651 2914 
Q 2772 3150 2772 3378 
Q 2772 3750 2511 3984 
Q 2250 4219 1831 4219 
Q 1534 4219 1204 4116 
Q 875 4013 500 3803 
L 500 4441 
Q 881 4594 1212 4672 
Q 1544 4750 1819 4750 
Q 2544 4750 2975 4387 
Q 3406 4025 3406 3419 
Q 3406 3131 3298 2873 
Q 3191 2616 2906 2266 
Q 2828 2175 2409 1742 
Q 1991 1309 1228 531 
z
" transform="scale(0.015625)"/>
      </defs>
      <use xlink:href="#DejaVuSans-32"/>
      <use xlink:href="#DejaVuSans-30" x="63.623047"/>
      <use xlink:href="#DejaVuSans-30" x="127.246094"/>
     </g>
    </g>
   </g>
   <g id="text_6">
    <!-- Handover Cost -->
    <g transform="translate(303.519061 311.459456) rotate(-39.712546) scale(0.1 -0.1)">
     <defs>
      <path id="DejaVuSans-48" d="M 628 4666 
L 1259 4666 
L 1259 2753 
L 3553 2753 
L 3553 4666 
L 4184 4666 
L 4184 0 
L 3553 0 
L 3553 2222 
L 1259 2222 
L 1259 0 
L 628 0 
L 628 4666 
z
" transform="scale(0.015625)"/>
      <path id="DejaVuSans-61" d="M 2194 1759 
Q 1497 1759 1228 1600 
Q 959 1441 959 1056 
Q 959 750 1161 570 
Q 1363 391 1709 391 
Q 2188 391 2477 730 
Q 2766 1069 2766 1631 
L 2766 1759 
L 2194 1759 
z
M 3341 1997 
L 3341 0 
L 2766 0 
L 2766 531 
Q 2569 213 2275 61 
Q 1981 -91 1556 -91 
Q 1019 -91 701 211 
Q 384 513 384 1019 
Q 384 1609 779 1909 
Q 1175 2209 1959 2209 
L 2766 2209 
L 2766 2266 
Q 2766 2663 2505 2880 
Q 2244 3097 1772 3097 
Q 1472 3097 1187 3025 
Q 903 2953 641 2809 
L 641 3341 
Q 956 3463 1253 3523 
Q 1550 3584 1831 3584 
Q 2591 3584 2966 3190 
Q 3341 2797 3341 1997 
z
" transform="scale(0.015625)"/>
      <path id="DejaVuSans-6e" d="M 3513 2113 
L 3513 0 
L 2938 0 
L 2938 2094 
Q 2938 2591 2744 2837 
Q 2550 3084 2163 3084 
Q 1697 3084 1428 2787 
Q 1159 2491 1159 1978 
L 1159 0 
L 581 0 
L 581 3500 
L 1159 3500 
L 1159 2956 
Q 1366 3272 1645 3428 
Q 1925 3584 2291 3584 
Q 2894 3584 3203 3211 
Q 3513 2838 3513 2113 
z
" transform="scale(0.015625)"/>
      <path id="DejaVuSans-64" d="M 2906 2969 
L 2906 4863 
L 3481 4863 
L 3481 0 
L 2906 0 
L 2906 525 
Q 2725 213 2448 61 
Q 2172 -91 1784 -91 
Q 1150 -91 751 415 
Q 353 922 353 1747 
Q 353 2572 751 3078 
Q 1150 3584 1784 3584 
Q 2172 3584 2448 3432 
Q 2725 3281 2906 2969 
z
M 947 1747 
Q 947 1113 1208 752 
Q 1469 391 1925 391 
Q 2381 391 2643 752 
Q 2906 1113 2906 1747 
Q 2906 2381 2643 2742 
Q 2381 3103 1925 3103 
Q 1469 3103 1208 2742 
Q 947 2381 947 1747 
z
" transform="scale(0.015625)"/>
      <path id="DejaVuSans-6f" d="M 1959 3097 
Q 1497 3097 1228 2736 
Q 959 2375 959 1747 
Q 959 1119 1226 758 
Q 1494 397 1959 397 
Q 2419 397 2687 759 
Q 2956 1122 2956 1747 
Q 2956 2369 2687 2733 
Q 2419 3097 1959 3097 
z
M 1959 3584 
Q 2709 3584 3137 3096 
Q 3566 2609 3566 1747 
Q 3566 888 3137 398 
Q 2709 -91 1959 -91 
Q 1206 -91 779 398 
Q 353 888 353 1747 
Q 353 2609 779 3096 
Q 1206 3584 1959 3584 
z
" transform="scale(0.015625)"/>
      <path id="DejaVuSans-76" d="M 191 3500 
L 800 3500 
L 1894 563 
L 2988 3500 
L 3597 3500 
L 2284 0 
L 1503 0 
L 191 3500 
z
" transform="scale(0.015625)"/>
      <path id="DejaVuSans-65" d="M 3597 1894 
L 3597 1613 
L 953 1613 
Q 991 1019 1311 708 
Q 1631 397 2203 397 
Q 2534 397 2845 478 
Q 3156 559 3463 722 
L 3463 178 
Q 3153 47 2828 -22 
Q 2503 -91 2169 -91 
Q 1331 -91 842 396 
Q 353 884 353 1716 
Q 353 2575 817 3079 
Q 1281 3584 2069 3584 
Q 2775 3584 3186 3129 
Q 3597 2675 3597 1894 
z
M 3022 2063 
Q 3016 2534 2758 2815 
Q 2500 3097 2075 3097 
Q 1594 3097 1305 2825 
Q 1016 2553 972 2059 
L 3022 2063 
z
" transform="scale(0.015625)"/>
      <path id="DejaVuSans-72" d="M 2631 2963 
Q 2534 3019 2420 3045 
Q 2306 3072 2169 3072 
Q 1681 3072 1420 2755 
Q 1159 2438 1159 1844 
L 1159 0 
L 581 0 
L 581 3500 
L 1159 3500 
L 1159 2956 
Q 1341 3275 1631 3429 
Q 1922 3584 2338 3584 
Q 2397 3584 2469 3576 
Q 2541 3569 2628 3553 
L 2631 2963 
z
" transform="scale(0.015625)"/>
      <path id="DejaVuSans-20" transform="scale(0.015625)"/>
      <path id="DejaVuSans-43" d="M 4122 4306 
L 4122 3641 
Q 3803 3938 3442 4084 
Q 3081 4231 2675 4231 
Q 1875 4231 1450 3742 
Q 1025 3253 1025 2328 
Q 1025 1406 1450 917 
Q 1875 428 2675 428 
Q 3081 428 3442 575 
Q 3803 722 4122 1019 
L 4122 359 
Q 3791 134 3420 21 
Q 3050 -91 2638 -91 
Q 1578 -91 968 557 
Q 359 1206 359 2328 
Q 359 3453 968 4101 
Q 1578 4750 2638 4750 
Q 3056 4750 3426 4639 
Q 3797 4528 4122 4306 
z
" transform="scale(0.015625)"/>
      <path id="DejaVuSans-73" d="M 2834 3397 
L 2834 2853 
Q 2591 2978 2328 3040 
Q 2066 3103 1784 3103 
Q 1356 3103 1142 2972 
Q 928 2841 928 2578 
Q 928 2378 1081 2264 
Q 1234 2150 1697 2047 
L 1894 2003 
Q 2506 1872 2764 1633 
Q 3022 1394 3022 966 
Q 3022 478 2636 193 
Q 2250 -91 1575 -91 
Q 1294 -91 989 -36 
Q 684 19 347 128 
L 347 722 
Q 666 556 975 473 
Q 1284 391 1588 391 
Q 1994 391 2212 530 
Q 2431 669 2431 922 
Q 2431 1156 2273 1281 
Q 2116 1406 1581 1522 
L 1381 1569 
Q 847 1681 609 1914 
Q 372 2147 372 2553 
Q 372 3047 722 3315 
Q 1072 3584 1716 3584 
Q 2034 3584 2315 3537 
Q 2597 3491 2834 3397 
z
" transform="scale(0.015625)"/>
      <path id="DejaVuSans-74" d="M 1172 4494 
L 1172 3500 
L 2356 3500 
L 2356 3053 
L 1172 3053 
L 1172 1153 
Q 1172 725 1289 603 
Q 1406 481 1766 481 
L 2356 481 
L 2356 0 
L 1766 0 
Q 1100 0 847 248 
Q 594 497 594 1153 
L 594 3053 
L 172 3053 
L 172 3500 
L 594 3500 
L 594 4494 
L 1172 4494 
z
" transform="scale(0.015625)"/>
     </defs>
     <use xlink:href="#DejaVuSans-48"/>
     <use xlink:href="#DejaVuSans-61" x="75.195312"/>
     <use xlink:href="#DejaVuSans-6e" x="136.474609"/>
     <use xlink:href="#DejaVuSans-64" x="199.853516"/>
     <use xlink:href="#DejaVuSans-6f" x="263.330078"/>
     <use xlink:href="#DejaVuSans-76" x="324.511719"/>
     <use xlink:href="#DejaVuSans-65" x="383.691406"/>
     <use xlink:href="#DejaVuSans-72" x="445.214844"/>
     <use xlink:href="#DejaVuSans-20" x="486.328125"/>
     <use xlink:href="#DejaVuSans-43" x="518.115234"/>
     <use xlink:href="#DejaVuSans-6f" x="587.939453"/>
     <use xlink:href="#DejaVuSans-73" x="649.121094"/>
     <use xlink:href="#DejaVuSans-74" x="701.220703"/>
    </g>
   </g>
  </g>
  <g id="axis3d_2">
   <g id="line2d_7">
    <path d="M 121.660226 228.153516 
L 252.170289 300.018966 
" style="fill: none; stroke: #000000; stroke-width: 0.8; stroke-linecap: square"/>
   </g>
   <g id="xtick_6">
    <g id="line2d_8">
     <path d="M 127.427681 230.161333 
L 124.670289 232.15113 
" style="fill: none; stroke: #000000; stroke-width: 0.8; stroke-linecap: square"/>
    </g>
    <g id="text_7">
     <!-- 0 -->
     <g transform="translate(114.284301 253.402515) scale(0.1 -0.1)">
      <use xlink:href="#DejaVuSans-30"/>
     </g>
    </g>
   </g>
   <g id="xtick_7">
    <g id="line2d_9">
     <path d="M 142.489413 238.446661 
L 139.738376 240.465288 
" style="fill: none; stroke: #000000; stroke-width: 0.8; stroke-linecap: square"/>
    </g>
    <g id="text_8">
     <!-- 25 -->
     <g transform="translate(126.125655 261.818992) scale(0.1 -0.1)">
      <use xlink:href="#DejaVuSans-32"/>
      <use xlink:href="#DejaVuSans-35" x="63.623047"/>
     </g>
    </g>
   </g>
   <g id="xtick_8">
    <g id="line2d_10">
     <path d="M 157.769977 246.852367 
L 155.025772 248.900455 
" style="fill: none; stroke: #000000; stroke-width: 0.8; stroke-linecap: square"/>
    </g>
    <g id="text_9">
     <!-- 50 -->
     <g transform="translate(141.367002 270.358021) scale(0.1 -0.1)">
      <use xlink:href="#DejaVuSans-35"/>
      <use xlink:href="#DejaVuSans-30" x="63.623047"/>
     </g>
    </g>
   </g>
   <g id="xtick_9">
    <g id="line2d_11">
     <path d="M 173.274177 255.381093 
L 170.537299 257.459292 
" style="fill: none; stroke: #000000; stroke-width: 0.8; stroke-linecap: square"/>
    </g>
    <g id="text_10">
     <!-- 75 -->
     <g transform="translate(156.831905 279.022297) scale(0.1 -0.1)">
      <defs>
       <path id="DejaVuSans-37" d="M 525 4666 
L 3525 4666 
L 3525 4397 
L 1831 0 
L 1172 0 
L 2766 4134 
L 525 4134 
L 525 4666 
z
" transform="scale(0.015625)"/>
      </defs>
      <use xlink:href="#DejaVuSans-37"/>
      <use xlink:href="#DejaVuSans-35" x="63.623047"/>
     </g>
    </g>
   </g>
   <g id="xtick_10">
    <g id="line2d_12">
     <path d="M 189.006958 264.03556 
L 186.277925 266.144538 
" style="fill: none; stroke: #000000; stroke-width: 0.8; stroke-linecap: square"/>
    </g>
    <g id="text_11">
     <!-- 100 -->
     <g transform="translate(169.344069 287.814599) scale(0.1 -0.1)">
      <use xlink:href="#DejaVuSans-31"/>
      <use xlink:href="#DejaVuSans-30" x="63.623047"/>
      <use xlink:href="#DejaVuSans-30" x="127.246094"/>
     </g>
    </g>
   </g>
   <g id="xtick_11">
    <g id="line2d_13">
     <path d="M 204.973414 272.818569 
L 202.252761 274.959016 
" style="fill: none; stroke: #000000; stroke-width: 0.8; stroke-linecap: square"/>
    </g>
    <g id="text_12">
     <!-- 125 -->
     <g transform="translate(185.271096 296.737783) scale(0.1 -0.1)">
      <use xlink:href="#DejaVuSans-31"/>
      <use xlink:href="#DejaVuSans-32" x="63.623047"/>
      <use xlink:href="#DejaVuSans-35" x="127.246094"/>
     </g>
    </g>
   </g>
   <g id="xtick_12">
    <g id="line2d_14">
     <path d="M 221.178789 281.733005 
L 218.467074 283.905631 
" style="fill: none; stroke: #000000; stroke-width: 0.8; stroke-linecap: square"/>
    </g>
    <g id="text_13">
     <!-- 150 -->
     <g transform="translate(201.436992 305.794794) scale(0.1 -0.1)">
      <use xlink:href="#DejaVuSans-31"/>
      <use xlink:href="#DejaVuSans-35" x="63.623047"/>
      <use xlink:href="#DejaVuSans-30" x="127.246094"/>
     </g>
    </g>
   </g>
   <g id="xtick_13">
    <g id="line2d_15">
     <path d="M 237.628486 290.781841 
L 234.92629 292.987376 
" style="fill: none; stroke: #000000; stroke-width: 0.8; stroke-linecap: square"/>
    </g>
    <g id="text_14">
     <!-- 175 -->
     <g transform="translate(217.847172 314.988666) scale(0.1 -0.1)">
      <use xlink:href="#DejaVuSans-31"/>
      <use xlink:href="#DejaVuSans-37" x="63.623047"/>
      <use xlink:href="#DejaVuSans-35" x="127.246094"/>
     </g>
    </g>
   </g>
   <g id="text_15">
    <!-- Switching Cost -->
    <g transform="translate(131.176331 281.23787) rotate(-331.160593) scale(0.1 -0.1)">
     <defs>
      <path id="DejaVuSans-53" d="M 3425 4513 
L 3425 3897 
Q 3066 4069 2747 4153 
Q 2428 4238 2131 4238 
Q 1616 4238 1336 4038 
Q 1056 3838 1056 3469 
Q 1056 3159 1242 3001 
Q 1428 2844 1947 2747 
L 2328 2669 
Q 3034 2534 3370 2195 
Q 3706 1856 3706 1288 
Q 3706 609 3251 259 
Q 2797 -91 1919 -91 
Q 1588 -91 1214 -16 
Q 841 59 441 206 
L 441 856 
Q 825 641 1194 531 
Q 1563 422 1919 422 
Q 2459 422 2753 634 
Q 3047 847 3047 1241 
Q 3047 1584 2836 1778 
Q 2625 1972 2144 2069 
L 1759 2144 
Q 1053 2284 737 2584 
Q 422 2884 422 3419 
Q 422 4038 858 4394 
Q 1294 4750 2059 4750 
Q 2388 4750 2728 4690 
Q 3069 4631 3425 4513 
z
" transform="scale(0.015625)"/>
      <path id="DejaVuSans-77" d="M 269 3500 
L 844 3500 
L 1563 769 
L 2278 3500 
L 2956 3500 
L 3675 769 
L 4391 3500 
L 4966 3500 
L 4050 0 
L 3372 0 
L 2619 2869 
L 1863 0 
L 1184 0 
L 269 3500 
z
" transform="scale(0.015625)"/>
      <path id="DejaVuSans-69" d="M 603 3500 
L 1178 3500 
L 1178 0 
L 603 0 
L 603 3500 
z
M 603 4863 
L 1178 4863 
L 1178 4134 
L 603 4134 
L 603 4863 
z
" transform="scale(0.015625)"/>
      <path id="DejaVuSans-63" d="M 3122 3366 
L 3122 2828 
Q 2878 2963 2633 3030 
Q 2388 3097 2138 3097 
Q 1578 3097 1268 2742 
Q 959 2388 959 1747 
Q 959 1106 1268 751 
Q 1578 397 2138 397 
Q 2388 397 2633 464 
Q 2878 531 3122 666 
L 3122 134 
Q 2881 22 2623 -34 
Q 2366 -91 2075 -91 
Q 1284 -91 818 406 
Q 353 903 353 1747 
Q 353 2603 823 3093 
Q 1294 3584 2113 3584 
Q 2378 3584 2631 3529 
Q 2884 3475 3122 3366 
z
" transform="scale(0.015625)"/>
      <path id="DejaVuSans-68" d="M 3513 2113 
L 3513 0 
L 2938 0 
L 2938 2094 
Q 2938 2591 2744 2837 
Q 2550 3084 2163 3084 
Q 1697 3084 1428 2787 
Q 1159 2491 1159 1978 
L 1159 0 
L 581 0 
L 581 4863 
L 1159 4863 
L 1159 2956 
Q 1366 3272 1645 3428 
Q 1925 3584 2291 3584 
Q 2894 3584 3203 3211 
Q 3513 2838 3513 2113 
z
" transform="scale(0.015625)"/>
      <path id="DejaVuSans-67" d="M 2906 1791 
Q 2906 2416 2648 2759 
Q 2391 3103 1925 3103 
Q 1463 3103 1205 2759 
Q 947 2416 947 1791 
Q 947 1169 1205 825 
Q 1463 481 1925 481 
Q 2391 481 2648 825 
Q 2906 1169 2906 1791 
z
M 3481 434 
Q 3481 -459 3084 -895 
Q 2688 -1331 1869 -1331 
Q 1566 -1331 1297 -1286 
Q 1028 -1241 775 -1147 
L 775 -588 
Q 1028 -725 1275 -790 
Q 1522 -856 1778 -856 
Q 2344 -856 2625 -561 
Q 2906 -266 2906 331 
L 2906 616 
Q 2728 306 2450 153 
Q 2172 0 1784 0 
Q 1141 0 747 490 
Q 353 981 353 1791 
Q 353 2603 747 3093 
Q 1141 3584 1784 3584 
Q 2172 3584 2450 3431 
Q 2728 3278 2906 2969 
L 2906 3500 
L 3481 3500 
L 3481 434 
z
" transform="scale(0.015625)"/>
     </defs>
     <use xlink:href="#DejaVuSans-53"/>
     <use xlink:href="#DejaVuSans-77" x="63.476562"/>
     <use xlink:href="#DejaVuSans-69" x="145.263672"/>
     <use xlink:href="#DejaVuSans-74" x="173.046875"/>
     <use xlink:href="#DejaVuSans-63" x="212.255859"/>
     <use xlink:href="#DejaVuSans-68" x="267.236328"/>
     <use xlink:href="#DejaVuSans-69" x="330.615234"/>
     <use xlink:href="#DejaVuSans-6e" x="358.398438"/>
     <use xlink:href="#DejaVuSans-67" x="421.777344"/>
     <use xlink:href="#DejaVuSans-20" x="485.253906"/>
     <use xlink:href="#DejaVuSans-43" x="517.041016"/>
     <use xlink:href="#DejaVuSans-6f" x="586.865234"/>
     <use xlink:href="#DejaVuSans-73" x="648.046875"/>
     <use xlink:href="#DejaVuSans-74" x="700.146484"/>
    </g>
   </g>
  </g>
  <g id="axis3d_3">
   <g id="line2d_16">
    <path d="M 121.660226 228.153516 
L 115.072453 125.412634 
" style="fill: none; stroke: #000000; stroke-width: 0.8; stroke-linecap: square"/>
   </g>
   <g id="xtick_14">
    <g id="line2d_17">
     <path d="M 122.45507 225.546205 
L 119.692576 227.525493 
" style="fill: none; stroke: #000000; stroke-width: 0.8; stroke-linecap: square"/>
    </g>
    <g id="text_16">
     <!-- 0 -->
     <g transform="translate(98.587482 235.036181) scale(0.1 -0.1)">
      <use xlink:href="#DejaVuSans-30"/>
     </g>
    </g>
   </g>
   <g id="xtick_15">
    <g id="line2d_18">
     <path d="M 121.55305 211.363194 
L 118.767703 213.333005 
" style="fill: none; stroke: #000000; stroke-width: 0.8; stroke-linecap: square"/>
    </g>
    <g id="text_17">
     <!-- 10 -->
     <g transform="translate(94.34337 220.844112) scale(0.1 -0.1)">
      <use xlink:href="#DejaVuSans-31"/>
      <use xlink:href="#DejaVuSans-30" x="63.623047"/>
     </g>
    </g>
   </g>
   <g id="xtick_16">
    <g id="line2d_19">
     <path d="M 120.637049 196.960364 
L 117.82847 198.920165 
" style="fill: none; stroke: #000000; stroke-width: 0.8; stroke-linecap: square"/>
    </g>
    <g id="text_18">
     <!-- 20 -->
     <g transform="translate(93.264007 206.431714) scale(0.1 -0.1)">
      <use xlink:href="#DejaVuSans-32"/>
      <use xlink:href="#DejaVuSans-30" x="63.623047"/>
     </g>
    </g>
   </g>
   <g id="xtick_17">
    <g id="line2d_20">
     <path d="M 119.70674 182.332564 
L 116.874541 184.2818 
" style="fill: none; stroke: #000000; stroke-width: 0.8; stroke-linecap: square"/>
    </g>
    <g id="text_19">
     <!-- 30 -->
     <g transform="translate(92.167757 191.793817) scale(0.1 -0.1)">
      <defs>
       <path id="DejaVuSans-33" d="M 2597 2516 
Q 3050 2419 3304 2112 
Q 3559 1806 3559 1356 
Q 3559 666 3084 287 
Q 2609 -91 1734 -91 
Q 1441 -91 1130 -33 
Q 819 25 488 141 
L 488 750 
Q 750 597 1062 519 
Q 1375 441 1716 441 
Q 2309 441 2620 675 
Q 2931 909 2931 1356 
Q 2931 1769 2642 2001 
Q 2353 2234 1838 2234 
L 1294 2234 
L 1294 2753 
L 1863 2753 
Q 2328 2753 2575 2939 
Q 2822 3125 2822 3475 
Q 2822 3834 2567 4026 
Q 2313 4219 1838 4219 
Q 1578 4219 1281 4162 
Q 984 4106 628 3988 
L 628 4550 
Q 988 4650 1302 4700 
Q 1616 4750 1894 4750 
Q 2613 4750 3031 4423 
Q 3450 4097 3450 3541 
Q 3450 3153 3228 2886 
Q 3006 2619 2597 2516 
z
" transform="scale(0.015625)"/>
      </defs>
      <use xlink:href="#DejaVuSans-33"/>
      <use xlink:href="#DejaVuSans-30" x="63.623047"/>
     </g>
    </g>
   </g>
   <g id="xtick_18">
    <g id="line2d_21">
     <path d="M 118.761786 167.474482 
L 115.905567 169.412576 
" style="fill: none; stroke: #000000; stroke-width: 0.8; stroke-linecap: square"/>
    </g>
    <g id="text_20">
     <!-- 40 -->
     <g transform="translate(91.054218 176.925085) scale(0.1 -0.1)">
      <defs>
       <path id="DejaVuSans-34" d="M 2419 4116 
L 825 1625 
L 2419 1625 
L 2419 4116 
z
M 2253 4666 
L 3047 4666 
L 3047 1625 
L 3713 1625 
L 3713 1100 
L 3047 1100 
L 3047 0 
L 2419 0 
L 2419 1100 
L 313 1100 
L 313 1709 
L 2253 4666 
z
" transform="scale(0.015625)"/>
      </defs>
      <use xlink:href="#DejaVuSans-34"/>
      <use xlink:href="#DejaVuSans-30" x="63.623047"/>
     </g>
    </g>
   </g>
   <g id="xtick_19">
    <g id="line2d_22">
     <path d="M 117.801837 152.380637 
L 114.921191 154.306987 
" style="fill: none; stroke: #000000; stroke-width: 0.8; stroke-linecap: square"/>
    </g>
    <g id="text_21">
     <!-- 50 -->
     <g transform="translate(89.922981 161.820016) scale(0.1 -0.1)">
      <use xlink:href="#DejaVuSans-35"/>
      <use xlink:href="#DejaVuSans-30" x="63.623047"/>
     </g>
    </g>
   </g>
   <g id="xtick_20">
    <g id="line2d_23">
     <path d="M 116.826535 137.045373 
L 113.921041 138.959354 
" style="fill: none; stroke: #000000; stroke-width: 0.8; stroke-linecap: square"/>
    </g>
    <g id="text_22">
     <!-- 60 -->
     <g transform="translate(88.773618 146.47293) scale(0.1 -0.1)">
      <defs>
       <path id="DejaVuSans-36" d="M 2113 2584 
Q 1688 2584 1439 2293 
Q 1191 2003 1191 1497 
Q 1191 994 1439 701 
Q 1688 409 2113 409 
Q 2538 409 2786 701 
Q 3034 994 3034 1497 
Q 3034 2003 2786 2293 
Q 2538 2584 2113 2584 
z
M 3366 4563 
L 3366 3988 
Q 3128 4100 2886 4159 
Q 2644 4219 2406 4219 
Q 1781 4219 1451 3797 
Q 1122 3375 1075 2522 
Q 1259 2794 1537 2939 
Q 1816 3084 2150 3084 
Q 2853 3084 3261 2657 
Q 3669 2231 3669 1497 
Q 3669 778 3244 343 
Q 2819 -91 2113 -91 
Q 1303 -91 875 529 
Q 447 1150 447 2328 
Q 447 3434 972 4092 
Q 1497 4750 2381 4750 
Q 2619 4750 2861 4703 
Q 3103 4656 3366 4563 
z
" transform="scale(0.015625)"/>
      </defs>
      <use xlink:href="#DejaVuSans-36"/>
      <use xlink:href="#DejaVuSans-30" x="63.623047"/>
     </g>
    </g>
   </g>
   <g id="text_23">
    <!-- Number of gNB switching -->
    <g transform="translate(67.469152 117.410584) rotate(-273.668798) scale(0.1 -0.1)">
     <defs>
      <path id="DejaVuSans-4e" d="M 628 4666 
L 1478 4666 
L 3547 763 
L 3547 4666 
L 4159 4666 
L 4159 0 
L 3309 0 
L 1241 3903 
L 1241 0 
L 628 0 
L 628 4666 
z
" transform="scale(0.015625)"/>
      <path id="DejaVuSans-75" d="M 544 1381 
L 544 3500 
L 1119 3500 
L 1119 1403 
Q 1119 906 1312 657 
Q 1506 409 1894 409 
Q 2359 409 2629 706 
Q 2900 1003 2900 1516 
L 2900 3500 
L 3475 3500 
L 3475 0 
L 2900 0 
L 2900 538 
Q 2691 219 2414 64 
Q 2138 -91 1772 -91 
Q 1169 -91 856 284 
Q 544 659 544 1381 
z
M 1991 3584 
L 1991 3584 
z
" transform="scale(0.015625)"/>
      <path id="DejaVuSans-6d" d="M 3328 2828 
Q 3544 3216 3844 3400 
Q 4144 3584 4550 3584 
Q 5097 3584 5394 3201 
Q 5691 2819 5691 2113 
L 5691 0 
L 5113 0 
L 5113 2094 
Q 5113 2597 4934 2840 
Q 4756 3084 4391 3084 
Q 3944 3084 3684 2787 
Q 3425 2491 3425 1978 
L 3425 0 
L 2847 0 
L 2847 2094 
Q 2847 2600 2669 2842 
Q 2491 3084 2119 3084 
Q 1678 3084 1418 2786 
Q 1159 2488 1159 1978 
L 1159 0 
L 581 0 
L 581 3500 
L 1159 3500 
L 1159 2956 
Q 1356 3278 1631 3431 
Q 1906 3584 2284 3584 
Q 2666 3584 2933 3390 
Q 3200 3197 3328 2828 
z
" transform="scale(0.015625)"/>
      <path id="DejaVuSans-62" d="M 3116 1747 
Q 3116 2381 2855 2742 
Q 2594 3103 2138 3103 
Q 1681 3103 1420 2742 
Q 1159 2381 1159 1747 
Q 1159 1113 1420 752 
Q 1681 391 2138 391 
Q 2594 391 2855 752 
Q 3116 1113 3116 1747 
z
M 1159 2969 
Q 1341 3281 1617 3432 
Q 1894 3584 2278 3584 
Q 2916 3584 3314 3078 
Q 3713 2572 3713 1747 
Q 3713 922 3314 415 
Q 2916 -91 2278 -91 
Q 1894 -91 1617 61 
Q 1341 213 1159 525 
L 1159 0 
L 581 0 
L 581 4863 
L 1159 4863 
L 1159 2969 
z
" transform="scale(0.015625)"/>
      <path id="DejaVuSans-66" d="M 2375 4863 
L 2375 4384 
L 1825 4384 
Q 1516 4384 1395 4259 
Q 1275 4134 1275 3809 
L 1275 3500 
L 2222 3500 
L 2222 3053 
L 1275 3053 
L 1275 0 
L 697 0 
L 697 3053 
L 147 3053 
L 147 3500 
L 697 3500 
L 697 3744 
Q 697 4328 969 4595 
Q 1241 4863 1831 4863 
L 2375 4863 
z
" transform="scale(0.015625)"/>
      <path id="DejaVuSans-42" d="M 1259 2228 
L 1259 519 
L 2272 519 
Q 2781 519 3026 730 
Q 3272 941 3272 1375 
Q 3272 1813 3026 2020 
Q 2781 2228 2272 2228 
L 1259 2228 
z
M 1259 4147 
L 1259 2741 
L 2194 2741 
Q 2656 2741 2882 2914 
Q 3109 3088 3109 3444 
Q 3109 3797 2882 3972 
Q 2656 4147 2194 4147 
L 1259 4147 
z
M 628 4666 
L 2241 4666 
Q 2963 4666 3353 4366 
Q 3744 4066 3744 3513 
Q 3744 3084 3544 2831 
Q 3344 2578 2956 2516 
Q 3422 2416 3680 2098 
Q 3938 1781 3938 1306 
Q 3938 681 3513 340 
Q 3088 0 2303 0 
L 628 0 
L 628 4666 
z
" transform="scale(0.015625)"/>
     </defs>
     <use xlink:href="#DejaVuSans-4e"/>
     <use xlink:href="#DejaVuSans-75" x="74.804688"/>
     <use xlink:href="#DejaVuSans-6d" x="138.183594"/>
     <use xlink:href="#DejaVuSans-62" x="235.595703"/>
     <use xlink:href="#DejaVuSans-65" x="299.072266"/>
     <use xlink:href="#DejaVuSans-72" x="360.595703"/>
     <use xlink:href="#DejaVuSans-20" x="401.708984"/>
     <use xlink:href="#DejaVuSans-6f" x="433.496094"/>
     <use xlink:href="#DejaVuSans-66" x="494.677734"/>
     <use xlink:href="#DejaVuSans-20" x="529.882812"/>
     <use xlink:href="#DejaVuSans-67" x="561.669922"/>
     <use xlink:href="#DejaVuSans-4e" x="625.146484"/>
     <use xlink:href="#DejaVuSans-42" x="699.951172"/>
     <use xlink:href="#DejaVuSans-20" x="768.554688"/>
     <use xlink:href="#DejaVuSans-73" x="800.341797"/>
     <use xlink:href="#DejaVuSans-77" x="852.441406"/>
     <use xlink:href="#DejaVuSans-69" x="934.228516"/>
     <use xlink:href="#DejaVuSans-74" x="962.011719"/>
     <use xlink:href="#DejaVuSans-63" x="1001.220703"/>
     <use xlink:href="#DejaVuSans-68" x="1056.201172"/>
     <use xlink:href="#DejaVuSans-69" x="1119.580078"/>
     <use xlink:href="#DejaVuSans-6e" x="1147.363281"/>
     <use xlink:href="#DejaVuSans-67" x="1210.742188"/>
    </g>
   </g>
  </g>
  <g id="axes_1">
   <g id="Poly3DCollection_1">
    <path d="M 266.205017 169.111788 
L 261.635301 168.032156 
L 273.799351 183.488077 
L 278.367657 181.370138 
z
" clip-path="url(#p413037fb58)" style="fill: #4c66d6"/>
    <path d="M 254.177266 146.016005 
L 249.522345 145.158706 
L 261.635301 168.032156 
L 266.205017 169.111788 
z
" clip-path="url(#p413037fb58)" style="fill: #8db0fe"/>
    <path d="M 261.635301 168.032156 
L 256.953824 173.608308 
L 269.173276 187.015008 
L 273.799351 183.488077 
z
" clip-path="url(#p413037fb58)" style="fill: #516ddb"/>
    <path d="M 249.522345 145.158706 
L 244.789641 154.603856 
L 256.953824 173.608308 
L 261.635301 168.032156 
z
" clip-path="url(#p413037fb58)" style="fill: #8db0fe"/>
    <path d="M 242.07764 112.295808 
L 237.342413 133.255054 
L 249.522345 145.158706 
L 254.177266 146.016005 
z
" clip-path="url(#p413037fb58)" style="fill: #dfdbd9"/>
    <path d="M 237.342413 133.255054 
L 232.617677 141.966583 
L 244.789641 154.603856 
L 249.522345 145.158706 
z
" clip-path="url(#p413037fb58)" style="fill: #c5d6f2"/>
    <path d="M 278.367657 181.370138 
L 273.799351 183.488077 
L 286.276768 186.818314 
L 290.884646 182.580838 
z
" clip-path="url(#p413037fb58)" style="fill: #4358cb"/>
    <path d="M 232.617677 141.966583 
L 227.873558 148.20555 
L 240.056928 160.52411 
L 244.789641 154.603856 
z
" clip-path="url(#p413037fb58)" style="fill: #b1cbfc"/>
    <path d="M 244.789641 154.603856 
L 240.056928 160.52411 
L 252.264311 177.459135 
L 256.953824 173.608308 
z
" clip-path="url(#p413037fb58)" style="fill: #80a3fa"/>
    <path d="M 256.953824 173.608308 
L 252.264311 177.459135 
L 264.5175 190.564586 
L 269.173276 187.015008 
z
" clip-path="url(#p413037fb58)" style="fill: #4e68d8"/>
    <path d="M 227.873558 148.20555 
L 223.103841 153.402839 
L 235.306925 166.819787 
L 240.056928 160.52411 
z
" clip-path="url(#p413037fb58)" style="fill: #a3c2fe"/>
    <path d="M 273.799351 183.488077 
L 269.173276 187.015008 
L 281.642629 191.079939 
L 286.276768 186.818314 
z
" clip-path="url(#p413037fb58)" style="fill: #4358cb"/>
    <path d="M 240.056928 160.52411 
L 235.306925 166.819787 
L 247.539173 183.083652 
L 252.264311 177.459135 
z
" clip-path="url(#p413037fb58)" style="fill: #7597f6"/>
    <path d="M 252.264311 177.459135 
L 247.539173 183.083652 
L 259.8392 193.439301 
L 264.5175 190.564586 
z
" clip-path="url(#p413037fb58)" style="fill: #4c66d6"/>
    <path d="M 290.884646 182.580838 
L 286.276768 186.818314 
L 298.765922 195.446579 
L 303.346123 191.515274 
z
" clip-path="url(#p413037fb58)" style="fill: #455cce"/>
    <path d="M 269.173276 187.015008 
L 264.5175 190.564586 
L 276.982004 195.365922 
L 281.642629 191.079939 
z
" clip-path="url(#p413037fb58)" style="fill: #4257c9"/>
    <path d="M 235.306925 166.819787 
L 230.526771 170.315979 
L 242.797547 186.63288 
L 247.539173 183.083652 
z
" clip-path="url(#p413037fb58)" style="fill: #6e90f2"/>
    <path d="M 223.103841 153.402839 
L 218.208433 149.363886 
L 230.526771 170.315979 
L 235.306925 166.819787 
z
" clip-path="url(#p413037fb58)" style="fill: #a7c5fe"/>
    <path d="M 247.539173 183.083652 
L 242.797547 186.63288 
L 255.104235 199.12827 
L 259.8392 193.439301 
z
" clip-path="url(#p413037fb58)" style="fill: #485fd1"/>
    <path d="M 286.276768 186.818314 
L 281.642629 191.079939 
L 294.137474 200.100397 
L 298.765922 195.446579 
z
" clip-path="url(#p413037fb58)" style="fill: #4358cb"/>
    <path d="M 264.5175 190.564586 
L 259.8392 193.439301 
L 272.282498 200.375777 
L 276.982004 195.365922 
z
" clip-path="url(#p413037fb58)" style="fill: #3f53c6"/>
    <path d="M 230.526771 170.315979 
L 225.707864 172.773163 
L 238.024626 189.503428 
L 242.797547 186.63288 
z
" clip-path="url(#p413037fb58)" style="fill: #7093f3"/>
    <path d="M 224.856472 72.592457 
L 220.008249 80.349637 
L 232.617677 141.966583 
L 237.342413 133.255054 
z
" clip-path="url(#p413037fb58)" style="fill: #de614d"/>
    <path d="M 218.208433 149.363886 
L 213.400886 156.756937 
L 225.707864 172.773163 
L 230.526771 170.315979 
z
" clip-path="url(#p413037fb58)" style="fill: #adc9fd"/>
    <path d="M 303.346123 191.515274 
L 298.765922 195.446579 
L 311.416076 202.752203 
L 315.96659 199.127929 
z
" clip-path="url(#p413037fb58)" style="fill: #3d50c3"/>
    <path d="M 242.797547 186.63288 
L 238.024626 189.503428 
L 250.365093 202.050419 
L 255.104235 199.12827 
z
" clip-path="url(#p413037fb58)" style="fill: #465ecf"/>
    <path d="M 229.679812 61.827782 
L 224.856472 72.592457 
L 237.342413 133.255054 
L 242.07764 112.295808 
z
" clip-path="url(#p413037fb58)" style="fill: #b40426"/>
    <path d="M 220.008249 80.349637 
L 215.12704 86.250359 
L 227.873558 148.20555 
L 232.617677 141.966583 
z
" clip-path="url(#p413037fb58)" style="fill: #eb7d62"/>
    <path d="M 281.642629 191.079939 
L 276.982004 195.365922 
L 289.661725 198.120709 
L 294.137474 200.100397 
z
" clip-path="url(#p413037fb58)" style="fill: #465ecf"/>
    <path d="M 259.8392 193.439301 
L 255.104235 199.12827 
L 267.611729 201.909579 
L 272.282498 200.375777 
z
" clip-path="url(#p413037fb58)" style="fill: #3f53c6"/>
    <path d="M 225.707864 172.773163 
L 220.859341 175.958693 
L 233.226937 195.203914 
L 238.024626 189.503428 
z
" clip-path="url(#p413037fb58)" style="fill: #7093f3"/>
    <path d="M 215.12704 86.250359 
L 210.265828 94.791295 
L 223.103841 153.402839 
L 227.873558 148.20555 
z
" clip-path="url(#p413037fb58)" style="fill: #f29274"/>
    <path d="M 213.400886 156.756937 
L 208.482681 158.096863 
L 220.859341 175.958693 
L 225.707864 172.773163 
z
" clip-path="url(#p413037fb58)" style="fill: #adc9fd"/>
    <path d="M 298.765922 195.446579 
L 294.137474 200.100397 
L 306.886377 204.999316 
L 311.416076 202.752203 
z
" clip-path="url(#p413037fb58)" style="fill: #3d50c3"/>
    <path d="M 238.024626 189.503428 
L 233.226937 195.203914 
L 245.59376 204.29331 
L 250.365093 202.050419 
z
" clip-path="url(#p413037fb58)" style="fill: #485fd1"/>
    <path d="M 276.982004 195.365922 
L 272.282498 200.375777 
L 284.890631 205.983998 
L 289.661725 198.120709 
z
" clip-path="url(#p413037fb58)" style="fill: #455cce"/>
    <path d="M 255.104235 199.12827 
L 250.365093 202.050419 
L 262.856301 206.970408 
L 267.611729 201.909579 
z
" clip-path="url(#p413037fb58)" style="fill: #3e51c5"/>
    <path d="M 220.859341 175.958693 
L 216.022028 182.712521 
L 228.391845 198.122063 
L 233.226937 195.203914 
z
" clip-path="url(#p413037fb58)" style="fill: #6b8df0"/>
    <path d="M 315.96659 199.127929 
L 311.416076 202.752203 
L 324.274171 208.381079 
L 328.810199 204.716746 
z
" clip-path="url(#p413037fb58)" style="fill: #3c4ec2"/>
    <path d="M 210.265828 94.791295 
L 205.372488 101.85384 
L 218.208433 149.363886 
L 223.103841 153.402839 
z
" clip-path="url(#p413037fb58)" style="fill: #f39577"/>
    <path d="M 208.482681 158.096863 
L 203.6233 164.826606 
L 216.022028 182.712521 
L 220.859341 175.958693 
z
" clip-path="url(#p413037fb58)" style="fill: #a7c5fe"/>
    <path d="M 233.226937 195.203914 
L 228.391845 198.122063 
L 240.782124 210.061053 
L 245.59376 204.29331 
z
" clip-path="url(#p413037fb58)" style="fill: #455cce"/>
    <path d="M 294.137474 200.100397 
L 289.661725 198.120709 
L 302.27305 208.669173 
L 306.886377 204.999316 
z
" clip-path="url(#p413037fb58)" style="fill: #445acc"/>
    <path d="M 272.282498 200.375777 
L 267.611729 201.909579 
L 280.170843 211.063331 
L 284.890631 205.983998 
z
" clip-path="url(#p413037fb58)" style="fill: #3f53c6"/>
    <path d="M 216.022028 182.712521 
L 211.142712 187.719552 
L 223.545981 203.87377 
L 228.391845 198.122063 
z
" clip-path="url(#p413037fb58)" style="fill: #6384eb"/>
    <path d="M 250.365093 202.050419 
L 245.59376 204.29331 
L 258.083876 211.355194 
L 262.856301 206.970408 
z
" clip-path="url(#p413037fb58)" style="fill: #3e51c5"/>
    <path d="M 205.372488 101.85384 
L 200.443203 107.820143 
L 213.400886 156.756937 
L 218.208433 149.363886 
z
" clip-path="url(#p413037fb58)" style="fill: #f49a7b"/>
    <path d="M 203.6233 164.826606 
L 198.586208 164.054533 
L 211.142712 187.719552 
L 216.022028 182.712521 
z
" clip-path="url(#p413037fb58)" style="fill: #a3c2fe"/>
    <path d="M 311.416076 202.752203 
L 306.886377 204.999316 
L 319.678258 212.771062 
L 324.274171 208.381079 
z
" clip-path="url(#p413037fb58)" style="fill: #3d50c3"/>
    <path d="M 228.391845 198.122063 
L 223.545981 203.87377 
L 235.936249 209.185681 
L 240.782124 210.061053 
z
" clip-path="url(#p413037fb58)" style="fill: #465ecf"/>
    <path d="M 211.142712 187.719552 
L 206.200933 190.62619 
L 218.663524 208.246292 
L 223.545981 203.87377 
z
" clip-path="url(#p413037fb58)" style="fill: #5f7fe8"/>
    <path d="M 200.443203 107.820143 
L 195.494575 113.809858 
L 208.482681 158.096863 
L 213.400886 156.756937 
z
" clip-path="url(#p413037fb58)" style="fill: #f6a385"/>
    <path d="M 267.611729 201.909579 
L 262.856301 206.970408 
L 275.454272 214.765544 
L 280.170843 211.063331 
z
" clip-path="url(#p413037fb58)" style="fill: #3f53c6"/>
    <path d="M 289.661725 198.120709 
L 284.890631 205.983998 
L 297.673309 210.956608 
L 302.27305 208.669173 
z
" clip-path="url(#p413037fb58)" style="fill: #465ecf"/>
    <path d="M 328.810199 204.716746 
L 324.274171 208.381079 
L 337.21425 215.483348 
L 341.693471 212.477346 
z
" clip-path="url(#p413037fb58)" style="fill: #3b4cc0"/>
    <path d="M 245.59376 204.29331 
L 240.782124 210.061053 
L 253.299143 213.65666 
L 258.083876 211.355194 
z
" clip-path="url(#p413037fb58)" style="fill: #3e51c5"/>
    <path d="M 198.586208 164.054533 
L 193.702794 171.917729 
L 206.200933 190.62619 
L 211.142712 187.719552 
z
" clip-path="url(#p413037fb58)" style="fill: #a2c1ff"/>
    <path d="M 306.886377 204.999316 
L 302.27305 208.669173 
L 315.055669 217.186525 
L 319.678258 212.771062 
z
" clip-path="url(#p413037fb58)" style="fill: #3d50c3"/>
    <path d="M 223.545981 203.87377 
L 218.663524 208.246292 
L 231.077382 217.469168 
L 235.936249 209.185681 
z
" clip-path="url(#p413037fb58)" style="fill: #4358cb"/>
    <path d="M 195.494575 113.809858 
L 190.470181 117.592534 
L 203.6233 164.826606 
L 208.482681 158.096863 
z
" clip-path="url(#p413037fb58)" style="fill: #f7a98b"/>
    <path d="M 284.890631 205.983998 
L 280.170843 211.063331 
L 292.975597 215.377405 
L 297.673309 210.956608 
z
" clip-path="url(#p413037fb58)" style="fill: #4257c9"/>
    <path d="M 262.856301 206.970408 
L 258.083876 211.355194 
L 270.706685 218.492103 
L 275.454272 214.765544 
z
" clip-path="url(#p413037fb58)" style="fill: #3d50c3"/>
    <path d="M 193.702794 171.917729 
L 188.848051 181.225272 
L 201.193765 192.131419 
L 206.200933 190.62619 
z
" clip-path="url(#p413037fb58)" style="fill: #98b9ff"/>
    <path d="M 324.274171 208.381079 
L 319.678258 212.771062 
L 332.631561 219.917317 
L 337.21425 215.483348 
z
" clip-path="url(#p413037fb58)" style="fill: #3b4cc0"/>
    <path d="M 206.200933 190.62619 
L 201.193765 192.131419 
L 213.693588 208.41794 
L 218.663524 208.246292 
z
" clip-path="url(#p413037fb58)" style="fill: #6687ed"/>
    <path d="M 190.470181 117.592534 
L 185.837171 136.55756 
L 198.586208 164.054533 
L 203.6233 164.826606 
z
" clip-path="url(#p413037fb58)" style="fill: #f7bca1"/>
    <path d="M 240.782124 210.061053 
L 235.936249 209.185681 
L 248.468941 217.38712 
L 253.299143 213.65666 
z
" clip-path="url(#p413037fb58)" style="fill: #4358cb"/>
    <path d="M 302.27305 208.669173 
L 297.673309 210.956608 
L 310.513687 218.814941 
L 315.055669 217.186525 
z
" clip-path="url(#p413037fb58)" style="fill: #3f53c6"/>
    <path d="M 218.663524 208.246292 
L 213.693588 208.41794 
L 226.177081 221.209812 
L 231.077382 217.469168 
z
" clip-path="url(#p413037fb58)" style="fill: #4257c9"/>
    <path d="M 280.170843 211.063331 
L 275.454272 214.765544 
L 288.250474 219.823997 
L 292.975597 215.377405 
z
" clip-path="url(#p413037fb58)" style="fill: #3e51c5"/>
    <path d="M 188.848051 181.225272 
L 183.768677 183.048792 
L 196.158726 194.364211 
L 201.193765 192.131419 
z
" clip-path="url(#p413037fb58)" style="fill: #98b9ff"/>
    <path d="M 258.083876 211.355194 
L 253.299143 213.65666 
L 265.937748 221.539315 
L 270.706685 218.492103 
z
" clip-path="url(#p413037fb58)" style="fill: #3e51c5"/>
    <path d="M 319.678258 212.771062 
L 315.055669 217.186525 
L 328.156779 221.56181 
L 332.631561 219.917317 
z
" clip-path="url(#p413037fb58)" style="fill: #3b4cc0"/>
    <path d="M 201.193765 192.131419 
L 196.158726 194.364211 
L 208.74282 212.839169 
L 213.693588 208.41794 
z
" clip-path="url(#p413037fb58)" style="fill: #6e90f2"/>
    <path d="M 235.936249 209.185681 
L 231.077382 217.469168 
L 243.608276 220.436456 
L 248.468941 217.38712 
z
" clip-path="url(#p413037fb58)" style="fill: #4358cb"/>
    <path d="M 297.673309 210.956608 
L 292.975597 215.377405 
L 305.805021 223.984973 
L 310.513687 218.814941 
z
" clip-path="url(#p413037fb58)" style="fill: #4257c9"/>
    <path d="M 275.454272 214.765544 
L 270.706685 218.492103 
L 283.51441 223.59149 
L 288.250474 219.823997 
z
" clip-path="url(#p413037fb58)" style="fill: #3d50c3"/>
    <path d="M 185.837171 136.55756 
L 179.867452 110.191322 
L 193.702794 171.917729 
L 198.586208 164.054533 
z
" clip-path="url(#p413037fb58)" style="fill: #f7aa8c"/>
    <path d="M 213.693588 208.41794 
L 208.74282 212.839169 
L 221.230276 223.566884 
L 226.177081 221.209812 
z
" clip-path="url(#p413037fb58)" style="fill: #465ecf"/>
    <path d="M 253.299143 213.65666 
L 248.468941 217.38712 
L 261.133571 224.609043 
L 265.937748 221.539315 
z
" clip-path="url(#p413037fb58)" style="fill: #4257c9"/>
    <path d="M 315.055669 217.186525 
L 310.513687 218.814941 
L 323.513675 226.046365 
L 328.156779 221.56181 
z
" clip-path="url(#p413037fb58)" style="fill: #3d50c3"/>
    <path d="M 196.158726 194.364211 
L 191.166222 199.831533 
L 203.804255 219.403971 
L 208.74282 212.839169 
z
" clip-path="url(#p413037fb58)" style="fill: #6a8bef"/>
    <path d="M 231.077382 217.469168 
L 226.177081 221.209812 
L 238.712422 224.922271 
L 243.608276 220.436456 
z
" clip-path="url(#p413037fb58)" style="fill: #3e51c5"/>
    <path d="M 183.768677 183.048792 
L 178.459206 179.123094 
L 191.166222 199.831533 
L 196.158726 194.364211 
z
" clip-path="url(#p413037fb58)" style="fill: #a5c3fe"/>
    <path d="M 292.975597 215.377405 
L 288.250474 219.823997 
L 301.154538 226.714459 
L 305.805021 223.984973 
z
" clip-path="url(#p413037fb58)" style="fill: #3f53c6"/>
    <path d="M 208.74282 212.839169 
L 203.804255 219.403971 
L 216.279034 228.765486 
L 221.230276 223.566884 
z
" clip-path="url(#p413037fb58)" style="fill: #4257c9"/>
    <path d="M 270.706685 218.492103 
L 265.937748 221.539315 
L 278.731955 228.09001 
L 283.51441 223.59149 
z
" clip-path="url(#p413037fb58)" style="fill: #3d50c3"/>
    <path d="M 191.166222 199.831533 
L 186.088614 203.182883 
L 198.832493 225.288025 
L 203.804255 219.403971 
z
" clip-path="url(#p413037fb58)" style="fill: #6180e9"/>
    <path d="M 310.513687 218.814941 
L 305.805021 223.984973 
L 318.843278 230.557281 
L 323.513675 226.046365 
z
" clip-path="url(#p413037fb58)" style="fill: #3d50c3"/>
    <path d="M 226.177081 221.209812 
L 221.230276 223.566884 
L 233.79005 230.140965 
L 238.712422 224.922271 
z
" clip-path="url(#p413037fb58)" style="fill: #3d50c3"/>
    <path d="M 178.459206 179.123094 
L 173.63158 191.057188 
L 186.088614 203.182883 
L 191.166222 199.831533 
z
" clip-path="url(#p413037fb58)" style="fill: #a2c1ff"/>
    <path d="M 248.468941 217.38712 
L 243.608276 220.436456 
L 256.312828 225.577914 
L 261.133571 224.609043 
z
" clip-path="url(#p413037fb58)" style="fill: #465ecf"/>
    <path d="M 179.867452 110.191322 
L 174.933173 120.831516 
L 188.848051 181.225272 
L 193.702794 171.917729 
z
" clip-path="url(#p413037fb58)" style="fill: #f4987a"/>
    <path d="M 203.804255 219.403971 
L 198.832493 225.288025 
L 211.258759 231.169197 
L 216.279034 228.765486 
z
" clip-path="url(#p413037fb58)" style="fill: #3d50c3"/>
    <path d="M 288.250474 219.823997 
L 283.51441 223.59149 
L 296.445931 230.172465 
L 301.154538 226.714459 
z
" clip-path="url(#p413037fb58)" style="fill: #4055c8"/>
    <path d="M 265.937748 221.539315 
L 261.133571 224.609043 
L 273.934472 231.908673 
L 278.731955 228.09001 
z
" clip-path="url(#p413037fb58)" style="fill: #3e51c5"/>
    <path d="M 174.933173 120.831516 
L 169.78581 125.454357 
L 183.768677 183.048792 
L 188.848051 181.225272 
z
" clip-path="url(#p413037fb58)" style="fill: #f7aa8c"/>
    <path d="M 305.805021 223.984973 
L 301.154538 226.714459 
L 314.145345 235.094792 
L 318.843278 230.557281 
z
" clip-path="url(#p413037fb58)" style="fill: #3b4cc0"/>
    <path d="M 186.088614 203.182883 
L 180.873449 203.33046 
L 193.768794 228.378681 
L 198.832493 225.288025 
z
" clip-path="url(#p413037fb58)" style="fill: #6485ec"/>
    <path d="M 221.230276 223.566884 
L 216.279034 228.765486 
L 228.829823 233.265958 
L 233.79005 230.140965 
z
" clip-path="url(#p413037fb58)" style="fill: #3d50c3"/>
    <path d="M 243.608276 220.436456 
L 238.712422 224.922271 
L 251.408951 232.232944 
L 256.312828 225.577914 
z
" clip-path="url(#p413037fb58)" style="fill: #465ecf"/>
    <path d="M 173.63158 191.057188 
L 168.282784 188.974729 
L 180.873449 203.33046 
L 186.088614 203.182883 
z
" clip-path="url(#p413037fb58)" style="fill: #a3c2fe"/>
    <path d="M 198.832493 225.288025 
L 193.768794 228.378681 
L 206.223058 235.008429 
L 211.258759 231.169197 
z
" clip-path="url(#p413037fb58)" style="fill: #3d50c3"/>
    <path d="M 283.51441 223.59149 
L 278.731955 228.09001 
L 291.73412 232.59217 
L 296.445931 230.172465 
z
" clip-path="url(#p413037fb58)" style="fill: #4257c9"/>
    <path d="M 261.133571 224.609043 
L 256.312828 225.577914 
L 269.116256 235.045083 
L 273.934472 231.908673 
z
" clip-path="url(#p413037fb58)" style="fill: #4358cb"/>
    <path d="M 180.873449 203.33046 
L 175.936507 213.178299 
L 188.706728 232.905685 
L 193.768794 228.378681 
z
" clip-path="url(#p413037fb58)" style="fill: #6180e9"/>
    <path d="M 238.712422 224.922271 
L 233.79005 230.140965 
L 246.495238 236.791159 
L 251.408951 232.232944 
z
" clip-path="url(#p413037fb58)" style="fill: #3f53c6"/>
    <path d="M 169.78581 125.454357 
L 164.624391 130.479825 
L 178.459206 179.123094 
L 183.768677 183.048792 
z
" clip-path="url(#p413037fb58)" style="fill: #f5a081"/>
    <path d="M 301.154538 226.714459 
L 296.445931 230.172465 
L 309.500372 237.537887 
L 314.145345 235.094792 
z
" clip-path="url(#p413037fb58)" style="fill: #3d50c3"/>
    <path d="M 216.279034 228.765486 
L 211.258759 231.169197 
L 223.838685 237.123093 
L 228.829823 233.265958 
z
" clip-path="url(#p413037fb58)" style="fill: #3d50c3"/>
    <path d="M 193.768794 228.378681 
L 188.706728 232.905685 
L 201.183453 240.288697 
L 206.223058 235.008429 
z
" clip-path="url(#p413037fb58)" style="fill: #3b4cc0"/>
    <path d="M 168.282784 188.974729 
L 163.028267 190.862704 
L 175.936507 213.178299 
L 180.873449 203.33046 
z
" clip-path="url(#p413037fb58)" style="fill: #aac7fd"/>
    <path d="M 278.731955 228.09001 
L 273.934472 231.908673 
L 286.946817 236.45253 
L 291.73412 232.59217 
z
" clip-path="url(#p413037fb58)" style="fill: #4257c9"/>
    <path d="M 175.936507 213.178299 
L 170.892918 220.179211 
L 183.54975 235.337559 
L 188.706728 232.905685 
z
" clip-path="url(#p413037fb58)" style="fill: #5673e0"/>
    <path d="M 164.624391 130.479825 
L 159.529946 137.789611 
L 173.63158 191.057188 
L 178.459206 179.123094 
z
" clip-path="url(#p413037fb58)" style="fill: #f7a98b"/>
    <path d="M 163.028267 190.862704 
L 158.186745 203.258742 
L 170.892918 220.179211 
L 175.936507 213.178299 
z
" clip-path="url(#p413037fb58)" style="fill: #94b6ff"/>
    <path d="M 256.312828 225.577914 
L 251.408951 232.232944 
L 264.243009 239.622808 
L 269.116256 235.045083 
z
" clip-path="url(#p413037fb58)" style="fill: #4358cb"/>
    <path d="M 233.79005 230.140965 
L 228.829823 233.265958 
L 241.555853 237.829268 
L 246.495238 236.791159 
z
" clip-path="url(#p413037fb58)" style="fill: #4257c9"/>
    <path d="M 159.529946 137.789611 
L 154.768707 152.964014 
L 168.282784 188.974729 
L 173.63158 191.057188 
z
" clip-path="url(#p413037fb58)" style="fill: #f6bea4"/>
    <path d="M 211.258759 231.169197 
L 206.223058 235.008429 
L 218.830242 242.423827 
L 223.838685 237.123093 
z
" clip-path="url(#p413037fb58)" style="fill: #3d50c3"/>
    <path d="M 170.892918 220.179211 
L 165.961348 230.39914 
L 178.445201 240.625479 
L 183.54975 235.337559 
z
" clip-path="url(#p413037fb58)" style="fill: #4b64d5"/>
    <path d="M 296.445931 230.172465 
L 291.73412 232.59217 
L 304.766536 241.419839 
L 309.500372 237.537887 
z
" clip-path="url(#p413037fb58)" style="fill: #4055c8"/>
    <path d="M 158.186745 203.258742 
L 152.737942 202.322178 
L 165.961348 230.39914 
L 170.892918 220.179211 
z
" clip-path="url(#p413037fb58)" style="fill: #82a6fb"/>
    <path d="M 188.706728 232.905685 
L 183.54975 235.337559 
L 196.067047 243.473124 
L 201.183453 240.288697 
z
" clip-path="url(#p413037fb58)" style="fill: #3b4cc0"/>
    <path d="M 273.934472 231.908673 
L 269.116256 235.045083 
L 282.09441 241.759086 
L 286.946817 236.45253 
z
" clip-path="url(#p413037fb58)" style="fill: #4257c9"/>
    <path d="M 251.408951 232.232944 
L 246.495238 236.791159 
L 259.355991 242.809279 
L 264.243009 239.622808 
z
" clip-path="url(#p413037fb58)" style="fill: #3f53c6"/>
    <path d="M 154.768707 152.964014 
L 149.56136 158.06761 
L 163.028267 190.862704 
L 168.282784 188.974729 
z
" clip-path="url(#p413037fb58)" style="fill: #f5c4ac"/>
    <path d="M 165.961348 230.39914 
L 160.757027 234.248651 
L 173.133332 240.973645 
L 178.445201 240.625479 
z
" clip-path="url(#p413037fb58)" style="fill: #465ecf"/>
    <path d="M 206.223058 235.008429 
L 201.183453 240.288697 
L 213.745334 244.204843 
L 218.830242 242.423827 
z
" clip-path="url(#p413037fb58)" style="fill: #3d50c3"/>
    <path d="M 228.829823 233.265958 
L 223.838685 237.123093 
L 236.573903 242.440217 
L 241.555853 237.829268 
z
" clip-path="url(#p413037fb58)" style="fill: #445acc"/>
    <path d="M 152.737942 202.322178 
L 147.296819 202.830937 
L 160.757027 234.248651 
L 165.961348 230.39914 
z
" clip-path="url(#p413037fb58)" style="fill: #85a8fc"/>
    <path d="M 291.73412 232.59217 
L 286.946817 236.45253 
L 300.047704 243.907558 
L 304.766536 241.419839 
z
" clip-path="url(#p413037fb58)" style="fill: #445acc"/>
    <path d="M 183.54975 235.337559 
L 178.445201 240.625479 
L 190.931154 247.391176 
L 196.067047 243.473124 
z
" clip-path="url(#p413037fb58)" style="fill: #3c4ec2"/>
    <path d="M 269.116256 235.045083 
L 264.243009 239.622808 
L 277.231427 246.383556 
L 282.09441 241.759086 
z
" clip-path="url(#p413037fb58)" style="fill: #3f53c6"/>
    <path d="M 149.56136 158.06761 
L 144.401345 164.684283 
L 158.186745 203.258742 
L 163.028267 190.862704 
z
" clip-path="url(#p413037fb58)" style="fill: #efcebd"/>
    <path d="M 246.495238 236.791159 
L 241.555853 237.829268 
L 254.426428 246.730699 
L 259.355991 242.809279 
z
" clip-path="url(#p413037fb58)" style="fill: #4257c9"/>
    <path d="M 144.401345 164.684283 
L 139.261787 172.066214 
L 152.737942 202.322178 
L 158.186745 203.258742 
z
" clip-path="url(#p413037fb58)" style="fill: #e8d6cc"/>
    <path d="M 223.838685 237.123093 
L 218.830242 242.423827 
L 231.565353 247.789915 
L 236.573903 242.440217 
z
" clip-path="url(#p413037fb58)" style="fill: #4055c8"/>
    <path d="M 201.183453 240.288697 
L 196.067047 243.473124 
L 208.638381 247.427695 
L 213.745334 244.204843 
z
" clip-path="url(#p413037fb58)" style="fill: #3f53c6"/>
    <path d="M 286.946817 236.45253 
L 282.09441 241.759086 
L 295.202857 249.262475 
L 300.047704 243.907558 
z
" clip-path="url(#p413037fb58)" style="fill: #4257c9"/>
    <path d="M 264.243009 239.622808 
L 259.355991 242.809279 
L 272.352076 250.325237 
L 277.231427 246.383556 
z
" clip-path="url(#p413037fb58)" style="fill: #3e51c5"/>
    <path d="M 178.445201 240.625479 
L 173.133332 240.973645 
L 185.718305 249.914133 
L 190.931154 247.391176 
z
" clip-path="url(#p413037fb58)" style="fill: #3f53c6"/>
    <path d="M 241.555853 237.829268 
L 236.573903 242.440217 
L 249.463465 250.678688 
L 254.426428 246.730699 
z
" clip-path="url(#p413037fb58)" style="fill: #445acc"/>
    <path d="M 139.261787 172.066214 
L 134.272461 182.420833 
L 147.296819 202.830937 
L 152.737942 202.322178 
z
" clip-path="url(#p413037fb58)" style="fill: #e6d7cf"/>
    <path d="M 218.830242 242.423827 
L 213.745334 244.204843 
L 226.520346 251.745096 
L 231.565353 247.789915 
z
" clip-path="url(#p413037fb58)" style="fill: #3f53c6"/>
    <path d="M 282.09441 241.759086 
L 277.231427 246.383556 
L 290.332753 254.645308 
L 295.202857 249.262475 
z
" clip-path="url(#p413037fb58)" style="fill: #3d50c3"/>
    <path d="M 196.067047 243.473124 
L 190.931154 247.391176 
L 203.549528 253.525158 
L 208.638381 247.427695 
z
" clip-path="url(#p413037fb58)" style="fill: #3e51c5"/>
    <path d="M 259.355991 242.809279 
L 254.426428 246.730699 
L 267.417912 255.715753 
L 272.352076 250.325237 
z
" clip-path="url(#p413037fb58)" style="fill: #3d50c3"/>
    <path d="M 236.573903 242.440217 
L 231.565353 247.789915 
L 244.466761 254.653518 
L 249.463465 250.678688 
z
" clip-path="url(#p413037fb58)" style="fill: #4257c9"/>
    <path d="M 277.231427 246.383556 
L 272.352076 250.325237 
L 285.508986 257.211873 
L 290.332753 254.645308 
z
" clip-path="url(#p413037fb58)" style="fill: #3c4ec2"/>
    <path d="M 213.745334 244.204843 
L 208.638381 247.427695 
L 221.433812 255.014298 
L 226.520346 251.745096 
z
" clip-path="url(#p413037fb58)" style="fill: #445acc"/>
    <path d="M 190.931154 247.391176 
L 185.718305 249.914133 
L 198.373077 256.802831 
L 203.549528 253.525158 
z
" clip-path="url(#p413037fb58)" style="fill: #3e51c5"/>
    <path d="M 254.426428 246.730699 
L 249.463465 250.678688 
L 262.475778 259.712932 
L 267.417912 255.715753 
z
" clip-path="url(#p413037fb58)" style="fill: #3c4ec2"/>
    <path d="M 231.565353 247.789915 
L 226.520346 251.745096 
L 239.435845 257.941945 
L 244.466761 254.653518 
z
" clip-path="url(#p413037fb58)" style="fill: #4257c9"/>
    <path d="M 208.638381 247.427695 
L 203.549528 253.525158 
L 216.326991 259.736476 
L 221.433812 255.014298 
z
" clip-path="url(#p413037fb58)" style="fill: #4257c9"/>
    <path d="M 272.352076 250.325237 
L 267.417912 255.715753 
L 280.644635 259.800032 
L 285.508986 257.211873 
z
" clip-path="url(#p413037fb58)" style="fill: #3d50c3"/>
    <path d="M 249.463465 250.678688 
L 244.466761 254.653518 
L 257.513888 262.31195 
L 262.475778 259.712932 
z
" clip-path="url(#p413037fb58)" style="fill: #3d50c3"/>
    <path d="M 226.520346 251.745096 
L 221.433812 255.014298 
L 234.370746 262.684801 
L 239.435845 257.941945 
z
" clip-path="url(#p413037fb58)" style="fill: #4257c9"/>
    <path d="M 203.549528 253.525158 
L 198.373077 256.802831 
L 211.143987 261.627745 
L 216.326991 259.736476 
z
" clip-path="url(#p413037fb58)" style="fill: #4257c9"/>
    <path d="M 267.417912 255.715753 
L 262.475778 259.712932 
L 275.710695 263.841275 
L 280.644635 259.800032 
z
" clip-path="url(#p413037fb58)" style="fill: #3d50c3"/>
    <path d="M 244.466761 254.653518 
L 239.435845 257.941945 
L 252.520187 263.501255 
L 257.513888 262.31195 
z
" clip-path="url(#p413037fb58)" style="fill: #4358cb"/>
    <path d="M 221.433812 255.014298 
L 216.326991 259.736476 
L 229.266571 266.026601 
L 234.370746 262.684801 
z
" clip-path="url(#p413037fb58)" style="fill: #4257c9"/>
    <path d="M 262.475778 259.712932 
L 257.513888 262.31195 
L 270.718197 269.340967 
L 275.710695 263.841275 
z
" clip-path="url(#p413037fb58)" style="fill: #3d50c3"/>
    <path d="M 239.435845 257.941945 
L 234.370746 262.684801 
L 247.460726 268.293118 
L 252.520187 263.501255 
z
" clip-path="url(#p413037fb58)" style="fill: #455cce"/>
    <path d="M 216.326991 259.736476 
L 211.143987 261.627745 
L 224.135563 270.82679 
L 229.266571 266.026601 
z
" clip-path="url(#p413037fb58)" style="fill: #445acc"/>
    <path d="M 257.513888 262.31195 
L 252.520187 263.501255 
L 265.709554 274.155094 
L 270.718197 269.340967 
z
" clip-path="url(#p413037fb58)" style="fill: #3f53c6"/>
    <path d="M 234.370746 262.684801 
L 229.266571 266.026601 
L 242.370329 273.114279 
L 247.460726 268.293118 
z
" clip-path="url(#p413037fb58)" style="fill: #445acc"/>
    <path d="M 252.520187 263.501255 
L 247.460726 268.293118 
L 260.678614 278.283131 
L 265.709554 274.155094 
z
" clip-path="url(#p413037fb58)" style="fill: #4257c9"/>
    <path d="M 229.266571 266.026601 
L 224.135563 270.82679 
L 237.248713 277.96501 
L 242.370329 273.114279 
z
" clip-path="url(#p413037fb58)" style="fill: #4257c9"/>
    <path d="M 247.460726 268.293118 
L 242.370329 273.114279 
L 255.619091 281.722894 
L 260.678614 278.283131 
z
" clip-path="url(#p413037fb58)" style="fill: #4055c8"/>
    <path d="M 242.370329 273.114279 
L 237.248713 277.96501 
L 250.515869 285.90776 
L 255.619091 281.722894 
z
" clip-path="url(#p413037fb58)" style="fill: #3f53c6"/>
   </g>
  </g>
 </g>
 <defs>
  <clipPath id="p413037fb58">
   <rect x="103.104" y="41.472" width="266.112" height="266.112"/>
  </clipPath>
 </defs>
</svg>
