<?xml version="1.0" encoding="utf-8" standalone="no"?>
<!DOCTYPE svg PUBLIC "-//W3C//DTD SVG 1.1//EN"
  "http://www.w3.org/Graphics/SVG/1.1/DTD/svg11.dtd">
<svg xmlns:xlink="http://www.w3.org/1999/xlink" width="460.8pt" height="345.6pt" viewBox="0 0 460.8 345.6" xmlns="http://www.w3.org/2000/svg" version="1.1">
 <metadata>
  <rdf:RDF xmlns:dc="http://purl.org/dc/elements/1.1/" xmlns:cc="http://creativecommons.org/ns#" xmlns:rdf="http://www.w3.org/1999/02/22-rdf-syntax-ns#">
   <cc:Work>
    <dc:type rdf:resource="http://purl.org/dc/dcmitype/StillImage"/>
    <dc:date>2023-11-30T11:47:06.891994</dc:date>
    <dc:format>image/svg+xml</dc:format>
    <dc:creator>
     <cc:Agent>
      <dc:title>Matplotlib v3.8.0, https://matplotlib.org/</dc:title>
     </cc:Agent>
    </dc:creator>
   </cc:Work>
  </rdf:RDF>
 </metadata>
 <defs>
  <style type="text/css">*{stroke-linejoin: round; stroke-linecap: butt}</style>
 </defs>
 <g id="figure_1">
  <g id="patch_1">
   <path d="M 0 345.6 
L 460.8 345.6 
L 460.8 0 
L 0 0 
z
" style="fill: #ffffff"/>
  </g>
  <g id="patch_2">
   <path d="M 103.104 307.584 
L 369.216 307.584 
L 369.216 41.472 
L 103.104 41.472 
z
" style="fill: #ffffff"/>
  </g>
  <g id="pane3d_1">
   <g id="patch_3">
    <path d="M 203.644082 194.534066 
L 349.889715 217.987218 
L 352.889583 98.58928 
L 202.706487 80.115825 
" style="fill: #f2f2f2; opacity: 0.5; stroke: #f2f2f2; stroke-linejoin: miter"/>
   </g>
  </g>
  <g id="pane3d_2">
   <g id="patch_4">
    <path d="M 203.644082 194.534066 
L 123.821258 245.065829 
L 120.492256 119.975607 
L 202.706487 80.115825 
" style="fill: #e6e6e6; opacity: 0.5; stroke: #e6e6e6; stroke-linejoin: miter"/>
   </g>
  </g>
  <g id="pane3d_3">
   <g id="patch_5">
    <path d="M 203.644082 194.534066 
L 123.821258 245.065829 
L 281.698082 273.740098 
L 349.889715 217.987218 
" style="fill: #ececec; opacity: 0.5; stroke: #ececec; stroke-linejoin: miter"/>
   </g>
  </g>
  <g id="grid3d_1">
   <g id="Line3DCollection_1">
    <path d="M 345.950301 221.208048 
L 199.011245 197.466879 
L 197.946877 82.423419 
" style="fill: none; stroke: #b0b0b0; stroke-width: 0.8"/>
    <path d="M 332.060754 232.564019 
L 182.697937 207.794003 
L 181.1754 90.554705 
" style="fill: none; stroke: #b0b0b0; stroke-width: 0.8"/>
    <path d="M 317.547695 244.429769 
L 165.687359 218.562533 
L 163.667522 99.043019 
" style="fill: none; stroke: #b0b0b0; stroke-width: 0.8"/>
    <path d="M 302.368175 256.840411 
L 147.93383 229.801388 
L 145.373652 107.912404 
" style="fill: none; stroke: #b0b0b0; stroke-width: 0.8"/>
    <path d="M 286.475208 269.834361 
L 129.387589 241.542068 
L 126.239646 117.18911 
" style="fill: none; stroke: #b0b0b0; stroke-width: 0.8"/>
   </g>
  </g>
  <g id="grid3d_2">
   <g id="Line3DCollection_2">
    <path d="M 211.843472 81.239731 
L 212.551899 195.962597 
L 133.393055 246.8043 
" style="fill: none; stroke: #b0b0b0; stroke-width: 0.8"/>
    <path d="M 237.187464 84.3572 
L 237.253182 199.923897 
L 159.965615 251.630522 
" style="fill: none; stroke: #b0b0b0; stroke-width: 0.8"/>
    <path d="M 262.95373 87.526611 
L 262.355414 203.949498 
L 187.014865 256.543324 
" style="fill: none; stroke: #b0b0b0; stroke-width: 0.8"/>
    <path d="M 289.152911 90.749273 
L 287.868438 208.040976 
L 214.553748 261.545055 
" style="fill: none; stroke: #b0b0b0; stroke-width: 0.8"/>
    <path d="M 315.796011 94.02654 
L 313.802421 212.199963 
L 242.595682 266.638152 
" style="fill: none; stroke: #b0b0b0; stroke-width: 0.8"/>
    <path d="M 342.894408 97.359811 
L 340.167868 216.428142 
L 271.154577 271.825141 
" style="fill: none; stroke: #b0b0b0; stroke-width: 0.8"/>
   </g>
  </g>
  <g id="grid3d_3">
   <g id="Line3DCollection_3">
    <path d="M 123.7565 242.632498 
L 203.625795 192.302482 
L 349.948152 215.661345 
" style="fill: none; stroke: #b0b0b0; stroke-width: 0.8"/>
    <path d="M 123.235822 223.067556 
L 203.478833 174.368117 
L 350.417894 196.965128 
" style="fill: none; stroke: #b0b0b0; stroke-width: 0.8"/>
    <path d="M 122.710449 203.326183 
L 203.33067 156.287258 
L 350.891658 178.108828 
" style="fill: none; stroke: #b0b0b0; stroke-width: 0.8"/>
    <path d="M 122.180316 183.405981 
L 203.181292 138.058102 
L 351.369496 159.090378 
" style="fill: none; stroke: #b0b0b0; stroke-width: 0.8"/>
    <path d="M 121.64536 163.30451 
L 203.030684 119.678819 
L 351.85146 139.907679 
" style="fill: none; stroke: #b0b0b0; stroke-width: 0.8"/>
    <path d="M 121.105513 143.019285 
L 202.878831 101.147544 
L 352.337605 120.558594 
" style="fill: none; stroke: #b0b0b0; stroke-width: 0.8"/>
    <path d="M 120.560709 122.547773 
L 202.725716 82.462385 
L 352.827985 101.040948 
" style="fill: none; stroke: #b0b0b0; stroke-width: 0.8"/>
   </g>
  </g>
  <g id="axis3d_1">
   <g id="line2d_1">
    <path d="M 349.889715 217.987218 
L 281.698082 273.740098 
" style="fill: none; stroke: #000000; stroke-width: 0.8; stroke-linecap: square"/>
   </g>
   <g id="xtick_1">
    <g id="line2d_2">
     <path d="M 344.718717 221.009059 
L 348.416314 221.606485 
" style="fill: none; stroke: #000000; stroke-width: 0.8; stroke-linecap: square"/>
    </g>
    <g id="text_1">
     <!-- 0 -->
     <g transform="translate(355.334656 240.589407) scale(0.1 -0.1)">
      <defs>
       <path id="DejaVuSans-30" d="M 2034 4250 
Q 1547 4250 1301 3770 
Q 1056 3291 1056 2328 
Q 1056 1369 1301 889 
Q 1547 409 2034 409 
Q 2525 409 2770 889 
Q 3016 1369 3016 2328 
Q 3016 3291 2770 3770 
Q 2525 4250 2034 4250 
z
M 2034 4750 
Q 2819 4750 3233 4129 
Q 3647 3509 3647 2328 
Q 3647 1150 3233 529 
Q 2819 -91 2034 -91 
Q 1250 -91 836 529 
Q 422 1150 422 2328 
Q 422 3509 836 4129 
Q 1250 4750 2034 4750 
z
" transform="scale(0.015625)"/>
      </defs>
      <use xlink:href="#DejaVuSans-30"/>
     </g>
    </g>
   </g>
   <g id="xtick_2">
    <g id="line2d_3">
     <path d="M 330.807605 232.3562 
L 334.570012 232.980149 
" style="fill: none; stroke: #000000; stroke-width: 0.8; stroke-linecap: square"/>
    </g>
    <g id="text_2">
     <!-- 50 -->
     <g transform="translate(338.514935 252.225179) scale(0.1 -0.1)">
      <defs>
       <path id="DejaVuSans-35" d="M 691 4666 
L 3169 4666 
L 3169 4134 
L 1269 4134 
L 1269 2991 
Q 1406 3038 1543 3061 
Q 1681 3084 1819 3084 
Q 2600 3084 3056 2656 
Q 3513 2228 3513 1497 
Q 3513 744 3044 326 
Q 2575 -91 1722 -91 
Q 1428 -91 1123 -41 
Q 819 9 494 109 
L 494 744 
Q 775 591 1075 516 
Q 1375 441 1709 441 
Q 2250 441 2565 725 
Q 2881 1009 2881 1497 
Q 2881 1984 2565 2268 
Q 2250 2553 1709 2553 
Q 1456 2553 1204 2497 
Q 953 2441 691 2322 
L 691 4666 
z
" transform="scale(0.015625)"/>
      </defs>
      <use xlink:href="#DejaVuSans-35"/>
      <use xlink:href="#DejaVuSans-30" x="63.623047"/>
     </g>
    </g>
   </g>
   <g id="xtick_3">
    <g id="line2d_4">
     <path d="M 316.272263 244.212517 
L 320.101639 244.864797 
" style="fill: none; stroke: #000000; stroke-width: 0.8; stroke-linecap: square"/>
    </g>
    <g id="text_3">
     <!-- 100 -->
     <g transform="translate(321.081835 264.384261) scale(0.1 -0.1)">
      <defs>
       <path id="DejaVuSans-31" d="M 794 531 
L 1825 531 
L 1825 4091 
L 703 3866 
L 703 4441 
L 1819 4666 
L 2450 4666 
L 2450 531 
L 3481 531 
L 3481 0 
L 794 0 
L 794 531 
z
" transform="scale(0.015625)"/>
      </defs>
      <use xlink:href="#DejaVuSans-31"/>
      <use xlink:href="#DejaVuSans-30" x="63.623047"/>
      <use xlink:href="#DejaVuSans-30" x="127.246094"/>
     </g>
    </g>
   </g>
   <g id="xtick_4">
    <g id="line2d_5">
     <path d="M 301.069712 256.61307 
L 304.96831 257.295654 
" style="fill: none; stroke: #000000; stroke-width: 0.8; stroke-linecap: square"/>
    </g>
    <g id="text_4">
     <!-- 150 -->
     <g transform="translate(306.174273 277.102769) scale(0.1 -0.1)">
      <use xlink:href="#DejaVuSans-31"/>
      <use xlink:href="#DejaVuSans-35" x="63.623047"/>
      <use xlink:href="#DejaVuSans-30" x="127.246094"/>
     </g>
    </g>
   </g>
   <g id="xtick_5">
    <g id="line2d_6">
     <path d="M 285.152931 269.596212 
L 289.123106 270.311261 
" style="fill: none; stroke: #000000; stroke-width: 0.8; stroke-linecap: square"/>
    </g>
    <g id="text_5">
     <!-- 200 -->
     <g transform="translate(290.564681 290.420219) scale(0.1 -0.1)">
      <defs>
       <path id="DejaVuSans-32" d="M 1228 531 
L 3431 531 
L 3431 0 
L 469 0 
L 469 531 
Q 828 903 1448 1529 
Q 2069 2156 2228 2338 
Q 2531 2678 2651 2914 
Q 2772 3150 2772 3378 
Q 2772 3750 2511 3984 
Q 2250 4219 1831 4219 
Q 1534 4219 1204 4116 
Q 875 4013 500 3803 
L 500 4441 
Q 881 4594 1212 4672 
Q 1544 4750 1819 4750 
Q 2544 4750 2975 4387 
Q 3406 4025 3406 3419 
Q 3406 3131 3298 2873 
Q 3191 2616 2906 2266 
Q 2828 2175 2409 1742 
Q 1991 1309 1228 531 
z
" transform="scale(0.015625)"/>
      </defs>
      <use xlink:href="#DejaVuSans-32"/>
      <use xlink:href="#DejaVuSans-30" x="63.623047"/>
      <use xlink:href="#DejaVuSans-30" x="127.246094"/>
     </g>
    </g>
   </g>
   <g id="text_6">
    <!-- Handover Cost -->
    <g transform="translate(319.124455 296.919813) rotate(-39.269131) scale(0.1 -0.1)">
     <defs>
      <path id="DejaVuSans-48" d="M 628 4666 
L 1259 4666 
L 1259 2753 
L 3553 2753 
L 3553 4666 
L 4184 4666 
L 4184 0 
L 3553 0 
L 3553 2222 
L 1259 2222 
L 1259 0 
L 628 0 
L 628 4666 
z
" transform="scale(0.015625)"/>
      <path id="DejaVuSans-61" d="M 2194 1759 
Q 1497 1759 1228 1600 
Q 959 1441 959 1056 
Q 959 750 1161 570 
Q 1363 391 1709 391 
Q 2188 391 2477 730 
Q 2766 1069 2766 1631 
L 2766 1759 
L 2194 1759 
z
M 3341 1997 
L 3341 0 
L 2766 0 
L 2766 531 
Q 2569 213 2275 61 
Q 1981 -91 1556 -91 
Q 1019 -91 701 211 
Q 384 513 384 1019 
Q 384 1609 779 1909 
Q 1175 2209 1959 2209 
L 2766 2209 
L 2766 2266 
Q 2766 2663 2505 2880 
Q 2244 3097 1772 3097 
Q 1472 3097 1187 3025 
Q 903 2953 641 2809 
L 641 3341 
Q 956 3463 1253 3523 
Q 1550 3584 1831 3584 
Q 2591 3584 2966 3190 
Q 3341 2797 3341 1997 
z
" transform="scale(0.015625)"/>
      <path id="DejaVuSans-6e" d="M 3513 2113 
L 3513 0 
L 2938 0 
L 2938 2094 
Q 2938 2591 2744 2837 
Q 2550 3084 2163 3084 
Q 1697 3084 1428 2787 
Q 1159 2491 1159 1978 
L 1159 0 
L 581 0 
L 581 3500 
L 1159 3500 
L 1159 2956 
Q 1366 3272 1645 3428 
Q 1925 3584 2291 3584 
Q 2894 3584 3203 3211 
Q 3513 2838 3513 2113 
z
" transform="scale(0.015625)"/>
      <path id="DejaVuSans-64" d="M 2906 2969 
L 2906 4863 
L 3481 4863 
L 3481 0 
L 2906 0 
L 2906 525 
Q 2725 213 2448 61 
Q 2172 -91 1784 -91 
Q 1150 -91 751 415 
Q 353 922 353 1747 
Q 353 2572 751 3078 
Q 1150 3584 1784 3584 
Q 2172 3584 2448 3432 
Q 2725 3281 2906 2969 
z
M 947 1747 
Q 947 1113 1208 752 
Q 1469 391 1925 391 
Q 2381 391 2643 752 
Q 2906 1113 2906 1747 
Q 2906 2381 2643 2742 
Q 2381 3103 1925 3103 
Q 1469 3103 1208 2742 
Q 947 2381 947 1747 
z
" transform="scale(0.015625)"/>
      <path id="DejaVuSans-6f" d="M 1959 3097 
Q 1497 3097 1228 2736 
Q 959 2375 959 1747 
Q 959 1119 1226 758 
Q 1494 397 1959 397 
Q 2419 397 2687 759 
Q 2956 1122 2956 1747 
Q 2956 2369 2687 2733 
Q 2419 3097 1959 3097 
z
M 1959 3584 
Q 2709 3584 3137 3096 
Q 3566 2609 3566 1747 
Q 3566 888 3137 398 
Q 2709 -91 1959 -91 
Q 1206 -91 779 398 
Q 353 888 353 1747 
Q 353 2609 779 3096 
Q 1206 3584 1959 3584 
z
" transform="scale(0.015625)"/>
      <path id="DejaVuSans-76" d="M 191 3500 
L 800 3500 
L 1894 563 
L 2988 3500 
L 3597 3500 
L 2284 0 
L 1503 0 
L 191 3500 
z
" transform="scale(0.015625)"/>
      <path id="DejaVuSans-65" d="M 3597 1894 
L 3597 1613 
L 953 1613 
Q 991 1019 1311 708 
Q 1631 397 2203 397 
Q 2534 397 2845 478 
Q 3156 559 3463 722 
L 3463 178 
Q 3153 47 2828 -22 
Q 2503 -91 2169 -91 
Q 1331 -91 842 396 
Q 353 884 353 1716 
Q 353 2575 817 3079 
Q 1281 3584 2069 3584 
Q 2775 3584 3186 3129 
Q 3597 2675 3597 1894 
z
M 3022 2063 
Q 3016 2534 2758 2815 
Q 2500 3097 2075 3097 
Q 1594 3097 1305 2825 
Q 1016 2553 972 2059 
L 3022 2063 
z
" transform="scale(0.015625)"/>
      <path id="DejaVuSans-72" d="M 2631 2963 
Q 2534 3019 2420 3045 
Q 2306 3072 2169 3072 
Q 1681 3072 1420 2755 
Q 1159 2438 1159 1844 
L 1159 0 
L 581 0 
L 581 3500 
L 1159 3500 
L 1159 2956 
Q 1341 3275 1631 3429 
Q 1922 3584 2338 3584 
Q 2397 3584 2469 3576 
Q 2541 3569 2628 3553 
L 2631 2963 
z
" transform="scale(0.015625)"/>
      <path id="DejaVuSans-20" transform="scale(0.015625)"/>
      <path id="DejaVuSans-43" d="M 4122 4306 
L 4122 3641 
Q 3803 3938 3442 4084 
Q 3081 4231 2675 4231 
Q 1875 4231 1450 3742 
Q 1025 3253 1025 2328 
Q 1025 1406 1450 917 
Q 1875 428 2675 428 
Q 3081 428 3442 575 
Q 3803 722 4122 1019 
L 4122 359 
Q 3791 134 3420 21 
Q 3050 -91 2638 -91 
Q 1578 -91 968 557 
Q 359 1206 359 2328 
Q 359 3453 968 4101 
Q 1578 4750 2638 4750 
Q 3056 4750 3426 4639 
Q 3797 4528 4122 4306 
z
" transform="scale(0.015625)"/>
      <path id="DejaVuSans-73" d="M 2834 3397 
L 2834 2853 
Q 2591 2978 2328 3040 
Q 2066 3103 1784 3103 
Q 1356 3103 1142 2972 
Q 928 2841 928 2578 
Q 928 2378 1081 2264 
Q 1234 2150 1697 2047 
L 1894 2003 
Q 2506 1872 2764 1633 
Q 3022 1394 3022 966 
Q 3022 478 2636 193 
Q 2250 -91 1575 -91 
Q 1294 -91 989 -36 
Q 684 19 347 128 
L 347 722 
Q 666 556 975 473 
Q 1284 391 1588 391 
Q 1994 391 2212 530 
Q 2431 669 2431 922 
Q 2431 1156 2273 1281 
Q 2116 1406 1581 1522 
L 1381 1569 
Q 847 1681 609 1914 
Q 372 2147 372 2553 
Q 372 3047 722 3315 
Q 1072 3584 1716 3584 
Q 2034 3584 2315 3537 
Q 2597 3491 2834 3397 
z
" transform="scale(0.015625)"/>
      <path id="DejaVuSans-74" d="M 1172 4494 
L 1172 3500 
L 2356 3500 
L 2356 3053 
L 1172 3053 
L 1172 1153 
Q 1172 725 1289 603 
Q 1406 481 1766 481 
L 2356 481 
L 2356 0 
L 1766 0 
Q 1100 0 847 248 
Q 594 497 594 1153 
L 594 3053 
L 172 3053 
L 172 3500 
L 594 3500 
L 594 4494 
L 1172 4494 
z
" transform="scale(0.015625)"/>
     </defs>
     <use xlink:href="#DejaVuSans-48"/>
     <use xlink:href="#DejaVuSans-61" x="75.195312"/>
     <use xlink:href="#DejaVuSans-6e" x="136.474609"/>
     <use xlink:href="#DejaVuSans-64" x="199.853516"/>
     <use xlink:href="#DejaVuSans-6f" x="263.330078"/>
     <use xlink:href="#DejaVuSans-76" x="324.511719"/>
     <use xlink:href="#DejaVuSans-65" x="383.691406"/>
     <use xlink:href="#DejaVuSans-72" x="445.214844"/>
     <use xlink:href="#DejaVuSans-20" x="486.328125"/>
     <use xlink:href="#DejaVuSans-43" x="518.115234"/>
     <use xlink:href="#DejaVuSans-6f" x="587.939453"/>
     <use xlink:href="#DejaVuSans-73" x="649.121094"/>
     <use xlink:href="#DejaVuSans-74" x="701.220703"/>
    </g>
   </g>
  </g>
  <g id="axis3d_2">
   <g id="line2d_7">
    <path d="M 123.821258 245.065829 
L 281.698082 273.740098 
" style="fill: none; stroke: #000000; stroke-width: 0.8; stroke-linecap: square"/>
   </g>
   <g id="xtick_6">
    <g id="line2d_8">
     <path d="M 134.091182 246.35591 
L 131.993332 247.703306 
" style="fill: none; stroke: #000000; stroke-width: 0.8; stroke-linecap: square"/>
    </g>
    <g id="text_7">
     <!-- 0 -->
     <g transform="translate(123.168249 269.26771) scale(0.1 -0.1)">
      <use xlink:href="#DejaVuSans-30"/>
     </g>
    </g>
   </g>
   <g id="xtick_7">
    <g id="line2d_9">
     <path d="M 160.647801 251.174129 
L 158.597822 252.545597 
" style="fill: none; stroke: #000000; stroke-width: 0.8; stroke-linecap: square"/>
    </g>
    <g id="text_8">
     <!-- 20 -->
     <g transform="translate(146.665158 274.257543) scale(0.1 -0.1)">
      <use xlink:href="#DejaVuSans-32"/>
      <use xlink:href="#DejaVuSans-30" x="63.623047"/>
     </g>
    </g>
   </g>
   <g id="xtick_8">
    <g id="line2d_10">
     <path d="M 187.680424 256.07871 
L 185.680381 257.474902 
" style="fill: none; stroke: #000000; stroke-width: 0.8; stroke-linecap: square"/>
    </g>
    <g id="text_9">
     <!-- 40 -->
     <g transform="translate(173.824967 279.337463) scale(0.1 -0.1)">
      <defs>
       <path id="DejaVuSans-34" d="M 2419 4116 
L 825 1625 
L 2419 1625 
L 2419 4116 
z
M 2253 4666 
L 3047 4666 
L 3047 1625 
L 3713 1625 
L 3713 1100 
L 3047 1100 
L 3047 0 
L 2419 0 
L 2419 1100 
L 313 1100 
L 313 1709 
L 2253 4666 
z
" transform="scale(0.015625)"/>
      </defs>
      <use xlink:href="#DejaVuSans-34"/>
      <use xlink:href="#DejaVuSans-30" x="63.623047"/>
     </g>
    </g>
   </g>
   <g id="xtick_9">
    <g id="line2d_11">
     <path d="M 215.201964 261.071996 
L 213.25401 262.493587 
" style="fill: none; stroke: #000000; stroke-width: 0.8; stroke-linecap: square"/>
    </g>
    <g id="text_10">
     <!-- 60 -->
     <g transform="translate(201.479587 284.509932) scale(0.1 -0.1)">
      <defs>
       <path id="DejaVuSans-36" d="M 2113 2584 
Q 1688 2584 1439 2293 
Q 1191 2003 1191 1497 
Q 1191 994 1439 701 
Q 1688 409 2113 409 
Q 2538 409 2786 701 
Q 3034 994 3034 1497 
Q 3034 2003 2786 2293 
Q 2538 2584 2113 2584 
z
M 3366 4563 
L 3366 3988 
Q 3128 4100 2886 4159 
Q 2644 4219 2406 4219 
Q 1781 4219 1451 3797 
Q 1122 3375 1075 2522 
Q 1259 2794 1537 2939 
Q 1816 3084 2150 3084 
Q 2853 3084 3261 2657 
Q 3669 2231 3669 1497 
Q 3669 778 3244 343 
Q 2819 -91 2113 -91 
Q 1303 -91 875 529 
Q 447 1150 447 2328 
Q 447 3434 972 4092 
Q 1497 4750 2381 4750 
Q 2619 4750 2861 4703 
Q 3103 4656 3366 4563 
z
" transform="scale(0.015625)"/>
      </defs>
      <use xlink:href="#DejaVuSans-36"/>
      <use xlink:href="#DejaVuSans-30" x="63.623047"/>
     </g>
    </g>
   </g>
   <g id="xtick_10">
    <g id="line2d_12">
     <path d="M 243.225807 266.156416 
L 241.332188 267.604104 
" style="fill: none; stroke: #000000; stroke-width: 0.8; stroke-linecap: square"/>
    </g>
    <g id="text_11">
     <!-- 80 -->
     <g transform="translate(229.642665 289.777501) scale(0.1 -0.1)">
      <defs>
       <path id="DejaVuSans-38" d="M 2034 2216 
Q 1584 2216 1326 1975 
Q 1069 1734 1069 1313 
Q 1069 891 1326 650 
Q 1584 409 2034 409 
Q 2484 409 2743 651 
Q 3003 894 3003 1313 
Q 3003 1734 2745 1975 
Q 2488 2216 2034 2216 
z
M 1403 2484 
Q 997 2584 770 2862 
Q 544 3141 544 3541 
Q 544 4100 942 4425 
Q 1341 4750 2034 4750 
Q 2731 4750 3128 4425 
Q 3525 4100 3525 3541 
Q 3525 3141 3298 2862 
Q 3072 2584 2669 2484 
Q 3125 2378 3379 2068 
Q 3634 1759 3634 1313 
Q 3634 634 3220 271 
Q 2806 -91 2034 -91 
Q 1263 -91 848 271 
Q 434 634 434 1313 
Q 434 1759 690 2068 
Q 947 2378 1403 2484 
z
M 1172 3481 
Q 1172 3119 1398 2916 
Q 1625 2713 2034 2713 
Q 2441 2713 2670 2916 
Q 2900 3119 2900 3481 
Q 2900 3844 2670 4047 
Q 2441 4250 2034 4250 
Q 1625 4250 1398 4047 
Q 1172 3844 1172 3481 
z
" transform="scale(0.015625)"/>
      </defs>
      <use xlink:href="#DejaVuSans-38"/>
      <use xlink:href="#DejaVuSans-30" x="63.623047"/>
     </g>
    </g>
   </g>
   <g id="xtick_11">
    <g id="line2d_13">
     <path d="M 271.765831 271.334487 
L 269.928892 272.808999 
" style="fill: none; stroke: #000000; stroke-width: 0.8; stroke-linecap: square"/>
    </g>
    <g id="text_12">
     <!-- 100 -->
     <g transform="translate(255.147104 295.142819) scale(0.1 -0.1)">
      <use xlink:href="#DejaVuSans-31"/>
      <use xlink:href="#DejaVuSans-30" x="63.623047"/>
      <use xlink:href="#DejaVuSans-30" x="127.246094"/>
     </g>
    </g>
   </g>
   <g id="text_13">
    <!-- Switching Cost -->
    <g transform="translate(149.027253 288.613254) rotate(-349.705906) scale(0.1 -0.1)">
     <defs>
      <path id="DejaVuSans-53" d="M 3425 4513 
L 3425 3897 
Q 3066 4069 2747 4153 
Q 2428 4238 2131 4238 
Q 1616 4238 1336 4038 
Q 1056 3838 1056 3469 
Q 1056 3159 1242 3001 
Q 1428 2844 1947 2747 
L 2328 2669 
Q 3034 2534 3370 2195 
Q 3706 1856 3706 1288 
Q 3706 609 3251 259 
Q 2797 -91 1919 -91 
Q 1588 -91 1214 -16 
Q 841 59 441 206 
L 441 856 
Q 825 641 1194 531 
Q 1563 422 1919 422 
Q 2459 422 2753 634 
Q 3047 847 3047 1241 
Q 3047 1584 2836 1778 
Q 2625 1972 2144 2069 
L 1759 2144 
Q 1053 2284 737 2584 
Q 422 2884 422 3419 
Q 422 4038 858 4394 
Q 1294 4750 2059 4750 
Q 2388 4750 2728 4690 
Q 3069 4631 3425 4513 
z
" transform="scale(0.015625)"/>
      <path id="DejaVuSans-77" d="M 269 3500 
L 844 3500 
L 1563 769 
L 2278 3500 
L 2956 3500 
L 3675 769 
L 4391 3500 
L 4966 3500 
L 4050 0 
L 3372 0 
L 2619 2869 
L 1863 0 
L 1184 0 
L 269 3500 
z
" transform="scale(0.015625)"/>
      <path id="DejaVuSans-69" d="M 603 3500 
L 1178 3500 
L 1178 0 
L 603 0 
L 603 3500 
z
M 603 4863 
L 1178 4863 
L 1178 4134 
L 603 4134 
L 603 4863 
z
" transform="scale(0.015625)"/>
      <path id="DejaVuSans-63" d="M 3122 3366 
L 3122 2828 
Q 2878 2963 2633 3030 
Q 2388 3097 2138 3097 
Q 1578 3097 1268 2742 
Q 959 2388 959 1747 
Q 959 1106 1268 751 
Q 1578 397 2138 397 
Q 2388 397 2633 464 
Q 2878 531 3122 666 
L 3122 134 
Q 2881 22 2623 -34 
Q 2366 -91 2075 -91 
Q 1284 -91 818 406 
Q 353 903 353 1747 
Q 353 2603 823 3093 
Q 1294 3584 2113 3584 
Q 2378 3584 2631 3529 
Q 2884 3475 3122 3366 
z
" transform="scale(0.015625)"/>
      <path id="DejaVuSans-68" d="M 3513 2113 
L 3513 0 
L 2938 0 
L 2938 2094 
Q 2938 2591 2744 2837 
Q 2550 3084 2163 3084 
Q 1697 3084 1428 2787 
Q 1159 2491 1159 1978 
L 1159 0 
L 581 0 
L 581 4863 
L 1159 4863 
L 1159 2956 
Q 1366 3272 1645 3428 
Q 1925 3584 2291 3584 
Q 2894 3584 3203 3211 
Q 3513 2838 3513 2113 
z
" transform="scale(0.015625)"/>
      <path id="DejaVuSans-67" d="M 2906 1791 
Q 2906 2416 2648 2759 
Q 2391 3103 1925 3103 
Q 1463 3103 1205 2759 
Q 947 2416 947 1791 
Q 947 1169 1205 825 
Q 1463 481 1925 481 
Q 2391 481 2648 825 
Q 2906 1169 2906 1791 
z
M 3481 434 
Q 3481 -459 3084 -895 
Q 2688 -1331 1869 -1331 
Q 1566 -1331 1297 -1286 
Q 1028 -1241 775 -1147 
L 775 -588 
Q 1028 -725 1275 -790 
Q 1522 -856 1778 -856 
Q 2344 -856 2625 -561 
Q 2906 -266 2906 331 
L 2906 616 
Q 2728 306 2450 153 
Q 2172 0 1784 0 
Q 1141 0 747 490 
Q 353 981 353 1791 
Q 353 2603 747 3093 
Q 1141 3584 1784 3584 
Q 2172 3584 2450 3431 
Q 2728 3278 2906 2969 
L 2906 3500 
L 3481 3500 
L 3481 434 
z
" transform="scale(0.015625)"/>
     </defs>
     <use xlink:href="#DejaVuSans-53"/>
     <use xlink:href="#DejaVuSans-77" x="63.476562"/>
     <use xlink:href="#DejaVuSans-69" x="145.263672"/>
     <use xlink:href="#DejaVuSans-74" x="173.046875"/>
     <use xlink:href="#DejaVuSans-63" x="212.255859"/>
     <use xlink:href="#DejaVuSans-68" x="267.236328"/>
     <use xlink:href="#DejaVuSans-69" x="330.615234"/>
     <use xlink:href="#DejaVuSans-6e" x="358.398438"/>
     <use xlink:href="#DejaVuSans-67" x="421.777344"/>
     <use xlink:href="#DejaVuSans-20" x="485.253906"/>
     <use xlink:href="#DejaVuSans-43" x="517.041016"/>
     <use xlink:href="#DejaVuSans-6f" x="586.865234"/>
     <use xlink:href="#DejaVuSans-73" x="648.046875"/>
     <use xlink:href="#DejaVuSans-74" x="700.146484"/>
    </g>
   </g>
  </g>
  <g id="axis3d_3">
   <g id="line2d_14">
    <path d="M 123.821258 245.065829 
L 120.492256 119.975607 
" style="fill: none; stroke: #000000; stroke-width: 0.8; stroke-linecap: square"/>
   </g>
   <g id="xtick_12">
    <g id="line2d_15">
     <path d="M 124.46072 242.188731 
L 122.344571 243.522232 
" style="fill: none; stroke: #000000; stroke-width: 0.8; stroke-linecap: square"/>
    </g>
    <g id="text_14">
     <!-- 0 -->
     <g transform="translate(100.731635 252.597094) scale(0.1 -0.1)">
      <use xlink:href="#DejaVuSans-30"/>
     </g>
    </g>
   </g>
   <g id="xtick_13">
    <g id="line2d_16">
     <path d="M 123.943631 222.637987 
L 121.816681 223.928832 
" style="fill: none; stroke: #000000; stroke-width: 0.8; stroke-linecap: square"/>
    </g>
    <g id="text_15">
     <!-- 10 -->
     <g transform="translate(96.937946 232.956499) scale(0.1 -0.1)">
      <use xlink:href="#DejaVuSans-31"/>
      <use xlink:href="#DejaVuSans-30" x="63.623047"/>
     </g>
    </g>
   </g>
   <g id="xtick_14">
    <g id="line2d_17">
     <path d="M 123.421883 202.911087 
L 121.284023 204.15845 
" style="fill: none; stroke: #000000; stroke-width: 0.8; stroke-linecap: square"/>
    </g>
    <g id="text_16">
     <!-- 20 -->
     <g transform="translate(96.31996 213.138006) scale(0.1 -0.1)">
      <use xlink:href="#DejaVuSans-32"/>
      <use xlink:href="#DejaVuSans-30" x="63.623047"/>
     </g>
    </g>
   </g>
   <g id="xtick_15">
    <g id="line2d_18">
     <path d="M 122.895413 183.005639 
L 120.746531 184.208677 
" style="fill: none; stroke: #000000; stroke-width: 0.8; stroke-linecap: square"/>
    </g>
    <g id="text_17">
     <!-- 30 -->
     <g transform="translate(95.696352 193.139186) scale(0.1 -0.1)">
      <defs>
       <path id="DejaVuSans-33" d="M 2597 2516 
Q 3050 2419 3304 2112 
Q 3559 1806 3559 1356 
Q 3559 666 3084 287 
Q 2609 -91 1734 -91 
Q 1441 -91 1130 -33 
Q 819 25 488 141 
L 488 750 
Q 750 597 1062 519 
Q 1375 441 1716 441 
Q 2309 441 2620 675 
Q 2931 909 2931 1356 
Q 2931 1769 2642 2001 
Q 2353 2234 1838 2234 
L 1294 2234 
L 1294 2753 
L 1863 2753 
Q 2328 2753 2575 2939 
Q 2822 3125 2822 3475 
Q 2822 3834 2567 4026 
Q 2313 4219 1838 4219 
Q 1578 4219 1281 4162 
Q 984 4106 628 3988 
L 628 4550 
Q 988 4650 1302 4700 
Q 1616 4750 1894 4750 
Q 2613 4750 3031 4423 
Q 3450 4097 3450 3541 
Q 3450 3153 3228 2886 
Q 3006 2619 2597 2516 
z
" transform="scale(0.015625)"/>
      </defs>
      <use xlink:href="#DejaVuSans-33"/>
      <use xlink:href="#DejaVuSans-30" x="63.623047"/>
     </g>
    </g>
   </g>
   <g id="xtick_16">
    <g id="line2d_19">
     <path d="M 122.364156 162.919208 
L 120.20414 164.07706 
" style="fill: none; stroke: #000000; stroke-width: 0.8; stroke-linecap: square"/>
    </g>
    <g id="text_18">
     <!-- 40 -->
     <g transform="translate(95.067043 172.957568) scale(0.1 -0.1)">
      <use xlink:href="#DejaVuSans-34"/>
      <use xlink:href="#DejaVuSans-30" x="63.623047"/>
     </g>
    </g>
   </g>
   <g id="xtick_17">
    <g id="line2d_20">
     <path d="M 121.828047 142.649314 
L 119.656783 143.761102 
" style="fill: none; stroke: #000000; stroke-width: 0.8; stroke-linecap: square"/>
    </g>
    <g id="text_19">
     <!-- 50 -->
     <g transform="translate(94.431955 152.590633) scale(0.1 -0.1)">
      <use xlink:href="#DejaVuSans-35"/>
      <use xlink:href="#DejaVuSans-30" x="63.623047"/>
     </g>
    </g>
   </g>
   <g id="xtick_18">
    <g id="line2d_21">
     <path d="M 121.287019 122.193432 
L 119.104391 123.258258 
" style="fill: none; stroke: #000000; stroke-width: 0.8; stroke-linecap: square"/>
    </g>
    <g id="text_20">
     <!-- 60 -->
     <g transform="translate(93.791009 132.035818) scale(0.1 -0.1)">
      <use xlink:href="#DejaVuSans-36"/>
      <use xlink:href="#DejaVuSans-30" x="63.623047"/>
     </g>
    </g>
   </g>
   <g id="text_21">
    <!-- Number of gNB switching -->
    <g transform="translate(73.75486 124.456182) rotate(-271.524442) scale(0.1 -0.1)">
     <defs>
      <path id="DejaVuSans-4e" d="M 628 4666 
L 1478 4666 
L 3547 763 
L 3547 4666 
L 4159 4666 
L 4159 0 
L 3309 0 
L 1241 3903 
L 1241 0 
L 628 0 
L 628 4666 
z
" transform="scale(0.015625)"/>
      <path id="DejaVuSans-75" d="M 544 1381 
L 544 3500 
L 1119 3500 
L 1119 1403 
Q 1119 906 1312 657 
Q 1506 409 1894 409 
Q 2359 409 2629 706 
Q 2900 1003 2900 1516 
L 2900 3500 
L 3475 3500 
L 3475 0 
L 2900 0 
L 2900 538 
Q 2691 219 2414 64 
Q 2138 -91 1772 -91 
Q 1169 -91 856 284 
Q 544 659 544 1381 
z
M 1991 3584 
L 1991 3584 
z
" transform="scale(0.015625)"/>
      <path id="DejaVuSans-6d" d="M 3328 2828 
Q 3544 3216 3844 3400 
Q 4144 3584 4550 3584 
Q 5097 3584 5394 3201 
Q 5691 2819 5691 2113 
L 5691 0 
L 5113 0 
L 5113 2094 
Q 5113 2597 4934 2840 
Q 4756 3084 4391 3084 
Q 3944 3084 3684 2787 
Q 3425 2491 3425 1978 
L 3425 0 
L 2847 0 
L 2847 2094 
Q 2847 2600 2669 2842 
Q 2491 3084 2119 3084 
Q 1678 3084 1418 2786 
Q 1159 2488 1159 1978 
L 1159 0 
L 581 0 
L 581 3500 
L 1159 3500 
L 1159 2956 
Q 1356 3278 1631 3431 
Q 1906 3584 2284 3584 
Q 2666 3584 2933 3390 
Q 3200 3197 3328 2828 
z
" transform="scale(0.015625)"/>
      <path id="DejaVuSans-62" d="M 3116 1747 
Q 3116 2381 2855 2742 
Q 2594 3103 2138 3103 
Q 1681 3103 1420 2742 
Q 1159 2381 1159 1747 
Q 1159 1113 1420 752 
Q 1681 391 2138 391 
Q 2594 391 2855 752 
Q 3116 1113 3116 1747 
z
M 1159 2969 
Q 1341 3281 1617 3432 
Q 1894 3584 2278 3584 
Q 2916 3584 3314 3078 
Q 3713 2572 3713 1747 
Q 3713 922 3314 415 
Q 2916 -91 2278 -91 
Q 1894 -91 1617 61 
Q 1341 213 1159 525 
L 1159 0 
L 581 0 
L 581 4863 
L 1159 4863 
L 1159 2969 
z
" transform="scale(0.015625)"/>
      <path id="DejaVuSans-66" d="M 2375 4863 
L 2375 4384 
L 1825 4384 
Q 1516 4384 1395 4259 
Q 1275 4134 1275 3809 
L 1275 3500 
L 2222 3500 
L 2222 3053 
L 1275 3053 
L 1275 0 
L 697 0 
L 697 3053 
L 147 3053 
L 147 3500 
L 697 3500 
L 697 3744 
Q 697 4328 969 4595 
Q 1241 4863 1831 4863 
L 2375 4863 
z
" transform="scale(0.015625)"/>
      <path id="DejaVuSans-42" d="M 1259 2228 
L 1259 519 
L 2272 519 
Q 2781 519 3026 730 
Q 3272 941 3272 1375 
Q 3272 1813 3026 2020 
Q 2781 2228 2272 2228 
L 1259 2228 
z
M 1259 4147 
L 1259 2741 
L 2194 2741 
Q 2656 2741 2882 2914 
Q 3109 3088 3109 3444 
Q 3109 3797 2882 3972 
Q 2656 4147 2194 4147 
L 1259 4147 
z
M 628 4666 
L 2241 4666 
Q 2963 4666 3353 4366 
Q 3744 4066 3744 3513 
Q 3744 3084 3544 2831 
Q 3344 2578 2956 2516 
Q 3422 2416 3680 2098 
Q 3938 1781 3938 1306 
Q 3938 681 3513 340 
Q 3088 0 2303 0 
L 628 0 
L 628 4666 
z
" transform="scale(0.015625)"/>
     </defs>
     <use xlink:href="#DejaVuSans-4e"/>
     <use xlink:href="#DejaVuSans-75" x="74.804688"/>
     <use xlink:href="#DejaVuSans-6d" x="138.183594"/>
     <use xlink:href="#DejaVuSans-62" x="235.595703"/>
     <use xlink:href="#DejaVuSans-65" x="299.072266"/>
     <use xlink:href="#DejaVuSans-72" x="360.595703"/>
     <use xlink:href="#DejaVuSans-20" x="401.708984"/>
     <use xlink:href="#DejaVuSans-6f" x="433.496094"/>
     <use xlink:href="#DejaVuSans-66" x="494.677734"/>
     <use xlink:href="#DejaVuSans-20" x="529.882812"/>
     <use xlink:href="#DejaVuSans-67" x="561.669922"/>
     <use xlink:href="#DejaVuSans-4e" x="625.146484"/>
     <use xlink:href="#DejaVuSans-42" x="699.951172"/>
     <use xlink:href="#DejaVuSans-20" x="768.554688"/>
     <use xlink:href="#DejaVuSans-73" x="800.341797"/>
     <use xlink:href="#DejaVuSans-77" x="852.441406"/>
     <use xlink:href="#DejaVuSans-69" x="934.228516"/>
     <use xlink:href="#DejaVuSans-74" x="962.011719"/>
     <use xlink:href="#DejaVuSans-63" x="1001.220703"/>
     <use xlink:href="#DejaVuSans-68" x="1056.201172"/>
     <use xlink:href="#DejaVuSans-69" x="1119.580078"/>
     <use xlink:href="#DejaVuSans-6e" x="1147.363281"/>
     <use xlink:href="#DejaVuSans-67" x="1210.742188"/>
    </g>
   </g>
  </g>
  <g id="axes_1">
   <g id="Poly3DCollection_1">
    <path d="M 220.071304 145.623836 
L 218.473882 144.693996 
L 216.839719 138.170471 
L 215.234323 139.085593 
L 213.676872 149.3472 
L 212.038118 146.548423 
L 210.414377 147.485949 
L 216.994166 191.193139 
L 223.304753 188.501365 
L 224.893795 187.481931 
L 226.431692 171.681484 
L 228.051906 185.455877 
L 229.621058 184.449203 
L 231.169423 176.107691 
L 232.728132 175.12304 
L 226.425857 166.828513 
z
" clip-path="url(#p1105db5b6b)" style="fill: #d5dbe5"/>
    <path d="M 232.728132 175.12304 
L 231.169423 176.107691 
L 229.621058 184.449203 
L 228.051906 185.455877 
L 226.431692 171.681484 
L 224.893795 187.481931 
L 223.304753 188.501365 
L 229.660506 189.501664 
L 236.042552 190.506102 
L 237.607639 182.056866 
L 239.17284 184.754084 
L 240.729652 183.741784 
L 242.275715 190.101085 
L 243.820308 185.409779 
L 245.3517 188.070198 
L 239.034599 179.757553 
z
" clip-path="url(#p1105db5b6b)" style="fill: #90b2fe"/>
    <path d="M 245.3517 188.070198 
L 243.820308 185.409779 
L 242.275715 190.101085 
L 240.729652 183.741784 
L 239.17284 184.754084 
L 237.607639 182.056866 
L 236.042552 190.506102 
L 242.448786 195.229839 
L 248.847774 211.074815 
L 250.389311 210.003564 
L 251.92435 208.936829 
L 253.452931 207.874581 
L 254.975096 206.816792 
L 256.490883 205.763434 
L 258.000335 204.71448 
L 251.693438 189.060314 
z
" clip-path="url(#p1105db5b6b)" style="fill: #6282ea"/>
    <path d="M 258.000335 204.71448 
L 256.490883 205.763434 
L 254.975096 206.816792 
L 253.452931 207.874581 
L 251.92435 208.936829 
L 250.389311 210.003564 
L 248.847774 211.074815 
L 255.29547 208.422226 
L 261.762283 209.470949 
L 263.284102 208.397754 
L 264.778404 211.025759 
L 266.286146 209.954714 
L 267.787533 208.888185 
L 269.282605 207.826141 
L 270.797295 203.099407 
L 264.372799 205.739416 
z
" clip-path="url(#p1105db5b6b)" style="fill: #3d50c3"/>
    <path d="M 207.170166 89.708235 
L 205.527233 88.629362 
L 203.891052 89.44354 
L 202.247931 90.261172 
L 200.663874 98.689843 
L 199.009681 99.529229 
L 197.402246 106.083123 
L 203.855473 118.321169 
L 210.414377 147.485949 
L 212.038118 146.548423 
L 213.676872 149.3472 
L 215.234323 139.085593 
L 216.839719 138.170471 
L 218.473882 144.693996 
L 220.071304 145.623836 
L 213.684561 124.31174 
z
" clip-path="url(#p1105db5b6b)" style="fill: #b40426"/>
    <path d="M 270.797295 203.099407 
L 269.282605 207.826141 
L 267.787533 208.888185 
L 266.286146 209.954714 
L 264.778404 211.025759 
L 263.284102 208.397754 
L 261.762283 209.470949 
L 268.23191 214.241429 
L 274.747192 215.305773 
L 276.246401 214.216592 
L 277.739237 213.132042 
L 279.22574 212.052091 
L 280.705953 210.976712 
L 282.179913 209.905874 
L 283.647661 208.83955 
L 277.1963 207.801925 
z
" clip-path="url(#p1105db5b6b)" style="fill: #3d50c3"/>
    <path d="M 210.414377 147.485949 
L 208.757591 144.667391 
L 207.159953 151.254212 
L 205.516127 152.20736 
L 203.986714 168.214851 
L 202.382204 174.83334 
L 200.725325 175.838471 
L 207.182432 186.208878 
L 213.605807 190.966292 
L 215.257973 193.663694 
L 216.881016 192.622447 
L 218.497171 191.585619 
L 220.106484 190.553181 
L 221.708997 189.525106 
L 223.304753 188.501365 
L 216.994166 191.193139 
z
" clip-path="url(#p1105db5b6b)" style="fill: #bfd3f6"/>
    <path d="M 283.647661 208.83955 
L 282.179913 209.905874 
L 280.705953 210.976712 
L 279.22574 212.052091 
L 277.739237 213.132042 
L 276.246401 214.216592 
L 274.747192 215.305773 
L 281.325048 212.64344 
L 287.859628 217.447835 
L 289.337059 216.349521 
L 290.808183 215.255894 
L 292.273042 214.166926 
L 293.731675 213.082586 
L 295.184121 212.002845 
L 296.630421 210.927674 
L 290.125646 209.881458 
z
" clip-path="url(#p1105db5b6b)" style="fill: #3b4cc0"/>
    <path d="M 223.304753 188.501365 
L 221.708997 189.525106 
L 220.106484 190.553181 
L 218.497171 191.585619 
L 216.881016 192.622447 
L 215.257973 193.663694 
L 213.605807 190.966292 
L 220.045115 195.735507 
L 226.489119 196.765927 
L 228.098391 195.711462 
L 229.700792 194.661499 
L 231.296365 193.61601 
L 232.890955 196.297278 
L 234.467202 191.53834 
L 236.042552 190.506102 
L 229.660506 189.501664 
z
" clip-path="url(#p1105db5b6b)" style="fill: #85a8fc"/>
    <path d="M 236.042552 190.506102 
L 234.467202 191.53834 
L 232.890955 196.297278 
L 231.296365 193.61601 
L 229.700792 194.661499 
L 228.098391 195.711462 
L 226.489119 196.765927 
L 232.971769 205.309515 
L 239.459741 217.598786 
L 241.04115 216.499826 
L 242.615808 215.405559 
L 244.183756 214.315954 
L 245.745038 213.230981 
L 247.299697 212.150612 
L 248.847774 211.074815 
L 242.448786 195.229839 
z
" clip-path="url(#p1105db5b6b)" style="fill: #5e7de7"/>
    <path d="M 296.630421 210.927674 
L 295.184121 212.002845 
L 293.731675 213.082586 
L 292.273042 214.166926 
L 290.808183 215.255894 
L 289.337059 216.349521 
L 287.859628 217.447835 
L 294.457125 218.525609 
L 301.082374 219.607917 
L 302.537607 218.500354 
L 303.986603 217.397538 
L 305.429401 216.299438 
L 306.866042 215.206026 
L 308.296564 214.117269 
L 309.721007 213.03314 
L 303.162152 211.978226 
z
" clip-path="url(#p1105db5b6b)" style="fill: #3b4cc0"/>
    <path d="M 248.847774 211.074815 
L 247.299697 212.150612 
L 245.745038 213.230981 
L 244.183756 214.315954 
L 242.615808 215.405559 
L 241.04115 216.499826 
L 239.459741 217.598786 
L 245.957573 218.677195 
L 252.482745 219.760141 
L 254.042816 218.651924 
L 255.596198 217.548459 
L 257.15773 212.718105 
L 258.683067 215.355661 
L 260.216639 214.266268 
L 261.762283 209.470949 
L 255.29547 208.422226 
z
" clip-path="url(#p1105db5b6b)" style="fill: #3d50c3"/>
    <path d="M 197.402246 106.083123 
L 195.71748 105.035062 
L 194.082323 109.709936 
L 192.40269 110.578673 
L 190.736751 113.364767 
L 188.89135 100.788657 
L 187.320363 113.207349 
L 193.858892 125.594994 
L 200.725325 175.838471 
L 202.382204 174.83334 
L 203.986714 168.214851 
L 205.516127 152.20736 
L 207.159953 151.254212 
L 208.757591 144.667391 
L 210.414377 147.485949 
L 203.855473 118.321169 
z
" clip-path="url(#p1105db5b6b)" style="fill: #d24b40"/>
    <path d="M 309.721007 213.03314 
L 308.296564 214.117269 
L 306.866042 215.206026 
L 305.429401 216.299438 
L 303.986603 217.397538 
L 302.537607 218.500354 
L 301.082374 219.607917 
L 307.735549 220.694787 
L 314.416827 221.786248 
L 315.849435 220.669318 
L 317.275877 219.557196 
L 318.696191 218.44985 
L 320.110419 217.34725 
L 321.518599 216.249366 
L 322.920769 215.156166 
L 316.307156 214.092445 
z
" clip-path="url(#p1105db5b6b)" style="fill: #3b4cc0"/>
    <path d="M 261.762283 209.470949 
L 260.216639 214.266268 
L 258.683067 215.355661 
L 257.15773 212.718105 
L 255.596198 217.548459 
L 254.042816 218.651924 
L 252.482745 219.760141 
L 259.03543 220.847653 
L 265.615802 221.939761 
L 267.154117 220.822169 
L 268.685809 219.70939 
L 270.21092 218.601391 
L 271.729493 217.498142 
L 273.24157 216.399613 
L 274.747192 215.305773 
L 268.23191 214.241429 
z
" clip-path="url(#p1105db5b6b)" style="fill: #3c4ec2"/>
    <path d="M 200.725325 175.838471 
L 199.061358 176.847902 
L 197.534153 192.886368 
L 195.730772 180.767072 
L 194.046027 181.793194 
L 192.313349 179.033 
L 190.654691 183.858743 
L 197.064761 181.069204 
L 203.700093 201.078533 
L 205.3726 200.005554 
L 207.037903 198.937196 
L 208.696048 197.873429 
L 210.347083 196.814225 
L 211.991051 195.759554 
L 213.605807 190.966292 
L 207.182432 186.208878 
z
" clip-path="url(#p1105db5b6b)" style="fill: #a7c5fe"/>
    <path d="M 322.920769 215.156166 
L 321.518599 216.249366 
L 320.110419 217.34725 
L 318.696191 218.44985 
L 317.275877 219.557196 
L 315.849435 220.669318 
L 314.416827 221.786248 
L 321.126388 222.882329 
L 327.86441 223.98306 
L 329.273956 222.856644 
L 330.677409 221.735097 
L 332.074809 220.618388 
L 333.466194 219.506485 
L 334.851604 218.399356 
L 336.231078 217.296973 
L 329.562018 216.224333 
z
" clip-path="url(#p1105db5b6b)" style="fill: #3b4cc0"/>
    <path d="M 274.747192 215.305773 
L 273.24157 216.399613 
L 271.729493 217.498142 
L 270.21092 218.601391 
L 268.685809 219.70939 
L 267.154117 220.822169 
L 265.615802 221.939761 
L 272.224037 223.036492 
L 278.860313 224.137878 
L 280.376447 223.010792 
L 281.886025 221.88858 
L 283.38909 220.771209 
L 284.885685 219.658648 
L 286.37585 218.550867 
L 287.859628 217.447835 
L 281.325048 212.64344 
z
" clip-path="url(#p1105db5b6b)" style="fill: #3b4cc0"/>
    <path d="M 213.605807 190.966292 
L 211.991051 195.759554 
L 210.347083 196.814225 
L 208.696048 197.873429 
L 207.037903 198.937196 
L 205.3726 200.005554 
L 203.700093 201.078533 
L 210.205093 205.918305 
L 216.68668 203.188911 
L 218.356559 205.893465 
L 219.982425 201.029395 
L 221.619629 199.956628 
L 223.263899 202.653444 
L 224.872931 197.824923 
L 226.489119 196.765927 
L 220.045115 195.735507 
z
" clip-path="url(#p1105db5b6b)" style="fill: #82a6fb"/>
    <path d="M 226.489119 196.765927 
L 224.872931 197.824923 
L 223.263899 202.653444 
L 221.619629 199.956628 
L 219.982425 201.029395 
L 218.356559 205.893465 
L 216.68668 203.188911 
L 223.207087 200.443169 
L 229.827031 224.292788 
L 231.44988 223.165032 
L 233.065709 222.042153 
L 234.674565 220.92412 
L 236.276493 219.810902 
L 237.871537 218.702467 
L 239.459741 217.598786 
L 232.971769 205.309515 
z
" clip-path="url(#p1105db5b6b)" style="fill: #5f7fe8"/>
    <path d="M 187.320363 113.207349 
L 185.611622 114.091143 
L 183.919499 116.90743 
L 182.122223 112.000296 
L 180.338172 109.003707 
L 178.728637 119.604921 
L 176.983248 120.511932 
L 183.827529 150.415934 
L 190.654691 183.858743 
L 192.313349 179.033 
L 194.046027 181.793194 
L 195.730772 180.767072 
L 197.534153 192.886368 
L 199.061358 176.847902 
L 200.725325 175.838471 
L 193.858892 125.594994 
z
" clip-path="url(#p1105db5b6b)" style="fill: #ed8366"/>
    <path d="M 287.859628 217.447835 
L 286.37585 218.550867 
L 284.885685 219.658648 
L 283.38909 220.771209 
L 281.886025 221.88858 
L 280.376447 223.010792 
L 278.860313 224.137878 
L 285.524808 225.243947 
L 292.217703 226.354729 
L 293.711221 225.218028 
L 295.198254 224.086262 
L 296.678844 222.959399 
L 298.153033 221.837409 
L 299.620863 220.720259 
L 301.082374 219.607917 
L 294.457125 218.525609 
z
" clip-path="url(#p1105db5b6b)" style="fill: #3b4cc0"/>
    <path d="M 239.459741 217.598786 
L 237.871537 218.702467 
L 236.276493 219.810902 
L 234.674565 220.92412 
L 233.065709 222.042153 
L 231.44988 223.165032 
L 229.827031 224.292788 
L 236.389232 225.399517 
L 242.979405 226.510963 
L 244.584708 221.584671 
L 246.174703 224.241141 
L 247.768867 219.339184 
L 249.342364 221.990952 
L 250.915942 220.87314 
L 252.482745 219.760141 
L 245.957573 218.677195 
z
" clip-path="url(#p1105db5b6b)" style="fill: #3c4ec2"/>
    <path d="M 301.082374 219.607917 
L 299.620863 220.720259 
L 298.153033 221.837409 
L 296.678844 222.959399 
L 295.198254 224.086262 
L 293.711221 225.218028 
L 292.217703 226.354729 
L 298.939179 227.470255 
L 305.68942 228.590555 
L 307.159879 227.444114 
L 308.623927 226.302672 
L 310.081604 225.166197 
L 311.532952 224.034656 
L 312.978013 222.908017 
L 314.416827 221.786248 
L 307.735549 220.694787 
z
" clip-path="url(#p1105db5b6b)" style="fill: #3b4cc0"/>
    <path d="M 252.482745 219.760141 
L 250.915942 220.87314 
L 249.342364 221.990952 
L 247.768867 219.339184 
L 246.174703 224.241141 
L 244.584708 221.584671 
L 242.979405 226.510963 
L 249.59773 227.627156 
L 256.258755 224.937617 
L 257.839068 223.797827 
L 259.395443 226.458874 
L 260.960685 225.32172 
L 262.51913 224.189504 
L 264.070821 223.062195 
L 265.615802 221.939761 
L 259.03543 220.847653 
z
" clip-path="url(#p1105db5b6b)" style="fill: #3d50c3"/>
    <path d="M 190.654691 183.858743 
L 188.860375 177.280887 
L 187.233911 185.942226 
L 185.51236 186.990766 
L 183.880136 195.679151 
L 182.02162 187.184912 
L 180.302471 190.163934 
L 186.858107 195.049632 
L 193.470811 203.784804 
L 195.189119 202.69088 
L 196.899923 201.601734 
L 198.638882 204.325502 
L 200.333282 203.238477 
L 202.020336 202.156164 
L 203.700093 201.078533 
L 197.064761 181.069204 
z
" clip-path="url(#p1105db5b6b)" style="fill: #adc9fd"/>
    <path d="M 314.416827 221.786248 
L 312.978013 222.908017 
L 311.532952 224.034656 
L 310.081604 225.166197 
L 308.623927 226.302672 
L 307.159879 227.444114 
L 305.68942 228.590555 
L 312.468611 229.715659 
L 319.27694 230.845599 
L 320.723888 229.689293 
L 322.164501 228.538051 
L 323.598818 227.391839 
L 325.026882 226.250625 
L 326.448732 225.114376 
L 327.86441 223.98306 
L 321.126388 222.882329 
z
" clip-path="url(#p1105db5b6b)" style="fill: #3b4cc0"/>
    <path d="M 265.615802 221.939761 
L 264.070821 223.062195 
L 262.51913 224.189504 
L 260.960685 225.32172 
L 259.395443 226.458874 
L 257.839068 223.797827 
L 256.258755 224.937617 
L 262.919557 229.873909 
L 269.623427 231.00453 
L 271.179804 229.847528 
L 272.729364 228.695593 
L 274.27215 227.548694 
L 275.808208 226.406797 
L 277.337581 225.269869 
L 278.860313 224.137878 
L 272.224037 223.036492 
z
" clip-path="url(#p1105db5b6b)" style="fill: #3c4ec2"/>
    <path d="M 203.700093 201.078533 
L 202.020336 202.156164 
L 200.333282 203.238477 
L 198.638882 204.325502 
L 196.899923 201.601734 
L 195.189119 202.69088 
L 193.470811 203.784804 
L 200.054178 208.696015 
L 206.62537 209.781518 
L 208.320666 208.670686 
L 210.008534 207.564722 
L 211.68902 206.463594 
L 213.362175 205.367271 
L 215.028046 204.27572 
L 216.68668 203.188911 
L 210.205093 205.918305 
z
" clip-path="url(#p1105db5b6b)" style="fill: #86a9fc"/>
    <path d="M 176.983248 120.511932 
L 175.453786 136.944591 
L 173.72834 139.826742 
L 171.671361 121.301309 
L 169.863705 120.259263 
L 167.98346 115.272854 
L 166.154804 114.208332 
L 173.359469 158.256465 
L 180.302471 190.163934 
L 182.02162 187.184912 
L 183.880136 195.679151 
L 185.51236 186.990766 
L 187.233911 185.942226 
L 188.860375 177.280887 
L 190.654691 183.858743 
L 183.827529 150.415934 
z
" clip-path="url(#p1105db5b6b)" style="fill: #f18f71"/>
    <path d="M 216.68668 203.188911 
L 215.028046 204.27572 
L 213.362175 205.367271 
L 211.68902 206.463594 
L 210.008534 207.564722 
L 208.320666 208.670686 
L 206.62537 209.781518 
L 213.224886 210.871699 
L 219.939952 231.163558 
L 221.60589 230.005857 
L 223.264528 228.85323 
L 224.915914 227.705642 
L 226.560095 226.563061 
L 228.197118 225.425454 
L 229.827031 224.292788 
L 223.207087 200.443169 
z
" clip-path="url(#p1105db5b6b)" style="fill: #6384eb"/>
    <path d="M 278.860313 224.137878 
L 277.337581 225.269869 
L 275.808208 226.406797 
L 274.27215 227.548694 
L 272.729364 228.695593 
L 271.179804 229.847528 
L 269.623427 231.00453 
L 276.35618 232.140023 
L 283.118004 233.280418 
L 284.651338 232.113413 
L 286.177926 230.951543 
L 287.697812 229.794772 
L 289.211041 228.643069 
L 290.717657 227.496399 
L 292.217703 226.354729 
L 285.524808 225.243947 
z
" clip-path="url(#p1105db5b6b)" style="fill: #3b4cc0"/>
    <path d="M 229.827031 224.292788 
L 228.197118 225.425454 
L 226.560095 226.563061 
L 224.915914 227.705642 
L 223.264528 228.85323 
L 221.60589 230.005857 
L 219.939952 231.163558 
L 226.567678 232.299736 
L 233.224029 233.440822 
L 234.867852 232.27311 
L 236.504441 231.110538 
L 238.133844 229.95307 
L 239.756108 228.800674 
L 241.37128 227.653316 
L 242.979405 226.510963 
L 236.389232 225.399517 
z
" clip-path="url(#p1105db5b6b)" style="fill: #3b4cc0"/>
    <path d="M 292.217703 226.354729 
L 290.717657 227.496399 
L 289.211041 228.643069 
L 287.697812 229.794772 
L 286.177926 230.951543 
L 284.651338 232.113413 
L 283.118004 233.280418 
L 289.909088 234.425748 
L 296.729621 235.576045 
L 298.239452 234.398908 
L 299.742613 233.226972 
L 301.239146 232.060202 
L 302.729096 230.898566 
L 304.212506 229.742027 
L 305.68942 228.590555 
L 298.939179 227.470255 
z
" clip-path="url(#p1105db5b6b)" style="fill: #3b4cc0"/>
    <path d="M 242.979405 226.510963 
L 241.37128 227.653316 
L 239.756108 228.800674 
L 238.133844 229.95307 
L 236.504441 231.110538 
L 234.867852 232.27311 
L 233.224029 233.440822 
L 239.909192 234.586847 
L 246.629419 231.882711 
L 248.244617 234.55999 
L 249.858713 233.387343 
L 251.465692 232.219867 
L 253.065599 231.057529 
L 254.671497 226.082416 
L 256.258755 224.937617 
L 249.59773 227.627156 
z
" clip-path="url(#p1105db5b6b)" style="fill: #3d50c3"/>
    <path d="M 180.302471 190.163934 
L 178.603937 195.074238 
L 176.846013 196.153446 
L 175.023686 193.379065 
L 173.248544 194.460245 
L 171.495576 197.483816 
L 169.736379 200.518128 
L 176.247882 197.707543 
L 183.000571 210.450458 
L 184.76496 209.327198 
L 186.52154 208.208909 
L 188.270365 207.095557 
L 190.011484 205.987111 
L 191.681948 199.114233 
L 193.470811 203.784804 
L 186.858107 195.049632 
z
" clip-path="url(#p1105db5b6b)" style="fill: #adc9fd"/>
    <path d="M 305.68942 228.590555 
L 304.212506 229.742027 
L 302.729096 230.898566 
L 301.239146 232.060202 
L 299.742613 233.226972 
L 298.239452 234.398908 
L 296.729621 235.576045 
L 303.579797 236.731341 
L 310.459808 237.891668 
L 311.945668 236.704267 
L 313.424936 235.522134 
L 314.897653 234.345235 
L 316.363864 233.173536 
L 317.823612 232.007002 
L 319.27694 230.845599 
L 312.468611 229.715659 
z
" clip-path="url(#p1105db5b6b)" style="fill: #3b4cc0"/>
    <path d="M 256.258755 224.937617 
L 254.671497 226.082416 
L 253.065599 231.057529 
L 251.465692 232.219867 
L 249.858713 233.387343 
L 248.244617 234.55999 
L 246.629419 231.882711 
L 253.366706 236.893843 
L 260.139436 238.054879 
L 261.737681 236.866752 
L 263.328832 235.683899 
L 264.912935 234.506285 
L 266.490038 233.333875 
L 268.060187 232.166635 
L 269.623427 231.00453 
L 262.919557 229.873909 
z
" clip-path="url(#p1105db5b6b)" style="fill: #3d50c3"/>
    <path d="M 193.470811 203.784804 
L 191.681948 199.114233 
L 190.011484 205.987111 
L 188.270365 207.095557 
L 186.52154 208.208909 
L 184.76496 209.327198 
L 183.000571 210.450458 
L 189.702606 219.311935 
L 196.333292 220.434103 
L 198.035718 215.409832 
L 199.804164 218.142495 
L 201.494414 213.143544 
L 203.212294 212.017914 
L 204.922596 210.89725 
L 206.62537 209.781518 
L 200.054178 208.696015 
z
" clip-path="url(#p1105db5b6b)" style="fill: #8badfd"/>
    <path d="M 166.154804 114.208332 
L 164.2163 107.182447 
L 162.604865 120.001651 
L 160.78541 120.929355 
L 159.101099 129.804594 
L 157.342143 134.725855 
L 155.615847 141.642786 
L 162.518101 160.398726 
L 169.736379 200.518128 
L 171.495576 197.483816 
L 173.248544 194.460245 
L 175.023686 193.379065 
L 176.846013 196.153446 
L 178.603937 195.074238 
L 180.302471 190.163934 
L 173.359469 158.256465 
z
" clip-path="url(#p1105db5b6b)" style="fill: #ee8669"/>
    <path d="M 206.62537 209.781518 
L 204.922596 210.89725 
L 203.212294 212.017914 
L 201.494414 213.143544 
L 199.804164 218.142495 
L 198.035718 215.409832 
L 196.333292 220.434103 
L 202.927536 213.772195 
L 209.788294 238.21819 
L 211.474047 233.165978 
L 213.202231 235.845763 
L 214.897855 234.667433 
L 216.585984 233.494311 
L 218.266667 232.326364 
L 219.939952 231.163558 
L 213.224886 210.871699 
z
" clip-path="url(#p1105db5b6b)" style="fill: #6282ea"/>
    <path d="M 269.623427 231.00453 
L 268.060187 232.166635 
L 266.490038 233.333875 
L 264.912935 234.506285 
L 263.328832 235.683899 
L 261.737681 236.866752 
L 260.139436 238.054879 
L 266.941738 239.220985 
L 273.773806 240.392193 
L 275.348569 239.193657 
L 276.916311 238.000464 
L 278.477079 236.812579 
L 280.03092 235.629966 
L 281.57788 234.452591 
L 283.118004 233.280418 
L 276.35618 232.140023 
z
" clip-path="url(#p1105db5b6b)" style="fill: #3b4cc0"/>
    <path d="M 219.939952 231.163558 
L 218.266667 232.326364 
L 216.585984 233.494311 
L 214.897855 234.667433 
L 213.202231 235.845763 
L 211.474047 233.165978 
L 209.788294 238.21819 
L 216.482723 239.385009 
L 223.206455 240.556936 
L 224.894706 239.357665 
L 226.575429 238.163742 
L 228.248673 236.975131 
L 229.914488 235.791797 
L 231.572924 234.613706 
L 233.224029 233.440822 
L 226.567678 232.299736 
z
" clip-path="url(#p1105db5b6b)" style="fill: #3b4cc0"/>
    <path d="M 283.118004 233.280418 
L 281.57788 234.452591 
L 280.03092 235.629966 
L 278.477079 236.812579 
L 276.916311 238.000464 
L 275.348569 239.193657 
L 273.773806 240.392193 
L 280.67233 237.676308 
L 287.570765 238.850319 
L 289.122859 237.648915 
L 290.622691 240.337301 
L 292.159655 239.13901 
L 293.689768 237.946061 
L 295.213075 236.758417 
L 296.729621 235.576045 
L 289.909088 234.425748 
z
" clip-path="url(#p1105db5b6b)" style="fill: #3d50c3"/>
    <path d="M 233.224029 233.440822 
L 231.572924 234.613706 
L 229.914488 235.791797 
L 228.248673 236.975131 
L 226.575429 238.163742 
L 224.894706 239.357665 
L 223.206455 240.556936 
L 229.959682 241.734005 
L 236.742599 242.916248 
L 238.407873 241.70642 
L 240.065689 240.502011 
L 241.717838 235.425156 
L 243.362338 234.239071 
L 244.999516 233.058268 
L 246.629419 231.882711 
L 239.909192 234.586847 
z
" clip-path="url(#p1105db5b6b)" style="fill: #3d50c3"/>
    <path d="M 169.736379 200.518128 
L 167.907503 199.677885 
L 166.101478 200.782251 
L 164.320859 203.842775 
L 162.636654 212.763938 
L 160.670048 206.084048 
L 159.120368 222.852389 
L 165.464655 208.319555 
L 172.186824 213.367544 
L 173.942083 208.293605 
L 175.863888 214.993874 
L 177.660035 213.850396 
L 179.394601 208.814324 
L 181.228323 211.578722 
L 183.000571 210.450458 
L 176.247882 197.707543 
z
" clip-path="url(#p1105db5b6b)" style="fill: #a7c5fe"/>
    <path d="M 296.729621 235.576045 
L 295.213075 236.758417 
L 293.689768 237.946061 
L 292.159655 239.13901 
L 290.622691 240.337301 
L 289.122859 237.648915 
L 287.570765 238.850319 
L 294.45057 243.936772 
L 301.403676 245.12873 
L 302.93004 243.908961 
L 304.449539 242.694677 
L 305.96222 241.485843 
L 307.468128 240.282421 
L 308.967309 239.084374 
L 310.459808 237.891668 
L 303.579797 236.731341 
z
" clip-path="url(#p1105db5b6b)" style="fill: #3c4ec2"/>
    <path d="M 155.615847 141.642786 
L 153.924602 150.55157 
L 152.036753 149.569434 
L 150.138727 148.582004 
L 148.189407 145.592496 
L 146.479458 154.58353 
L 144.38275 145.587511 
L 151.837384 186.440184 
L 159.120368 222.852389 
L 160.670048 206.084048 
L 162.636654 212.763938 
L 164.320859 203.842775 
L 166.101478 200.782251 
L 167.907503 199.677885 
L 169.736379 200.518128 
L 162.518101 160.398726 
z
" clip-path="url(#p1105db5b6b)" style="fill: #f7b89c"/>
    <path d="M 246.629419 231.882711 
L 244.999516 233.058268 
L 243.362338 234.239071 
L 241.717838 235.425156 
L 240.065689 240.502011 
L 238.407873 241.70642 
L 236.742599 242.916248 
L 243.555403 244.1037 
L 250.39829 245.296395 
L 252.040116 244.075871 
L 253.674554 242.860838 
L 255.301657 241.651259 
L 256.921472 240.447096 
L 258.534049 239.248315 
L 260.139436 238.054879 
L 253.366706 236.893843 
z
" clip-path="url(#p1105db5b6b)" style="fill: #3d50c3"/>
    <path d="M 183.000571 210.450458 
L 181.228323 211.578722 
L 179.394601 208.814324 
L 177.660035 213.850396 
L 175.863888 214.993874 
L 173.942083 208.293605 
L 172.186824 213.367544 
L 179.035556 226.280383 
L 185.73255 227.433135 
L 187.519246 226.253487 
L 189.252776 221.164796 
L 191.06859 223.910069 
L 192.789563 218.84734 
L 194.586229 221.587583 
L 196.333292 220.434103 
L 189.702606 219.311935 
z
" clip-path="url(#p1105db5b6b)" style="fill: #89acfd"/>
    <path d="M 196.333292 220.434103 
L 194.586229 221.587583 
L 192.789563 218.84734 
L 191.06859 223.910069 
L 189.252776 221.164796 
L 187.519246 226.253487 
L 185.73255 227.433135 
L 192.437882 226.623078 
L 199.361292 245.464165 
L 201.084056 240.333676 
L 202.868242 243.027101 
L 204.609907 241.816776 
L 206.343769 240.611873 
L 208.069881 239.412357 
L 209.788294 238.21819 
L 202.927536 213.772195 
z
" clip-path="url(#p1105db5b6b)" style="fill: #5f7fe8"/>
    <path d="M 260.139436 238.054879 
L 258.534049 239.248315 
L 256.921472 240.447096 
L 255.301657 241.651259 
L 253.674554 242.860838 
L 252.040116 244.075871 
L 250.39829 245.296395 
L 257.271462 246.494369 
L 264.175119 247.697657 
L 265.793013 246.466294 
L 267.403597 245.240495 
L 269.006919 244.020223 
L 270.603029 242.80544 
L 272.191975 241.596109 
L 273.773806 240.392193 
L 266.941738 239.220985 
z
" clip-path="url(#p1105db5b6b)" style="fill: #3b4cc0"/>
    <path d="M 209.788294 238.21819 
L 208.069881 239.412357 
L 206.343769 240.611873 
L 204.609907 241.816776 
L 202.868242 243.027101 
L 201.084056 240.333676 
L 199.361292 245.464165 
L 206.123629 246.662882 
L 212.891726 243.93474 
L 214.62785 242.710416 
L 216.377139 245.40823 
L 218.096018 244.187202 
L 219.807162 242.971669 
L 221.510624 241.761592 
L 223.206455 240.556936 
L 216.482723 239.385009 
z
" clip-path="url(#p1105db5b6b)" style="fill: #3d50c3"/>
    <path d="M 159.120368 222.852389 
L 156.986354 208.345508 
L 155.20788 213.42004 
L 153.269333 210.627428 
L 151.318492 207.817106 
L 158.147969 216.863323 
L 164.847865 218.003632 
L 166.826697 224.734283 
L 168.661961 223.556888 
L 170.488947 222.384804 
L 172.186824 213.367544 
L 165.464655 208.319555 
z
" clip-path="url(#p1105db5b6b)" style="fill: #9fbfff"/>
    <path d="M 273.773806 240.392193 
L 272.191975 241.596109 
L 270.603029 242.80544 
L 269.006919 244.020223 
L 267.403597 245.240495 
L 265.793013 246.466294 
L 264.175119 247.697657 
L 271.109465 248.906293 
L 278.074705 250.120315 
L 279.668176 248.877968 
L 281.254415 247.64126 
L 282.83347 246.410152 
L 284.405392 245.184607 
L 285.970227 243.964586 
L 287.570765 238.850319 
L 280.67233 237.676308 
z
" clip-path="url(#p1105db5b6b)" style="fill: #3c4ec2"/>
    <path d="M 223.206455 240.556936 
L 221.510624 241.761592 
L 219.807162 242.971669 
L 218.096018 244.187202 
L 216.377139 245.40823 
L 214.62785 242.710416 
L 212.891726 243.93474 
L 219.738511 249.076308 
L 226.591459 250.291088 
L 228.302562 249.047965 
L 230.005897 247.810486 
L 231.701516 246.578613 
L 233.389472 245.352307 
L 235.069816 244.131531 
L 236.742599 242.916248 
L 229.959682 241.734005 
z
" clip-path="url(#p1105db5b6b)" style="fill: #3c4ec2"/>
    <path d="M 144.38275 145.587511 
L 142.70625 156.626933 
L 140.493006 143.563908 
L 138.853 156.677202 
L 137.028445 161.741062 
L 144.322586 190.825777 
L 151.318492 207.817106 
L 153.269333 210.627428 
L 155.20788 213.42004 
L 156.986354 208.345508 
L 159.120368 222.852389 
L 151.837384 186.440184 
z
" clip-path="url(#p1105db5b6b)" style="fill: #f6bda2"/>
    <path d="M 172.186824 213.367544 
L 170.488947 222.384804 
L 168.661961 223.556888 
L 166.826697 224.734283 
L 164.847865 218.003632 
L 171.762483 231.031653 
L 178.448794 228.244035 
L 180.269948 227.050736 
L 182.082832 225.862856 
L 183.937766 228.618123 
L 185.73255 227.433135 
L 179.035556 226.280383 
z
" clip-path="url(#p1105db5b6b)" style="fill: #85a8fc"/>
    <path d="M 287.570765 238.850319 
L 285.970227 243.964586 
L 284.405392 245.184607 
L 282.83347 246.410152 
L 281.254415 247.64126 
L 279.668176 248.877968 
L 278.074705 250.120315 
L 285.071045 251.339757 
L 292.098695 252.564656 
L 293.667241 251.311178 
L 295.228636 250.063414 
L 296.782929 248.821326 
L 298.330168 247.584875 
L 299.870401 246.354022 
L 301.403676 245.12873 
L 294.45057 243.936772 
z
" clip-path="url(#p1105db5b6b)" style="fill: #3b4cc0"/>
    <path d="M 236.742599 242.916248 
L 235.069816 244.131531 
L 233.389472 245.352307 
L 231.701516 246.578613 
L 230.005897 247.810486 
L 228.302562 249.047965 
L 226.591459 250.291088 
L 233.475016 251.511293 
L 240.389387 252.736961 
L 242.0766 251.482696 
L 243.756118 250.234152 
L 245.427994 248.991288 
L 247.09228 247.754066 
L 248.749029 246.522448 
L 250.39829 245.296395 
L 243.555403 244.1037 
z
" clip-path="url(#p1105db5b6b)" style="fill: #3b4cc0"/>
    <path d="M 185.73255 227.433135 
L 183.937766 228.618123 
L 182.082832 225.862856 
L 180.269948 227.050736 
L 178.448794 228.244035 
L 185.473398 249.18971 
L 192.251407 250.404996 
L 193.999624 245.220983 
L 195.822493 247.923362 
L 197.595901 246.690978 
L 199.361292 245.464165 
L 192.437882 226.623078 
z
" clip-path="url(#p1105db5b6b)" style="fill: #5b7ae5"/>
    <path d="M 199.361292 245.464165 
L 197.595901 246.690978 
L 195.822493 247.923362 
L 193.999624 245.220983 
L 192.251407 250.404996 
L 199.059695 251.625711 
L 205.898468 252.851891 
L 207.664874 251.597102 
L 209.423222 250.348036 
L 211.147694 245.164641 
L 212.891726 243.93474 
L 206.123629 246.662882 
z
" clip-path="url(#p1105db5b6b)" style="fill: #3d50c3"/>
    <path d="M 250.39829 245.296395 
L 248.749029 246.522448 
L 247.09228 247.754066 
L 245.427994 248.991288 
L 243.756118 250.234152 
L 242.0766 251.482696 
L 240.389387 252.736961 
L 247.33478 253.968128 
L 254.311405 255.204831 
L 255.974227 253.939274 
L 257.629432 252.679514 
L 259.277072 251.425512 
L 260.917199 250.177227 
L 262.549865 248.934622 
L 264.175119 247.697657 
L 257.271462 246.494369 
z
" clip-path="url(#p1105db5b6b)" style="fill: #3b4cc0"/>
    <path d="M 212.891726 243.93474 
L 211.147694 245.164641 
L 209.423222 250.348036 
L 207.664874 251.597102 
L 205.898468 252.851891 
L 212.76793 254.083574 
L 219.668287 255.320797 
L 221.411003 254.054708 
L 223.145733 252.79442 
L 224.872534 251.539893 
L 226.591459 250.291088 
L 219.738511 249.076308 
z
" clip-path="url(#p1105db5b6b)" style="fill: #3c4ec2"/>
    <path d="M 264.175119 247.697657 
L 262.549865 248.934622 
L 260.917199 250.177227 
L 259.277072 251.425512 
L 257.629432 252.679514 
L 255.974227 253.939274 
L 254.311405 255.204831 
L 261.319471 256.447107 
L 268.359193 257.694995 
L 269.997114 256.417993 
L 271.6275 255.146866 
L 273.2504 253.881575 
L 274.865867 252.622079 
L 276.473952 251.368339 
L 278.074705 250.120315 
L 271.109465 248.906293 
z
" clip-path="url(#p1105db5b6b)" style="fill: #3b4cc0"/>
    <path d="M 226.591459 250.291088 
L 224.872534 251.539893 
L 223.145733 252.79442 
L 221.411003 254.054708 
L 219.668287 255.320797 
L 226.59975 256.563597 
L 233.562529 257.812012 
L 235.281053 256.53447 
L 236.991668 255.262808 
L 238.694428 253.996985 
L 240.389387 252.736961 
L 233.475016 251.511293 
z
" clip-path="url(#p1105db5b6b)" style="fill: #3b4cc0"/>
    <path d="M 278.074705 250.120315 
L 276.473952 251.368339 
L 274.865867 252.622079 
L 273.2504 253.881575 
L 271.6275 255.146866 
L 269.997114 256.417993 
L 268.359193 257.694995 
L 275.430784 258.948532 
L 282.534463 260.207758 
L 284.146964 258.919154 
L 285.752012 257.636506 
L 287.349658 256.359772 
L 288.939953 255.088913 
L 290.522949 253.823888 
L 292.098695 252.564656 
L 285.071045 251.339757 
z
" clip-path="url(#p1105db5b6b)" style="fill: #3b4cc0"/>
    <path d="M 240.389387 252.736961 
L 238.694428 253.996985 
L 236.991668 255.262808 
L 235.281053 256.53447 
L 233.562529 257.812012 
L 240.556836 259.066079 
L 247.582886 260.325838 
L 249.276708 259.036688 
L 250.962699 257.753497 
L 252.640913 256.476225 
L 254.311405 255.204831 
L 247.33478 253.968128 
z
" clip-path="url(#p1105db5b6b)" style="fill: #3b4cc0"/>
    <path d="M 254.311405 255.204831 
L 252.640913 256.476225 
L 250.962699 257.753497 
L 249.276708 259.036688 
L 247.582886 260.325838 
L 254.640896 261.591328 
L 261.731085 262.862587 
L 263.399682 261.561669 
L 265.060529 260.266792 
L 266.713682 258.977915 
L 268.359193 257.694995 
L 261.319471 256.447107 
z
" clip-path="url(#p1105db5b6b)" style="fill: #3b4cc0"/>
    <path d="M 268.359193 257.694995 
L 266.713682 258.977915 
L 265.060529 260.266792 
L 263.399682 261.561669 
L 261.731085 262.862587 
L 268.853672 264.139655 
L 276.00888 265.422572 
L 277.651719 264.109724 
L 279.286894 262.803001 
L 280.914457 261.502359 
L 282.534463 260.207758 
L 275.430784 258.948532 
z
" clip-path="url(#p1105db5b6b)" style="fill: #3b4cc0"/>
   </g>
  </g>
 </g>
 <defs>
  <clipPath id="p1105db5b6b">
   <rect x="103.104" y="41.472" width="266.112" height="266.112"/>
  </clipPath>
 </defs>
</svg>
